<svg xmlns="http://www.w3.org/2000/svg" width="569.387" height="271.324" viewBox="0 0 569.387 271.324">
  <g id="Grupo_56331" data-name="Grupo 56331" transform="translate(-187.216 1466.795)">
    <g id="Grupo_56144" data-name="Grupo 56144" transform="translate(187.216 -1461.633)">
      <g id="Grupo_56143" data-name="Grupo 56143" transform="translate(0 0)">
        <g id="Grupo_56125" data-name="Grupo 56125" transform="translate(0 99.516)">
          <g id="Grupo_56124" data-name="Grupo 56124" transform="translate(185.496 24.773)">
            <rect id="Rectángulo_30318" data-name="Rectángulo 30318" width="23.621" height="59.069" transform="translate(0 5.895)" fill="#8686b2"/>
            <path id="Trazado_125208" data-name="Trazado 125208" d="M491.5-1213.472l13.026-11.161v-53.8l-13.026,5.9Z" transform="translate(-467.875 1278.436)" fill="#5d5d87"/>
          </g>
          <rect id="Rectángulo_30319" data-name="Rectángulo 30319" width="212.176" height="8.791" transform="translate(0 26.272)" fill="#cbcbf7"/>
          <path id="Trazado_125209" data-name="Trazado 125209" d="M399.392-1288.209H187.216v-26.272H437.228Z" transform="translate(-187.216 1314.481)" fill="#fff"/>
          <path id="Trazado_125210" data-name="Trazado 125210" d="M495.946-1288.209v8.791l37.836-26.385v-8.678Z" transform="translate(-283.77 1314.481)" fill="#afaff2"/>
        </g>
        <g id="Grupo_56142" data-name="Grupo 56142">
          <g id="Grupo_56135" data-name="Grupo 56135" transform="translate(105.107)">
            <g id="Grupo_56127" data-name="Grupo 56127">
              <g id="Grupo_56126" data-name="Grupo 56126" transform="translate(40.672 79.097)">
                <rect id="Rectángulo_30320" data-name="Rectángulo 30320" width="21.022" height="27.145" transform="translate(4.459)" fill="#3e3e4f"/>
                <rect id="Rectángulo_30321" data-name="Rectángulo 30321" width="30.896" height="4.778" transform="translate(0 24.809)" fill="#8686b2"/>
              </g>
              <rect id="Rectángulo_30322" data-name="Rectángulo 30322" width="116.847" height="87.485" fill="#5d5d87"/>
              <path id="Trazado_125211" data-name="Trazado 125211" d="M512.989-1374.613l-2.816,2.814v-87.485l2.816,1.221Z" transform="translate(-393.326 1459.284)" fill="#3e3e4f"/>
              <rect id="Rectángulo_30323" data-name="Rectángulo 30323" width="116.847" height="14.121" transform="translate(0 73.364)" fill="#fff"/>
            </g>
            <g id="Grupo_56134" data-name="Grupo 56134" transform="translate(3.406 3.309)">
              <rect id="Rectángulo_30324" data-name="Rectángulo 30324" width="109.887" height="70.055" fill="#8686b2"/>
              <rect id="Rectángulo_30325" data-name="Rectángulo 30325" width="66.25" height="66.251" transform="translate(5.733 3.805)" fill="#cbcbf7"/>
              <g id="Grupo_56129" data-name="Grupo 56129" transform="translate(75.169)">
                <rect id="Rectángulo_30326" data-name="Rectángulo 30326" width="31.715" height="70.055" fill="#3e3e4f"/>
                <g id="Grupo_56128" data-name="Grupo 56128" transform="translate(3.185 19.73)">
                  <rect id="Rectángulo_30327" data-name="Rectángulo 30327" width="28.53" height="50.325" fill="#cbcbf7"/>
                  <rect id="Rectángulo_30328" data-name="Rectángulo 30328" width="3.185" height="42.362" transform="translate(1.911 4.459)" fill="#8686b2"/>
                  <rect id="Rectángulo_30329" data-name="Rectángulo 30329" width="14.97" height="11.466" transform="translate(10.081 4.459)" fill="#08aaf3"/>
                  <rect id="Rectángulo_30330" data-name="Rectángulo 30330" width="14.97" height="9.175" transform="translate(10.081 20.703)" fill="#fff102"/>
                  <rect id="Rectángulo_30331" data-name="Rectángulo 30331" width="14.97" height="13.059" transform="translate(10.081 33.762)" fill="#f20090"/>
                </g>
                <rect id="Rectángulo_30332" data-name="Rectángulo 30332" width="23.14" height="12.467" transform="translate(5.096 3.805)" fill="#fff"/>
              </g>
              <g id="Grupo_56133" data-name="Grupo 56133" transform="translate(20.5 8.901)">
                <path id="Trazado_125212" data-name="Trazado 125212" d="M401.031-1385.46H374.938v-56.058h36.718v43.269Z" transform="translate(-374.938 1441.518)" fill="#fff"/>
                <path id="Trazado_125213" data-name="Trazado 125213" d="M412.906-1365.77v-12.789H423.53Z" transform="translate(-386.812 1421.828)" fill="#d2c0d8"/>
                <g id="Grupo_56132" data-name="Grupo 56132" transform="translate(2.528 5.022)">
                  <g id="Grupo_56130" data-name="Grupo 56130">
                    <line id="Línea_146" data-name="Línea 146" y1="10.624" transform="translate(1.738)" fill="none" stroke="#d2c0d8" stroke-linecap="round" stroke-miterlimit="10" stroke-width="1"/>
                    <line id="Línea_147" data-name="Línea 147" x2="10.431" transform="translate(0 1.352)" fill="none" stroke="#d2c0d8" stroke-linecap="round" stroke-miterlimit="10" stroke-width="1"/>
                    <line id="Línea_148" data-name="Línea 148" x2="9.658" transform="translate(21.055 1.352)" fill="none" stroke="#d2c0d8" stroke-linecap="round" stroke-miterlimit="10" stroke-width="1"/>
                    <line id="Línea_149" data-name="Línea 149" y2="10.624" transform="translate(29.554)" fill="none" stroke="#d2c0d8" stroke-linecap="round" stroke-miterlimit="10" stroke-width="1"/>
                    <line id="Línea_150" data-name="Línea 150" y2="11.735" transform="translate(1.738 35.107)" fill="none" stroke="#d2c0d8" stroke-linecap="round" stroke-miterlimit="10" stroke-width="1"/>
                    <line id="Línea_151" data-name="Línea 151" x2="10.431" transform="translate(0 45.249)" fill="none" stroke="#d2c0d8" stroke-linecap="round" stroke-miterlimit="10" stroke-width="1"/>
                  </g>
                  <g id="Grupo_56131" data-name="Grupo 56131" transform="translate(1.738 9.755)">
                    <line id="Línea_152" data-name="Línea 152" y2="28.492" transform="translate(14.093)" fill="none" stroke="#d2c0d8" stroke-linecap="round" stroke-miterlimit="10" stroke-width="1"/>
                    <line id="Línea_153" data-name="Línea 153" x2="27.816" transform="translate(0 14.246)" fill="none" stroke="#d2c0d8" stroke-linecap="round" stroke-miterlimit="10" stroke-width="1"/>
                  </g>
                  <circle id="Elipse_4234" data-name="Elipse 4234" cx="8.185" cy="8.185" r="8.185" transform="translate(7.646 15.815)" fill="none" stroke="#d2c0d8" stroke-linecap="round" stroke-miterlimit="10" stroke-width="1"/>
                </g>
              </g>
            </g>
          </g>
          <g id="Grupo_56136" data-name="Grupo 56136" transform="translate(90.923 111.131)">
            <path id="Trazado_125214" data-name="Trazado 125214" d="M416.873-1288.985H319.514l17.093-8.6h92.619Z" transform="translate(-319.514 1297.581)" fill="#8686b2"/>
            <rect id="Rectángulo_30333" data-name="Rectángulo 30333" width="97.359" height="3.042" transform="translate(0 8.595)" fill="#333359"/>
            <path id="Trazado_125215" data-name="Trazado 125215" d="M461.178-1285.944l12.354-8.987v-2.65l-12.354,8.6Z" transform="translate(-363.819 1297.581)" fill="#5d5d87"/>
          </g>
          <g id="Grupo_56141" data-name="Grupo 56141" transform="translate(0 0.547)">
            <g id="Grupo_56137" data-name="Grupo 56137" transform="translate(0.068 79.097)">
              <rect id="Rectángulo_30334" data-name="Rectángulo 30334" width="21.022" height="27.145" fill="#3e3e4f"/>
              <rect id="Rectángulo_30335" data-name="Rectángulo 30335" width="26.437" height="4.778" transform="translate(0 24.809)" fill="#8686b2"/>
            </g>
            <rect id="Rectángulo_30336" data-name="Rectángulo 30336" width="71.784" height="87.485" fill="#3e3e4f"/>
            <path id="Trazado_125216" data-name="Trazado 125216" d="M294.483-1373.817,291.667-1371v-87.485l2.816,1.221Z" transform="translate(-219.882 1458.488)" fill="#5d5d87"/>
            <rect id="Rectángulo_30337" data-name="Rectángulo 30337" width="71.784" height="14.121" transform="translate(0 73.364)" fill="#8686b2"/>
            <rect id="Rectángulo_30338" data-name="Rectángulo 30338" width="64.764" height="64.764" transform="translate(0 4.549)" fill="#fff"/>
            <g id="Grupo_56140" data-name="Grupo 56140" transform="translate(9.589 13.332)">
              <g id="Grupo_56138" data-name="Grupo 56138" transform="translate(0.09)">
                <path id="Trazado_125217" data-name="Trazado 125217" d="M236.291-1439.089c6.137,6.965,14.613,17.212,7.3,24.189a10.9,10.9,0,0,1-14.776.337C221.75-1421.024,229.652-1431.661,236.291-1439.089Z" transform="translate(-209.037 1439.089)" fill="#f20090"/>
                <path id="Trazado_125218" data-name="Trazado 125218" d="M211.547-1438.84c6.137,6.964,14.613,17.212,7.3,24.188a10.9,10.9,0,0,1-14.776.338C197.006-1420.775,204.908-1431.412,211.547-1438.84Z" transform="translate(-201.299 1439.011)" fill="#08aaf3"/>
              </g>
              <g id="Grupo_56139" data-name="Grupo 56139" transform="translate(0 22.923)">
                <path id="Trazado_125219" data-name="Trazado 125219" d="M211.415-1405.735c6.137,6.964,14.614,17.212,7.3,24.189a10.9,10.9,0,0,1-14.776.337C196.875-1387.67,204.777-1398.307,211.415-1405.735Z" transform="translate(-201.168 1405.735)" fill="#fff102"/>
                <path id="Trazado_125220" data-name="Trazado 125220" d="M236.379-1405.735c6.137,6.964,14.613,17.212,7.3,24.189a10.9,10.9,0,0,1-14.776.337C221.838-1387.67,229.74-1398.307,236.379-1405.735Z" transform="translate(-208.975 1405.735)" fill="#222020"/>
              </g>
            </g>
          </g>
        </g>
      </g>
    </g>
    <g id="Grupo_56153" data-name="Grupo 56153" transform="translate(668.832 -1455.421)">
      <rect id="Rectángulo_30339" data-name="Rectángulo 30339" width="87.77" height="99.134" transform="translate(0 0)" fill="#f4f6ff"/>
      <g id="Grupo_56145" data-name="Grupo 56145" transform="translate(7.749 8.474)">
        <rect id="Rectángulo_30340" data-name="Rectángulo 30340" width="12.278" height="12.278" fill="#bbb8db" opacity="0.1"/>
        <rect id="Rectángulo_30341" data-name="Rectángulo 30341" width="12.278" height="12.278" transform="translate(0 18.305)" fill="#bbb8db" opacity="0.2"/>
        <rect id="Rectángulo_30342" data-name="Rectángulo 30342" width="12.278" height="12.278" transform="translate(0 36.609)" fill="#bbb8db" opacity="0.3"/>
        <rect id="Rectángulo_30343" data-name="Rectángulo 30343" width="12.278" height="12.278" transform="translate(0 54.913)" fill="#bbb8db" opacity="0.5"/>
        <rect id="Rectángulo_30344" data-name="Rectángulo 30344" width="12.278" height="12.278" transform="translate(0 73.218)" fill="#bbb8db" opacity="0.8"/>
      </g>
      <g id="Grupo_56146" data-name="Grupo 56146" transform="translate(27.658 8.474)">
        <rect id="Rectángulo_30345" data-name="Rectángulo 30345" width="12.278" height="12.278" fill="#9087bb" opacity="0.1"/>
        <rect id="Rectángulo_30346" data-name="Rectángulo 30346" width="12.278" height="12.278" transform="translate(0 18.305)" fill="#9087bb" opacity="0.2"/>
        <rect id="Rectángulo_30347" data-name="Rectángulo 30347" width="12.278" height="12.278" transform="translate(0 36.609)" fill="#9087bb" opacity="0.4"/>
        <rect id="Rectángulo_30348" data-name="Rectángulo 30348" width="12.278" height="12.278" transform="translate(0 54.913)" fill="#9087bb" opacity="0.5"/>
        <rect id="Rectángulo_30349" data-name="Rectángulo 30349" width="12.278" height="12.278" transform="translate(0 73.218)" fill="#9087bb" opacity="0.7"/>
      </g>
      <g id="Grupo_56147" data-name="Grupo 56147" transform="translate(47.788 8.474)">
        <rect id="Rectángulo_30350" data-name="Rectángulo 30350" width="12.278" height="12.278" fill="#ecccbc" opacity="0.1"/>
        <rect id="Rectángulo_30351" data-name="Rectángulo 30351" width="12.278" height="12.278" transform="translate(0 18.305)" fill="#ecccbc" opacity="0.2"/>
        <rect id="Rectángulo_30352" data-name="Rectángulo 30352" width="12.278" height="12.278" transform="translate(0 36.609)" fill="#ecccbc" opacity="0.4"/>
        <rect id="Rectángulo_30353" data-name="Rectángulo 30353" width="12.278" height="12.278" transform="translate(0 54.913)" fill="#ecccbc" opacity="0.5"/>
        <rect id="Rectángulo_30354" data-name="Rectángulo 30354" width="12.278" height="12.278" transform="translate(0 73.218)" fill="#ecccbc" opacity="0.7"/>
      </g>
      <g id="Grupo_56148" data-name="Grupo 56148" transform="translate(65.391 8.474)">
        <rect id="Rectángulo_30355" data-name="Rectángulo 30355" width="15.688" height="1.072" fill="#667dc6" opacity="0.5"/>
        <rect id="Rectángulo_30356" data-name="Rectángulo 30356" width="15.688" height="1.072" transform="translate(0 2.478)" fill="#667dc6" opacity="0.5"/>
      </g>
      <g id="Grupo_56149" data-name="Grupo 56149" transform="translate(65.391 26.684)">
        <rect id="Rectángulo_30357" data-name="Rectángulo 30357" width="15.688" height="1.072" fill="#667dc6" opacity="0.5"/>
        <rect id="Rectángulo_30358" data-name="Rectángulo 30358" width="15.688" height="1.072" transform="translate(0 2.478)" fill="#667dc6" opacity="0.5"/>
      </g>
      <g id="Grupo_56150" data-name="Grupo 56150" transform="translate(65.391 44.895)">
        <rect id="Rectángulo_30359" data-name="Rectángulo 30359" width="15.688" height="1.072" fill="#667dc6" opacity="0.5"/>
        <rect id="Rectángulo_30360" data-name="Rectángulo 30360" width="15.688" height="1.072" transform="translate(0 2.478)" fill="#667dc6" opacity="0.5"/>
      </g>
      <g id="Grupo_56151" data-name="Grupo 56151" transform="translate(65.391 63.105)">
        <rect id="Rectángulo_30361" data-name="Rectángulo 30361" width="15.688" height="1.072" fill="#667dc6" opacity="0.5"/>
        <rect id="Rectángulo_30362" data-name="Rectángulo 30362" width="15.688" height="1.072" transform="translate(0 2.478)" fill="#667dc6" opacity="0.5"/>
      </g>
      <g id="Grupo_56152" data-name="Grupo 56152" transform="translate(65.391 81.316)">
        <rect id="Rectángulo_30363" data-name="Rectángulo 30363" width="15.688" height="1.072" fill="#667dc6" opacity="0.5"/>
        <rect id="Rectángulo_30364" data-name="Rectángulo 30364" width="15.688" height="1.072" transform="translate(0 2.478)" fill="#667dc6" opacity="0.5"/>
      </g>
    </g>
    <g id="Grupo_56256" data-name="Grupo 56256" transform="translate(356.972 -1466.795)">
      <g id="Grupo_56255" data-name="Grupo 56255">
        <g id="Grupo_56183" data-name="Grupo 56183" transform="translate(0 47.691)">
          <g id="Grupo_56176" data-name="Grupo 56176">
            <g id="Grupo_56170" data-name="Grupo 56170">
              <g id="Grupo_56168" data-name="Grupo 56168" transform="translate(0 16.093)">
                <g id="Grupo_56156" data-name="Grupo 56156" transform="translate(14.334 73.462)">
                  <g id="Grupo_56154" data-name="Grupo 56154" transform="translate(0.191)">
                    <path id="Trazado_125221" data-name="Trazado 125221" d="M641.191-1259.132a6.611,6.611,0,0,1-6.661,6.561l-172.612-1.3a6.611,6.611,0,0,1-6.56-6.66h0a6.611,6.611,0,0,1,6.66-6.561l172.613,1.3a6.611,6.611,0,0,1,6.561,6.661Z" transform="translate(-455.358 1267.094)" fill="#2c5576"/>
                    <path id="Trazado_125222" data-name="Trazado 125222" d="M719.776-1257.3a4.9,4.9,0,0,1-4.933,4.859,4.9,4.9,0,0,1-4.859-4.933,4.9,4.9,0,0,1,4.933-4.859A4.9,4.9,0,0,1,719.776-1257.3Z" transform="translate(-534.991 1265.573)" fill="#9ea8b2"/>
                  </g>
                  <g id="Grupo_56155" data-name="Grupo 56155" transform="translate(0 25.341)">
                    <path id="Trazado_125223" data-name="Trazado 125223" d="M640.913-1222.259a6.611,6.611,0,0,1-6.66,6.561L461.641-1217a6.611,6.611,0,0,1-6.561-6.66h0a6.611,6.611,0,0,1,6.661-6.561l172.612,1.3a6.611,6.611,0,0,1,6.561,6.661Z" transform="translate(-455.08 1230.22)" fill="#2c5576"/>
                    <path id="Trazado_125224" data-name="Trazado 125224" d="M719.5-1221.186a4.9,4.9,0,0,1-4.933,4.859,4.9,4.9,0,0,1-4.859-4.933,4.9,4.9,0,0,1,4.933-4.859A4.9,4.9,0,0,1,719.5-1221.186Z" transform="translate(-534.715 1228.938)" fill="#9ea8b2"/>
                  </g>
                </g>
                <g id="Grupo_56163" data-name="Grupo 56163" transform="translate(9.114 20.784)">
                  <g id="Grupo_56157" data-name="Grupo 56157" transform="translate(22.51 0)">
                    <rect id="Rectángulo_30365" data-name="Rectángulo 30365" width="162.089" height="11.263" transform="matrix(0.008, -1, 1, 0.008, 0, 162.084)" fill="#9ea8b2"/>
                    <rect id="Rectángulo_30366" data-name="Rectángulo 30366" width="162.089" height="3.24" transform="translate(8.024 162.145) rotate(-89.568)" fill="#004957"/>
                  </g>
                  <g id="Grupo_56158" data-name="Grupo 56158" transform="translate(185.575 1.228)">
                    <rect id="Rectángulo_30367" data-name="Rectángulo 30367" width="162.089" height="11.263" transform="translate(0 162.084) rotate(-89.569)" fill="#9ea8b2"/>
                    <rect id="Rectángulo_30368" data-name="Rectángulo 30368" width="162.089" height="3.969" transform="translate(7.292 162.139) rotate(-89.568)" fill="#2c5576"/>
                  </g>
                  <g id="Grupo_56160" data-name="Grupo 56160" transform="translate(162.892 156.319)">
                    <path id="Trazado_125225" data-name="Trazado 125225" d="M735.92-1104.549l-51.417-.387.054-7.106a4.279,4.279,0,0,1,4.312-4.247l42.858.323a4.278,4.278,0,0,1,4.246,4.311Z" transform="translate(-684.503 1116.289)" fill="#9ea8b2"/>
                    <g id="Grupo_56159" data-name="Grupo 56159" transform="translate(16.776 0.126)">
                      <path id="Trazado_125226" data-name="Trazado 125226" d="M743.554-1104.491l-34.641-.261.054-7.106a4.279,4.279,0,0,1,4.311-4.247l26.083.2a4.278,4.278,0,0,1,4.246,4.311Z" transform="translate(-708.913 1116.105)" fill="#2c5576"/>
                    </g>
                  </g>
                  <g id="Grupo_56162" data-name="Grupo 56162" transform="translate(0 155.091)">
                    <path id="Trazado_125227" data-name="Trazado 125227" d="M498.9-1106.335l-51.416-.387.053-7.106a4.28,4.28,0,0,1,4.312-4.247l42.858.323a4.28,4.28,0,0,1,4.247,4.311Z" transform="translate(-447.484 1118.075)" fill="#9ea8b2"/>
                    <g id="Grupo_56161" data-name="Grupo 56161" transform="translate(16.775 0.126)">
                      <path id="Trazado_125228" data-name="Trazado 125228" d="M506.534-1106.277l-34.641-.261.054-7.105a4.28,4.28,0,0,1,4.312-4.247l26.082.2a4.28,4.28,0,0,1,4.247,4.312Z" transform="translate(-471.893 1117.891)" fill="#2c5576"/>
                    </g>
                  </g>
                </g>
                <g id="Grupo_56167" data-name="Grupo 56167">
                  <g id="Grupo_56166" data-name="Grupo 56166">
                    <path id="Trazado_125229" data-name="Trazado 125229" d="M469.636-1319.2l.408-54.167a17.4,17.4,0,0,0-14,2.259,25.22,25.22,0,0,0-8.741,10.411c-1.968,3.981-3.269,8.181-5.063,12.223-2.228,5.018-5.22,9.8-6.871,14.978-1.467,4.6-1.749,9.722.478,14.041Z" transform="translate(-434.223 1373.985)" fill="#9ea8b2"/>
                    <path id="Trazado_125230" data-name="Trazado 125230" d="M474.3-1319.158l.408-54.167a17.4,17.4,0,0,0-14,2.259,25.235,25.235,0,0,0-8.742,10.411c-1.968,3.983-3.268,8.182-5.062,12.224-2.228,5.018-4.727,9.983-6.871,14.978-2.02,4.706-2.486,9.862.478,14.04Z" transform="translate(-435.531 1373.973)" fill="#2c5576"/>
                    <path id="Trazado_125231" data-name="Trazado 125231" d="M653.534-1318.869l-199.236-1.5s-1.233-14.531,1.1-25.177c2.6-11.854,15.5-24.929,15.5-24.929l183.015,1.379Z" transform="translate(-440.4 1372.888)" fill="#b1b6c1"/>
                    <g id="Grupo_56164" data-name="Grupo 56164" transform="translate(27.392 9.15)">
                      <path id="Trazado_125232" data-name="Trazado 125232" d="M636.677-1358.3l-162.026-1.221a.575.575,0,0,1-.571-.58.576.576,0,0,1,.58-.572l162.026,1.221a.575.575,0,0,1,.571.581A.575.575,0,0,1,636.677-1358.3Z" transform="translate(-474.08 1360.671)" fill="#f2ecea"/>
                    </g>
                    <g id="Grupo_56165" data-name="Grupo 56165" transform="translate(178.031 3.651)">
                      <path id="Trazado_125233" data-name="Trazado 125233" d="M710.194-1368.673s-12.895,13.074-15.5,24.929c-2.336,10.646-1.1,25.177-1.1,25.177l34.778.263.379-50.229Z" transform="translate(-693.27 1368.673)" fill="#d9d5d8"/>
                    </g>
                    <path id="Trazado_125234" data-name="Trazado 125234" d="M732.009-1317.219l.408-54.167a17.4,17.4,0,0,0-14,2.26,25.235,25.235,0,0,0-8.741,10.411c-1.968,3.982-3.268,8.182-5.063,12.224-2.228,5.017-5.22,9.8-6.87,14.978-1.466,4.6-1.748,9.722.478,14.04Z" transform="translate(-516.279 1373.367)" fill="#9ea8b2"/>
                    <path id="Trazado_125235" data-name="Trazado 125235" d="M737.414-1317.178l.408-54.167a17.4,17.4,0,0,0-14,2.26,25.232,25.232,0,0,0-8.742,10.41c-1.967,3.983-3.268,8.182-5.062,12.224-2.228,5.017-5.221,9.8-6.87,14.978-1.467,4.6-1.748,9.722.478,14.04Z" transform="translate(-517.97 1373.354)" fill="#2c5576"/>
                  </g>
                  <rect id="Rectángulo_30369" data-name="Rectángulo 30369" width="22.861" height="162.077" transform="translate(13.971 50.822) rotate(-89.568)" fill="#f2ecea"/>
                  <rect id="Rectángulo_30370" data-name="Rectángulo 30370" width="17.512" height="153.549" transform="translate(18.238 50.368) rotate(-89.568)" fill="#2c5576"/>
                  <rect id="Rectángulo_30371" data-name="Rectángulo 30371" width="9.644" height="147.204" transform="translate(20.209 58.25) rotate(-89.568)" fill="#d6dde6"/>
                </g>
              </g>
              <g id="Grupo_56169" data-name="Grupo 56169" transform="translate(145.7)">
                <path id="Trazado_125236" data-name="Trazado 125236" d="M687.322-1356.574l-29.186-.22,12.27-40.517,29.186.22,0,22.531Z" transform="translate(-649.951 1397.373)" fill="#2c5576"/>
                <path id="Trazado_125237" data-name="Trazado 125237" d="M675.412-1356.664l-29.186-.22L658.5-1397.4l29.186.22Z" transform="translate(-646.226 1397.401)" fill="#9ea8b2"/>
                <path id="Trazado_125238" data-name="Trazado 125238" d="M674.919-1358.624l-21.7-.163a1.125,1.125,0,0,1-1.069-1.452l9.428-31.13a1.126,1.126,0,0,1,1.085-.8l21.7.163a1.126,1.126,0,0,1,1.068,1.452L676-1359.423A1.127,1.127,0,0,1,674.919-1358.624Z" transform="translate(-648.065 1395.764)" fill="#2c5576"/>
                <path id="Trazado_125239" data-name="Trazado 125239" d="M676.378-1357.74l-20.448-.154a1.06,1.06,0,0,1-1.007-1.368l8.886-29.34a1.059,1.059,0,0,1,1.023-.753l20.449.154a1.06,1.06,0,0,1,1.007,1.368l-8.885,29.341A1.061,1.061,0,0,1,676.378-1357.74Z" transform="translate(-648.931 1394.885)" fill="#9ea8b2"/>
                <path id="Trazado_125240" data-name="Trazado 125240" d="M664.346-1390.375a1.339,1.339,0,0,1,.814-.248,80.416,80.416,0,0,1,9.128-.156c.814.032,1.844.255,1.987,1.057a1.667,1.667,0,0,1-.266,1.049,18.444,18.444,0,0,1-4.608,4.92,90.627,90.627,0,0,0-13.463,14.329q3.04-10.155,6.081-20.311A1.339,1.339,0,0,1,664.346-1390.375Z" transform="translate(-649.889 1395.349)" fill="#2c5576"/>
              </g>
            </g>
            <g id="Grupo_56175" data-name="Grupo 56175" transform="translate(204.003 30.672)">
              <g id="Grupo_56171" data-name="Grupo 56171" transform="translate(0 0)">
                <rect id="Rectángulo_30372" data-name="Rectángulo 30372" width="11.195" height="63.767" transform="translate(7.759 11.195) rotate(-89.568)" fill="#2c5576"/>
                <rect id="Rectángulo_30373" data-name="Rectángulo 30373" width="8.182" height="63.767" transform="translate(7.759 11.195) rotate(-89.568)" fill="#12263f"/>
                <rect id="Rectángulo_30374" data-name="Rectángulo 30374" width="33.649" height="64.465" transform="translate(10.659 38.921) rotate(-89.568)" fill="#b5a8ae"/>
                <rect id="Rectángulo_30375" data-name="Rectángulo 30375" width="33.649" height="64.465" transform="matrix(0.008, -1, 1, 0.008, 0, 38.841)" fill="#2c5576"/>
              </g>
              <g id="Grupo_56174" data-name="Grupo 56174" transform="translate(5.008 12.71)">
                <g id="Grupo_56172" data-name="Grupo 56172">
                  <path id="Trazado_125241" data-name="Trazado 125241" d="M745.07-1315.961a3.356,3.356,0,0,1-3.386,3.325h0a3.356,3.356,0,0,1-3.336-3.376l.113-14.939a3.356,3.356,0,0,1,3.386-3.325h0a3.356,3.356,0,0,1,3.336,3.375Z" transform="translate(-738.348 1334.276)" fill="#003f4c"/>
                  <path id="Trazado_125242" data-name="Trazado 125242" d="M761.505-1315.838a3.357,3.357,0,0,1-3.386,3.325h0a3.357,3.357,0,0,1-3.336-3.376l.113-14.939a3.355,3.355,0,0,1,3.386-3.325h0a3.355,3.355,0,0,1,3.335,3.375Z" transform="translate(-743.488 1334.238)" fill="#003f4c"/>
                  <path id="Trazado_125243" data-name="Trazado 125243" d="M777.939-1315.715a3.355,3.355,0,0,1-3.386,3.325h0a3.354,3.354,0,0,1-3.335-3.375l.112-14.94a3.357,3.357,0,0,1,3.386-3.325h0a3.356,3.356,0,0,1,3.336,3.376Z" transform="translate(-748.628 1334.199)" fill="#003f4c"/>
                  <path id="Trazado_125244" data-name="Trazado 125244" d="M794.374-1315.591a3.355,3.355,0,0,1-3.386,3.325h0a3.355,3.355,0,0,1-3.336-3.375l.113-14.94a3.355,3.355,0,0,1,3.386-3.325h0a3.356,3.356,0,0,1,3.336,3.376Z" transform="translate(-753.768 1334.16)" fill="#003f4c"/>
                  <path id="Trazado_125245" data-name="Trazado 125245" d="M810.809-1315.467a3.357,3.357,0,0,1-3.386,3.325h0a3.356,3.356,0,0,1-3.336-3.376l.113-14.939a3.356,3.356,0,0,1,3.386-3.325h0a3.355,3.355,0,0,1,3.335,3.375Z" transform="translate(-758.907 1334.121)" fill="#003f4c"/>
                </g>
                <g id="Grupo_56173" data-name="Grupo 56173" transform="translate(1.015 0.008)">
                  <path id="Trazado_125246" data-name="Trazado 125246" d="M746.547-1315.95a3.356,3.356,0,0,1-3.386,3.325h0a3.356,3.356,0,0,1-3.336-3.376l.113-14.939a3.357,3.357,0,0,1,3.386-3.325h0a3.356,3.356,0,0,1,3.336,3.375Z" transform="translate(-739.825 1334.265)" fill="#fb4d90"/>
                  <path id="Trazado_125247" data-name="Trazado 125247" d="M762.982-1315.826a3.357,3.357,0,0,1-3.386,3.325h0a3.356,3.356,0,0,1-3.336-3.376l.113-14.939a3.356,3.356,0,0,1,3.386-3.325h0a3.355,3.355,0,0,1,3.335,3.375Z" transform="translate(-744.965 1334.227)" fill="#00bbed"/>
                  <path id="Trazado_125248" data-name="Trazado 125248" d="M779.416-1315.7a3.355,3.355,0,0,1-3.386,3.325h0a3.355,3.355,0,0,1-3.335-3.375l.113-14.94a3.356,3.356,0,0,1,3.386-3.325h0a3.356,3.356,0,0,1,3.335,3.376Z" transform="translate(-750.105 1334.188)" fill="#ffd704"/>
                  <path id="Trazado_125249" data-name="Trazado 125249" d="M795.851-1315.58a3.355,3.355,0,0,1-3.386,3.325h0a3.356,3.356,0,0,1-3.336-3.375l.113-14.939a3.355,3.355,0,0,1,3.386-3.325h0a3.356,3.356,0,0,1,3.336,3.375Z" transform="translate(-755.245 1334.149)" fill="#003f4c"/>
                  <path id="Trazado_125250" data-name="Trazado 125250" d="M812.286-1315.456a3.356,3.356,0,0,1-3.386,3.325h0a3.356,3.356,0,0,1-3.336-3.376l.113-14.939a3.355,3.355,0,0,1,3.386-3.325h0a3.355,3.355,0,0,1,3.335,3.375Z" transform="translate(-760.385 1334.11)" fill="#b5a8ae"/>
                </g>
              </g>
            </g>
          </g>
          <g id="Grupo_56182" data-name="Grupo 56182" transform="translate(12.536 60.218)">
            <path id="Trazado_125251" data-name="Trazado 125251" d="M602.025-1308.625l-133.129-1c-13.575,34.918-1.4,76.729-16.432,111.344l139.932-.654a322.808,322.808,0,0,0,5.048-82.811C596.808-1291.055,596.117-1301.463,602.025-1308.625Z" transform="translate(-452.464 1309.731)" fill="#fff"/>
            <g id="Grupo_56181" data-name="Grupo 56181" transform="translate(24.258 38.696)">
              <g id="Grupo_56177" data-name="Grupo 56177" transform="translate(0.181 0)">
                <rect id="Rectángulo_30376" data-name="Rectángulo 30376" width="3.853" height="8.989" transform="translate(0 3.852) rotate(-89.568)" fill="#fb4d90"/>
                <rect id="Rectángulo_30377" data-name="Rectángulo 30377" width="3.853" height="8.989" transform="translate(11.985 3.943) rotate(-89.568)" fill="#fb4d90"/>
                <rect id="Rectángulo_30378" data-name="Rectángulo 30378" width="3.853" height="8.989" transform="translate(23.97 4.033) rotate(-89.568)" fill="#fb4d90"/>
                <rect id="Rectángulo_30379" data-name="Rectángulo 30379" width="3.853" height="8.989" transform="translate(35.955 4.123) rotate(-89.568)" fill="#fb4d90"/>
                <rect id="Rectángulo_30380" data-name="Rectángulo 30380" width="3.853" height="8.989" transform="translate(47.939 4.214) rotate(-89.568)" fill="#fb4d90"/>
                <rect id="Rectángulo_30381" data-name="Rectángulo 30381" width="3.853" height="8.989" transform="translate(59.924 4.304) rotate(-89.568)" fill="#fb4d90"/>
                <rect id="Rectángulo_30382" data-name="Rectángulo 30382" width="3.853" height="8.989" transform="translate(71.909 4.394) rotate(-89.568)" fill="#fb4d90"/>
                <rect id="Rectángulo_30383" data-name="Rectángulo 30383" width="3.853" height="8.989" transform="translate(83.894 4.485) rotate(-89.568)" fill="#fb4d90"/>
                <rect id="Rectángulo_30384" data-name="Rectángulo 30384" width="3.853" height="8.989" transform="translate(95.879 4.575) rotate(-89.568)" fill="#fb4d90"/>
              </g>
              <g id="Grupo_56178" data-name="Grupo 56178" transform="translate(0.121 8.037)">
                <rect id="Rectángulo_30385" data-name="Rectángulo 30385" width="3.852" height="8.989" transform="translate(0 3.852) rotate(-89.568)" fill="#00bbed"/>
                <rect id="Rectángulo_30386" data-name="Rectángulo 30386" width="3.852" height="8.989" transform="translate(11.985 3.942) rotate(-89.568)" fill="#00bbed"/>
                <rect id="Rectángulo_30387" data-name="Rectángulo 30387" width="3.852" height="8.989" transform="translate(23.97 4.033) rotate(-89.568)" fill="#00bbed"/>
                <rect id="Rectángulo_30388" data-name="Rectángulo 30388" width="3.852" height="8.989" transform="translate(35.955 4.123) rotate(-89.568)" fill="#00bbed"/>
                <rect id="Rectángulo_30389" data-name="Rectángulo 30389" width="3.852" height="8.989" transform="translate(47.939 4.213) rotate(-89.568)" fill="#00bbed"/>
                <rect id="Rectángulo_30390" data-name="Rectángulo 30390" width="3.852" height="8.989" transform="translate(59.924 4.304) rotate(-89.568)" fill="#00bbed"/>
                <rect id="Rectángulo_30391" data-name="Rectángulo 30391" width="3.852" height="8.989" transform="translate(71.909 4.394) rotate(-89.568)" fill="#00bbed"/>
                <rect id="Rectángulo_30392" data-name="Rectángulo 30392" width="3.852" height="8.989" transform="translate(83.894 4.484) rotate(-89.568)" fill="#00bbed"/>
                <rect id="Rectángulo_30393" data-name="Rectángulo 30393" width="3.852" height="8.989" transform="translate(95.879 4.575) rotate(-89.568)" fill="#00bbed"/>
              </g>
              <g id="Grupo_56179" data-name="Grupo 56179" transform="translate(0.06 16.074)">
                <rect id="Rectángulo_30394" data-name="Rectángulo 30394" width="3.852" height="8.989" transform="translate(0 3.852) rotate(-89.568)" fill="#b5a8ae"/>
                <rect id="Rectángulo_30395" data-name="Rectángulo 30395" width="3.852" height="8.989" transform="matrix(0.008, -1, 1, 0.008, 11.985, 3.942)" fill="#b5a8ae"/>
                <rect id="Rectángulo_30396" data-name="Rectángulo 30396" width="3.852" height="8.989" transform="translate(23.97 4.033) rotate(-89.568)" fill="#b5a8ae"/>
                <rect id="Rectángulo_30397" data-name="Rectángulo 30397" width="3.852" height="8.989" transform="translate(35.955 4.123) rotate(-89.568)" fill="#b5a8ae"/>
                <rect id="Rectángulo_30398" data-name="Rectángulo 30398" width="3.852" height="8.989" transform="translate(47.939 4.213) rotate(-89.568)" fill="#b5a8ae"/>
                <rect id="Rectángulo_30399" data-name="Rectángulo 30399" width="3.852" height="8.989" transform="translate(59.924 4.304) rotate(-89.568)" fill="#b5a8ae"/>
                <rect id="Rectángulo_30400" data-name="Rectángulo 30400" width="3.852" height="8.989" transform="translate(71.909 4.394) rotate(-89.568)" fill="#b5a8ae"/>
                <rect id="Rectángulo_30401" data-name="Rectángulo 30401" width="3.852" height="8.989" transform="translate(83.894 4.484) rotate(-89.568)" fill="#b5a8ae"/>
                <rect id="Rectángulo_30402" data-name="Rectángulo 30402" width="3.852" height="8.989" transform="translate(95.879 4.574) rotate(-89.568)" fill="#b5a8ae"/>
              </g>
              <g id="Grupo_56180" data-name="Grupo 56180" transform="translate(0 24.11)">
                <rect id="Rectángulo_30403" data-name="Rectángulo 30403" width="3.853" height="8.989" transform="translate(0 3.852) rotate(-89.568)" fill="#ffd704"/>
                <rect id="Rectángulo_30404" data-name="Rectángulo 30404" width="3.853" height="8.989" transform="translate(11.985 3.943) rotate(-89.568)" fill="#ffd704"/>
                <rect id="Rectángulo_30405" data-name="Rectángulo 30405" width="3.852" height="8.989" transform="translate(23.97 4.033) rotate(-89.57)" fill="#ffd704"/>
                <rect id="Rectángulo_30406" data-name="Rectángulo 30406" width="3.852" height="8.989" transform="translate(35.954 4.123) rotate(-89.568)" fill="#ffd704"/>
                <rect id="Rectángulo_30407" data-name="Rectángulo 30407" width="3.852" height="8.989" transform="translate(47.939 4.213) rotate(-89.568)" fill="#ffd704"/>
                <rect id="Rectángulo_30408" data-name="Rectángulo 30408" width="3.852" height="8.989" transform="translate(59.924 4.304) rotate(-89.568)" fill="#ffd704"/>
                <rect id="Rectángulo_30409" data-name="Rectángulo 30409" width="3.852" height="8.989" transform="translate(71.909 4.394) rotate(-89.568)" fill="#ffd704"/>
                <rect id="Rectángulo_30410" data-name="Rectángulo 30410" width="3.852" height="8.989" transform="translate(83.894 4.484) rotate(-89.568)" fill="#ffd704"/>
                <rect id="Rectángulo_30411" data-name="Rectángulo 30411" width="3.852" height="8.989" transform="translate(95.879 4.575) rotate(-89.568)" fill="#ffd704"/>
              </g>
            </g>
            <path id="Trazado_125252" data-name="Trazado 125252" d="M597.357-1276.424l-109.244-.823c-.356-12.08,1.284-23.17,6.4-32.532l108.109.814A60.3,60.3,0,0,0,597.357-1276.424Z" transform="translate(-463.599 1309.779)" fill="#00bbed"/>
          </g>
        </g>
        <g id="Grupo_56254" data-name="Grupo 56254" transform="translate(24.621)">
          <g id="Grupo_56191" data-name="Grupo 56191" transform="translate(30.986 28.652)">
            <path id="Trazado_125253" data-name="Trazado 125253" d="M539.229-1393c-2.345-4.991-4.8-9.927-7.55-14.707a13.91,13.91,0,0,0-3.825-4.762c-1.69-1.166-4.825-2.07-6.464-.832l-4.4,2.372c-2.716,3.691-1.994,8.835-.7,13.232a67.648,67.648,0,0,0,9.834,20.133C533.35-1380.751,538.778-1387.139,539.229-1393Z" transform="translate(-515.134 1421.598)" fill="#db6334"/>
            <path id="Trazado_125254" data-name="Trazado 125254" d="M573.071-1401c-7.591,9.917-13.573,16.372-23.332,24.164-1.8-4.056-3.623-8.111-5.512-12.131-.45,5.858-5.878,12.246-13.109,15.436a68.2,68.2,0,0,0,21.381,19.517c7.318-5.5,13.176-12.748,17.99-20.532s4.929-13.138,8.742-21.458C576.882-1397.513,575.421-1399.485,573.071-1401Z" transform="translate(-520.133 1417.565)" fill="#ecab82"/>
            <g id="Grupo_56190" data-name="Grupo 56190" transform="translate(55.772)">
              <path id="Trazado_125255" data-name="Trazado 125255" d="M631.133-1390.437c.543-2.9,1.721-5.672,1.948-8.61.338-4.368-1.441-8.588-2.186-12.9a27.737,27.737,0,0,1,.951-13.154H598.826a20.349,20.349,0,0,0-2.207,10.984c.166,4.086.986,8.123,1.188,12.209.284,5.732-.651,11.444-1.183,17.158a49.629,49.629,0,0,0,.148,12.745h36.984C631.737-1378.007,629.976-1384.264,631.133-1390.437Z" transform="translate(-596.286 1425.104)" fill="#fff"/>
              <g id="Grupo_56189" data-name="Grupo 56189" transform="translate(3.805 8.607)">
                <g id="Grupo_56188" data-name="Grupo 56188">
                  <g id="Grupo_56184" data-name="Grupo 56184" transform="translate(0.041)">
                    <path id="Trazado_125256" data-name="Trazado 125256" d="M607.041-1410.4h-5.158c.053-.879.1-1.316.222-2.182h5.158C607.138-1411.714,607.094-1411.277,607.041-1410.4Z" transform="translate(-601.883 1412.58)" fill="#fb4d90"/>
                    <path id="Trazado_125257" data-name="Trazado 125257" d="M617.047-1410.4h-5.158c.054-.879.1-1.316.223-2.182h5.158C617.144-1411.714,617.1-1411.277,617.047-1410.4Z" transform="translate(-605.013 1412.58)" fill="#fb4d90"/>
                    <path id="Trazado_125258" data-name="Trazado 125258" d="M627.053-1410.4H621.9a21.926,21.926,0,0,1,.223-2.182h5.157C627.151-1411.714,627.107-1411.277,627.053-1410.4Z" transform="translate(-608.142 1412.58)" fill="#fb4d90"/>
                    <path id="Trazado_125259" data-name="Trazado 125259" d="M637.06-1410.4H631.9c.053-.879.1-1.316.223-2.182h5.158C637.158-1411.714,637.114-1411.277,637.06-1410.4Z" transform="translate(-611.272 1412.58)" fill="#fb4d90"/>
                  </g>
                  <g id="Grupo_56185" data-name="Grupo 56185" transform="translate(0 4.583)">
                    <path id="Trazado_125260" data-name="Trazado 125260" d="M607.127-1403.685h-5.158c-.094-.893-.122-1.339-.146-2.227h5.158C607-1405.023,607.033-1404.577,607.127-1403.685Z" transform="translate(-601.823 1405.911)" fill="#00bbed"/>
                    <path id="Trazado_125261" data-name="Trazado 125261" d="M617.133-1403.685h-5.158c-.093-.893-.122-1.339-.145-2.227h5.158C617.01-1405.023,617.04-1404.577,617.133-1403.685Z" transform="translate(-604.953 1405.911)" fill="#00bbed"/>
                    <path id="Trazado_125262" data-name="Trazado 125262" d="M627.14-1403.685h-5.158c-.094-.893-.122-1.339-.146-2.227h5.158C627.017-1405.023,627.046-1404.577,627.14-1403.685Z" transform="translate(-608.082 1405.911)" fill="#00bbed"/>
                    <path id="Trazado_125263" data-name="Trazado 125263" d="M637.146-1403.685h-5.158c-.093-.893-.122-1.339-.145-2.227H637C637.024-1405.023,637.053-1404.577,637.146-1403.685Z" transform="translate(-611.212 1405.911)" fill="#00bbed"/>
                  </g>
                  <g id="Grupo_56186" data-name="Grupo 56186" transform="translate(0.501 9.235)">
                    <path id="Trazado_125264" data-name="Trazado 125264" d="M608.217-1396.915h-5.158c-.237-.889-.339-1.335-.507-2.227h5.158C607.878-1398.25,607.98-1397.8,608.217-1396.915Z" transform="translate(-602.552 1399.142)" fill="#b5a8ae"/>
                    <path id="Trazado_125265" data-name="Trazado 125265" d="M618.224-1396.915h-5.158c-.237-.889-.339-1.335-.508-2.227h5.159C617.885-1398.25,617.986-1397.8,618.224-1396.915Z" transform="translate(-605.681 1399.142)" fill="#b5a8ae"/>
                    <path id="Trazado_125266" data-name="Trazado 125266" d="M628.23-1396.915h-5.158c-.237-.889-.339-1.335-.507-2.227h5.158C627.891-1398.25,627.993-1397.8,628.23-1396.915Z" transform="translate(-608.811 1399.142)" fill="#b5a8ae"/>
                    <path id="Trazado_125267" data-name="Trazado 125267" d="M638.236-1396.915h-5.157c-.238-.889-.339-1.335-.507-2.227h5.157C637.9-1398.25,638-1397.8,638.236-1396.915Z" transform="translate(-611.941 1399.142)" fill="#b5a8ae"/>
                  </g>
                  <g id="Grupo_56187" data-name="Grupo 56187" transform="translate(1.753 13.863)">
                    <path id="Trazado_125268" data-name="Trazado 125268" d="M610.394-1390.227h-5.158c-.379-.867-.551-1.3-.863-2.183h5.158C609.843-1391.53,610.016-1391.093,610.394-1390.227Z" transform="translate(-604.374 1392.409)" fill="#ffd704"/>
                    <path id="Trazado_125269" data-name="Trazado 125269" d="M620.4-1390.227h-5.158c-.379-.867-.551-1.3-.862-2.183h5.158C619.849-1391.53,620.022-1391.093,620.4-1390.227Z" transform="translate(-607.504 1392.409)" fill="#ffd704"/>
                    <path id="Trazado_125270" data-name="Trazado 125270" d="M630.407-1390.227H625.25c-.379-.867-.551-1.3-.862-2.183h5.158C629.856-1391.53,630.028-1391.093,630.407-1390.227Z" transform="translate(-610.633 1392.409)" fill="#ffd704"/>
                    <path id="Trazado_125271" data-name="Trazado 125271" d="M640.413-1390.227h-5.158c-.379-.867-.551-1.3-.862-2.183h5.158C639.862-1391.53,640.035-1391.093,640.413-1390.227Z" transform="translate(-613.762 1392.409)" fill="#ffd704"/>
                  </g>
                </g>
              </g>
            </g>
            <path id="Trazado_125272" data-name="Trazado 125272" d="M593.675-1401.909c-.886.474-2.191.592-2.717-.264a2.458,2.458,0,0,1-.271-1.023q-.452-3.959-.9-7.92a3.87,3.87,0,0,1,.048-1.639c.262-.8,1.008-1.338,1.485-2.036.419-.615.629-1.359,1.081-1.949,1.638-2.139,5.4-1.24,7.238-3.208a2.252,2.252,0,0,1-.463,2.628,11.27,11.27,0,0,1-2.342,1.648,3.617,3.617,0,0,0-1.765,2.166c-.239,1.233.6,2.378,1.108,3.526a6.673,6.673,0,0,1,.333,4.539A5.925,5.925,0,0,1,593.675-1401.909Z" transform="translate(-538.46 1423.491)" fill="#ecab82"/>
          </g>
          <g id="Grupo_56205" data-name="Grupo 56205" transform="translate(46.482)">
            <g id="Grupo_56194" data-name="Grupo 56194" transform="translate(11.965 7.894)">
              <g id="Grupo_56193" data-name="Grupo 56193">
                <g id="Grupo_56192" data-name="Grupo 56192">
                  <path id="Trazado_125273" data-name="Trazado 125273" d="M576.792-1448.641a11.334,11.334,0,0,1-2.173,8.642,15.163,15.163,0,0,1-11.195,11.662,14.5,14.5,0,0,1-8.312-13.8,14.311,14.311,0,0,1,9.732-12.735c2.955-.879,6.466-.521,8.6,1.792Z" transform="translate(-555.092 1455.308)" fill="#fbc7a4"/>
                </g>
              </g>
            </g>
            <g id="Grupo_56197" data-name="Grupo 56197" transform="translate(11.965 7.896)">
              <g id="Grupo_56196" data-name="Grupo 56196">
                <g id="Grupo_56195" data-name="Grupo 56195">
                  <path id="Trazado_125274" data-name="Trazado 125274" d="M568.266-1455.3a10.47,10.47,0,0,0-3.423.428,14.311,14.311,0,0,0-9.732,12.736,14.5,14.5,0,0,0,8.312,13.8,13.04,13.04,0,0,0,1.531-.445C563.085-1437.934,562.912-1447.906,568.266-1455.3Z" transform="translate(-555.092 1455.305)" fill="#f18667"/>
                </g>
              </g>
            </g>
            <g id="Grupo_56200" data-name="Grupo 56200" transform="translate(0 17.518)">
              <g id="Grupo_56199" data-name="Grupo 56199">
                <g id="Grupo_56198" data-name="Grupo 56198">
                  <path id="Trazado_125275" data-name="Trazado 125275" d="M537.93-1420.194c-.576-.65-.035-1.648.484-2.345a41.6,41.6,0,0,0,8.265-18.766,54.046,54.046,0,0,0,13.085,3.261,153.015,153.015,0,0,0-4,23.155l-16.9-4.835A1.883,1.883,0,0,1,537.93-1420.194Z" transform="translate(-537.683 1441.305)" fill="#fbc7a4"/>
                </g>
              </g>
            </g>
            <path id="Trazado_125276" data-name="Trazado 125276" d="M578.184-1452.881a7.38,7.38,0,0,0,4.96-5.662,7.874,7.874,0,0,1-5.551.743,1.818,1.818,0,0,0,1.423-.617,11.567,11.567,0,0,1-6.005-2.586c-1.772-1.322-3.38-2.868-5.245-4.054a9.224,9.224,0,0,0-6.27-1.656,6.425,6.425,0,0,0-.782.2,10.324,10.324,0,0,0-3.789.217c-4.223,1.093-7.217,5.121-8.167,9.378s-1.426,9.259-.278,13.467c4.3,2.04,10.595,1.884,15.156.532a18.818,18.818,0,0,0,1.863-.676,16.921,16.921,0,0,0,.511-2.59,5.247,5.247,0,0,1,1.151-2.811,2.233,2.233,0,0,1,2.785-.487,2.261,2.261,0,0,1,.852,1.753,4.312,4.312,0,0,1-.063.907,20,20,0,0,0,2.479-2.516,8.783,8.783,0,0,0,7.957-3.869A8.242,8.242,0,0,1,578.184-1452.881Z" transform="translate(-540.849 1466.795)" fill="#002643"/>
            <g id="Grupo_56202" data-name="Grupo 56202" transform="translate(26.091 17.917)">
              <g id="Grupo_56201" data-name="Grupo 56201">
                <path id="Trazado_125277" data-name="Trazado 125277" d="M577.577-1437.88a3.331,3.331,0,0,1,.606-.529,1.455,1.455,0,0,0,.427-1.582,1.165,1.165,0,0,0-1.426-.67,1.487,1.487,0,0,0-.811,1.378,5.073,5.073,0,0,0,.372,1.761.7.7,0,0,0-.832-.012.7.7,0,0,0-.216.8,2.318,2.318,0,0,0,.376.5.616.616,0,0,1,.154.582,3.844,3.844,0,0,1-.212.321c-.059.115-.042.292.083.326a.275.275,0,0,0,.223-.076,2.605,2.605,0,0,0,1.01-1.706A2.455,2.455,0,0,1,577.577-1437.88Z" transform="translate(-575.647 1440.724)" fill="#f18667"/>
              </g>
            </g>
            <g id="Grupo_56204" data-name="Grupo 56204" transform="translate(22.111 2.706)">
              <g id="Grupo_56203" data-name="Grupo 56203">
                <path id="Trazado_125278" data-name="Trazado 125278" d="M573.663-1459.382c.516.3.446,1.088.833,1.541.448.523,1.267.39,1.956.4a5.088,5.088,0,0,1,3.365,1.541,15.119,15.119,0,0,1,2.256,3.032l1.329-2.1-13.546-7.885.674,3.337a1.217,1.217,0,0,0,.223.571c.348.4,1,.182,1.448-.1S573.206-1459.647,573.663-1459.382Z" transform="translate(-569.856 1462.857)" fill="#c3d4de"/>
              </g>
            </g>
          </g>
          <g id="Grupo_56219" data-name="Grupo 56219" transform="translate(0 110.04)">
            <g id="Grupo_56207" data-name="Grupo 56207" transform="translate(0 139.88)">
              <g id="Grupo_56206" data-name="Grupo 56206">
                <path id="Trazado_125279" data-name="Trazado 125279" d="M490.752-1094.818a11.576,11.576,0,0,0-4.243-.991,8.373,8.373,0,0,1-3.495-1.166,3.128,3.128,0,0,1-1.689-3.211,20.852,20.852,0,0,1-8.775-2.959c.007,2.416-1.557,4.576-2.221,6.9a5.6,5.6,0,0,0-.108,1.9,9.241,9.241,0,0,0,.3,4.729,14.8,14.8,0,0,0,9.168,1.814,8.435,8.435,0,0,1,.37-1.518,10.361,10.361,0,0,1,4.464-.379,12.343,12.343,0,0,0,3.331.475,7.059,7.059,0,0,0,2.26-.912,4,4,0,0,0,2.1-2.26C492.527-1093.658,491.874-1094.168,490.752-1094.818Z" transform="translate(-470.048 1103.145)" fill="#002643"/>
              </g>
            </g>
            <g id="Grupo_56209" data-name="Grupo 56209" transform="translate(2.149 142.07)">
              <g id="Grupo_56208" data-name="Grupo 56208">
                <path id="Trazado_125280" data-name="Trazado 125280" d="M481.692-1097.048a36.694,36.694,0,0,0-7.593-2.91,6.3,6.3,0,0,0-.83,1.66,2.126,2.126,0,0,0,.23,1.786,2.626,2.626,0,0,0,1.53.886A7.721,7.721,0,0,0,481.692-1097.048Z" transform="translate(-473.174 1099.958)" fill="#e8eaec"/>
              </g>
            </g>
            <g id="Grupo_56212" data-name="Grupo 56212" transform="translate(0.362)">
              <g id="Grupo_56211" data-name="Grupo 56211">
                <g id="Grupo_56210" data-name="Grupo 56210">
                  <path id="Trazado_125281" data-name="Trazado 125281" d="M482.184-1306.68c-8.964,24.9-2.348,37.521-1.3,57.031,1.122,20.821,3.362,38.806-4.242,58.221-1.216,3.1-2.869,14.222-4.491,18.214-1.255,3.088-2.493,4.726-.624,7.486s7.756,5.763,10.793,4.388c8.468-21.875,18.491-43.14,26.382-65.229,7.815-21.876,13.914-49.222,13.562-72.527Z" transform="translate(-470.575 1306.68)" fill="#415165"/>
                </g>
              </g>
            </g>
            <g id="Grupo_56215" data-name="Grupo 56215" transform="translate(7.571 2)">
              <g id="Grupo_56214" data-name="Grupo 56214">
                <g id="Grupo_56213" data-name="Grupo 56213">
                  <path id="Trazado_125282" data-name="Trazado 125282" d="M496.038-1303.77c-10.07,27.7.053,61.868-2.277,89.821a198.484,198.484,0,0,1-12.7,53.367,6.553,6.553,0,0,0,4.539.151c8.468-21.875,18.491-43.14,26.382-65.229,7.123-19.938,12.356-49.77,12.956-72.642Z" transform="translate(-481.064 1303.77)" fill="#12263f"/>
                </g>
              </g>
            </g>
            <g id="Grupo_56218" data-name="Grupo 56218" transform="translate(16.524 1.759)">
              <g id="Grupo_56217" data-name="Grupo 56217">
                <g id="Grupo_56216" data-name="Grupo 56216">
                  <path id="Trazado_125283" data-name="Trazado 125283" d="M498.838-1304.12c-14.562,33.348,9.716,70.657,2.379,105.507-.825,4.948-1.317,10.235-2.3,15.441,5.942-14.113,12-28.18,17.147-42.6,7.317-20.483,13.473-49.624,13.946-72.454Z" transform="translate(-494.091 1304.12)" fill="#002643"/>
                </g>
              </g>
            </g>
          </g>
          <g id="Grupo_56230" data-name="Grupo 56230" transform="translate(15.093 110.949)">
            <g id="Grupo_56221" data-name="Grupo 56221" transform="translate(17.846 144.726)">
              <g id="Grupo_56220" data-name="Grupo 56220">
                <path id="Trazado_125284" data-name="Trazado 125284" d="M542.527-1090.38a4.3,4.3,0,0,0-3.416-2.259,26.991,26.991,0,0,0-4.273.006c-5.615.054-11.1-2.849-16.648-1.974a61.041,61.041,0,0,0-.116,7.175,10.883,10.883,0,0,0,.237,1.305,26.836,26.836,0,0,0,.462,3.629,4.3,4.3,0,0,0,.6,1.8,3.616,3.616,0,0,0,2.074,1.213,11.052,11.052,0,0,0,8.99-1.525,2.275,2.275,0,0,0,.788-.782,1.857,1.857,0,0,0,.173-.77,24.019,24.019,0,0,1,2.567-.931,19.437,19.437,0,0,0,4.737-1.772C540.566-1086.253,543.359-1088.446,542.527-1090.38Z" transform="translate(-517.977 1094.772)" fill="#002643"/>
              </g>
            </g>
            <g id="Grupo_56223" data-name="Grupo 56223" transform="translate(18.213 145.259)">
              <g id="Grupo_56222" data-name="Grupo 56222">
                <path id="Trazado_125285" data-name="Trazado 125285" d="M531.855-1091.1a.9.9,0,0,1,1.089.68,1.4,1.4,0,0,1-.487,1.294,3.382,3.382,0,0,1-1.284.646,20.257,20.257,0,0,1-6.29.72,10.47,10.47,0,0,1-3.746-.544,4.07,4.07,0,0,1-2.55-2.631,2.57,2.57,0,0,1,1.57-3.063Z" transform="translate(-518.511 1093.995)" fill="#e8eaec"/>
              </g>
            </g>
            <g id="Grupo_56226" data-name="Grupo 56226">
              <g id="Grupo_56225" data-name="Grupo 56225">
                <g id="Grupo_56224" data-name="Grupo 56224">
                  <path id="Trazado_125286" data-name="Trazado 125286" d="M493.7-1305.357c-5.075,30.178,2.18,38.826,10.157,64.931,2.585,8.459,6.725,29.862,5.57,38.525-1.161,8.7,0,24.021.261,43.736,4.844,3.493,8.558,3.145,13.856,1.845,3.223-23.32,7.095-47.223,7.815-69.408.673-20.749-.887-48.7-1.308-72.752Z" transform="translate(-492.01 1305.357)" fill="#415165"/>
                </g>
              </g>
            </g>
            <g id="Grupo_56229" data-name="Grupo 56229">
              <g id="Grupo_56228" data-name="Grupo 56228">
                <g id="Grupo_56227" data-name="Grupo 56227">
                  <path id="Trazado_125287" data-name="Trazado 125287" d="M510.07-1302.259l-16.374-3.1c-5.075,30.178,2.18,38.826,10.157,64.931,2.585,8.459,6.725,29.862,5.57,38.525-1.161,8.7,0,24.021.261,43.736a13.338,13.338,0,0,0,6.357,2.672c1.989-24.463,3.5-48.9,1.6-73.677C515.624-1251.321,506.244-1279.053,510.07-1302.259Z" transform="translate(-492.01 1305.357)" fill="#12263f"/>
                </g>
              </g>
            </g>
          </g>
          <g id="Grupo_56245" data-name="Grupo 56245" transform="translate(9.802 29.148)">
            <g id="Grupo_56243" data-name="Grupo 56243">
              <g id="Grupo_56232" data-name="Grupo 56232" transform="translate(30.597)">
                <g id="Grupo_56231" data-name="Grupo 56231">
                  <path id="Trazado_125288" data-name="Trazado 125288" d="M528.832-1417.683a15.129,15.129,0,0,0,5.83-6.7,27.369,27.369,0,0,1,22.182,14.257l-11.338-4.294c-4.761-1.8-9.664-3.632-14.755-3.556Z" transform="translate(-528.832 1424.383)" fill="#bba9da"/>
                </g>
              </g>
              <g id="Grupo_56236" data-name="Grupo 56236" transform="translate(0 5.034)">
                <g id="Grupo_56235" data-name="Grupo 56235">
                  <g id="Grupo_56234" data-name="Grupo 56234">
                    <g id="Grupo_56233" data-name="Grupo 56233">
                      <path id="Trazado_125289" data-name="Trazado 125289" d="M529.75-1330.45c.025-.819.038-1.608.083-2.467.3-10.13,1.838-14.2,2.067-17.322.56-7.647,3.034-10.193,6.82-16.86,2.882-5.077,7.3-13.656,10.3-18.662s4.565-11.583,1.559-16.588c-1.793-2.985-4.9-4.9-8-6.508a100.994,100.994,0,0,0-9.449-4.259c-6.209-2.452-16.125-6.433-22.769-1.812a37.09,37.09,0,0,0-9.186,9.993c-11.186,18.67-10.765,33.329-16.55,65.588a5.662,5.662,0,0,1-.18.667,2.929,2.929,0,0,0,2.027,3.712A146.441,146.441,0,0,0,529.75-1330.45Z" transform="translate(-484.311 1417.059)" fill="#bba9da"/>
                    </g>
                  </g>
                </g>
              </g>
              <g id="Grupo_56238" data-name="Grupo 56238" transform="translate(32.066 5.399)">
                <g id="Grupo_56237" data-name="Grupo 56237">
                  <path id="Trazado_125290" data-name="Trazado 125290" d="M532.175-1414.625a74.411,74.411,0,0,1,18.623,3.807,34.1,34.1,0,0,0-17.913-5.706,2.568,2.568,0,0,0-1.414.244.928.928,0,0,0-.383,1.239A1.383,1.383,0,0,0,532.175-1414.625Z" transform="translate(-530.969 1416.527)" fill="#002643"/>
                </g>
              </g>
              <g id="Grupo_56242" data-name="Grupo 56242" transform="translate(37.13 20.844)">
                <g id="Grupo_56241" data-name="Grupo 56241">
                  <g id="Grupo_56240" data-name="Grupo 56240">
                    <g id="Grupo_56239" data-name="Grupo 56239">
                      <path id="Trazado_125291" data-name="Trazado 125291" d="M546.646-1323.255c.025-.82.038-1.607.083-2.467.3-10.13,1.838-14.2,2.066-17.322.559-7.647,3.034-10.193,6.82-16.86,2.882-5.078,7.3-13.656,10.3-18.662,2.788-4.648,4.328-10.646,2.131-15.487-23.813,12.659-30.047,45.066-29.7,70.936C541.115-1323.086,543.881-1323.142,546.646-1323.255Z" transform="translate(-538.338 1394.054)" fill="#7b64cc"/>
                    </g>
                  </g>
                </g>
              </g>
              <path id="Trazado_125292" data-name="Trazado 125292" d="M566.729-1369.628c-3.51-.794-5.844-4.441-6.06-8.034s1.283-7.079,3.176-10.141a19.23,19.23,0,0,0-1.332,9.57A14.548,14.548,0,0,0,566.729-1369.628Z" transform="translate(-508.185 1412.943)" fill="#002643"/>
            </g>
            <g id="Grupo_56244" data-name="Grupo 56244" transform="translate(39.798 39.431)">
              <path id="Trazado_125293" data-name="Trazado 125293" d="M542.792-1314.983l-.573-.047c1.4-16.8,6.423-34.29,14.94-51.978l.52.25C549.192-1349.135,544.184-1331.715,542.792-1314.983Z" transform="translate(-542.219 1367.008)" fill="#002643"/>
            </g>
          </g>
          <g id="Grupo_56253" data-name="Grupo 56253" transform="translate(63.492 46.813)">
            <g id="Grupo_56248" data-name="Grupo 56248">
              <g id="Grupo_56247" data-name="Grupo 56247">
                <g id="Grupo_56246" data-name="Grupo 56246">
                  <path id="Trazado_125294" data-name="Trazado 125294" d="M646.568-1391.976a39.663,39.663,0,0,1-9.6,1.6,6.227,6.227,0,0,0-3.5.957c-1.512,1.219-2.1,3.766-3.289,5.3-.15.195-.282.366-.4.529-5.1,2.906-10.264,7.083-15.744,9.2a35.325,35.325,0,0,0-7.975,3.992c-1.232-1.2-2.52-2.352-3.766-3.539-1.619-1.541-2.967-2.967-4.151-4.323a40.991,40.991,0,0,1-11.009,14.285c.6.464,1.262,1,2.029,1.666a122,122,0,0,0,10.112,8.444c2.031,1.4,4.392,2.666,6.844,2.372.018,0,.034-.01.052-.012a5.173,5.173,0,0,0,1.4.115c2.39-.167,4.343-1.9,6.046-3.587,3.084-3.052,6.017-6.25,8.949-9.448l12.7-13.847c2.475.229,4.009-1.681,5.375-3.436-.529.81-.858,1.68-1.457,2.561.313,1.148.35,1.141,1.357,1.182.551-1.753,2.632-2.527,3.93-3.826.383-.383.829-4.339.522-4.627-1.094-1.025-2.818-1.565-4.139-2.469C643.431-1389.358,648.69-1390.133,646.568-1391.976Z" transform="translate(-570.16 1396.583)" fill="#fbc7a4"/>
                  <path id="Trazado_125295" data-name="Trazado 125295" d="M603.656-1352.193a60.5,60.5,0,0,1-13.487-8.343c-.966.981-1.969,1.928-3.028,2.809.6.464,1.262,1,2.029,1.666a121.956,121.956,0,0,0,10.112,8.444c2.031,1.4,4.392,2.666,6.844,2.373.018,0,.034-.01.052-.012a5.178,5.178,0,0,0,1.4.115c2.39-.167,4.343-1.9,6.046-3.587,3.084-3.051,6.017-6.25,8.949-9.448l12.693-13.841C623.644-1365.474,617.522-1346.251,603.656-1352.193Z" transform="translate(-570.16 1390.341)" fill="#ecab82"/>
                  <path id="Trazado_125296" data-name="Trazado 125296" d="M590.423-1380.351c-5.036-5.766-7.066-10.25-13.925-16.834a4.742,4.742,0,0,0-2.315-1.456,4.4,4.4,0,0,0-3.154,1.066,20.7,20.7,0,0,0-8.4,13.575c-.437,2.828-.213,5.918,1.46,8.24,1.306,1.813,3.326,2.947,5.251,4.08,5.279,3.108,6.444,2.813,10.076,5.614A41,41,0,0,0,590.423-1380.351Z" transform="translate(-562.433 1398.679)" fill="#bba9da"/>
                </g>
              </g>
            </g>
            <g id="Grupo_56251" data-name="Grupo 56251" transform="translate(0 13.856)">
              <g id="Grupo_56250" data-name="Grupo 56250">
                <g id="Grupo_56249" data-name="Grupo 56249">
                  <path id="Trazado_125297" data-name="Trazado 125297" d="M583-1363.134c-6.682-4.57-13.663-7.8-20.207-15.383-.054.275-.129.546-.171.823-.437,2.828-.213,5.918,1.46,8.24,1.306,1.812,3.326,2.947,5.251,4.08,5.279,3.108,6.444,2.812,10.076,5.614A41.788,41.788,0,0,0,583-1363.134Z" transform="translate(-562.433 1378.517)" fill="#7b64cc"/>
                </g>
              </g>
            </g>
            <g id="Grupo_56252" data-name="Grupo 56252" transform="translate(14.705 16.128)">
              <path id="Trazado_125298" data-name="Trazado 125298" d="M584.255-1359.976l-.425-.44a63.377,63.377,0,0,0,11.092-14.8l.532.3A63.968,63.968,0,0,1,584.255-1359.976Z" transform="translate(-583.83 1375.212)" fill="#002643"/>
            </g>
          </g>
        </g>
      </g>
    </g>
  </g>
</svg>
