<svg xmlns="http://www.w3.org/2000/svg" width="370.972" height="282.818" viewBox="0 0 370.972 282.818">
  <g id="Grupo_56800" data-name="Grupo 56800" transform="translate(-1467.447 21.437)">
    <rect id="Rectángulo_30535" data-name="Rectángulo 30535" width="163.558" height="163.558" transform="translate(1490.859 -21.437)" fill="#1eb6f8" opacity="0.61"/>
    <rect id="Rectángulo_30536" data-name="Rectángulo 30536" width="163.558" height="163.558" transform="translate(1674.862 -21.437)" fill="#1eb6f8" opacity="0.61"/>
    <rect id="Rectángulo_30537" data-name="Rectángulo 30537" width="100.709" height="98.059" transform="translate(1522.662 10.366)" fill="#e92281"/>
    <rect id="Rectángulo_30538" data-name="Rectángulo 30538" width="100.709" height="98.059" transform="translate(1702.879 10.366)" fill="#452b7e"/>
    <path id="Trazado_126114" data-name="Trazado 126114" d="M1561.307,192.466l-64.576,67.223,98.452,41.816,65.105-64.047Z" transform="translate(-5.493 -40.122)" fill="#1eb6f8" opacity="0.61"/>
    <path id="Trazado_126115" data-name="Trazado 126115" d="M1572.59,203.65l-47.2,49.133,71.959,30.563,47.586-46.812Z" transform="translate(-10.869 -42.22)" fill="#fff"/>
    <path id="Trazado_126116" data-name="Trazado 126116" d="M1572.562,165.9l-46.717,48.631,71.224,30.251,47.1-46.334Z" transform="translate(-10.954 -35.14)" fill="#e92281"/>
    <line id="Línea_216" data-name="Línea 216" y1="31.717" transform="translate(1515.374 178.846)" fill="none" stroke="#0e1c2f" stroke-miterlimit="10" stroke-width="1" stroke-dasharray="3"/>
    <line id="Línea_217" data-name="Línea 217" y1="31.717" transform="translate(1586.363 209.645)" fill="none" stroke="#0e1c2f" stroke-miterlimit="10" stroke-width="1" stroke-dasharray="3"/>
    <line id="Línea_218" data-name="Línea 218" y1="31.717" transform="translate(1633.215 162.987)" fill="none" stroke="#0e1c2f" stroke-miterlimit="10" stroke-width="1" stroke-dasharray="3"/>
    <path id="Trazado_126117" data-name="Trazado 126117" d="M1783.132,192.466l-64.576,67.223,98.452,41.816,65.105-64.047Z" transform="translate(-47.101 -40.122)" fill="#1eb6f8" opacity="0.61"/>
    <path id="Trazado_126118" data-name="Trazado 126118" d="M1794.415,203.65l-47.2,49.133,71.959,30.563,47.586-46.812Z" transform="translate(-52.477 -42.22)" fill="none" stroke="#0e1c2f" stroke-miterlimit="10" stroke-width="1" stroke-dasharray="3"/>
    <path id="Trazado_126119" data-name="Trazado 126119" d="M1794.387,165.9l-46.717,48.631,71.224,30.251,47.1-46.334Z" transform="translate(-52.562 -35.14)" fill="#e92281"/>
    <line id="Línea_219" data-name="Línea 219" y1="31.717" transform="translate(1695.59 178.846)" fill="none" stroke="#0e1c2f" stroke-miterlimit="10" stroke-width="1" stroke-dasharray="3"/>
    <line id="Línea_220" data-name="Línea 220" y1="31.717" transform="translate(1766.579 209.645)" fill="none" stroke="#0e1c2f" stroke-miterlimit="10" stroke-width="1" stroke-dasharray="3"/>
    <line id="Línea_221" data-name="Línea 221" y1="31.717" transform="translate(1813.432 162.987)" fill="none" stroke="#0e1c2f" stroke-miterlimit="10" stroke-width="1" stroke-dasharray="3"/>
    <g id="Grupo_56800-2" data-name="Grupo 56800" transform="translate(1467.447 249.137)">
      <path id="Trazado_126120" data-name="Trazado 126120" d="M1470.657,316.422h-2.051v3.271h-1.158v-8.086h2.892a3.618,3.618,0,0,1,2.271.622,2.161,2.161,0,0,1,.795,1.811,2.061,2.061,0,0,1-.441,1.316,2.62,2.62,0,0,1-1.226.838l2.051,3.433v.067h-1.237Zm-2.051-.873h1.77a2.1,2.1,0,0,0,1.365-.411,1.348,1.348,0,0,0,.507-1.1,1.411,1.411,0,0,0-.483-1.151,2.157,2.157,0,0,0-1.4-.406h-1.764Z" transform="translate(-1467.447 -311.607)" fill="#12263f"/>
      <path id="Trazado_126121" data-name="Trazado 126121" d="M1479.181,320.258a2.949,2.949,0,0,1-2.147-.8,2.849,2.849,0,0,1-.829-2.146v-.189a3.381,3.381,0,0,1,.369-1.6,2.772,2.772,0,0,1,2.469-1.5,2.524,2.524,0,0,1,1.968.772,3.174,3.174,0,0,1,.7,2.211v.427h-4.4a2.047,2.047,0,0,0,.561,1.436,1.832,1.832,0,0,0,1.364.546,2.054,2.054,0,0,0,1-.222,2.462,2.462,0,0,0,.713-.589l.678.489A2.8,2.8,0,0,1,1479.181,320.258Zm-.138-5.387a1.537,1.537,0,0,0-1.128.452,2.129,2.129,0,0,0-.565,1.27h3.252v-.078a1.874,1.874,0,0,0-.456-1.214A1.451,1.451,0,0,0,1479.043,314.871Z" transform="translate(-1469.09 -312.061)" fill="#12263f"/>
      <path id="Trazado_126122" data-name="Trazado 126122" d="M1488.281,318.553a.737.737,0,0,0-.339-.647,3.433,3.433,0,0,0-1.181-.4,5.943,5.943,0,0,1-1.339-.4,1.873,1.873,0,0,1-.731-.556,1.262,1.262,0,0,1-.237-.766,1.521,1.521,0,0,1,.675-1.25,2.781,2.781,0,0,1,1.725-.511,2.863,2.863,0,0,1,1.791.527,1.629,1.629,0,0,1,.687,1.349h-1.116a.9.9,0,0,0-.387-.727,1.525,1.525,0,0,0-.975-.305,1.6,1.6,0,0,0-.948.245.752.752,0,0,0-.342.639.612.612,0,0,0,.318.561,4.1,4.1,0,0,0,1.149.361,6.357,6.357,0,0,1,1.346.411,1.948,1.948,0,0,1,.765.575,1.339,1.339,0,0,1,.249.819,1.5,1.5,0,0,1-.7,1.292,3.094,3.094,0,0,1-1.806.486,3.487,3.487,0,0,1-1.38-.256,2.213,2.213,0,0,1-.939-.714,1.631,1.631,0,0,1-.34-.99h1.111a1.04,1.04,0,0,0,.447.819,1.832,1.832,0,0,0,1.1.3,1.9,1.9,0,0,0,1.011-.236A.715.715,0,0,0,1488.281,318.553Z" transform="translate(-1470.595 -312.061)" fill="#12263f"/>
      <path id="Trazado_126123" data-name="Trazado 126123" d="M1494.991,320.258a2.952,2.952,0,0,1-2.148-.8,2.851,2.851,0,0,1-.828-2.146v-.189a3.381,3.381,0,0,1,.369-1.6,2.77,2.77,0,0,1,2.469-1.5,2.524,2.524,0,0,1,1.968.772,3.174,3.174,0,0,1,.7,2.211v.427h-4.4a2.046,2.046,0,0,0,.561,1.436,1.834,1.834,0,0,0,1.365.546,2.057,2.057,0,0,0,1-.222,2.448,2.448,0,0,0,.713-.589l.678.489A2.793,2.793,0,0,1,1494.991,320.258Zm-.138-5.387a1.539,1.539,0,0,0-1.129.452,2.127,2.127,0,0,0-.564,1.27h3.252v-.078a1.875,1.875,0,0,0-.457-1.214A1.45,1.45,0,0,0,1494.853,314.871Z" transform="translate(-1472.055 -312.061)" fill="#12263f"/>
      <path id="Trazado_126124" data-name="Trazado 126124" d="M1503.512,315.06a3.554,3.554,0,0,0-.546-.039,1.473,1.473,0,0,0-1.481.861v4.265h-1.11v-6.01h1.08l.018.695a1.761,1.761,0,0,1,1.548-.805,1.224,1.224,0,0,1,.491.077Z" transform="translate(-1473.623 -312.061)" fill="#12263f"/>
      <path id="Trazado_126125" data-name="Trazado 126125" d="M1507.618,318.778l1.608-4.615h1.134l-2.328,6.01h-.846l-2.352-6.01h1.133Z" transform="translate(-1474.46 -312.086)" fill="#12263f"/>
      <path id="Trazado_126126" data-name="Trazado 126126" d="M1516.8,320.147a2.016,2.016,0,0,1-.156-.633,2.575,2.575,0,0,1-1.847.744,2.408,2.408,0,0,1-1.575-.5,1.576,1.576,0,0,1-.615-1.275,1.661,1.661,0,0,1,.772-1.458,3.856,3.856,0,0,1,2.168-.518h1.08v-.472a1.108,1.108,0,0,0-.348-.858,1.467,1.467,0,0,0-1.026-.32,1.713,1.713,0,0,0-1,.278.806.806,0,0,0-.4.672h-1.115a1.357,1.357,0,0,1,.344-.869,2.332,2.332,0,0,1,.937-.663,3.355,3.355,0,0,1,1.3-.245,2.708,2.708,0,0,1,1.758.518,1.815,1.815,0,0,1,.66,1.431v2.766a3.162,3.162,0,0,0,.228,1.317v.089Zm-1.842-.783a2.064,2.064,0,0,0,.99-.25,1.571,1.571,0,0,0,.678-.649v-1.233h-.87q-2.04,0-2.039,1.1a.9.9,0,0,0,.348.756A1.4,1.4,0,0,0,1514.962,319.364Z" transform="translate(-1475.918 -312.061)" fill="#12263f"/>
    </g>
    <g id="Grupo_56801" data-name="Grupo 56801" transform="translate(1644.675 248.692)">
      <path id="Trazado_126127" data-name="Trazado 126127" d="M1688.7,316.063a5.6,5.6,0,0,1-2.157-.968,1.8,1.8,0,0,1-.674-1.419,1.9,1.9,0,0,1,.824-1.579,3.455,3.455,0,0,1,2.146-.626,3.813,3.813,0,0,1,1.6.323,2.576,2.576,0,0,1,1.092.888,2.148,2.148,0,0,1,.387,1.239h-1.158a1.428,1.428,0,0,0-.5-1.157,2.161,2.161,0,0,0-1.422-.421,2.225,2.225,0,0,0-1.329.348,1.13,1.13,0,0,0-.477.966,1.018,1.018,0,0,0,.453.837,4.6,4.6,0,0,0,1.541.626,7.568,7.568,0,0,1,1.7.626,2.516,2.516,0,0,1,.913.8,1.926,1.926,0,0,1,.3,1.072,1.843,1.843,0,0,1-.827,1.574,3.732,3.732,0,0,1-2.215.592,4.385,4.385,0,0,1-1.679-.319,2.806,2.806,0,0,1-1.2-.875,2.031,2.031,0,0,1-.423-1.261h1.158a1.358,1.358,0,0,0,.585,1.159,2.606,2.606,0,0,0,1.562.424,2.4,2.4,0,0,0,1.4-.344,1.091,1.091,0,0,0,.486-.939,1.066,1.066,0,0,0-.449-.919A5.411,5.411,0,0,0,1688.7,316.063Z" transform="translate(-1685.593 -311.137)" fill="#12263f"/>
      <path id="Trazado_126128" data-name="Trazado 126128" d="M1694.646,317.087a3.339,3.339,0,0,1,.375-1.588,2.671,2.671,0,0,1,1.044-1.089,3.016,3.016,0,0,1,1.527-.383,2.841,2.841,0,0,1,2.145.85,3.12,3.12,0,0,1,.819,2.26v.072a3.357,3.357,0,0,1-.362,1.574,2.626,2.626,0,0,1-1.038,1.085,3.049,3.049,0,0,1-1.551.389,2.838,2.838,0,0,1-2.139-.85,3.1,3.1,0,0,1-.818-2.25Zm1.116.123a2.437,2.437,0,0,0,.5,1.6,1.784,1.784,0,0,0,2.684-.007,2.659,2.659,0,0,0,.5-1.72,2.431,2.431,0,0,0-.507-1.6,1.658,1.658,0,0,0-1.347-.614,1.638,1.638,0,0,0-1.325.605A2.639,2.639,0,0,0,1695.762,317.209Z" transform="translate(-1687.291 -311.617)" fill="#12263f"/>
      <path id="Trazado_126129" data-name="Trazado 126129" d="M1709.127,316.653a3.384,3.384,0,0,1-.683,2.212,2.25,2.25,0,0,1-1.836.837,2.337,2.337,0,0,1-1.9-.806l-.054.695h-1.02v-8.53h1.11v3.182a2.327,2.327,0,0,1,1.853-.772,2.266,2.266,0,0,1,1.856.827,3.483,3.483,0,0,1,.675,2.266Zm-1.11-.117a2.619,2.619,0,0,0-.438-1.622,1.49,1.49,0,0,0-1.26-.572,1.641,1.641,0,0,0-1.577.944v2.6a1.686,1.686,0,0,0,1.589.944,1.482,1.482,0,0,0,1.242-.572A2.778,2.778,0,0,0,1708.018,316.536Z" transform="translate(-1688.977 -311.06)" fill="#12263f"/>
      <path id="Trazado_126130" data-name="Trazado 126130" d="M1715.255,315.06a3.57,3.57,0,0,0-.546-.039,1.474,1.474,0,0,0-1.482.861v4.265h-1.11v-6.01h1.08l.018.695a1.761,1.761,0,0,1,1.548-.805,1.228,1.228,0,0,1,.492.077Z" transform="translate(-1690.568 -311.617)" fill="#12263f"/>
      <path id="Trazado_126131" data-name="Trazado 126131" d="M1719.864,320.258a2.952,2.952,0,0,1-2.148-.8,2.851,2.851,0,0,1-.828-2.146v-.189a3.381,3.381,0,0,1,.369-1.6,2.77,2.77,0,0,1,2.469-1.5,2.524,2.524,0,0,1,1.968.772,3.174,3.174,0,0,1,.7,2.211v.427H1718a2.047,2.047,0,0,0,.56,1.436,1.834,1.834,0,0,0,1.365.546,2.057,2.057,0,0,0,1-.222,2.46,2.46,0,0,0,.713-.589l.678.489A2.793,2.793,0,0,1,1719.864,320.258Zm-.138-5.387a1.539,1.539,0,0,0-1.128.452,2.128,2.128,0,0,0-.564,1.27h3.252v-.078a1.875,1.875,0,0,0-.457-1.214A1.451,1.451,0,0,0,1719.726,314.871Z" transform="translate(-1691.463 -311.617)" fill="#12263f"/>
      <path id="Trazado_126132" data-name="Trazado 126132" d="M1725.254,312.065a.585.585,0,0,1,.165-.422.645.645,0,0,1,.489-.172.653.653,0,0,1,.491.172.578.578,0,0,1,.168.422.557.557,0,0,1-.168.416.668.668,0,0,1-.491.167.659.659,0,0,1-.489-.167A.564.564,0,0,1,1725.254,312.065Zm1.2,7.6h-1.109v-6.01h1.109Z" transform="translate(-1693.032 -311.137)" fill="#12263f"/>
      <path id="Trazado_126133" data-name="Trazado 126133" d="M1729.959,314.138l.03.667a2.487,2.487,0,0,1,1.925-.777,1.884,1.884,0,0,1,1.855.966,2.4,2.4,0,0,1,.843-.7,2.649,2.649,0,0,1,1.227-.266,1.905,1.905,0,0,1,2.172,2.094v4.026h-1.11v-3.966a1.314,1.314,0,0,0-.318-.963,1.469,1.469,0,0,0-1.068-.32,1.542,1.542,0,0,0-1.026.342,1.344,1.344,0,0,0-.474.919v3.987H1732.9v-3.938q0-1.31-1.386-1.31a1.5,1.5,0,0,0-1.494.861v4.387h-1.11v-6.01Z" transform="translate(-1693.718 -311.617)" fill="#12263f"/>
      <path id="Trazado_126134" data-name="Trazado 126134" d="M1747.655,317.209a3.4,3.4,0,0,1-.678,2.21,2.235,2.235,0,0,1-1.835.839,2.477,2.477,0,0,1-1.86-.695v2.894h-1.11v-8.32h1.014l.054.667a2.367,2.367,0,0,1,1.884-.777,2.284,2.284,0,0,1,1.851.816,3.443,3.443,0,0,1,.681,2.272Zm-1.11-.117a2.515,2.515,0,0,0-.468-1.6,1.55,1.55,0,0,0-1.285-.589,1.655,1.655,0,0,0-1.511.828V318.6a1.657,1.657,0,0,0,1.523.821,1.542,1.542,0,0,0,1.269-.586A2.738,2.738,0,0,0,1746.545,317.092Z" transform="translate(-1696.206 -311.617)" fill="#12263f"/>
      <path id="Trazado_126135" data-name="Trazado 126135" d="M1753.793,315.06a3.56,3.56,0,0,0-.546-.039,1.474,1.474,0,0,0-1.482.861v4.265h-1.11v-6.01h1.08l.018.695a1.76,1.76,0,0,1,1.548-.805,1.228,1.228,0,0,1,.492.077Z" transform="translate(-1697.797 -311.617)" fill="#12263f"/>
      <path id="Trazado_126136" data-name="Trazado 126136" d="M1758.4,320.258a2.952,2.952,0,0,1-2.148-.8,2.851,2.851,0,0,1-.828-2.146v-.189a3.382,3.382,0,0,1,.369-1.6,2.77,2.77,0,0,1,2.469-1.5,2.523,2.523,0,0,1,1.968.772,3.174,3.174,0,0,1,.7,2.211v.427h-4.4a2.049,2.049,0,0,0,.561,1.436,1.833,1.833,0,0,0,1.365.546,2.053,2.053,0,0,0,1-.222,2.459,2.459,0,0,0,.713-.589l.678.489A2.8,2.8,0,0,1,1758.4,320.258Zm-.138-5.387a1.538,1.538,0,0,0-1.128.452,2.127,2.127,0,0,0-.564,1.27h3.252v-.078a1.874,1.874,0,0,0-.457-1.214A1.451,1.451,0,0,0,1758.265,314.871Z" transform="translate(-1698.692 -311.617)" fill="#12263f"/>
      <path id="Trazado_126137" data-name="Trazado 126137" d="M1767.5,318.553a.738.738,0,0,0-.339-.647,3.44,3.44,0,0,0-1.182-.4,5.935,5.935,0,0,1-1.338-.4,1.873,1.873,0,0,1-.731-.556,1.256,1.256,0,0,1-.237-.766,1.52,1.52,0,0,1,.675-1.25,2.778,2.778,0,0,1,1.725-.511,2.865,2.865,0,0,1,1.791.527,1.631,1.631,0,0,1,.687,1.349h-1.116a.9.9,0,0,0-.386-.727,1.525,1.525,0,0,0-.975-.305,1.6,1.6,0,0,0-.948.245.75.75,0,0,0-.342.639.613.613,0,0,0,.318.561,4.122,4.122,0,0,0,1.149.361,6.353,6.353,0,0,1,1.347.411,1.949,1.949,0,0,1,.765.575,1.339,1.339,0,0,1,.249.819,1.5,1.5,0,0,1-.7,1.292,3.09,3.09,0,0,1-1.805.486,3.494,3.494,0,0,1-1.38-.256,2.206,2.206,0,0,1-.938-.714,1.632,1.632,0,0,1-.34-.99h1.11a1.041,1.041,0,0,0,.448.819,1.833,1.833,0,0,0,1.1.3,1.9,1.9,0,0,0,1.011-.236A.717.717,0,0,0,1767.5,318.553Z" transform="translate(-1700.198 -311.617)" fill="#12263f"/>
      <path id="Trazado_126138" data-name="Trazado 126138" d="M1771.591,312.065a.585.585,0,0,1,.165-.422.646.646,0,0,1,.489-.172.653.653,0,0,1,.491.172.578.578,0,0,1,.168.422.557.557,0,0,1-.168.416.668.668,0,0,1-.491.167.66.66,0,0,1-.489-.167A.564.564,0,0,1,1771.591,312.065Zm1.2,7.6h-1.109v-6.01h1.109Z" transform="translate(-1701.724 -311.137)" fill="#12263f"/>
      <path id="Trazado_126139" data-name="Trazado 126139" d="M1774.892,316.53a3.329,3.329,0,0,1,.375-1.588,2.665,2.665,0,0,1,1.043-1.089,3.02,3.02,0,0,1,1.527-.383,2.841,2.841,0,0,1,2.144.85,3.12,3.12,0,0,1,.819,2.26v.072a3.36,3.36,0,0,1-.362,1.574,2.627,2.627,0,0,1-1.038,1.085,3.049,3.049,0,0,1-1.551.389,2.838,2.838,0,0,1-2.139-.85,3.107,3.107,0,0,1-.818-2.25Zm1.116.123a2.436,2.436,0,0,0,.5,1.6,1.784,1.784,0,0,0,2.685-.007,2.665,2.665,0,0,0,.5-1.72,2.431,2.431,0,0,0-.507-1.6,1.658,1.658,0,0,0-1.346-.614,1.639,1.639,0,0,0-1.326.605A2.64,2.64,0,0,0,1776.008,316.653Zm2.333-5.593h1.344l-1.608,1.633-.894,0Z" transform="translate(-1702.343 -311.06)" fill="#12263f"/>
      <path id="Trazado_126140" data-name="Trazado 126140" d="M1784.929,314.138l.036.756a2.439,2.439,0,0,1,1.943-.866q2.058,0,2.076,2.149v3.971h-1.11V316.17a1.314,1.314,0,0,0-.322-.96,1.349,1.349,0,0,0-.981-.311,1.693,1.693,0,0,0-.948.266,1.854,1.854,0,0,0-.635.7v4.282h-1.11v-6.01Z" transform="translate(-1704.029 -311.617)" fill="#12263f"/>
    </g>
  </g>
</svg>
