<svg xmlns="http://www.w3.org/2000/svg" width="440" height="440" viewBox="0 0 440 440">
  <g id="Grupo_53351" data-name="Grupo 53351" transform="translate(11014.667 12495)">
    <g id="Grupo_53350" data-name="Grupo 53350" transform="translate(-11008.181 -12471.619)">
      <g id="freepik--background-complete--inject-36" transform="translate(18.783 0)">
        <rect id="Rectángulo_29287" data-name="Rectángulo 29287" width="78.783" height="114.185" transform="translate(16.162 3.829)" fill="#e0e0e0"/>
        <rect id="Rectángulo_29288" data-name="Rectángulo 29288" width="78.783" height="114.185" transform="translate(12.216 3.829)" fill="#f5f5f5"/>
        <rect id="Rectángulo_29289" data-name="Rectángulo 29289" width="59.201" height="89.45" transform="translate(21.997 16.191)" fill="#fff"/>
        <path id="Trazado_99192" data-name="Trazado 99192" d="M1511.253,239.9v-6.585c0-4.286,0-10.541-.058-18.432,0-15.772,0-38.11-.1-64.413l.2.195h-59.2l.214-.214v89.46l-.175-.175,43.1.088,11.9.049h.068l-11.866.049-43.205.088h-.312V150.228h59.62v.195c0,26.362-.078,48.709-.1,64.55,0,7.871,0,14.1-.058,18.373v6.118A2.109,2.109,0,0,1,1511.253,239.9Z" transform="translate(-1429.996 -134.251)" fill="#e0e0e0"/>
        <path id="Trazado_99193" data-name="Trazado 99193" d="M1522.763,137.758a13.947,13.947,0,0,1-1.4,2.036c-.916,1.227-2.211,2.923-3.7,4.686s-2.864,3.4-3.9,4.53a15.067,15.067,0,0,1-1.734,1.773,14.1,14.1,0,0,1,1.5-1.948l3.8-4.608,3.78-4.6A14.73,14.73,0,0,1,1522.763,137.758Z" transform="translate(-1431.55 -133.929)" fill="#e0e0e0"/>
        <path id="Trazado_99194" data-name="Trazado 99194" d="M1513.087,241.978a72.866,72.866,0,0,0,10.326,12.918" transform="translate(-1431.577 -136.62)" fill="#fff"/>
        <path id="Trazado_99195" data-name="Trazado 99195" d="M1523.413,254.9a11.72,11.72,0,0,1-1.8-1.637,58.276,58.276,0,0,1-3.9-4.394c-1.432-1.8-2.621-3.507-3.429-4.774a11.423,11.423,0,0,1-1.2-2.114,17.7,17.7,0,0,1,1.452,1.948c.867,1.218,2.085,2.923,3.507,4.666s2.786,3.341,3.78,4.452A16.7,16.7,0,0,1,1523.413,254.9Z" transform="translate(-1431.577 -136.62)" fill="#e0e0e0"/>
        <path id="Trazado_99196" data-name="Trazado 99196" d="M1441.937,254.591l10.326-12.733" transform="translate(-1429.74 -136.616)" fill="#fff"/>
        <path id="Trazado_99197" data-name="Trazado 99197" d="M1452.263,241.808a78.721,78.721,0,0,1-5,6.5,77.373,77.373,0,0,1-5.329,6.235,78.119,78.119,0,0,1,5-6.508A75.959,75.959,0,0,1,1452.263,241.808Z" transform="translate(-1429.74 -136.615)" fill="#e0e0e0"/>
        <path id="Trazado_99198" data-name="Trazado 99198" d="M1441.957,137.758a72,72,0,0,1,5.007,6.011,71.171,71.171,0,0,1,4.666,6.254,71.938,71.938,0,0,1-5.007-5.982A70.9,70.9,0,0,1,1441.957,137.758Z" transform="translate(-1429.741 -133.929)" fill="#e0e0e0"/>
        <rect id="Rectángulo_29290" data-name="Rectángulo 29290" width="19.825" height="56.289" transform="translate(42.932 34.36)" fill="#e0e0e0"/>
        <rect id="Rectángulo_29291" data-name="Rectángulo 29291" width="78.783" height="114.185" transform="translate(251.72 0)" fill="#e0e0e0"/>
        <rect id="Rectángulo_29292" data-name="Rectángulo 29292" width="78.783" height="114.185" transform="translate(247.775 0)" fill="#f5f5f5"/>
        <rect id="Rectángulo_29293" data-name="Rectángulo 29293" width="59.201" height="89.45" transform="translate(257.556 12.372)" fill="#fff"/>
        <path id="Trazado_99199" data-name="Trazado 99199" d="M1753.005,235.969v-6.576c0-4.286,0-10.531-.049-18.422,0-15.772-.058-38.11-.1-64.413l.195.195h-59.2l.214-.214v89.45l-.175-.166,43.1.088h.107l-43.205.1h-.166v-.175c0-24.589,0-55.7-.049-89.45v-.214h59.542v.195c0,26.352-.078,48.709-.1,64.54,0,7.871,0,14.106-.049,18.383V235.4A2.894,2.894,0,0,1,1753.005,235.969Z" transform="translate(-1436.238 -134.147)" fill="#e0e0e0"/>
        <path id="Trazado_99200" data-name="Trazado 99200" d="M1764.543,133.828a13.156,13.156,0,0,1-1.4,2.046c-.916,1.218-2.211,2.923-3.692,4.686s-2.923,3.39-3.9,4.53a13.535,13.535,0,0,1-1.724,1.763,14.834,14.834,0,0,1,1.5-1.948l3.8-4.6,3.79-4.608A16.059,16.059,0,0,1,1764.543,133.828Z" transform="translate(-1437.791 -133.828)" fill="#e0e0e0"/>
        <path id="Trazado_99201" data-name="Trazado 99201" d="M1754.887,238.058a73.206,73.206,0,0,0,10.327,12.908" transform="translate(-1437.818 -136.518)" fill="#fff"/>
        <path id="Trazado_99202" data-name="Trazado 99202" d="M1765.214,250.966a11.528,11.528,0,0,1-1.8-1.637,54.694,54.694,0,0,1-3.9-4.394,57.218,57.218,0,0,1-3.429-4.764,11.43,11.43,0,0,1-1.2-2.114,15.62,15.62,0,0,1,1.452,1.948c.867,1.227,2.085,2.923,3.507,4.676s2.786,3.332,3.789,4.452A17.983,17.983,0,0,1,1765.214,250.966Z" transform="translate(-1437.818 -136.518)" fill="#e0e0e0"/>
        <path id="Trazado_99203" data-name="Trazado 99203" d="M1683.747,250.592l10.317-12.664" transform="translate(-1435.982 -136.515)" fill="#fff"/>
        <path id="Trazado_99204" data-name="Trazado 99204" d="M1694.064,237.928a77.886,77.886,0,0,1-5,6.508,77.258,77.258,0,0,1-5.319,6.225,79.565,79.565,0,0,1,4.988-6.5A79.612,79.612,0,0,1,1694.064,237.928Z" transform="translate(-1435.982 -136.515)" fill="#e0e0e0"/>
        <path id="Trazado_99205" data-name="Trazado 99205" d="M1683.757,133.828a75.611,75.611,0,0,1,5.007,5.991,73.256,73.256,0,0,1,4.676,6.254,71.841,71.841,0,0,1-5.017-5.991A69.35,69.35,0,0,1,1683.757,133.828Z" transform="translate(-1435.982 -133.828)" fill="#e0e0e0"/>
        <rect id="Rectángulo_29294" data-name="Rectángulo 29294" width="19.825" height="56.289" transform="translate(278.491 30.531)" fill="#e0e0e0"/>
        <path id="Trazado_99206" data-name="Trazado 99206" d="M1456.587,293.271c0-.146.546-.253,1.218-.253s1.218.107,1.218.253-.546.253-1.218.253S1456.587,293.408,1456.587,293.271Z" transform="translate(-1430.119 -137.937)" fill="#e0e0e0"/>
        <path id="Trazado_99207" data-name="Trazado 99207" d="M1446.827,293.27a11.234,11.234,0,0,1,4.744,0,11.235,11.235,0,0,1-4.744,0Z" transform="translate(-1429.867 -137.936)" fill="#e0e0e0"/>
        <path id="Trazado_99208" data-name="Trazado 99208" d="M1437.087,293.27a11.234,11.234,0,0,1,4.744,0,11.236,11.236,0,0,1-4.744,0Z" transform="translate(-1429.615 -137.936)" fill="#e0e0e0"/>
        <path id="Trazado_99209" data-name="Trazado 99209" d="M1429.7,295.707a6.147,6.147,0,0,1-.253-2.435l.253-.253h1.724c.438.049.711.107.711.185s-.273.127-.711.175l-.779.058h-.974l.253-.253A6.141,6.141,0,0,1,1429.7,295.707Z" transform="translate(-1429.417 -137.937)" fill="#e0e0e0"/>
        <path id="Trazado_99210" data-name="Trazado 99210" d="M1429.7,305.629a6.147,6.147,0,0,1-.253-2.435,1.231,1.231,0,1,1,.253,2.435Z" transform="translate(-1429.417 -138.137)" fill="#e0e0e0"/>
        <path id="Trazado_99211" data-name="Trazado 99211" d="M1429.7,315.609a6.147,6.147,0,0,1-.253-2.435,1.231,1.231,0,1,1,.253,2.435Z" transform="translate(-1429.417 -138.395)" fill="#e0e0e0"/>
        <path id="Trazado_99212" data-name="Trazado 99212" d="M1429.7,325.589a6.147,6.147,0,0,1-.253-2.435,1.231,1.231,0,1,1,.253,2.435Z" transform="translate(-1429.417 -138.652)" fill="#e0e0e0"/>
        <path id="Trazado_99213" data-name="Trazado 99213" d="M1429.7,335.569a11.788,11.788,0,0,1,0-4.871A11.792,11.792,0,0,1,1429.7,335.569Z" transform="translate(-1429.418 -138.91)" fill="#e0e0e0"/>
        <path id="Trazado_99214" data-name="Trazado 99214" d="M1429.7,345.549a11.788,11.788,0,0,1,0-4.871A11.792,11.792,0,0,1,1429.7,345.549Z" transform="translate(-1429.418 -139.167)" fill="#e0e0e0"/>
        <path id="Trazado_99215" data-name="Trazado 99215" d="M1429.7,355.529a11.788,11.788,0,0,1,0-4.871A11.792,11.792,0,0,1,1429.7,355.529Z" transform="translate(-1429.418 -139.425)" fill="#e0e0e0"/>
        <path id="Trazado_99216" data-name="Trazado 99216" d="M1429.7,365.509a11.788,11.788,0,0,1,0-4.871A11.792,11.792,0,0,1,1429.7,365.509Z" transform="translate(-1429.418 -139.682)" fill="#e0e0e0"/>
        <path id="Trazado_99217" data-name="Trazado 99217" d="M1429.7,375.489a11.788,11.788,0,0,1,0-4.871A11.792,11.792,0,0,1,1429.7,375.489Z" transform="translate(-1429.418 -139.94)" fill="#e0e0e0"/>
        <path id="Trazado_99218" data-name="Trazado 99218" d="M1429.7,385.469a6.083,6.083,0,0,1-.253-2.426,1.231,1.231,0,1,1,.507,0A6.07,6.07,0,0,1,1429.7,385.469Z" transform="translate(-1429.417 -140.198)" fill="#e0e0e0"/>
        <path id="Trazado_99219" data-name="Trazado 99219" d="M1429.7,395.449a6.083,6.083,0,0,1-.253-2.426,1.231,1.231,0,1,1,.507,0A6.07,6.07,0,0,1,1429.7,395.449Z" transform="translate(-1429.417 -140.455)" fill="#e0e0e0"/>
        <path id="Trazado_99220" data-name="Trazado 99220" d="M1429.7,405.429a6.083,6.083,0,0,1-.253-2.426,1.231,1.231,0,1,1,.507,0A6.07,6.07,0,0,1,1429.7,405.429Z" transform="translate(-1429.417 -140.713)" fill="#e0e0e0"/>
        <path id="Trazado_99221" data-name="Trazado 99221" d="M1429.7,415.409a6.083,6.083,0,0,1-.253-2.426,1.231,1.231,0,1,1,.507,0A6.07,6.07,0,0,1,1429.7,415.409Z" transform="translate(-1429.417 -140.971)" fill="#e0e0e0"/>
        <path id="Trazado_99222" data-name="Trazado 99222" d="M1429.7,425.4a6.147,6.147,0,0,1-.253-2.435,1.231,1.231,0,1,1,.253,2.435Z" transform="translate(-1429.417 -141.229)" fill="#e0e0e0"/>
        <path id="Trazado_99223" data-name="Trazado 99223" d="M1429.7,435.379a6.147,6.147,0,0,1-.253-2.435,1.231,1.231,0,1,1,.253,2.435Z" transform="translate(-1429.417 -141.486)" fill="#e0e0e0"/>
        <path id="Trazado_99224" data-name="Trazado 99224" d="M1429.7,445.359a6.147,6.147,0,0,1-.253-2.435,1.231,1.231,0,1,1,.253,2.435Z" transform="translate(-1429.417 -141.744)" fill="#e0e0e0"/>
        <path id="Trazado_99225" data-name="Trazado 99225" d="M1429.7,455.339a6.147,6.147,0,0,1-.253-2.435,1.231,1.231,0,1,1,.253,2.435Z" transform="translate(-1429.417 -142.001)" fill="#e0e0e0"/>
        <path id="Trazado_99226" data-name="Trazado 99226" d="M1432.136,462.864a6.134,6.134,0,0,1-2.435.253l-.253-.253h0v-.916a3.217,3.217,0,0,1,.058-.779c0-.438.107-.711.175-.711s.136.273.175.711a3.818,3.818,0,0,0,.058.779v.916h0l-.253-.253A5.965,5.965,0,0,1,1432.136,462.864Z" transform="translate(-1429.418 -142.259)" fill="#e0e0e0"/>
        <path id="Trazado_99227" data-name="Trazado 99227" d="M1442.572,462.92a6.819,6.819,0,0,1-2.562.253,6.71,6.71,0,0,1-2.552-.253,6.5,6.5,0,0,1,2.552-.253A6.569,6.569,0,0,1,1442.572,462.92Z" transform="translate(-1429.625 -142.315)" fill="#e0e0e0"/>
        <path id="Trazado_99228" data-name="Trazado 99228" d="M1453.062,462.92a6.708,6.708,0,0,1-2.552.253,6.818,6.818,0,0,1-2.562-.253,6.569,6.569,0,0,1,2.562-.253A6.5,6.5,0,0,1,1453.062,462.92Z" transform="translate(-1429.896 -142.315)" fill="#e0e0e0"/>
        <path id="Trazado_99229" data-name="Trazado 99229" d="M1463.562,462.92a6.819,6.819,0,0,1-2.562.253,6.709,6.709,0,0,1-2.552-.253,6.5,6.5,0,0,1,2.552-.253A6.569,6.569,0,0,1,1463.562,462.92Z" transform="translate(-1430.167 -142.315)" fill="#e0e0e0"/>
        <path id="Trazado_99230" data-name="Trazado 99230" d="M1471.383,462.921c0,.136-.546.253-1.218.253s-1.218-.117-1.218-.253.546-.253,1.218-.253S1471.383,462.8,1471.383,462.921Z" transform="translate(-1430.438 -142.316)" fill="#e0e0e0"/>
        <path id="Trazado_99231" data-name="Trazado 99231" d="M1651.258,136.538v63.137H1560.58l-3.273-62.7Z" transform="translate(-1432.718 -133.898)" fill="#e0e0e0"/>
        <rect id="Rectángulo_29295" data-name="Rectángulo 29295" width="90.677" height="62.562" transform="translate(124.589 3.079)" fill="#fff"/>
        <path id="Trazado_99232" data-name="Trazado 99232" d="M1648.4,199.968h-91.574v-63.42H1648.4Zm-90.687-.857h89.82V137.405h-89.82Z" transform="translate(-1432.706 -133.898)" fill="#e0e0e0"/>
        <rect id="Rectángulo_29296" data-name="Rectángulo 29296" width="71.038" height="47.014" transform="translate(134.409 10.853)" fill="#fff"/>
        <path id="Trazado_99233" data-name="Trazado 99233" d="M1638.416,144.92h-5.222l-14.613.058-51.135.1.2-.2v47.014h0l-.224-.224,71.038.049-.175.175c0-14.3.068-26.04.1-34.2v-.117c0,8.2.058,19.971.1,34.321v.185h-71.447v-.224h0V144.628h.2l51.271.1,14.613.058h5.212Z" transform="translate(-1432.969 -134.107)" fill="#e0e0e0"/>
        <path id="Trazado_99234" data-name="Trazado 99234" d="M1557.307,136.808a7.547,7.547,0,0,1,1.559.974c.926.672,2.192,1.617,3.556,2.708s2.562,2.124,3.41,2.923a6.991,6.991,0,0,1,1.3,1.305c-.078.1-2.26-1.7-4.988-3.9A49.663,49.663,0,0,1,1557.307,136.808Z" transform="translate(-1432.718 -133.905)" fill="#e0e0e0"/>
        <path id="Trazado_99235" data-name="Trazado 99235" d="M1650.127,136.988a43.128,43.128,0,0,1-4.764,4.062,43.262,43.262,0,0,1-5.056,3.673,44.027,44.027,0,0,1,4.774-4.062A45.132,45.132,0,0,1,1650.127,136.988Z" transform="translate(-1434.861 -133.91)" fill="#e0e0e0"/>
        <path id="Trazado_99236" data-name="Trazado 99236" d="M1650.049,201l-10.112-8.193" transform="translate(-1434.851 -135.35)" fill="#fff"/>
        <path id="Trazado_99237" data-name="Trazado 99237" d="M1639.937,192.808a46.672,46.672,0,0,1,5.2,3.9,47.575,47.575,0,0,1,4.871,4.267,45.946,45.946,0,0,1-5.192-3.9A47.121,47.121,0,0,1,1639.937,192.808Z" transform="translate(-1434.851 -135.35)" fill="#e0e0e0"/>
        <path id="Trazado_99238" data-name="Trazado 99238" d="M1557.307,201a41.994,41.994,0,0,1,4.725-4.014,42.765,42.765,0,0,1,5-3.673,42.469,42.469,0,0,1-4.725,4.023A43.169,43.169,0,0,1,1557.307,201Z" transform="translate(-1432.718 -135.364)" fill="#e0e0e0"/>
        <rect id="Rectángulo_29297" data-name="Rectángulo 29297" width="44.696" height="15.743" transform="translate(148.836 25.504)" fill="#e0e0e0"/>
      </g>
      <g id="freepik--Printer--inject-36" transform="translate(48.904 79.981)">
        <path id="Trazado_99239" data-name="Trazado 99239" d="M1551.276,273.638h191.915a3.419,3.419,0,0,1,3.419,3.419h0v76.961H1547.827V277.057a3.419,3.419,0,0,1,3.419-3.419Z" transform="translate(-1462.595 -217.418)" fill="#7acbd4"/>
        <path id="Trazado_99240" data-name="Trazado 99240" d="M1551.276,273.638h191.915a3.419,3.419,0,0,1,3.419,3.419h0v76.961H1547.827V277.057a3.419,3.419,0,0,1,3.419-3.419Z" transform="translate(-1462.595 -217.418)" opacity="0.5" style="isolation: isolate"/>
        <rect id="Rectángulo_29298" data-name="Rectángulo 29298" width="169.548" height="216.435" transform="translate(100.273 1.033)" fill="#fff"/>
        <rect id="Rectángulo_29299" data-name="Rectángulo 29299" width="169.548" height="41.5" transform="translate(100.205 0.263)" fill="#dff2f5"/>
        <rect id="Rectángulo_29300" data-name="Rectángulo 29300" width="64.608" height="10.453" transform="translate(108.68 35.49)" fill="#7acbd4"/>
        <rect id="Rectángulo_29301" data-name="Rectángulo 29301" width="151.476" height="15.012" transform="translate(108.68 87.56)" fill="#eff9fa"/>
        <rect id="Rectángulo_29302" data-name="Rectángulo 29302" width="151.476" height="15.012" transform="translate(108.68 102.563)" fill="#9dd8de"/>
        <path id="Trazado_99241" data-name="Trazado 99241" d="M1578.987,255.978h.292v2.747h-.292Z" transform="translate(-1463.4 -216.962)" fill="#fff"/>
        <path id="Trazado_99242" data-name="Trazado 99242" d="M1582.047,257.545v1.2h-.263v-1.169c0-.438-.224-.662-.614-.662a.682.682,0,0,0-.723.638.612.612,0,0,0,0,.112v1.081h-.283v-2.065h.263v.38a.888.888,0,0,1,.789-.39.789.789,0,0,1,.832.744A.751.751,0,0,1,1582.047,257.545Z" transform="translate(-1463.43 -216.98)" fill="#fff"/>
        <path id="Trazado_99243" data-name="Trazado 99243" d="M1584.561,256.678l-.916,2.065h-.292l-.916-2.065h.292l.77,1.763.789-1.763Z" transform="translate(-1463.489 -216.98)" fill="#fff"/>
        <path id="Trazado_99244" data-name="Trazado 99244" d="M1584.747,257.71a1.052,1.052,0,1,1,1.052,1.052.974.974,0,0,1-1.052-.889A.9.9,0,0,1,1584.747,257.71Zm1.812,0a.751.751,0,0,0-.71-.788h-.05a.809.809,0,1,0,.759.856c0-.02,0-.038,0-.057Z" transform="translate(-1463.548 -216.979)" fill="#fff"/>
        <path id="Trazado_99245" data-name="Trazado 99245" d="M1587.417,256a.2.2,0,0,1,.2-.195.2.2,0,0,1,.2.185V256a.2.2,0,0,1-.2.2h0a.2.2,0,0,1-.2-.2Zm.068.653h.273v2.065h-.273Z" transform="translate(-1463.617 -216.957)" fill="#fff"/>
        <path id="Trazado_99246" data-name="Trazado 99246" d="M1588.357,257.71a.973.973,0,0,1,.9-1.043,1,1,0,0,1,.163,0,.9.9,0,0,1,.808.409l-.2.136a.712.712,0,0,0-.6-.3.809.809,0,0,0,0,1.607.71.71,0,0,0,.6-.3l.2.136a.9.9,0,0,1-.808.409.974.974,0,0,1-1.061-.879A.935.935,0,0,1,1588.357,257.71Z" transform="translate(-1463.641 -216.979)" fill="#fff"/>
        <path id="Trazado_99247" data-name="Trazado 99247" d="M1592.594,257.8h-1.724a.769.769,0,0,0,.809.721.8.8,0,0,0,.633-.273l.156.185a1.091,1.091,0,0,1-1.88-.721,1,1,0,1,1,2.007,0Zm-1.724-.2h1.461a.731.731,0,1,0-1.461,0Z" transform="translate(-1463.699 -216.981)" fill="#fff"/>
        <path id="Trazado_99248" data-name="Trazado 99248" d="M1596.985,256.9l-.107.818h.565v.224h-.584l-.1.74h-.2l.088-.74h-.838l-.088.74h-.214l.088-.74h-.555v-.224h.584l.1-.818h-.555v-.214h.584l.1-.75h.214l-.1.75h.818l.088-.75h.214l-.088.75h.555v.214Zm-.214,0h-.8l-.107.818h.809Z" transform="translate(-1463.814 -216.961)" fill="#fff"/>
        <path id="Trazado_99249" data-name="Trazado 99249" d="M1599.776,257.936c0,.458-.331.818-.974.818a1.451,1.451,0,0,1-.974-.36l.146-.224a1.188,1.188,0,0,0,.848.322c.458,0,.7-.214.7-.555s-.224-.546-.74-.546h-.195v-.2l.76-.974h-1.4v-.253h1.763v.2l-.77.974C1599.483,257.185,1599.776,257.5,1599.776,257.936Z" transform="translate(-1463.886 -216.961)" fill="#fff"/>
        <path id="Trazado_99250" data-name="Trazado 99250" d="M1602.575,258h-.555v.721h-.234V258h-1.549v-.2l1.461-1.822h.312l-1.4,1.773h1.179v-.633h.273v.633h.555Z" transform="translate(-1463.948 -216.962)" fill="#fff"/>
        <path id="Trazado_99251" data-name="Trazado 99251" d="M1604.775,257.877c0,.468-.322.838-.974.838a1.424,1.424,0,0,1-.974-.36l.136-.224a1.178,1.178,0,0,0,.838.322c.468,0,.721-.224.721-.565s-.224-.565-.916-.565h-.584l.136-1.383h1.5v.253H1603.4l-.088.877h.351C1604.434,257.107,1604.775,257.428,1604.775,257.877Z" transform="translate(-1464.015 -216.961)" fill="#fff"/>
        <path id="Trazado_99252" data-name="Trazado 99252" d="M1607.231,257.876a.857.857,0,0,1-.859.855.761.761,0,0,1-.115-.008c-.731,0-1.13-.507-1.13-1.374a1.311,1.311,0,0,1,1.91-1.276l-.117.224a.981.981,0,0,0-.536-.127c-.594,0-.974.38-.974,1.13v.224a.877.877,0,0,1,.838-.477.828.828,0,0,1,.984.828Zm-.282,0c0-.36-.263-.594-.692-.594a.634.634,0,0,0-.7.561c0,.015,0,.028,0,.043,0,.3.253.585.721.585a.6.6,0,0,0,.668-.532.436.436,0,0,0,0-.062Z" transform="translate(-1464.074 -216.96)" fill="#fff"/>
        <path id="Trazado_99253" data-name="Trazado 99253" d="M1609.493,258.471v.253h-1.948v-.195l1.14-1.12c.312-.312.37-.5.37-.682a.618.618,0,0,0-.643-.516.979.979,0,0,0-.75.312l-.195-.175a1.24,1.24,0,0,1,.974-.39c.555,0,.906.283.906.74a1.117,1.117,0,0,1-.448.857l-.974.916Z" transform="translate(-1464.135 -216.961)" fill="#fff"/>
        <path id="Trazado_99254" data-name="Trazado 99254" d="M1669.057,233.478h1.637V242.3h-1.637Z" transform="translate(-1465.724 -216.381)" fill="#162f37"/>
        <path id="Trazado_99255" data-name="Trazado 99255" d="M1681.028,233.478V242.3h-1.374l-4.871-5.982V242.3h-1.627v-8.826h1.354l4.871,5.972v-5.972Z" transform="translate(-1465.83 -216.381)" fill="#162f37"/>
        <path id="Trazado_99256" data-name="Trazado 99256" d="M1691.649,233.478,1687.8,242.3h-1.617l-3.9-8.826h1.783l2.923,6.819,2.923-6.819Z" transform="translate(-1466.066 -216.381)" fill="#162f37"/>
        <path id="Trazado_99257" data-name="Trazado 99257" d="M1692.117,237.876a4.764,4.764,0,1,1,4.983,4.535c-.076,0-.153,0-.229,0a4.52,4.52,0,0,1-4.748-4.28Q1692.117,238.006,1692.117,237.876Zm7.852,0a3.108,3.108,0,1,0-3.117,3.1h.019a3.009,3.009,0,0,0,3.1-2.92Q1699.972,237.965,1699.969,237.876Z" transform="translate(-1466.32 -216.366)" fill="#162f37"/>
        <path id="Trazado_99258" data-name="Trazado 99258" d="M1703.667,233.478h1.637V242.3h-1.637Z" transform="translate(-1466.618 -216.381)" fill="#162f37"/>
        <path id="Trazado_99259" data-name="Trazado 99259" d="M1707.147,237.888a4.784,4.784,0,0,1,8.222-3.069l-1.062.974a3.173,3.173,0,1,0-2.705,5.163,2.963,2.963,0,0,0,.348,0,3.087,3.087,0,0,0,2.358-1.042l1.062.974a4.774,4.774,0,0,1-8.222-3.059Z" transform="translate(-1466.708 -216.378)" fill="#162f37"/>
        <path id="Trazado_99260" data-name="Trazado 99260" d="M1723.822,240.931V242.3h-6.615v-8.826h6.449v1.413h-4.8v2.289h4.257v1.354h-4.257v2.435Z" transform="translate(-1466.968 -216.381)" fill="#162f37"/>
        <path id="Trazado_99261" data-name="Trazado 99261" d="M1701.356,271.481a14.024,14.024,0,0,1-5.309,0A14.064,14.064,0,0,1,1701.356,271.481Z" transform="translate(-1466.421 -217.355)" fill="#162f37"/>
        <path id="Trazado_99262" data-name="Trazado 99262" d="M1702.457,273.635a11.918,11.918,0,0,1,1.773-4.627,6.416,6.416,0,0,1-.653,2.406A6.331,6.331,0,0,1,1702.457,273.635Z" transform="translate(-1466.587 -217.298)" fill="#162f37"/>
        <path id="Trazado_99263" data-name="Trazado 99263" d="M1709.353,271.481a7.78,7.78,0,0,1-3.945,0c0-.146.886-.253,1.948-.253S1709.353,271.335,1709.353,271.481Z" transform="translate(-1466.663 -217.355)" fill="#162f37"/>
        <path id="Trazado_99264" data-name="Trazado 99264" d="M1711.117,273.1a4.681,4.681,0,0,1,.5-2.075c.4-1.091.828-1.948.974-1.89a4.608,4.608,0,0,1-.5,2.065C1711.682,272.3,1711.253,273.152,1711.117,273.1Z" transform="translate(-1466.81 -217.301)" fill="#162f37"/>
        <path id="Trazado_99265" data-name="Trazado 99265" d="M1721.118,271.481a30.826,30.826,0,0,1-7.891,0A30.914,30.914,0,0,1,1721.118,271.481Z" transform="translate(-1466.865 -217.355)" fill="#162f37"/>
        <rect id="Rectángulo_29303" data-name="Rectángulo 29303" width="151.476" height="10.453" transform="translate(108.68 77.107)" fill="#7acbd4"/>
        <path id="Trazado_99266" data-name="Trazado 99266" d="M1617.825,314.321c0,.136-7.277.253-16.259.253s-16.259-.117-16.259-.253,7.277-.253,16.259-.253S1617.825,314.185,1617.825,314.321Z" transform="translate(-1463.563 -218.461)" fill="#162f37"/>
        <path id="Trazado_99267" data-name="Trazado 99267" d="M1672.911,314.68a99.4,99.4,0,0,1-14.184,0,99.425,99.425,0,0,1,14.184,0Z" transform="translate(-1465.458 -218.47)" fill="#162f37"/>
        <path id="Trazado_99268" data-name="Trazado 99268" d="M1693.744,313.791c0,.136-.7.253-1.559.253s-1.559-.117-1.559-.253.7-.253,1.559-.253S1693.744,313.645,1693.744,313.791Z" transform="translate(-1466.281 -218.447)" fill="#162f37"/>
        <path id="Trazado_99269" data-name="Trazado 99269" d="M1721.313,314.141a78.8,78.8,0,0,1-12.625,0,78.791,78.791,0,0,1,12.625,0Z" transform="translate(-1466.747 -218.456)" fill="#162f37"/>
        <path id="Trazado_99270" data-name="Trazado 99270" d="M1634.6,329.241c0,.136-11.028.253-24.647.253s-24.647-.117-24.647-.253,11.037-.253,24.647-.253S1634.6,329.1,1634.6,329.241Z" transform="translate(-1463.563 -218.846)" fill="#162f37"/>
        <path id="Trazado_99271" data-name="Trazado 99271" d="M1670.318,329.41a67.006,67.006,0,0,1-11.641,0,67.006,67.006,0,0,1,11.641,0Z" transform="translate(-1465.457 -218.85)" fill="#162f37"/>
        <path id="Trazado_99272" data-name="Trazado 99272" d="M1694.368,329.241a10.114,10.114,0,0,1-4.5,0A10.143,10.143,0,0,1,1694.368,329.241Z" transform="translate(-1466.262 -218.846)" fill="#162f37"/>
        <path id="Trazado_99273" data-name="Trazado 99273" d="M1719.556,328.921a72.421,72.421,0,0,1-12.109,0A72.63,72.63,0,0,1,1719.556,328.921Z" transform="translate(-1466.715 -218.838)" fill="#162f37"/>
        <rect id="Rectángulo_29304" data-name="Rectángulo 29304" width="71.369" height="9.303" transform="translate(188.359 139.894)" fill="#7acbd4"/>
        <path id="Trazado_99274" data-name="Trazado 99274" d="M1710.428,346.03a142.068,142.068,0,0,1-16.961,0,142.1,142.1,0,0,1,16.961,0Z" transform="translate(-1466.355 -219.279)" fill="#162f37"/>
        <path id="Trazado_99275" data-name="Trazado 99275" d="M1710.428,352.44a142.086,142.086,0,0,1-16.961,0,142.086,142.086,0,0,1,16.961,0Z" transform="translate(-1466.355 -219.444)" fill="#162f37"/>
        <path id="Trazado_99276" data-name="Trazado 99276" d="M1678.077,352.44a142.249,142.249,0,0,1-16.97,0,142.249,142.249,0,0,1,16.97,0Z" transform="translate(-1465.519 -219.444)" fill="#162f37"/>
        <path id="Trazado_99277" data-name="Trazado 99277" d="M1677.856,345.711c0,.136-5.67.253-12.665.253s-12.664-.117-12.664-.253,5.66-.253,12.664-.253S1677.856,345.575,1677.856,345.711Z" transform="translate(-1465.298 -219.271)" fill="#162f37"/>
        <path id="Trazado_99278" data-name="Trazado 99278" d="M1710.428,364.771a142.1,142.1,0,0,1-16.961,0,142.086,142.086,0,0,1,16.961,0Z" transform="translate(-1466.355 -219.763)" fill="#fff"/>
        <path id="Trazado_99279" data-name="Trazado 99279" d="M1679.037,364.771a142.266,142.266,0,0,1-16.97,0,142.249,142.249,0,0,1,16.97,0Z" transform="translate(-1465.544 -219.763)" fill="#fff"/>
        <rect id="Rectángulo_29305" data-name="Rectángulo 29305" width="4.89" height="4.89" rx="1.6" transform="translate(113.639 15.47)" fill="#7acbd4"/>
        <path id="Trazado_99280" data-name="Trazado 99280" d="M1578.116,237.8h0a.283.283,0,0,0,.283.283h4.7v-4.871a.283.283,0,0,0-.283-.283h0a.292.292,0,0,0-.292.283v4.208H1578.4a.282.282,0,0,0-.3.265A.276.276,0,0,0,1578.116,237.8Z" transform="translate(-1463.377 -216.367)" fill="#7acbd4"/>
        <path id="Trazado_99281" data-name="Trazado 99281" d="M1613.644,233.541c0,.136-6.283.253-14.028.253s-14.028-.117-14.028-.253,6.274-.253,14.028-.253S1613.644,233.4,1613.644,233.541Z" transform="translate(-1463.57 -216.376)" fill="#7acbd4"/>
        <path id="Trazado_99282" data-name="Trazado 99282" d="M1600.648,236.3a106.637,106.637,0,0,1-14.691,0,106.637,106.637,0,0,1,14.691,0Z" transform="translate(-1463.58 -216.447)" fill="#7acbd4"/>
        <path id="Trazado_99283" data-name="Trazado 99283" d="M1732.741,432.617c0-2-.088-87.969-.224-216.426l.224.224H1563.233l.253-.253V432.587l-.214-.2,169.509.2-169.509.214h-.2V215.928h170.015v.234C1732.839,344.647,1732.741,430.629,1732.741,432.617Z" transform="translate(-1462.989 -215.928)" fill="#162f37"/>
        <path id="Trazado_99284" data-name="Trazado 99284" d="M1648.573,277.211c0,.136-9.07.253-20.253.253s-20.263-.117-20.263-.253,9.07-.253,20.263-.253S1648.573,277.065,1648.573,277.211Z" transform="translate(-1464.15 -217.503)" fill="#162f37"/>
        <path id="Trazado_99285" data-name="Trazado 99285" d="M1648.573,281.191c0,.136-9.07.253-20.253.253s-20.263-.117-20.263-.253,9.07-.253,20.263-.253S1648.573,281.045,1648.573,281.191Z" transform="translate(-1464.15 -217.606)" fill="#162f37"/>
        <path id="Trazado_99286" data-name="Trazado 99286" d="M1623.206,285.171a113.388,113.388,0,0,1-15.149,0,117.911,117.911,0,0,1,15.149,0Z" transform="translate(-1464.15 -217.708)" fill="#162f37"/>
        <path id="Trazado_99287" data-name="Trazado 99287" d="M1648.279,272.921c0,.136-17.058.253-38.091.253s-38.091-.117-38.091-.253,17.048-.253,38.091-.253S1648.279,272.795,1648.279,272.921Z" transform="translate(-1463.222 -217.393)" fill="#162f37"/>
        <path id="Trazado_99288" data-name="Trazado 99288" d="M1618.747,300.441c0,.136-7.6.253-16.98.253s-16.99-.117-16.99-.253,7.6-.253,16.99-.253S1618.747,300.3,1618.747,300.441Z" transform="translate(-1463.549 -218.103)" fill="#fff"/>
        <path id="Trazado_99289" data-name="Trazado 99289" d="M1673.43,300.44a159.724,159.724,0,0,1-17.983,0,159.724,159.724,0,0,1,17.983,0Z" transform="translate(-1465.373 -218.102)" fill="#fff"/>
        <path id="Trazado_99290" data-name="Trazado 99290" d="M1699.954,300.44a87.9,87.9,0,0,1-13.337,0,87.9,87.9,0,0,1,13.337,0Z" transform="translate(-1466.178 -218.102)" fill="#fff"/>
        <path id="Trazado_99291" data-name="Trazado 99291" d="M1722.774,300.44a87.774,87.774,0,0,1-13.327,0,87.774,87.774,0,0,1,13.327,0Z" transform="translate(-1466.767 -218.102)" fill="#fff"/>
        <path id="Trazado_99292" data-name="Trazado 99292" d="M1460.337,533.313V365.655a10.3,10.3,0,0,1,10.3-10.3h344.707a10.3,10.3,0,0,1,10.3,10.3V533.313Z" transform="translate(-1460.337 -219.527)" fill="#7acbd4"/>
        <circle id="Elipse_9" data-name="Elipse 9" cx="16.142" cy="16.142" r="16.142" transform="translate(227.941 159.153)" fill="#162f37"/>
        <path id="Trazado_99293" data-name="Trazado 99293" d="M1730.084,395.338a29.712,29.712,0,0,0-.721-4.793,18.8,18.8,0,0,0-2.2-5.2,19.532,19.532,0,0,0-23.439-8.3,18.243,18.243,0,0,0-4.929,2.66,21.086,21.086,0,0,0-2.2,1.88,22.53,22.53,0,0,0-1.948,2.25,19.386,19.386,0,0,0,0,23,23.509,23.509,0,0,0,1.948,2.26,20.759,20.759,0,0,0,2.2,1.87,18.188,18.188,0,0,0,4.929,2.66,19.59,19.59,0,0,0,23.439-8.29,18.994,18.994,0,0,0,2.2-5.212,29.7,29.7,0,0,0,.721-4.783,1.111,1.111,0,0,1,0,.312v.974a9.47,9.47,0,0,1-.127,1.529,15.282,15.282,0,0,1-.38,2.056,18.423,18.423,0,0,1-2.143,5.309,19.872,19.872,0,0,1-23.9,8.631,18.752,18.752,0,0,1-5.066-2.718,21.188,21.188,0,0,1-2.27-1.948,22.352,22.352,0,0,1-1.948-2.319,19.872,19.872,0,0,1,0-23.663,22.555,22.555,0,0,1,1.948-2.319,21.185,21.185,0,0,1,2.27-1.948,18.546,18.546,0,0,1,5.066-2.708,19.848,19.848,0,0,1,23.9,8.622,18.424,18.424,0,0,1,2.143,5.309,15.145,15.145,0,0,1,.38,2.065,9.36,9.36,0,0,1,.127,1.52v.974A1.182,1.182,0,0,1,1730.084,395.338Z" transform="translate(-1466.274 -220.043)" fill="#162f37"/>
        <path id="Trazado_99294" data-name="Trazado 99294" d="M1824.577,431.781c0,.146-81.53.253-182.1.253s-182.1-.117-182.1-.253,81.52-.253,182.1-.253S1824.577,431.645,1824.577,431.781Z" transform="translate(-1460.338 -221.493)" fill="#162f37"/>
        <path id="Trazado_99295" data-name="Trazado 99295" d="M1746.608,312.678V327h-9.4v29.547h23.721V312.678Z" transform="translate(-1467.484 -218.425)" fill="#7acbd4"/>
        <path id="Trazado_99296" data-name="Trazado 99296" d="M1553.208,327V312.678h-14.33v41.783h23.731V327Z" transform="translate(-1462.364 -218.425)" fill="#7acbd4"/>
        <path id="Trazado_99297" data-name="Trazado 99297" d="M1753.659,537.544l-221.092-5.037V519.278h221.092Z" transform="translate(-1462.201 -223.758)" opacity="0.3" style="isolation: isolate"/>
        <rect id="Rectángulo_29306" data-name="Rectángulo 29306" width="211.555" height="39.435" transform="translate(76.425 234.555)" opacity="0.5" style="isolation: isolate"/>
        <path id="Trazado_99298" data-name="Trazado 99298" d="M1812.6,355.341c0,.136-76.552.253-170.97.253s-170.98-.117-170.98-.253,76.542-.253,170.98-.253S1812.6,355.2,1812.6,355.341Z" transform="translate(-1460.603 -219.52)" fill="#162f37"/>
        <path id="Trazado_99299" data-name="Trazado 99299" d="M1662.05,430.33c-.146,0-.253-16.717-.253-37.341s.107-37.331.253-37.331.253,16.707.253,37.331S1662.187,430.33,1662.05,430.33Z" transform="translate(-1465.537 -219.535)" fill="#162f37"/>
        <path id="Trazado_99300" data-name="Trazado 99300" d="M1519.69,428.676c-.136,0-.253-16.405-.253-36.649s.117-36.659.253-36.659.253,16.415.253,36.659S1519.817,428.676,1519.69,428.676Z" transform="translate(-1461.863 -219.527)" fill="#162f37"/>
        <path id="Trazado_99301" data-name="Trazado 99301" d="M1706.3,390.348a11.052,11.052,0,0,0-.9.974,7.068,7.068,0,0,0-1.461,3.3,6.82,6.82,0,0,0,1.188,5.085,7.1,7.1,0,0,0,2.338,2.075,6.819,6.819,0,0,0,8.826-2.1,6.925,6.925,0,0,0,1.159-5.066,7.075,7.075,0,0,0-1.481-3.283c-.546-.682-.974-.974-.906-.974s.117.049.3.185a5.938,5.938,0,0,1,.76.692,7.04,7.04,0,0,1,1.685,3.361,7.237,7.237,0,0,1-10.57,7.706,7.573,7.573,0,0,1-2.484-2.241,7.181,7.181,0,0,1-1.169-5.426,7.006,7.006,0,0,1,1.666-3.361,6.225,6.225,0,0,1,.75-.7C1706.195,390.4,1706.292,390.328,1706.3,390.348Z" transform="translate(-1466.613 -220.43)" fill="#eff9fa"/>
        <path id="Trazado_99302" data-name="Trazado 99302" d="M1710.88,386.288a66.481,66.481,0,0,1,0,11.6A66.5,66.5,0,0,1,1710.88,386.288Z" transform="translate(-1466.797 -220.325)" fill="#eff9fa"/>
        <rect id="Rectángulo_29307" data-name="Rectángulo 29307" width="68.057" height="34.769" rx="1.79" transform="translate(93.142 158.676)" fill="#fff"/>
        <path id="Trazado_99303" data-name="Trazado 99303" d="M1589.259,388.1l-.906-.906-.925.925v7.482l.974.974.916-.916Z" transform="translate(-1463.618 -220.349)" fill="#162f37"/>
        <path id="Trazado_99304" data-name="Trazado 99304" d="M1589.259,398.054l-.906-.906-.925.926v7.482l.974.974.916-.916Z" transform="translate(-1463.618 -220.606)" fill="#162f37"/>
        <path id="Trazado_99305" data-name="Trazado 99305" d="M1599.278,398.054l-.916-.906-.925.926v7.482l.974.974.916-.916Z" transform="translate(-1463.876 -220.606)" fill="#162f37"/>
        <path id="Trazado_99306" data-name="Trazado 99306" d="M1599.338,388.1l-.906-.906-.935.925v7.482l.974.974.926-.916Z" transform="translate(-1463.877 -220.349)" fill="#162f37"/>
        <path id="Trazado_99307" data-name="Trazado 99307" d="M1589.433,386.087l-.906.906.925.926h7.482l.974-.974-.916-.916Z" transform="translate(-1463.646 -220.319)" fill="#162f37"/>
        <path id="Trazado_99308" data-name="Trazado 99308" d="M1589.433,406.057l-.906.906.925.926h7.482l.974-.974-.916-.916Z" transform="translate(-1463.646 -220.834)" fill="#162f37"/>
        <path id="Trazado_99309" data-name="Trazado 99309" d="M1589.433,396.087l-.906.906.925.926h7.482l.974-.974-.916-.916Z" transform="translate(-1463.646 -220.577)" fill="#9dd8de"/>
        <path id="Trazado_99310" data-name="Trazado 99310" d="M1607.329,387.944l-.906-.906-.926.926v7.482l.974.974.916-.916Z" transform="translate(-1464.084 -220.345)" fill="#9dd8de"/>
        <path id="Trazado_99311" data-name="Trazado 99311" d="M1607.329,397.894l-.906-.906-.926.925V405.4l.974.974.916-.916Z" transform="translate(-1464.084 -220.602)" fill="#162f37"/>
        <path id="Trazado_99312" data-name="Trazado 99312" d="M1617.339,397.894l-.906-.906-.926.925V405.4l.974.974.916-.916Z" transform="translate(-1464.342 -220.602)" fill="#9dd8de"/>
        <path id="Trazado_99313" data-name="Trazado 99313" d="M1617.408,387.944l-.906-.906-.935.926v7.482l.974.974.925-.916Z" transform="translate(-1464.344 -220.345)" fill="#162f37"/>
        <path id="Trazado_99314" data-name="Trazado 99314" d="M1607.5,385.927l-.906.906.925.925H1615l.974-.974-.916-.916Z" transform="translate(-1464.112 -220.314)" fill="#162f37"/>
        <path id="Trazado_99315" data-name="Trazado 99315" d="M1607.5,405.9l-.906.906.925.925H1615l.974-.974-.916-.916Z" transform="translate(-1464.112 -220.83)" fill="#162f37"/>
        <path id="Trazado_99316" data-name="Trazado 99316" d="M1607.5,395.917l-.906.916.925.926H1615l.974-.974-.916-.916Z" transform="translate(-1464.112 -220.573)" fill="#162f37"/>
        <path id="Trazado_99317" data-name="Trazado 99317" d="M1624.373,416.232a2.633,2.633,0,0,0,.555-.088,2.592,2.592,0,0,0,1.948-1.948,7.153,7.153,0,0,0,.058-1.471v-3.731c0-5.631,0-13.736-.078-23.751v-5.8a2.455,2.455,0,0,0-.594-1.744,2.342,2.342,0,0,0-1.666-.828H1556.16a2.388,2.388,0,0,0-2.095,1.276,2.418,2.418,0,0,0-.263,1.266v33.814a2.522,2.522,0,0,0,.77,2.124,2.294,2.294,0,0,0,.974.536,4.169,4.169,0,0,0,1.179.088l35.217.058,23.751.078,6.449.049h-6.449l-23.751.088-35.207.214a4.666,4.666,0,0,1-1.305-.1,2.858,2.858,0,0,1-1.189-.653,2.991,2.991,0,0,1-.974-2.465V379.437a3.031,3.031,0,0,1,.312-1.5,2.924,2.924,0,0,1,2.552-1.549h68.417a2.809,2.809,0,0,1,1.948.974,2.849,2.849,0,0,1,.672,2.007v5.8c0,10.015-.058,18.12-.078,23.751v3.731a6.793,6.793,0,0,1-.088,1.5,2.551,2.551,0,0,1-.575,1.111,2.643,2.643,0,0,1-1.452.838A1.923,1.923,0,0,1,1624.373,416.232Z" transform="translate(-1462.735 -220.07)" fill="#162f37"/>
        <path id="Trazado_99318" data-name="Trazado 99318" d="M1825.653,456.691c0,.136-81.656.253-182.358.253s-182.387-.117-182.387-.253,81.647-.253,182.387-.253S1825.653,456.555,1825.653,456.691Z" transform="translate(-1460.352 -222.136)" fill="#162f37"/>
        <rect id="Rectángulo_29308" data-name="Rectángulo 29308" width="230.736" height="9.138" transform="translate(63.761 295.52)" fill="#7acbd4"/>
        <path id="Trazado_99319" data-name="Trazado 99319" d="M1756.518,528.4v-9.128l.059.058-230.727.195h0l.253-.253V528.4l-.253-.253,163.42.107,49.255.078h.127l-49.2.078-163.634.263h-.253v-9.635h.253l230.727.185h.068v7A17,17,0,0,1,1756.518,528.4Z" transform="translate(-1462.021 -223.752)" fill="#162f37"/>
        <path id="Trazado_99320" data-name="Trazado 99320" d="M1532.567,518.445V510.68h6.624l-6.624-4.247v-9.255h217.6v10.765l-4.744,2.289,4.744.058v8.32Z" transform="translate(-1462.201 -223.188)" fill="#fff"/>
        <path id="Trazado_99321" data-name="Trazado 99321" d="M1532.567,497.178v9.255l6.371,4.082h-6.371v7.93h15.772V497.178Z" transform="translate(-1462.201 -223.188)" fill="#9dd8de"/>
        <path id="Trazado_99322" data-name="Trazado 99322" d="M1745.845,510.575c0,.146-44.121.341-98.539.438s-98.549.058-98.549-.078,44.111-.331,98.549-.429S1745.845,510.438,1745.845,510.575Z" transform="translate(-1462.62 -223.53)" fill="#c0e6ea"/>
        <path id="Trazado_99323" data-name="Trazado 99323" d="M1745.845,505.025c0,.136-44.121.331-98.539.438s-98.549.058-98.549-.078,44.111-.331,98.549-.438S1745.845,504.927,1745.845,505.025Z" transform="translate(-1462.62 -223.387)" fill="#c0e6ea"/>
      </g>
      <g id="freepik--Character--inject-36" transform="translate(0 50.725)">
        <g id="Grupo_53348" data-name="Grupo 53348" transform="translate(59.796 165.097)" opacity="0.3">
          <path id="Trazado_99324" data-name="Trazado 99324" d="M1495.472,355.368l-14.379.2L1483.11,421l-11.593,28.992c11.34.292,25.728-7.988,27.462-19.2.779-5.066-.107-10.219-.633-15.324-.974-9.644-.74-19.377-.468-29.07.185-6.663.409-13.522,3.108-19.62s8.485-11.33,15.149-11.271Z" transform="translate(-1471.517 -355.368)"/>
        </g>
        <path id="Trazado_99325" data-name="Trazado 99325" d="M1486.367,399.659l1.685,37.6,15.831-1.14,3.546-39.455Z" transform="translate(-1412.105 -191.337)" fill="#ffbe9d"/>
        <path id="Trazado_99326" data-name="Trazado 99326" d="M1504.27,430.067s-11.145,7.91-16.561,1.062l-1.412,3.322-6.332,23.624a3.166,3.166,0,0,0,1.783,3.8,3.028,3.028,0,0,0,3.234-.623c4.589-4.355,21.364-20.458,21.2-22.66l-.058-5.845a2.922,2.922,0,0,0-1.88-2.718Z" transform="translate(-1411.936 -192.198)" fill="#455a64"/>
        <path id="Trazado_99327" data-name="Trazado 99327" d="M1482.387,462.253l23.9-25.465v1.266a3.533,3.533,0,0,1-1.14,2.806c-1.948,2.6-7.287,8.436-19.971,20.614a3.058,3.058,0,0,1-2.786.779Z" transform="translate(-1412.002 -192.373)" fill="#263238"/>
        <path id="Trazado_99328" data-name="Trazado 99328" d="M1503.307,432.861a1.852,1.852,0,0,0-.516,2.416,1.772,1.772,0,0,0,2.387.536,1.947,1.947,0,0,0,.536-2.562,1.841,1.841,0,0,0-2.552-.283" transform="translate(-1412.522 -192.264)" fill="#263238"/>
        <path id="Trazado_99329" data-name="Trazado 99329" d="M1489.3,449.407c-.166.078-.838-1.49-2.611-2.338a10.717,10.717,0,0,0-3.439-.672c-.029-.175.351-.312,1.052-.409a4.877,4.877,0,0,1,2.679.487,4.7,4.7,0,0,1,1.948,1.841C1489.326,448.939,1489.375,449.378,1489.3,449.407Z" transform="translate(-1412.024 -192.61)" fill="#263238"/>
        <path id="Trazado_99330" data-name="Trazado 99330" d="M1487.109,453.541c-.146.127-1.1-.848-2.65-1.3s-2.874-.2-2.923-.39,1.364-.779,3.118-.244S1487.265,453.463,1487.109,453.541Z" transform="translate(-1411.98 -192.75)" fill="#263238"/>
        <path id="Trazado_99331" data-name="Trazado 99331" d="M1493.326,444.144c-.136.146-1.6-1.364-3.9-2.28s-4.423-.848-4.433-1.052,2.182-.565,4.676.448S1493.473,444.066,1493.326,444.144Z" transform="translate(-1412.069 -192.471)" fill="#263238"/>
        <path id="Trazado_99332" data-name="Trazado 99332" d="M1493.891,436.824c-.078.175-1.734-.516-3.9-.6s-3.9.419-3.9.234,1.646-.974,3.955-.9S1493.988,436.678,1493.891,436.824Z" transform="translate(-1412.098 -192.341)" fill="#263238"/>
        <path id="Trazado_99333" data-name="Trazado 99333" d="M1488.722,436.024a2.585,2.585,0,0,1,.166-1.12,7.782,7.782,0,0,1,1.432-2.747,3.465,3.465,0,0,1,1.773-1.364,1.246,1.246,0,0,1,1.315.526,2.006,2.006,0,0,1,.214,1.413,4.334,4.334,0,0,1-4.472,3.244,5.026,5.026,0,0,1-4.325-3.488,1.736,1.736,0,0,1,.185-1.442,1.228,1.228,0,0,1,1.364-.4,4.258,4.258,0,0,1,1.744,1.374,8.658,8.658,0,0,1,1.578,2.66,2.6,2.6,0,0,1,.263,1.1,13.635,13.635,0,0,0-2.211-3.449,3.971,3.971,0,0,0-1.559-1.159.633.633,0,0,0-.74.214,1.2,1.2,0,0,0-.068.974,4.5,4.5,0,0,0,3.829,2.981,3.761,3.761,0,0,0,3.828-2.7,1.457,1.457,0,0,0-.107-.974.672.672,0,0,0-.721-.3,3.176,3.176,0,0,0-1.539,1.091A11.59,11.59,0,0,0,1488.722,436.024Z" transform="translate(-1412.063 -192.212)" fill="#263238"/>
        <path id="Trazado_99334" data-name="Trazado 99334" d="M1452.094,365.638,1432.727,402.4l15.46,9.264,25.007-35.227Z" transform="translate(-1410.72 -190.536)" fill="#ffbe9d"/>
        <path id="Trazado_99335" data-name="Trazado 99335" d="M1434.56,398.307l-.633,1.023s-21.588-3.682-23.79-.507l34.5,20.935,6.5-11.758A23.094,23.094,0,0,1,1434.56,398.307Z" transform="translate(-1410.137 -191.359)" fill="#455a64"/>
        <path id="Trazado_99336" data-name="Trazado 99336" d="M1446.277,409.856a1.657,1.657,0,0,1,0,2.2,1.586,1.586,0,0,1-2.182,0,1.735,1.735,0,0,1,0-2.328,1.657,1.657,0,0,1,2.27.234" transform="translate(-1411.002 -191.665)" fill="#263238"/>
        <path id="Trazado_99337" data-name="Trazado 99337" d="M1444.633,419.769l1.568-2.825-33.639-19.016s-1.948-.263-2.426.925Z" transform="translate(-1410.137 -191.369)" fill="#263238"/>
        <path id="Trazado_99338" data-name="Trazado 99338" d="M1434.377,399.4c-.1.175.7.76,1.2,1.8s.516,2.026.711,2.056.536-1.1-.1-2.358S1434.435,399.222,1434.377,399.4Z" transform="translate(-1410.762 -191.407)" fill="#263238"/>
        <path id="Trazado_99339" data-name="Trazado 99339" d="M1429.727,398.677c-.136.146.419.867.565,1.948s-.156,1.948,0,2.007.857-.789.653-2.1S1429.824,398.522,1429.727,398.677Z" transform="translate(-1410.642 -191.388)" fill="#263238"/>
        <path id="Trazado_99340" data-name="Trazado 99340" d="M1424.916,401.75c.136.127.877-.575.974-1.754s-.438-2.036-.594-1.948,0,.887-.088,1.861S1424.76,401.633,1424.916,401.75Z" transform="translate(-1410.517 -191.373)" fill="#263238"/>
        <path id="Trazado_99341" data-name="Trazado 99341" d="M1545.575,311.312s11.291,15.587,9.43,29.976c-1.413,10.979-4.092,12.85-4.092,12.85h-34.623l-7.394-46.459,10.716.838Z" transform="translate(-1412.686 -189.04)" fill="#263238"/>
        <path id="Trazado_99342" data-name="Trazado 99342" d="M1490.447,332.888l-.224.136a15.969,15.969,0,0,0-7.706,14.408l4.111,58.734,20.02.6,3.673-51.632,10.3-.585-17.077-19.718A10.365,10.365,0,0,0,1490.447,332.888Z" transform="translate(-1412.005 -189.652)" fill="#263238"/>
        <path id="Trazado_99343" data-name="Trazado 99343" d="M1442.767,381.949l32.937-68.193s4.618-6.819,11.1-6.478,46.849,13.3,46.849,13.3v32.976l-14.184-.312-32.051-3.078-12.207,23.166-14.321,20.458Z" transform="translate(-1410.979 -189.03)" fill="#263238"/>
        <path id="Trazado_99344" data-name="Trazado 99344" d="M1542.8,325.064a1.686,1.686,0,0,1-.458-.146l-1.286-.516-4.715-1.948c-3.984-1.607-9.518-3.76-15.7-5.913s-11.866-3.9-15.986-5.124L1499.78,310l-1.325-.4a1.839,1.839,0,0,1-.458-.166,2.26,2.26,0,0,1,.477.078l1.344.321c1.169.273,2.854.711,4.929,1.286,4.15,1.13,9.849,2.845,16.055,5s11.69,4.364,15.675,6.05c1.948.838,3.575,1.549,4.667,2.056l1.247.584A2.4,2.4,0,0,1,1542.8,325.064Z" transform="translate(-1412.405 -189.086)" fill="#455a64"/>
        <path id="Trazado_99345" data-name="Trazado 99345" d="M1544.444,318.195a22.693,22.693,0,0,1-3-.117c-1.851-.117-4.4-.244-7.238-.312l-7.248-.146a20.463,20.463,0,0,1-3-.156,2.945,2.945,0,0,1,.8-.088l2.2-.068h7.258a71.525,71.525,0,0,1,7.258.438c.925.1,1.666.185,2.182.263A2.751,2.751,0,0,1,1544.444,318.195Z" transform="translate(-1413.075 -189.289)" fill="#455a64"/>
        <path id="Trazado_99346" data-name="Trazado 99346" d="M1499.482,330.914a13.451,13.451,0,0,0-2.669-.322,11.79,11.79,0,0,0-6.819,2.27,16.071,16.071,0,0,0-5.845,8.9c-1.15,3.9-1.13,8.534-.77,13.268.711,9.489,1.354,18.071,1.831,24.355.2,3.069.37,5.582.5,7.384,0,.828.078,1.5.107,2.007a3.239,3.239,0,0,1,0,.7,4.6,4.6,0,0,1-.1-.692c-.058-.507-.127-1.169-.2-2.007-.166-1.793-.39-4.3-.662-7.365-.507-6.284-1.208-14.866-1.948-24.355-.36-4.744-.37-9.4.828-13.424a16.266,16.266,0,0,1,6.06-9.07,11.741,11.741,0,0,1,7.034-2.172,9.127,9.127,0,0,1,2.007.283A3.238,3.238,0,0,1,1499.482,330.914Z" transform="translate(-1412.01 -189.627)" fill="#455a64"/>
        <path id="Trazado_99347" data-name="Trazado 99347" d="M1533.021,354.448a1.591,1.591,0,0,1-.438-.058c-.292-.058-.711-.136-1.247-.283a35.049,35.049,0,0,1-4.442-1.461,51.747,51.747,0,0,1-13.161-7.949,104.806,104.806,0,0,1-11.086-10.716c-1.335-1.452-2.387-2.65-3.108-3.478a11.359,11.359,0,0,1-1.081-1.335,11.158,11.158,0,0,1,1.227,1.2l3.224,3.439a123.063,123.063,0,0,0,11.145,10.531,55.2,55.2,0,0,0,13.015,7.979,43.587,43.587,0,0,0,4.355,1.607A13.932,13.932,0,0,1,1533.021,354.448Z" transform="translate(-1412.417 -189.595)" fill="#455a64"/>
        <path id="Trazado_99348" data-name="Trazado 99348" d="M1511.112,345.838c.136,0-.117,6.449-.575,14.379s-.974,14.35-1.081,14.35.117-6.449.575-14.379S1510.966,345.828,1511.112,345.838Z" transform="translate(-1412.7 -190.025)" fill="#455a64"/>
        <path id="Trazado_99349" data-name="Trazado 99349" d="M1510.012,231.855a3.009,3.009,0,0,0,.166-1.266,3.536,3.536,0,0,0-.448-1.413,9.724,9.724,0,0,0-1.3-1.559,8.221,8.221,0,0,1-1.549-2.017,7.291,7.291,0,0,1-.8-2.825,7,7,0,0,1,.5-3.205,18.952,18.952,0,0,1,1.617-3.03,15.585,15.585,0,0,0,1.5-2.981,5.686,5.686,0,0,0,.224-3c-.409-1.948-1.452-3.478-1.948-4.949a5.751,5.751,0,0,1-.263-3.624,3.423,3.423,0,0,1,.419-.916.982.982,0,0,1,.224-.263,9.387,9.387,0,0,0-.458,1.227,5.846,5.846,0,0,0,.409,3.449c.516,1.413,1.6,2.923,2.065,4.978a6.025,6.025,0,0,1-.214,3.254,16,16,0,0,1-1.539,3.088,19.479,19.479,0,0,0-1.588,2.923,6.892,6.892,0,0,0-.5,2.991,7.014,7.014,0,0,0,.721,2.66,8.017,8.017,0,0,0,1.432,1.948,9.363,9.363,0,0,1,1.276,1.656,3.744,3.744,0,0,1,.458,1.529,2.256,2.256,0,0,1-.175.974C1510.11,231.777,1510.022,231.865,1510.012,231.855Z" transform="translate(-1412.613 -186.282)" fill="#263238"/>
        <path id="Trazado_99350" data-name="Trazado 99350" d="M1537.827,224.376a4.6,4.6,0,0,0,4.043,3,5.541,5.541,0,0,0,4.627-2.241,7,7,0,0,0,1.247-5.056,8.4,8.4,0,0,1-.175-2.387c.195-1.13,1.072-2.017,1.422-3.108.614-1.948-.721-4.15-2.572-5.056a9.316,9.316,0,0,0-6.05-.341" transform="translate(-1413.433 -186.489)" fill="#263238"/>
        <path id="Trazado_99351" data-name="Trazado 99351" d="M1509.44,199.414c-1.948,1.734-1.364,4.189-.6,5.845s1.685,3.4,1.607,5.241-1.218,3.536-1.841,5.319a10.134,10.134,0,0,0,.156,6.985c.663,1.666,1.754,3.127,2.426,4.793s.838,3.712-.282,5.114a3.2,3.2,0,0,0,2.348-1.676,6.311,6.311,0,0,0,.7-2.923c.127-3.8-1.481-7.579-.809-11.32.38-2.172,1.53-4.218,1.51-6.43s-1.208-4.228-2.036-6.284-1.237-4.588.117-6.342" transform="translate(-1412.665 -186.202)" fill="#263238"/>
        <path id="Trazado_99352" data-name="Trazado 99352" d="M1514.335,192.329a7.337,7.337,0,0,0-5.738,3.127,4.813,4.813,0,0,0,.8,6.137c1.676,1.325,4.17,1.062,6.021,0a6.866,6.866,0,0,0,3.108-3.429,4.929,4.929,0,0,0-.438-4.51,3.839,3.839,0,0,0-4.14-1.52" transform="translate(-1412.659 -186.054)" fill="#263238"/>
        <path id="Trazado_99353" data-name="Trazado 99353" d="M1512.637,191.841a10.035,10.035,0,0,1,6.459-5.407,16.629,16.629,0,0,1,8.6.058,49.984,49.984,0,0,1,8.134,3.059,18.44,18.44,0,0,1,5.426,3.205,12.35,12.35,0,0,1,3.1,5.368c1.14,3.76,1.052,6.449-.74,9.946-.779,1.52-.312,3.3-1.023,4.871s-3.682,3.283-2.874,4.783" transform="translate(-1412.783 -185.897)" fill="#263238"/>
        <path id="Trazado_99354" data-name="Trazado 99354" d="M1535.458,195.109a3.02,3.02,0,0,1,2.7,3.059h0l-1.8,40.76c-.078,4.812-7.112,7.521-12.265,7.394h0c-5.2-.117-5.368-2.669-5.436-7.248-.107-7.657-.1-10.521-.1-10.482s-6.576-1.1-7.92-9.683c-.672-4.277-.438-11.271-.068-16.99.341-5.144,3.76-11.447,8.885-10.9Z" transform="translate(-1412.72 -186.028)" fill="#ffbe9d"/>
        <path id="Trazado_99355" data-name="Trazado 99355" d="M1512.557,208.2a1.1,1.1,0,0,0,1.052,1.111,1.062,1.062,0,0,0,1.14-.974,1.111,1.111,0,0,0-1.062-1.111,1.042,1.042,0,0,0-1.128.949Z" transform="translate(-1412.781 -186.447)" fill="#263238"/>
        <path id="Trazado_99356" data-name="Trazado 99356" d="M1512.126,205.348c.136.146.974-.468,2.153-.468s2.056.6,2.182.458-.078-.321-.448-.594a3.023,3.023,0,0,0-1.753-.546,2.923,2.923,0,0,0-1.715.546C1512.185,205.026,1512.058,205.289,1512.126,205.348Z" transform="translate(-1412.769 -186.369)" fill="#263238"/>
        <path id="Trazado_99357" data-name="Trazado 99357" d="M1524.057,208.2a1.1,1.1,0,0,0,1.062,1.111,1.052,1.052,0,0,0,1.13-.968v-.006a1.091,1.091,0,0,0-1.052-1.111,1.053,1.053,0,0,0-1.139.959Z" transform="translate(-1413.078 -186.447)" fill="#263238"/>
        <path id="Trazado_99358" data-name="Trazado 99358" d="M1524.077,206.177c.136.136.974-.477,2.153-.468s2.056.594,2.182.458-.078-.331-.458-.6a3.033,3.033,0,0,0-1.744-.546,2.929,2.929,0,0,0-1.715.555C1524.135,205.846,1524.008,206.109,1524.077,206.177Z" transform="translate(-1413.078 -186.39)" fill="#263238"/>
        <path id="Trazado_99359" data-name="Trazado 99359" d="M1519.567,214.947a7.934,7.934,0,0,0-1.948-.351c-.3,0-.584-.1-.633-.3a1.5,1.5,0,0,1,.2-.9l.9-2.3a38.4,38.4,0,0,0,2.017-6.02,41.06,41.06,0,0,0-2.494,5.845c-.3.809-.594,1.578-.867,2.319a1.708,1.708,0,0,0-.156,1.179.751.751,0,0,0,.5.448,2.051,2.051,0,0,0,.516.068A7.69,7.69,0,0,0,1519.567,214.947Z" transform="translate(-1412.884 -186.392)" fill="#263238"/>
        <path id="Trazado_99360" data-name="Trazado 99360" d="M1518.827,229.507a21.77,21.77,0,0,0,11.5-3.039s-2.923,5.894-11.5,5.076Z" transform="translate(-1412.943 -186.944)" fill="#eb996e"/>
        <path id="Trazado_99361" data-name="Trazado 99361" d="M1523.537,202.624c.117.321,1.305.166,2.689.341s2.513.555,2.7.263c.088-.136-.107-.438-.565-.75a4.522,4.522,0,0,0-1.948-.711,4.6,4.6,0,0,0-2.1.244C1523.751,202.215,1523.488,202.469,1523.537,202.624Z" transform="translate(-1413.064 -186.306)" fill="#263238"/>
        <path id="Trazado_99362" data-name="Trazado 99362" d="M1512.586,202.406c.2.263.974,0,1.948,0s1.812.185,2.007-.1c.088-.136-.049-.409-.409-.662a2.923,2.923,0,0,0-3.225.088C1512.606,202,1512.489,202.27,1512.586,202.406Z" transform="translate(-1412.781 -186.292)" fill="#263238"/>
        <path id="Trazado_99363" data-name="Trazado 99363" d="M1520.154,217.988a1.949,1.949,0,0,1,1.783-.74,1.814,1.814,0,0,1,1.257.682,1.148,1.148,0,0,1,.088,1.315,1.343,1.343,0,0,1-1.452.36,4.3,4.3,0,0,1-1.412-.848,1.261,1.261,0,0,1-.312-.331.391.391,0,0,1,0-.409" transform="translate(-1412.974 -186.706)" fill="#eb996e"/>
        <path id="Trazado_99364" data-name="Trazado 99364" d="M1522.923,216.058c-.175,0-.185,1.189-1.208,2.036s-2.309.721-2.318.887.292.234.828.253a3,3,0,0,0,1.948-.672,2.651,2.651,0,0,0,.974-1.7C1523.138,216.35,1523.011,216.058,1522.923,216.058Z" transform="translate(-1412.957 -186.675)" fill="#263238"/>
        <path id="Trazado_99365" data-name="Trazado 99365" d="M1512.356,194.2c.409,2.708,4.705,3.156,7.394,2.63a8.709,8.709,0,0,0,7.7,3.312,2.414,2.414,0,0,1,1.179,0,2.511,2.511,0,0,1,.877.877,7.654,7.654,0,0,0,4.666,2.923,6.905,6.905,0,0,0,5.222,5.66s.886-.438.575-3.9.068-10.716.068-10.716l-9.391-4.267-11.232-2.094S1511.664,189.6,1512.356,194.2Z" transform="translate(-1412.774 -185.967)" fill="#263238"/>
        <path id="Trazado_99366" data-name="Trazado 99366" d="M1543.494,208.56a9.237,9.237,0,0,0-.584-2.406,6.117,6.117,0,0,0-4.988-3.653h-.156v-.156a7.7,7.7,0,0,0-2.221-3.9,4.385,4.385,0,0,0-4.705-.789l-.253.127-.1-.283-.117-.312a6.711,6.711,0,0,0-5.524-4.277,7.243,7.243,0,0,0-1.656,0,3.7,3.7,0,0,1-1.7-.078,3.106,3.106,0,0,1-1.276-.974,5.868,5.868,0,0,0-.974-.974,4.766,4.766,0,0,0-3.9-.75,7.911,7.911,0,0,0-1.4.565,1.745,1.745,0,0,1,.3-.263,4,4,0,0,1,1.052-.487,4.874,4.874,0,0,1,4.14.643c.789.507,1.266,1.5,2.153,1.8s2.046-.175,3.273,0a7.163,7.163,0,0,1,5.952,4.579,2.836,2.836,0,0,1,.117.331l-.351-.146a4.87,4.87,0,0,1,5.241.877,7.914,7.914,0,0,1,2.319,4.2l-.185-.166a6.426,6.426,0,0,1,3.507,1.568,6.148,6.148,0,0,1,1.676,2.416,5.908,5.908,0,0,1,.39,1.841A2.02,2.02,0,0,1,1543.494,208.56Z" transform="translate(-1412.817 -185.996)" fill="#455a64"/>
        <path id="Trazado_99367" data-name="Trazado 99367" d="M1528.613,199.587a1.841,1.841,0,0,1-.711.234,7.252,7.252,0,0,1-2.026.107,8.29,8.29,0,0,1-5.845-3.147l.312.078-.282.127a6.521,6.521,0,0,1-3.838.351,6.165,6.165,0,0,1-2.806-1.432,5.854,5.854,0,0,1-1.306-1.656,1.753,1.753,0,0,1-.263-.731,9.475,9.475,0,0,0,1.8,2.114,6.025,6.025,0,0,0,2.66,1.208,6.18,6.18,0,0,0,3.546-.36l.263-.117.185-.088.127.156a8.353,8.353,0,0,0,5.485,3.108A17.334,17.334,0,0,0,1528.613,199.587Z" transform="translate(-1412.762 -186.093)" fill="#455a64"/>
        <path id="Trazado_99368" data-name="Trazado 99368" d="M1523.956,194.53c0,.146-1.257,0-2.718.38s-2.533.974-2.621.838a4.154,4.154,0,0,1,2.5-1.325A4.109,4.109,0,0,1,1523.956,194.53Z" transform="translate(-1412.937 -186.112)" fill="#455a64"/>
        <path id="Trazado_99369" data-name="Trazado 99369" d="M1520.712,194.207c-.117.088-.555-.273-1.111-.672s-1.033-.7-.974-.838.662,0,1.276.429S1520.819,194.129,1520.712,194.207Z" transform="translate(-1412.937 -186.071)" fill="#455a64"/>
        <path id="Trazado_99370" data-name="Trazado 99370" d="M1534.315,199.35c-.049.136-1.14-.214-2.5-.166s-2.436.438-2.494.3A4.588,4.588,0,0,1,1534.315,199.35Z" transform="translate(-1413.213 -186.227)" fill="#455a64"/>
        <path id="Trazado_99371" data-name="Trazado 99371" d="M1536.715,204.027a6.488,6.488,0,0,1-3.478-.468,6.4,6.4,0,0,1-3.01-1.812c.088-.127,1.393.721,3.176,1.335S1536.725,203.871,1536.715,204.027Z" transform="translate(-1413.237 -186.306)" fill="#455a64"/>
        <path id="Trazado_99372" data-name="Trazado 99372" d="M1542.781,207.4a16.782,16.782,0,0,0-2.241-1.257,16.161,16.161,0,0,0-2.523-.438,3.08,3.08,0,0,1,2.7,0C1542.2,206.2,1542.9,207.346,1542.781,207.4Z" transform="translate(-1413.438 -186.4)" fill="#455a64"/>
        <path id="Trazado_99373" data-name="Trazado 99373" d="M1542.183,194.689a6.6,6.6,0,0,0-.438-.75,5.11,5.11,0,0,0-1.734-1.51,16.624,16.624,0,0,0-7.482-1.685,31.423,31.423,0,0,0-7.716.974c-1.948.487-3.137.857-3.156.789a3.04,3.04,0,0,1,.8-.37c.526-.2,1.3-.477,2.26-.76a27.131,27.131,0,0,1,7.793-1.189,15.591,15.591,0,0,1,7.667,1.88,4.666,4.666,0,0,1,1.715,1.724A1.569,1.569,0,0,1,1542.183,194.689Z" transform="translate(-1413.016 -186.007)" fill="#455a64"/>
        <path id="Trazado_99374" data-name="Trazado 99374" d="M1543.019,199.391a14.236,14.236,0,0,0-1.325-2.416,10.446,10.446,0,0,0-5.407-3.6,19.393,19.393,0,0,0-6.615-.507,24.172,24.172,0,0,1-2.8.195,11.581,11.581,0,0,1,2.757-.555,17.49,17.49,0,0,1,6.819.38,10.12,10.12,0,0,1,5.553,3.9,6.828,6.828,0,0,1,.906,1.88A1.944,1.944,0,0,1,1543.019,199.391Z" transform="translate(-1413.15 -186.063)" fill="#455a64"/>
        <path id="Trazado_99375" data-name="Trazado 99375" d="M1510.383,203a3.086,3.086,0,0,1-1.588-1.189,5.114,5.114,0,0,1,2.192-8.115,3.163,3.163,0,0,1,1.948-.234,14.3,14.3,0,0,0-1.831.565,4.968,4.968,0,0,0-2.046,7.569A14.088,14.088,0,0,0,1510.383,203Z" transform="translate(-1412.652 -186.091)" fill="#455a64"/>
        <path id="Trazado_99376" data-name="Trazado 99376" d="M1546.326,216.843c0-.078.848-.487,2.124-1.344a6.123,6.123,0,0,0,1.831-1.87,3.391,3.391,0,0,0,.321-3,3.986,3.986,0,0,0-2.085-2.26,4.54,4.54,0,0,0-2.552-.312,9.223,9.223,0,0,0-2.319.838,2.239,2.239,0,0,1,.507-.458,5.035,5.035,0,0,1,1.744-.731,4.82,4.82,0,0,1,2.8.214,4.374,4.374,0,0,1,2.367,2.513,3.827,3.827,0,0,1-.4,3.419,6.078,6.078,0,0,1-2.036,1.948,11.335,11.335,0,0,1-1.666.838A1.8,1.8,0,0,1,1546.326,216.843Z" transform="translate(-1413.583 -186.457)" fill="#263238"/>
        <path id="Trazado_99377" data-name="Trazado 99377" d="M1546.622,217.158a2.927,2.927,0,0,1,.351.76,20.311,20.311,0,0,1,.682,2.182,11.449,11.449,0,0,1,.351,3.39,7.263,7.263,0,0,1-1.383,3.975,5.237,5.237,0,0,1-3.673,2.046,3.739,3.739,0,0,1-3.166-1.286,3.39,3.39,0,0,1-.887-2.143,1.392,1.392,0,0,1,.156-.838v.828a3.546,3.546,0,0,0,3.819,2.971,4.866,4.866,0,0,0,3.312-1.89,7.051,7.051,0,0,0,1.315-3.692,12.265,12.265,0,0,0-.234-3.283C1546.9,218.317,1546.515,217.187,1546.622,217.158Z" transform="translate(-1413.46 -186.704)" fill="#263238"/>
        <path id="Trazado_99378" data-name="Trazado 99378" d="M1503.544,246.248s-6.04,3.8-6.751,13.239-2.786,29.157-2.786,29.157l-23.039,5.631,2.562,13.824,37.993-10.6Z" transform="translate(-1411.707 -187.455)" fill="#7d6eb2"/>
        <path id="Trazado_99379" data-name="Trazado 99379" d="M1552.729,242.433c-2.124-.906-15.343-3.322-15.343-3.322l-.653-7.073-18.286,1.578-.633,7.638-13.385,4.627-.312,14.213,3.205,46.508,37.243,3.312a5.193,5.193,0,0,0,5.641-4.7,5.461,5.461,0,0,0,.02-.578l-.809-41.228S1554.863,243.348,1552.729,242.433Z" transform="translate(-1412.563 -187.088)" fill="#f5ca56"/>
        <path id="Trazado_99380" data-name="Trazado 99380" d="M1553.333,242.708s7.589,2.923,8.242,14.36c.419,7.54,3.069,20.409,4.871,28.32.974,4.442.731,9.43-1.724,13.268h0c-3.556,4.131-8.407,7.725-14.661,8.222h-15.733l-6.819-10.843,18.091-5.28,4.3-26.089Z" transform="translate(-1413.167 -187.363)" fill="#f5ca56"/>
        <path id="Trazado_99381" data-name="Trazado 99381" d="M1556.7,298.181a9.515,9.515,0,0,1-.234-1.247,15.867,15.867,0,0,0-.974-3.3,9.008,9.008,0,0,0-3.088-3.9,6.677,6.677,0,0,0-2.7-1.12,9.227,9.227,0,0,0-3.166.156,100.442,100.442,0,0,0-11.018,3.02l-3.283,1.111a7.675,7.675,0,0,1-1.227.36,6.833,6.833,0,0,1,1.169-.516l3.244-1.247a81.287,81.287,0,0,1,11.028-3.156,9.593,9.593,0,0,1,3.322-.146,6.884,6.884,0,0,1,2.864,1.208,9.035,9.035,0,0,1,3.137,4.121,13.353,13.353,0,0,1,.838,3.39A5.751,5.751,0,0,1,1556.7,298.181Z" transform="translate(-1413.257 -188.535)" fill="#263238"/>
        <path id="Trazado_99382" data-name="Trazado 99382" d="M1546.9,265.288a3.337,3.337,0,0,1,.136.848c.059.546.107,1.335.166,2.319.088,2.065.2,4.715.341,7.638a58.074,58.074,0,0,0,.848,7.579c.37,1.948.76,3.059.682,3.088a3.378,3.378,0,0,1-.341-.789,10.115,10.115,0,0,1-.3-.974c-.107-.4-.234-.8-.341-1.286a44.36,44.36,0,0,1-.974-7.608c-.166-2.991-.185-5.7-.214-7.657v-2.319A3.442,3.442,0,0,1,1546.9,265.288Z" transform="translate(-1413.666 -187.946)" fill="#263238"/>
        <path id="Trazado_99383" data-name="Trazado 99383" d="M1562.648,302.568a6.041,6.041,0,0,1-.857.857,20.349,20.349,0,0,1-2.669,1.948,22.832,22.832,0,0,1-10.365,3.254,21.672,21.672,0,0,1-6-.448c-1.831-.39-3.371-1.042-4.705-1.354a21.411,21.411,0,0,0-3.244-.448,4.1,4.1,0,0,1-1.189-.244,11.137,11.137,0,0,1,1.208.068,18.679,18.679,0,0,1,3.293.321c1.383.283,2.923.906,4.715,1.257a21.725,21.725,0,0,0,5.894.409,23.7,23.7,0,0,0,10.239-3.078A41.69,41.69,0,0,0,1562.648,302.568Z" transform="translate(-1413.324 -188.908)" fill="#263238"/>
        <path id="Trazado_99384" data-name="Trazado 99384" d="M1507.6,255.378a3.954,3.954,0,0,1,.127,1.111,19.557,19.557,0,0,1-.166,3.03c-.166,1.266-.458,2.767-.828,4.4a46.7,46.7,0,0,0-.974,5.358,16.575,16.575,0,0,0,.136,5.368,10.625,10.625,0,0,0,1.734,3.994,9.487,9.487,0,0,0,3.039,2.65.732.732,0,0,1-.283-.078,5.315,5.315,0,0,1-.76-.341,7.644,7.644,0,0,1-2.289-2.017,10.625,10.625,0,0,1-1.948-4.1,16.574,16.574,0,0,1-.185-5.533,52.134,52.134,0,0,1,1.052-5.4c.39-1.637.721-3.108.974-4.364C1507.629,256.966,1507.512,255.378,1507.6,255.378Z" transform="translate(-1412.587 -187.69)" fill="#263238"/>
        <path id="Trazado_99385" data-name="Trazado 99385" d="M1550.132,241.928c0,.078-.74.5-1.792,1.432a11.966,11.966,0,0,0-3.147,4.413,12.161,12.161,0,0,0-.848,5.339c.1,1.4.36,2.25.273,2.28a5.569,5.569,0,0,1-.624-2.241,10.99,10.99,0,0,1,4.121-10.054A5.548,5.548,0,0,1,1550.132,241.928Z" transform="translate(-1413.59 -187.343)" fill="#263238"/>
        <path id="Trazado_99386" data-name="Trazado 99386" d="M1520.811,241.9a13.381,13.381,0,0,1-.526-4.072,13.066,13.066,0,0,1,.244-4.092,23.005,23.005,0,0,1,.282,4.082A21.652,21.652,0,0,1,1520.811,241.9Z" transform="translate(-1412.979 -187.132)" fill="#263238"/>
        <path id="Trazado_99387" data-name="Trazado 99387" d="M1526.2,241.268a19.368,19.368,0,0,1-.818-7.92,21.769,21.769,0,0,1,.536,3.965A22.889,22.889,0,0,1,1526.2,241.268Z" transform="translate(-1413.108 -187.122)" fill="#263238"/>
        <path id="Trazado_99388" data-name="Trazado 99388" d="M1532.011,240.843a14.149,14.149,0,0,1-.828-4.208,14.3,14.3,0,0,1,0-4.3,25.225,25.225,0,0,1,.526,4.238A26.1,26.1,0,0,1,1532.011,240.843Z" transform="translate(-1413.257 -187.095)" fill="#263238"/>
        <path id="Trazado_99389" data-name="Trazado 99389" d="M1537.242,280a2.571,2.571,0,0,1-.6.341,7.833,7.833,0,0,1-1.793.536,9.878,9.878,0,0,1-10.55-5.017,7.969,7.969,0,0,1-.711-1.744,1.716,1.716,0,0,1-.117-.682c.088,0,.331.925,1.14,2.241a10.2,10.2,0,0,0,10.18,4.871C1536.317,280.335,1537.213,279.926,1537.242,280Z" transform="translate(-1413.062 -188.156)" fill="#263238"/>
        <path id="Trazado_99390" data-name="Trazado 99390" d="M1544,246.6l-.419-.166-1.179-.487a46.411,46.411,0,0,0-4.4-1.617,17.462,17.462,0,0,0-6.819-.77,26.2,26.2,0,0,0-8.066,2.552,71.6,71.6,0,0,1-7.793,3.41,15.872,15.872,0,0,1-6.9.848,10.449,10.449,0,0,1-4.433-1.52,6.939,6.939,0,0,1-1.335-1.091s.127.088.351.283a7.082,7.082,0,0,0,1.033.74,10.49,10.49,0,0,0,4.4,1.442,15.9,15.9,0,0,0,6.819-.877,71.867,71.867,0,0,0,7.794-3.419,25.83,25.83,0,0,1,8.134-2.552,17.264,17.264,0,0,1,6.907.818,40.184,40.184,0,0,1,4.394,1.685l1.169.526Z" transform="translate(-1412.525 -187.379)" fill="#fafafa"/>
        <path id="Trazado_99391" data-name="Trazado 99391" d="M1561.544,251.928l-.166.088-.477.214a16.492,16.492,0,0,1-1.8.662,22.219,22.219,0,0,1-6.245,1.042,22.752,22.752,0,0,1-6.284-.75,15.888,15.888,0,0,1-1.832-.585l-.487-.195a.461.461,0,0,1-.166-.078.587.587,0,0,1,.175,0l.5.156c.429.146,1.062.331,1.841.526a24.58,24.58,0,0,0,6.254.682,23.839,23.839,0,0,0,6.206-.974c.779-.224,1.393-.438,1.812-.6l.5-.185Z" transform="translate(-1413.594 -187.601)" fill="#fafafa"/>
        <path id="Trazado_99392" data-name="Trazado 99392" d="M1562.6,265.848a3.3,3.3,0,0,1-.662-.068,17.08,17.08,0,0,0-1.812-.136,17.537,17.537,0,0,0-11.184,3.653,15.067,15.067,0,0,0-1.374,1.179,2.955,2.955,0,0,1-.507.448s.156-.185.448-.5a14.405,14.405,0,0,1,1.344-1.247,16.728,16.728,0,0,1,11.271-3.682,12.429,12.429,0,0,1,1.822.2A3.948,3.948,0,0,1,1562.6,265.848Z" transform="translate(-1413.671 -187.951)" fill="#fafafa"/>
        <path id="Trazado_99393" data-name="Trazado 99393" d="M1567.081,290.358a4.113,4.113,0,0,0-.078-.779,3.3,3.3,0,0,0-1.2-1.724,5.141,5.141,0,0,0-2.922-.974c-1.2-.058-2.533.088-3.9,0a26.7,26.7,0,0,1-7.082-1.13,21.4,21.4,0,0,1-2.046-.721l-.546-.234a1.013,1.013,0,0,1-.185-.088l.195.049.555.2c.487.166,1.189.409,2.065.653a28.672,28.672,0,0,0,7.043,1.062c1.393,0,2.728-.1,3.9,0a5.15,5.15,0,0,1,3.049,1.023,3.307,3.307,0,0,1,1.189,1.812A1.875,1.875,0,0,1,1567.081,290.358Z" transform="translate(-1413.725 -188.447)" fill="#fafafa"/>
        <path id="Trazado_99394" data-name="Trazado 99394" d="M1550.32,307.594s.059-.292.156-.809a15.163,15.163,0,0,0,.273-2.241,15.973,15.973,0,0,0-1.276-7.238,16.142,16.142,0,0,0-4.442-5.845,17.29,17.29,0,0,0-1.831-1.315,6.325,6.325,0,0,1-.7-.438,12.427,12.427,0,0,1,2.621,1.646,15.354,15.354,0,0,1,5.777,13.181A11.806,11.806,0,0,1,1550.32,307.594Z" transform="translate(-1413.553 -188.576)" fill="#fafafa"/>
        <path id="Trazado_99395" data-name="Trazado 99395" d="M1544.6,266.64a8.232,8.232,0,0,0-.789-1.383,8.694,8.694,0,0,0-3.273-2.737,13.19,13.19,0,0,0-6.206-1.276,26.388,26.388,0,0,0-7.638,1.734,70.551,70.551,0,0,1-7.482,2.523,19.212,19.212,0,0,1-6.41.575,11.108,11.108,0,0,1-4.17-1.208,7.788,7.788,0,0,1-.974-.633l-.321-.244a10.773,10.773,0,0,0,1.364.809,11.407,11.407,0,0,0,4.14,1.13,19.32,19.32,0,0,0,6.361-.614c2.338-.585,4.813-1.6,7.453-2.533a26.273,26.273,0,0,1,7.7-1.724,13.15,13.15,0,0,1,6.274,1.335,8.583,8.583,0,0,1,3.283,2.825,6.449,6.449,0,0,1,.565,1.042C1544.551,266.5,1544.6,266.64,1544.6,266.64Z" transform="translate(-1412.646 -187.837)" fill="#fafafa"/>
        <path id="Trazado_99396" data-name="Trazado 99396" d="M1509.978,281.538a3.212,3.212,0,0,1-.692.448c-.409.195-.75.331-.779.283s.283-.253.692-.458S1509.958,281.479,1509.978,281.538Z" transform="translate(-1412.676 -188.365)" fill="#fafafa"/>
        <path id="Trazado_99397" data-name="Trazado 99397" d="M1532.565,281.606a10.262,10.262,0,0,1-2.981.546,32.208,32.208,0,0,1-7.3-.7,24.564,24.564,0,0,0-7.258-.409,11.1,11.1,0,0,0-2.153.487c-.5.166-.76.273-.77.263a8.849,8.849,0,0,1,2.923-.9,23.383,23.383,0,0,1,7.306.36,36.407,36.407,0,0,0,7.258.76,13.587,13.587,0,0,0,2.192-.253A6.6,6.6,0,0,1,1532.565,281.606Z" transform="translate(-1412.769 -188.345)" fill="#fafafa"/>
        <path id="Trazado_99398" data-name="Trazado 99398" d="M1547.168,280.685s-.633-.292-1.7-.653a14.819,14.819,0,0,0-4.306-.75,14.256,14.256,0,0,0-4.325.594c-1.072.321-1.7.623-1.724.594a1.914,1.914,0,0,1,.438-.234,8.441,8.441,0,0,1,1.247-.5,13.131,13.131,0,0,1,4.374-.662,13.58,13.58,0,0,1,4.374.828,11.031,11.031,0,0,1,1.228.546A2.075,2.075,0,0,1,1547.168,280.685Z" transform="translate(-1413.363 -188.302)" fill="#fafafa"/>
        <path id="Trazado_99399" data-name="Trazado 99399" d="M1529.453,293.458a.59.59,0,0,1-.175.107l-.507.253a20.036,20.036,0,0,1-1.948.8,24.449,24.449,0,0,1-13.639.828,18.581,18.581,0,0,1-2.016-.565l-.536-.185-.185-.078h.195l.555.156c.468.136,1.159.312,2.017.5a25.967,25.967,0,0,0,13.551-.828c.828-.283,1.491-.536,1.948-.74l.516-.214Z" transform="translate(-1412.726 -188.673)" fill="#fafafa"/>
        <path id="Trazado_99400" data-name="Trazado 99400" d="M1507.186,261.756a12.049,12.049,0,0,0-1.364-.546,9.247,9.247,0,0,0-6.819.409c-.818.39-1.266.74-1.3.711a2.178,2.178,0,0,1,.312-.263,6.5,6.5,0,0,1,.916-.575,8.68,8.68,0,0,1,6.985-.419,6.3,6.3,0,0,1,.974.468A2.244,2.244,0,0,1,1507.186,261.756Z" transform="translate(-1412.397 -187.823)" fill="#fafafa"/>
        <g id="Grupo_53349" data-name="Grupo 53349" transform="translate(110.398 86.47)" opacity="0.4">
          <path id="Trazado_99401" data-name="Trazado 99401" d="M1523.964,274.677a6.527,6.527,0,0,0,2.728,8.144,9.254,9.254,0,0,0,9.81-.351c.526-.39.974-1.081.565-1.539s-.974-.283-1.51-.2a11.527,11.527,0,0,1-6.907-1.2,9.831,9.831,0,0,1-4.627-4.871" transform="translate(-1523.46 -274.658)"/>
        </g>
        <path id="Trazado_99402" data-name="Trazado 99402" d="M1501.237,303.8l22.182-.4-12.362,5.9Z" transform="translate(-1412.489 -188.93)" fill="#263238"/>
        <path id="Trazado_99403" data-name="Trazado 99403" d="M1454.005,270.864l8.592,37.555a3.058,3.058,0,0,0,3.02,2.377l44.374-.507,12.177-5.991-.195-1.7-10.57,4.754-6.625-39.094a3.03,3.03,0,0,0-2.923-2.835l-45.631,2.523a2.4,2.4,0,0,0-2.278,2.51A2.446,2.446,0,0,0,1454.005,270.864Z" transform="translate(-1411.268 -187.949)" fill="#455a64"/>
        <path id="Trazado_99404" data-name="Trazado 99404" d="M1513.427,303.614c1.4,1.948,2.6.341,4.218-.273a9.9,9.9,0,0,0,2.2-1.159l-.37,5.748-3.429,2.435s0,1.549,2.25,1.7a7.718,7.718,0,0,0,3.186-.234l.117.76a1.8,1.8,0,0,0,1.734,1.52,2.279,2.279,0,0,0,1.062-.175,4.872,4.872,0,0,0,4.5,0,3.993,3.993,0,0,0,2.065-3.634l3.517-7.034.974-.292a5.455,5.455,0,0,0-.886-6.537,5.952,5.952,0,0,0-6.118-1.335l-4.657,1.539a4.767,4.767,0,0,0-3.3.877c-.77.565-3.79,2.689-3.79,2.689Z" transform="translate(-1412.803 -188.707)" fill="#ffbe9d"/>
        <path id="Trazado_99405" data-name="Trazado 99405" d="M1524.164,307.048c.068,0,.136.37.214.974a6.973,6.973,0,0,1,0,2.4,2.532,2.532,0,0,1-.633,1.237,2.173,2.173,0,0,1-.974.594c-.653.166-1.033-.107-.974-.146a2.4,2.4,0,0,0,.906-.146,2.22,2.22,0,0,0,1.276-1.637,10.78,10.78,0,0,0,.127-2.289C1524.076,307.428,1524.106,307.058,1524.164,307.048Z" transform="translate(-1413.019 -189.024)" fill="#eb996e"/>
        <path id="Trazado_99406" data-name="Trazado 99406" d="M1520,302.378a9.306,9.306,0,0,1,0,2.923,9.891,9.891,0,0,1-.4,2.864,9.306,9.306,0,0,1,0-2.923A9.755,9.755,0,0,1,1520,302.378Z" transform="translate(-1412.96 -188.903)" fill="#eb996e"/>
        <path id="Trazado_99407" data-name="Trazado 99407" d="M1528.122,308.458a2.55,2.55,0,0,1,.224,1.12,4.8,4.8,0,0,1-.507,2.747,4.267,4.267,0,0,1-2.172,1.754,2.234,2.234,0,0,1-1.12.244,5.284,5.284,0,0,1,.974-.526,4.677,4.677,0,0,0,1.948-1.7,5.361,5.361,0,0,0,.565-2.513A3.766,3.766,0,0,1,1528.122,308.458Z" transform="translate(-1413.09 -189.06)" fill="#eb996e"/>
        <path id="Trazado_99408" data-name="Trazado 99408" d="M1534.574,305.625a14.227,14.227,0,0,1,1.081-2.095,6.546,6.546,0,0,0,.682-2.4,5.952,5.952,0,0,0-2.27-5.348,6.74,6.74,0,0,0-2.211-1.111,18.3,18.3,0,0,0-2.309-.37,1.75,1.75,0,0,1,.633-.1,6.594,6.594,0,0,1,1.753.166,6.745,6.745,0,0,1,2.377,1.091,6.082,6.082,0,0,1,1.948,2.533,6.161,6.161,0,0,1,.438,3.186,6.428,6.428,0,0,1-.808,2.484,12.653,12.653,0,0,1-.974,1.461A2.251,2.251,0,0,1,1534.574,305.625Z" transform="translate(-1413.219 -188.692)" fill="#263238"/>
        <path id="Trazado_99409" data-name="Trazado 99409" d="M1483.375,288.472a2.494,2.494,0,1,1-2.494-2.494h0A2.494,2.494,0,0,1,1483.375,288.472Z" transform="translate(-1411.899 -188.48)" fill="#fafafa"/>
        <path id="Trazado_99410" data-name="Trazado 99410" d="M1534.594,204.428c-1.159,2.007-.506,4.559.448,6.673s2.192,4.228,2.143,6.537c-.068,3.9-3.721,7.112-3.458,10.989a5.844,5.844,0,0,0,4.092,5.046c-1.763-1.335-1.773-4.043-.974-6.089s4.51-7.384,5.124-9.508c2.056-7.131,1.4-8.018-.974-10.716" transform="translate(-1413.327 -186.375)" fill="#263238"/>
        <path id="Trazado_99411" data-name="Trazado 99411" d="M1541.315,209.964a2.275,2.275,0,0,1-1.344,0,5.582,5.582,0,0,1-4.325-4.472,3.242,3.242,0,0,1,0-1.344,8.329,8.329,0,0,1,.322,1.266,6.117,6.117,0,0,0,4.082,4.208A8.739,8.739,0,0,1,1541.315,209.964Z" transform="translate(-1413.375 -186.368)" fill="#455a64"/>
        <path id="Trazado_99412" data-name="Trazado 99412" d="M1537.084,231.339a1.187,1.187,0,0,1-.244-.185,3.275,3.275,0,0,1-.575-.662,4.87,4.87,0,0,1-.808-3.108,4.676,4.676,0,0,1,.682-2.153,9.578,9.578,0,0,1,1.724-1.948,7.469,7.469,0,0,0,1.685-2.085,6.291,6.291,0,0,0,.672-2.767,5.918,5.918,0,0,0-.633-2.767,16.541,16.541,0,0,0-1.49-2.289,16.173,16.173,0,0,1-2.406-4.092,8.921,8.921,0,0,1-.6-3.156,2.933,2.933,0,0,1,.156-1.159,10.483,10.483,0,0,0,.789,4.179,16.547,16.547,0,0,0,2.435,3.945,15.585,15.585,0,0,1,1.559,2.348,6.36,6.36,0,0,1,.7,3,6.549,6.549,0,0,1-.74,2.981,7.785,7.785,0,0,1-1.8,2.2,9.558,9.558,0,0,0-1.685,1.783,4.352,4.352,0,0,0-.682,1.948,4.947,4.947,0,0,0,.614,2.923A11.247,11.247,0,0,0,1537.084,231.339Z" transform="translate(-1413.362 -186.389)" fill="#455a64"/>
        <path id="Trazado_99413" data-name="Trazado 99413" d="M1542.252,209.928a2.616,2.616,0,0,1,.506.477,6.067,6.067,0,0,1,.974,1.646,8.93,8.93,0,0,1-.088,6.186,15.368,15.368,0,0,1-3.429,5.183,9.245,9.245,0,0,1-1.948,1.7,21.3,21.3,0,0,1,1.656-1.948,17.178,17.178,0,0,0,3.215-5.114,9.2,9.2,0,0,0,.224-5.845A14.085,14.085,0,0,0,1542.252,209.928Z" transform="translate(-1413.444 -186.517)" fill="#455a64"/>
        <path id="Trazado_99414" data-name="Trazado 99414" d="M1509.987,310.318a.8.8,0,0,1-.059-.234l-.117-.682c-.1-.643-.234-1.52-.4-2.63-.36-2.328-.857-5.631-1.471-9.683s-1.4-8.953-2.358-14.33c-.487-2.689-.974-5.514-1.627-8.417-.3-1.452-.653-2.923-.974-4.413a4.723,4.723,0,0,0-.974-1.948,2.992,2.992,0,0,0-1.948-.9,12.947,12.947,0,0,0-2.3,0l-2.318.146-4.53.3-8.563.546-14.506.906-9.742.555-2.66.127h-.926a.889.889,0,0,0,.234-.049l.682-.068,2.66-.224,9.742-.721,14.5-.974,8.563-.575,4.53-.3,2.319-.156a13.134,13.134,0,0,1,2.4,0,3.547,3.547,0,0,1,2.231,1.062,5.15,5.15,0,0,1,1.062,2.172c.38,1.5.721,2.923.974,4.433.614,2.923,1.12,5.748,1.6,8.436.974,5.4,1.666,10.268,2.25,14.36s.974,7.414,1.315,9.742c.127,1.12.234,2,.3,2.65a2.107,2.107,0,0,0,.068.692A1.018,1.018,0,0,1,1509.987,310.318Z" transform="translate(-1411.283 -187.978)" fill="#263238"/>
      </g>
    </g>
    <rect id="Rectángulo_29309" data-name="Rectángulo 29309" width="440" height="440" transform="translate(-11014.667 -12495)" fill="none"/>
  </g>
</svg>
