<svg xmlns="http://www.w3.org/2000/svg" width="620" height="279.885" viewBox="0 0 620 279.885">
  <g id="Grupo_56099" data-name="Grupo 56099" transform="translate(-3299.202 1.688)">
    <path id="Trazado_124910" data-name="Trazado 124910" d="M3651.633,97.456l-1.855-3.358c1.471-.813,3-1.627,4.551-2.417l1.745,3.417C3654.563,95.87,3653.068,96.663,3651.633,97.456Zm330.028-2.6c-1.468-.744-2.989-1.487-4.523-2.209l1.633-3.471c1.568.738,3.125,1.5,4.624,2.258Zm-321.07-1.982-1.645-3.466c1.524-.723,3.1-1.443,4.677-2.141l1.549,3.51C3663.626,91.461,3662.084,92.166,3660.591,92.875Zm311.957-2.312c-1.508-.662-3.071-1.324-4.644-1.969l1.455-3.55c1.6.656,3.194,1.331,4.73,2.005ZM3669.812,88.8l-1.464-3.546c1.556-.642,3.161-1.283,4.77-1.9l1.381,3.579C3672.919,87.536,3671.341,88.166,3669.812,88.8Zm293.4-2.063c-1.553-.6-3.146-1.187-4.735-1.759l1.3-3.61c1.614.581,3.232,1.182,4.81,1.787Zm-283.981-1.577-1.307-3.608c1.589-.575,3.217-1.147,4.841-1.7L3684,83.483C3682.4,84.027,3680.8,84.59,3679.231,85.156Zm274.474-1.845c-1.577-.533-3.193-1.062-4.806-1.573l1.16-3.657c1.634.518,3.273,1.055,4.873,1.595ZM3688.8,81.9l-1.167-3.654c1.61-.514,3.257-1.024,4.9-1.515l1.1,3.675C3692.015,80.891,3690.389,81.394,3688.8,81.9Zm255.265-1.649c-1.6-.477-3.235-.949-4.862-1.405l1.035-3.694c1.647.461,3.3.94,4.922,1.422Zm-245.575-1.26-1.042-3.692c1.617-.456,3.279-.911,4.94-1.351l.983,3.708C3701.731,78.092,3700.088,78.541,3698.491,78.992Zm235.83-1.472c-1.617-.426-3.268-.847-4.906-1.252l.922-3.724c1.656.41,3.324.835,4.96,1.266ZM3708.277,76.4l-.928-3.723c1.635-.407,3.31-.811,4.976-1.2l.874,3.735C3711.55,75.594,3709.893,75.994,3708.277,76.4Zm216.214-1.31c-1.625-.377-3.288-.751-4.941-1.111l.815-3.749c1.671.364,3.352.741,4.993,1.122Zm-206.352-1-.821-3.747c1.661-.364,3.345-.721,5.005-1.062l.771,3.758C3721.45,73.376,3719.782,73.73,3718.138,74.09Zm196.454-1.158c-1.639-.334-3.312-.664-4.971-.98l.717-3.769c1.676.319,3.364.652,5.019.989Zm-186.529-.879-.723-3.768c1.659-.318,3.352-.632,5.03-.932l.675,3.776C3731.384,71.426,3729.707,71.737,3728.063,72.052Zm176.574-1.018c-1.639-.292-3.321-.58-4.995-.856l.625-3.785c1.69.279,3.385.57,5.041.864Zm-166.6-.769-.63-3.785c1.671-.278,3.369-.55,5.049-.81l.584,3.792C3741.379,69.72,3739.7,69.991,3738.04,70.266Zm156.6-.885c-1.655-.253-3.342-.5-5.015-.739l.537-3.8c1.688.239,3.389.489,5.059.745Zm-146.578-.663-.542-3.8c1.683-.24,3.387-.473,5.066-.694l.5,3.8C3751.417,68.249,3749.728,68.48,3748.059,68.719Zm136.539-.757q-2.5-.325-5.032-.627l.454-3.809q2.55.3,5.072.631ZM3758.113,67.4l-.458-3.809q2.526-.3,5.079-.582l.416,3.814Q3760.618,67.1,3758.113,67.4Zm116.415-.636q-2.509-.271-5.045-.519l.372-3.818q2.557.249,5.084.523ZM3768.194,66.3l-.376-3.818q2.532-.25,5.088-.475l.338,3.822Q3770.705,66.048,3768.194,66.3Zm96.239-.519q-2.516-.219-5.054-.414l.294-3.825q2.558.2,5.093.417ZM3778.3,65.4l-.3-3.825q2.537-.2,5.1-.372l.26,3.828Q3780.815,65.208,3778.3,65.4Zm76.021-.4q-2.519-.169-5.062-.313l.218-3.831q2.56.146,5.1.316Zm-65.9-.283-.222-3.83q2.541-.147,5.1-.271l.184,3.832Q3790.942,64.571,3788.418,64.717Zm55.772-.295q-2.525-.119-5.068-.214l.143-3.834q2.564.1,5.105.216Zm-45.64-.194L3798.4,60.4q2.545-.1,5.107-.172l.111,3.835Q3801.078,64.132,3798.551,64.229Zm35.5-.185q-2.527-.07-5.071-.117l.07-3.836q2.562.047,5.107.118Zm-25.361-.107-.074-3.836q2.547-.049,5.108-.074l.039,3.836Q3811.22,63.888,3808.692,63.937Zm15.217-.079q-2.4-.021-4.8-.021h-.27V60h.27q2.425,0,4.838.021Z" transform="translate(-201.133 -35.392)" fill="#ccc"/>
    <g id="Grupo_56033" data-name="Grupo 56033" transform="translate(3710.22 72.626)">
      <g id="Grupo_56027" data-name="Grupo 56027" transform="translate(174.49 182.842)">
        <rect id="Rectángulo_30246" data-name="Rectángulo 30246" width="3.891" height="14.233" transform="translate(6.972 14.233) rotate(180)" fill="#7d6eb2"/>
        <path id="Trazado_124911" data-name="Trazado 124911" d="M4682.787,633.032a5.026,5.026,0,1,0-5.027,5.027A5.026,5.026,0,0,0,4682.787,633.032Z" transform="translate(-4672.734 -616.737)" fill="#7d6eb2"/>
        <path id="Trazado_124912" data-name="Trazado 124912" d="M4683.385,635.363a3.294,3.294,0,1,0-3.293,3.294A3.294,3.294,0,0,0,4683.385,635.363Z" transform="translate(-4675.065 -619.068)" fill="#cbc5e0"/>
      </g>
      <g id="Grupo_56028" data-name="Grupo 56028" transform="translate(77.725 182.842)">
        <rect id="Rectángulo_30247" data-name="Rectángulo 30247" width="3.891" height="14.233" transform="translate(6.972 14.233) rotate(180)" fill="#7d6eb2"/>
        <path id="Trazado_124913" data-name="Trazado 124913" d="M4455.787,633.032a5.027,5.027,0,1,0-5.027,5.027A5.026,5.026,0,0,0,4455.787,633.032Z" transform="translate(-4445.734 -616.737)" fill="#7d6eb2"/>
        <path id="Trazado_124914" data-name="Trazado 124914" d="M4456.386,635.363a3.294,3.294,0,1,0-3.293,3.294A3.295,3.295,0,0,0,4456.386,635.363Z" transform="translate(-4448.065 -619.068)" fill="#cbc5e0"/>
      </g>
      <g id="Grupo_56029" data-name="Grupo 56029" transform="translate(14.086 182.842)">
        <rect id="Rectángulo_30248" data-name="Rectángulo 30248" width="3.891" height="14.233" transform="translate(6.972 14.233) rotate(180)" fill="#214d9a"/>
        <path id="Trazado_124915" data-name="Trazado 124915" d="M4306.5,633.032a5.026,5.026,0,1,0-5.027,5.027A5.027,5.027,0,0,0,4306.5,633.032Z" transform="translate(-4296.444 -616.737)" fill="#214d9a"/>
        <path id="Trazado_124916" data-name="Trazado 124916" d="M4307.1,635.363a3.294,3.294,0,1,0-3.294,3.294A3.294,3.294,0,0,0,4307.1,635.363Z" transform="translate(-4298.775 -619.068)" fill="#ff9841"/>
      </g>
      <path id="Rectángulo_30249" data-name="Rectángulo 30249" d="M17.87,0H63.621a17.87,17.87,0,0,1,17.87,17.87V129.948a39.266,39.266,0,0,1-39.266,39.266H17.87A17.87,17.87,0,0,1,0,151.344V17.87A17.87,17.87,0,0,1,17.87,0Z" transform="translate(81.491 192.502) rotate(180)" fill="#b1a8d1"/>
      <path id="Rectángulo_30250" data-name="Rectángulo 30250" d="M17.355,0h108.8a0,0,0,0,1,0,0V169.215a0,0,0,0,1,0,0H0a0,0,0,0,1,0,0V17.355A17.355,17.355,0,0,1,17.355,0Z" transform="translate(194.461 192.502) rotate(180)" fill="#cbc5e0"/>
      <rect id="Rectángulo_30251" data-name="Rectángulo 30251" width="129.391" height="7.898" transform="translate(153.115 23.288) rotate(180)" fill="#5e5385"/>
      <rect id="Rectángulo_30252" data-name="Rectángulo 30252" width="89.028" height="61.16" transform="translate(179.382 126.829) rotate(180)" fill="#85aeff" opacity="0.3"/>
      <rect id="Rectángulo_30253" data-name="Rectángulo 30253" width="45.32" height="3.223" transform="translate(60.612 37.792) rotate(180)" fill="#5e5385"/>
      <rect id="Rectángulo_30254" data-name="Rectángulo 30254" width="45.32" height="3.224" transform="translate(60.612 45.672) rotate(180)" fill="#5e5385"/>
      <path id="Trazado_124917" data-name="Trazado 124917" d="M4360.214,188.035h141.517a15.389,15.389,0,0,0-15.389-15.39H4360.214Z" transform="translate(-4318.945 -172.645)" fill="#978bc1"/>
      <path id="Trazado_124918" data-name="Trazado 124918" d="M4281.975,188.035h73.573a15.389,15.389,0,0,0-15.39-15.39h-42.794a15.389,15.389,0,0,0-15.389,15.39Z" transform="translate(-4274.058 -172.645)" fill="#7d6eb2"/>
      <g id="Grupo_56032" data-name="Grupo 56032" transform="translate(82.41 23.289)">
        <path id="Trazado_124919" data-name="Trazado 124919" d="M4565.815,227.279l11.633,22.077c1.77,3.357.481,6.079-2.876,6.079h-96.932c-3.358,0-7.513-2.722-9.283-6.079l-11.632-22.077Z" transform="translate(-4456.726 -227.279)" fill="#5e5385"/>
        <path id="Trazado_124920" data-name="Trazado 124920" d="M4489.5,255.435h96.932c3.357,0,4.644-2.722,2.875-6.079l-11.633-22.077H4468.585l11.633,22.077C4481.987,252.713,4486.143,255.435,4489.5,255.435Z" transform="translate(-4463.53 -227.279)" fill="#978bc1"/>
        <path id="Trazado_124921" data-name="Trazado 124921" d="M4514.4,254.289h28.931l-7.647-14.513h-28.931Z" transform="translate(-4485.427 -234.448)" fill="#fddbba"/>
        <g id="Grupo_56030" data-name="Grupo 56030" transform="translate(66.3 6.673)">
          <path id="Trazado_124922" data-name="Trazado 124922" d="M4666.063,244.984a3.992,3.992,0,0,0,3.13,2.05c1.132,0,1.567-.918.97-2.05a3.991,3.991,0,0,0-3.13-2.05C4665.9,242.934,4665.467,243.852,4666.063,244.984Z" transform="translate(-4642.973 -242.934)" fill="#5e5385"/>
          <path id="Trazado_124923" data-name="Trazado 124923" d="M4639.774,244.984a3.992,3.992,0,0,0,3.13,2.05c1.131,0,1.566-.918.97-2.05a3.993,3.993,0,0,0-3.13-2.05C4639.611,242.934,4639.177,243.852,4639.774,244.984Z" transform="translate(-4627.89 -242.934)" fill="#5e5385"/>
          <path id="Trazado_124924" data-name="Trazado 124924" d="M4612.524,244.984a3.991,3.991,0,0,0,3.13,2.05c1.132,0,1.566-.918.969-2.05a3.988,3.988,0,0,0-3.129-2.05C4612.361,242.934,4611.928,243.852,4612.524,244.984Z" transform="translate(-4612.256 -242.934)" fill="#5e5385"/>
          <path id="Trazado_124925" data-name="Trazado 124925" d="M4676.369,264.54a3.988,3.988,0,0,0,3.129,2.05c1.133,0,1.567-.918.97-2.05a3.989,3.989,0,0,0-3.13-2.05C4676.206,262.49,4675.772,263.408,4676.369,264.54Z" transform="translate(-4648.886 -254.154)" fill="#5e5385"/>
          <path id="Trazado_124926" data-name="Trazado 124926" d="M4650.078,264.54a3.993,3.993,0,0,0,3.132,2.05c1.132,0,1.566-.918.969-2.05a3.991,3.991,0,0,0-3.13-2.05C4649.917,262.49,4649.482,263.408,4650.078,264.54Z" transform="translate(-4633.802 -254.154)" fill="#5e5385"/>
          <path id="Trazado_124927" data-name="Trazado 124927" d="M4622.829,264.54a3.989,3.989,0,0,0,3.13,2.05c1.132,0,1.566-.918.97-2.05a3.991,3.991,0,0,0-3.131-2.05C4622.667,262.49,4622.232,263.408,4622.829,264.54Z" transform="translate(-4618.168 -254.154)" fill="#5e5385"/>
        </g>
        <g id="Grupo_56031" data-name="Grupo 56031" transform="translate(98.632 4.692)">
          <path id="Trazado_124928" data-name="Trazado 124928" d="M4713.677,239.261a1.9,1.9,0,0,0,1.486.974c.539,0,.745-.436.461-.974a1.9,1.9,0,0,0-1.487-.974C4713.6,238.287,4713.394,238.723,4713.677,239.261Z" transform="translate(-4702.703 -238.287)" fill="#0b3563"/>
          <path id="Trazado_124929" data-name="Trazado 124929" d="M4701.183,239.261a1.894,1.894,0,0,0,1.487.974c.538,0,.745-.436.461-.974a1.9,1.9,0,0,0-1.488-.974C4701.106,238.287,4700.9,238.723,4701.183,239.261Z" transform="translate(-4695.535 -238.287)" fill="#0b3563"/>
          <path id="Trazado_124930" data-name="Trazado 124930" d="M4688.232,239.261a1.9,1.9,0,0,0,1.487.974c.54,0,.744-.436.461-.974a1.9,1.9,0,0,0-1.487-.974C4688.155,238.287,4687.948,238.723,4688.232,239.261Z" transform="translate(-4688.104 -238.287)" fill="#0b3563"/>
          <path id="Trazado_124931" data-name="Trazado 124931" d="M4718.575,248.555a1.9,1.9,0,0,0,1.487.974c.539,0,.745-.436.46-.974a1.9,1.9,0,0,0-1.487-.974C4718.5,247.581,4718.291,248.017,4718.575,248.555Z" transform="translate(-4705.513 -243.619)" fill="#0b3563"/>
          <path id="Trazado_124932" data-name="Trazado 124932" d="M4706.08,248.555a1.9,1.9,0,0,0,1.488.974c.537,0,.744-.436.461-.974a1.9,1.9,0,0,0-1.489-.974C4706,247.581,4705.8,248.017,4706.08,248.555Z" transform="translate(-4698.344 -243.619)" fill="#0b3563"/>
          <path id="Trazado_124933" data-name="Trazado 124933" d="M4693.128,248.555a1.9,1.9,0,0,0,1.487.974c.539,0,.745-.436.461-.974a1.9,1.9,0,0,0-1.489-.974C4693.051,247.581,4692.845,248.017,4693.128,248.555Z" transform="translate(-4690.913 -243.619)" fill="#0b3563"/>
        </g>
      </g>
      <path id="Trazado_124934" data-name="Trazado 124934" d="M4570.461,360.332h-69.187a2.393,2.393,0,0,1-2.394-2.393h0a2.393,2.393,0,0,1,2.394-2.393h69.188a2.394,2.394,0,0,1,2.394,2.393h0A2.393,2.393,0,0,1,4570.461,360.332Z" transform="translate(-4398.5 -277.579)" fill="#b1a8d1"/>
      <path id="Trazado_124935" data-name="Trazado 124935" d="M4570.461,386.246h-69.187a2.393,2.393,0,0,1-2.394-2.394h0a2.393,2.393,0,0,1,2.394-2.394h69.188a2.394,2.394,0,0,1,2.394,2.394h0A2.394,2.394,0,0,1,4570.461,386.246Z" transform="translate(-4398.5 -292.446)" fill="#b1a8d1"/>
    </g>
    <g id="Grupo_56087" data-name="Grupo 56087" transform="translate(3299.202 -1.688)">
      <g id="Grupo_56036" data-name="Grupo 56036" transform="translate(36.733 119.282)">
        <g id="Grupo_56034" data-name="Grupo 56034" transform="translate(14.724 5.153)">
          <path id="Trazado_124936" data-name="Trazado 124936" d="M3421.476,445.272h-.136c-.8,0-1.444-1.065-1.425-2.358l2.161-151.493,6.367-1.2-5.429,152.7C3422.967,444.242,3422.292,445.272,3421.476,445.272Z" transform="translate(-3419.914 -290.22)" fill="#717d8c"/>
        </g>
        <g id="Grupo_56035" data-name="Grupo 56035" transform="translate(262.023 5.153)">
          <path id="Trazado_124937" data-name="Trazado 124937" d="M4007.017,445.272h.135c.8,0,1.445-1.065,1.426-2.358l-2.162-151.493-6.366-1.2,5.429,152.7C4005.525,444.242,4006.2,445.272,4007.017,445.272Z" transform="translate(-4000.049 -290.22)" fill="#717d8c"/>
        </g>
        <rect id="Rectángulo_30255" data-name="Rectángulo 30255" width="275.785" height="9.14" rx="4.57" transform="translate(275.785 9.14) rotate(180)" fill="#717d8c"/>
      </g>
      <g id="Grupo_56079" data-name="Grupo 56079" transform="translate(47.73 17.456)">
        <g id="Grupo_56037" data-name="Grupo 56037">
          <path id="Trazado_124938" data-name="Trazado 124938" d="M3539.826,119.42l-5.335,62.8s-.559,3.807,2.3,3.814c4.7.011,23.406,0,23.406,0s-3.539-.792-3.5-2.575c.051-2.1,6.235-64.633,6.235-64.633Z" transform="translate(-3481.897 -84.909)" fill="#b3b3b3"/>
          <path id="Trazado_124939" data-name="Trazado 124939" d="M3563.786,184.011c-.925,0-18.79.059-23.369,0-2-.025-2.346-1.774-2.362-2.907a5.618,5.618,0,0,1,.061-.944l.138-1.649.354-4.2.312-3.712.4-4.77.338-4.027,3.79-45.073,23.112-.6s-2.6,26.432-4.447,45.673c-.206,2.144-.4,4.2-.582,6.118q-.087.919-.17,1.8c-.171,1.82-.327,3.492-.463,4.968-.072.778-.138,1.5-.2,2.163-.235,2.595-.373,4.252-.375,4.567a2.639,2.639,0,0,0,.045.513C3560.751,183.944,3563.439,184.011,3563.786,184.011Z" transform="translate(-3483.966 -83.36)" fill="#e6e6e6"/>
          <path id="Trazado_124940" data-name="Trazado 124940" d="M3415.4,39.261l12.994,52.2,1.779,7.148,6.053,24.312h112.441l-22.307-83.657Z" transform="translate(-3413.595 -39.261)" fill="#e6e6e6"/>
          <path id="Trazado_124941" data-name="Trazado 124941" d="M3412.971,39.261l-1.8.6,20.234,84.873,2.394-1.815Z" transform="translate(-3411.17 -39.261)" fill="#b3b3b3"/>
          <path id="Trazado_124942" data-name="Trazado 124942" d="M3458.635,237.327h111.749l3.086-1.815H3461.029Z" transform="translate(-3438.402 -151.854)" fill="#b3b3b3"/>
          <rect id="Rectángulo_30256" data-name="Rectángulo 30256" width="24.196" height="1.15" transform="translate(83.672 101.826) rotate(180)" fill="#f2f2f2"/>
          <path id="Trazado_124943" data-name="Trazado 124943" d="M3542.974,107.5l-18.245-67.136H3414.974V39.261h111.139l18.184,68.093Z" transform="translate(-3413.353 -39.261)" fill="#fc9f38"/>
          <path id="Trazado_124944" data-name="Trazado 124944" d="M3562.232,239.769l-.125.879-22.755,4.6.313-3.712.149-1.763Z" transform="translate(-3484.711 -154.297)" fill="#b3b3b3"/>
          <path id="Trazado_124945" data-name="Trazado 124945" d="M3563.787,265.728c-.925,0-18.79.059-23.37,0-2-.025-2.346-1.774-2.362-2.907l22.647-4.261c-.235,2.595-.373,4.252-.375,4.567a2.659,2.659,0,0,0,.045.513C3560.752,265.662,3563.44,265.728,3563.787,265.728Z" transform="translate(-3483.967 -165.077)" fill="#f2f2f2" opacity="0.4"/>
          <path id="Trazado_124946" data-name="Trazado 124946" d="M3505.5,185.854l-49.394,16.936-6.053-24.312Z" transform="translate(-3433.478 -119.132)" fill="#ccc" opacity="0.4"/>
          <path id="Trazado_124947" data-name="Trazado 124947" d="M3415.4,39.261h110.96l18,67.234h-112.8Z" transform="translate(-3413.595 -39.261)" fill="#ccc"/>
        </g>
        <path id="Trazado_124948" data-name="Trazado 124948" d="M3545.312,108.428H3441.419l-11.766-46.87-.9-3.594-.77-3.066-1.8-7.189h102.4l1.981,7.189.845,3.066.991,3.594Z" transform="translate(-3419.781 -44.108)" fill="#f2f2f2"/>
        <g id="Grupo_56078" data-name="Grupo 56078" transform="translate(14.775 6.365)">
          <g id="Grupo_56038" data-name="Grupo 56038" transform="translate(0 2.513)">
            <path id="Trazado_124949" data-name="Trazado 124949" d="M3452.91,61.065l-6.925.1-.154-.6,6.925-.1Z" transform="translate(-3445.831 -60.303)" fill="gray"/>
            <path id="Trazado_124950" data-name="Trazado 124950" d="M3451.945,64.957l-4.979.07-.154-.6,4.979-.07Z" transform="translate(-3446.394 -62.536)" fill="gray"/>
            <path id="Trazado_124951" data-name="Trazado 124951" d="M3465.363,64.768l-4.979.07-.154-.6,4.979-.07Z" transform="translate(-3454.092 -62.428)" fill="gray"/>
            <path id="Trazado_124952" data-name="Trazado 124952" d="M3477.619,64.631l-3.086.043-.154-.6,3.086-.044Z" transform="translate(-3462.209 -62.349)" fill="gray"/>
            <path id="Trazado_124953" data-name="Trazado 124953" d="M3469.516,60.882l-4.273.06-.154-.6,4.272-.06Z" transform="translate(-3456.88 -60.198)" fill="gray"/>
            <path id="Trazado_124954" data-name="Trazado 124954" d="M3483.206,60.689l-4.272.06-.154-.6,4.272-.06Z" transform="translate(-3464.734 -60.087)" fill="gray"/>
          </g>
          <g id="Grupo_56039" data-name="Grupo 56039" transform="translate(79.247)">
            <path id="Trazado_124955" data-name="Trazado 124955" d="M3636.511,54.852l-4.671.066-.1-.406,4.671-.066Z" transform="translate(-3631.735 -54.338)" fill="gray"/>
            <path id="Trazado_124956" data-name="Trazado 124956" d="M3635.86,57.477l-3.358.047-.1-.406,3.358-.047Z" transform="translate(-3632.115 -55.844)" fill="gray"/>
            <path id="Trazado_124957" data-name="Trazado 124957" d="M3644.912,57.349l-3.358.047-.1-.406,3.359-.047Z" transform="translate(-3637.309 -55.77)" fill="gray"/>
            <path id="Trazado_124958" data-name="Trazado 124958" d="M3653.18,57.257l-2.082.029-.1-.406,2.082-.029Z" transform="translate(-3642.785 -55.718)" fill="gray"/>
            <path id="Trazado_124959" data-name="Trazado 124959" d="M3647.713,54.728l-2.882.041-.1-.406,2.882-.041Z" transform="translate(-3639.189 -54.266)" fill="gray"/>
            <path id="Trazado_124960" data-name="Trazado 124960" d="M3656.949,54.6l-2.883.041-.1-.406,2.882-.041Z" transform="translate(-3644.488 -54.192)" fill="gray"/>
          </g>
          <g id="Grupo_56040" data-name="Grupo 56040" transform="translate(91.708 53.272)">
            <path id="Trazado_124961" data-name="Trazado 124961" d="M3665.743,179.822l-4.672.066-.1-.406,4.671-.066Z" transform="translate(-3660.967 -179.308)" fill="gray"/>
            <path id="Trazado_124962" data-name="Trazado 124962" d="M3665.092,182.447l-3.358.047-.1-.406,3.359-.047Z" transform="translate(-3661.347 -180.814)" fill="gray"/>
            <path id="Trazado_124963" data-name="Trazado 124963" d="M3674.144,182.32l-3.359.047-.1-.406,3.358-.047Z" transform="translate(-3666.54 -180.741)" fill="gray"/>
            <path id="Trazado_124964" data-name="Trazado 124964" d="M3682.411,182.228l-2.082.029-.1-.406,2.082-.03Z" transform="translate(-3672.016 -180.688)" fill="gray"/>
            <path id="Trazado_124965" data-name="Trazado 124965" d="M3676.945,179.7l-2.882.041-.1-.406,2.882-.04Z" transform="translate(-3668.421 -179.237)" fill="gray"/>
            <path id="Trazado_124966" data-name="Trazado 124966" d="M3686.181,179.568l-2.882.041-.1-.406,2.882-.04Z" transform="translate(-3673.719 -179.162)" fill="gray"/>
          </g>
          <g id="Grupo_56043" data-name="Grupo 56043" transform="translate(1.358 7.839)">
            <g id="Grupo_56041" data-name="Grupo 56041">
              <path id="Trazado_124967" data-name="Trazado 124967" d="M3455.021,73.539l-5.849.082-.154-.6,5.849-.082Z" transform="translate(-3449.018 -72.785)" fill="gray"/>
              <path id="Trazado_124968" data-name="Trazado 124968" d="M3468.652,73.4l-3.267.046-.154-.6,3.267-.046Z" transform="translate(-3458.32 -72.703)" fill="gray"/>
              <path id="Trazado_124969" data-name="Trazado 124969" d="M3481.536,73.182l-5.009.071-.154-.6,5.009-.07Z" transform="translate(-3464.712 -72.58)" fill="gray"/>
            </g>
            <g id="Grupo_56042" data-name="Grupo 56042" transform="translate(0.405 1.559)">
              <path id="Trazado_124970" data-name="Trazado 124970" d="M3457.047,77.216l-6.925.1-.154-.6,6.925-.1Z" transform="translate(-3449.968 -76.454)" fill="gray"/>
              <path id="Trazado_124971" data-name="Trazado 124971" d="M3456.082,81.108l-4.979.07-.154-.6,4.979-.07Z" transform="translate(-3450.531 -78.686)" fill="gray"/>
              <path id="Trazado_124972" data-name="Trazado 124972" d="M3469.5,80.919l-4.979.07-.154-.6,4.979-.07Z" transform="translate(-3458.229 -78.578)" fill="gray"/>
              <path id="Trazado_124973" data-name="Trazado 124973" d="M3481.756,80.782l-3.086.043-.154-.6,3.086-.044Z" transform="translate(-3466.347 -78.5)" fill="gray"/>
              <path id="Trazado_124974" data-name="Trazado 124974" d="M3473.653,77.032l-4.272.06-.154-.6,4.272-.06Z" transform="translate(-3461.017 -76.348)" fill="gray"/>
              <path id="Trazado_124975" data-name="Trazado 124975" d="M3487.343,76.84l-4.272.06-.154-.6,4.272-.06Z" transform="translate(-3468.871 -76.238)" fill="gray"/>
            </g>
          </g>
          <g id="Grupo_56046" data-name="Grupo 56046" transform="translate(3.289 15.375)">
            <g id="Grupo_56044" data-name="Grupo 56044">
              <path id="Trazado_124976" data-name="Trazado 124976" d="M3459.551,91.22l-5.849.082-.154-.6,5.849-.082Z" transform="translate(-3453.547 -90.466)" fill="gray"/>
              <path id="Trazado_124977" data-name="Trazado 124977" d="M3473.181,91.077l-3.267.046-.154-.6,3.267-.046Z" transform="translate(-3462.849 -90.384)" fill="gray"/>
              <path id="Trazado_124978" data-name="Trazado 124978" d="M3486.065,90.863l-5.009.07-.154-.6,5.009-.071Z" transform="translate(-3469.241 -90.261)" fill="gray"/>
            </g>
            <g id="Grupo_56045" data-name="Grupo 56045" transform="translate(0.405 1.559)">
              <path id="Trazado_124979" data-name="Trazado 124979" d="M3461.577,94.9l-6.925.1-.154-.6,6.925-.1Z" transform="translate(-3454.498 -94.134)" fill="gray"/>
              <path id="Trazado_124980" data-name="Trazado 124980" d="M3460.611,98.788l-4.979.07-.154-.6,4.979-.07Z" transform="translate(-3455.06 -96.367)" fill="gray"/>
              <path id="Trazado_124981" data-name="Trazado 124981" d="M3474.029,98.6l-4.979.07-.154-.6,4.979-.07Z" transform="translate(-3462.758 -96.259)" fill="gray"/>
              <path id="Trazado_124982" data-name="Trazado 124982" d="M3486.286,98.463l-3.086.044-.154-.6,3.086-.044Z" transform="translate(-3470.876 -96.18)" fill="gray"/>
              <path id="Trazado_124983" data-name="Trazado 124983" d="M3478.182,94.713l-4.272.06-.154-.6,4.271-.06Z" transform="translate(-3465.546 -94.029)" fill="gray"/>
              <path id="Trazado_124984" data-name="Trazado 124984" d="M3491.873,94.52l-4.272.06-.154-.6,4.272-.06Z" transform="translate(-3473.401 -93.918)" fill="gray"/>
            </g>
          </g>
          <g id="Grupo_56049" data-name="Grupo 56049" transform="translate(5.136 22.586)">
            <g id="Grupo_56047" data-name="Grupo 56047">
              <path id="Trazado_124985" data-name="Trazado 124985" d="M3463.884,108.134l-5.849.082-.154-.6,5.849-.082Z" transform="translate(-3457.88 -107.38)" fill="gray"/>
              <path id="Trazado_124986" data-name="Trazado 124986" d="M3477.515,107.991l-3.267.046-.154-.6,3.267-.046Z" transform="translate(-3467.183 -107.298)" fill="gray"/>
              <path id="Trazado_124987" data-name="Trazado 124987" d="M3490.4,107.777l-5.009.07-.154-.6,5.009-.071Z" transform="translate(-3473.574 -107.175)" fill="gray"/>
            </g>
            <g id="Grupo_56048" data-name="Grupo 56048" transform="translate(0.405 1.559)">
              <path id="Trazado_124988" data-name="Trazado 124988" d="M3465.91,111.811l-6.925.1-.154-.6,6.925-.1Z" transform="translate(-3458.831 -111.048)" fill="gray"/>
              <path id="Trazado_124989" data-name="Trazado 124989" d="M3464.944,115.7l-4.979.07-.154-.6,4.979-.07Z" transform="translate(-3459.394 -113.281)" fill="gray"/>
              <path id="Trazado_124990" data-name="Trazado 124990" d="M3478.363,115.513l-4.979.07-.154-.6,4.978-.07Z" transform="translate(-3467.092 -113.173)" fill="gray"/>
              <path id="Trazado_124991" data-name="Trazado 124991" d="M3490.619,115.377l-3.086.043-.154-.6,3.086-.043Z" transform="translate(-3475.209 -113.094)" fill="gray"/>
              <path id="Trazado_124992" data-name="Trazado 124992" d="M3482.515,111.627l-4.272.06-.154-.6,4.272-.06Z" transform="translate(-3469.88 -110.943)" fill="gray"/>
              <path id="Trazado_124993" data-name="Trazado 124993" d="M3496.206,111.434l-4.272.06-.154-.6,4.272-.06Z" transform="translate(-3477.735 -110.832)" fill="gray"/>
            </g>
          </g>
          <g id="Grupo_56052" data-name="Grupo 56052" transform="translate(7.033 29.99)">
            <g id="Grupo_56050" data-name="Grupo 56050">
              <path id="Trazado_124994" data-name="Trazado 124994" d="M3468.334,125.5l-5.85.082-.154-.6,5.85-.082Z" transform="translate(-3462.33 -124.75)" fill="gray"/>
              <path id="Trazado_124995" data-name="Trazado 124995" d="M3481.965,125.362l-3.267.046-.154-.6,3.267-.046Z" transform="translate(-3471.632 -124.668)" fill="gray"/>
              <path id="Trazado_124996" data-name="Trazado 124996" d="M3494.848,125.147l-5.009.071-.154-.6,5.009-.071Z" transform="translate(-3478.024 -124.545)" fill="gray"/>
            </g>
            <g id="Grupo_56051" data-name="Grupo 56051" transform="translate(0.405 1.559)">
              <path id="Trazado_124997" data-name="Trazado 124997" d="M3470.36,129.181l-6.925.1-.154-.6,6.925-.1Z" transform="translate(-3463.281 -128.419)" fill="gray"/>
              <path id="Trazado_124998" data-name="Trazado 124998" d="M3469.395,133.073l-4.979.07-.154-.6,4.979-.07Z" transform="translate(-3463.844 -130.652)" fill="gray"/>
              <path id="Trazado_124999" data-name="Trazado 124999" d="M3482.813,132.884l-4.979.07-.154-.6,4.979-.07Z" transform="translate(-3471.541 -130.543)" fill="gray"/>
              <path id="Trazado_125000" data-name="Trazado 125000" d="M3495.069,132.747l-3.086.043-.154-.6,3.086-.043Z" transform="translate(-3479.659 -130.465)" fill="gray"/>
              <path id="Trazado_125001" data-name="Trazado 125001" d="M3486.965,129l-4.272.06-.155-.6,4.272-.06Z" transform="translate(-3474.33 -128.314)" fill="gray"/>
              <path id="Trazado_125002" data-name="Trazado 125002" d="M3500.656,128.805l-4.272.06-.154-.6,4.272-.06Z" transform="translate(-3482.184 -128.203)" fill="gray"/>
            </g>
          </g>
          <g id="Grupo_56055" data-name="Grupo 56055" transform="translate(9.271 39.121)">
            <g id="Grupo_56053" data-name="Grupo 56053">
              <path id="Trazado_125003" data-name="Trazado 125003" d="M3473.583,146.924l-5.849.082-.154-.6,5.849-.082Z" transform="translate(-3467.579 -146.17)" fill="gray"/>
              <path id="Trazado_125004" data-name="Trazado 125004" d="M3487.214,146.782l-3.267.046-.155-.6,3.268-.046Z" transform="translate(-3476.881 -146.088)" fill="gray"/>
              <path id="Trazado_125005" data-name="Trazado 125005" d="M3500.1,146.567l-5.009.071-.154-.6,5.009-.071Z" transform="translate(-3483.273 -145.965)" fill="gray"/>
            </g>
            <g id="Grupo_56054" data-name="Grupo 56054" transform="translate(0.405 1.559)">
              <path id="Trazado_125006" data-name="Trazado 125006" d="M3475.61,150.6l-6.925.1-.154-.6,6.925-.1Z" transform="translate(-3468.531 -149.839)" fill="gray"/>
              <path id="Trazado_125007" data-name="Trazado 125007" d="M3474.644,154.493l-4.979.07-.154-.6,4.979-.07Z" transform="translate(-3469.094 -152.071)" fill="gray"/>
              <path id="Trazado_125008" data-name="Trazado 125008" d="M3488.063,154.3l-4.979.07-.154-.6,4.978-.07Z" transform="translate(-3476.792 -151.963)" fill="gray"/>
              <path id="Trazado_125009" data-name="Trazado 125009" d="M3500.318,154.167l-3.086.043-.154-.6,3.086-.043Z" transform="translate(-3484.909 -151.885)" fill="gray"/>
              <path id="Trazado_125010" data-name="Trazado 125010" d="M3492.215,150.417l-4.272.06-.154-.6,4.272-.06Z" transform="translate(-3479.58 -149.733)" fill="gray"/>
              <path id="Trazado_125011" data-name="Trazado 125011" d="M3505.905,150.225l-4.272.06-.154-.6,4.272-.06Z" transform="translate(-3487.434 -149.623)" fill="gray"/>
            </g>
          </g>
          <g id="Grupo_56058" data-name="Grupo 56058" transform="translate(11.513 47.668)">
            <g id="Grupo_56056" data-name="Grupo 56056">
              <path id="Trazado_125012" data-name="Trazado 125012" d="M3478.842,166.974l-5.849.082-.154-.6,5.849-.082Z" transform="translate(-3472.838 -166.22)" fill="gray"/>
              <path id="Trazado_125013" data-name="Trazado 125013" d="M3492.473,166.831l-3.268.046-.154-.6,3.267-.046Z" transform="translate(-3482.14 -166.138)" fill="gray"/>
              <path id="Trazado_125014" data-name="Trazado 125014" d="M3505.356,166.617l-5.009.07-.154-.6,5.009-.07Z" transform="translate(-3488.532 -166.016)" fill="gray"/>
            </g>
            <g id="Grupo_56057" data-name="Grupo 56057" transform="translate(0.405 1.559)">
              <path id="Trazado_125015" data-name="Trazado 125015" d="M3480.868,170.651l-6.925.1-.154-.6,6.925-.1Z" transform="translate(-3473.789 -169.889)" fill="gray"/>
              <path id="Trazado_125016" data-name="Trazado 125016" d="M3479.9,174.542l-4.979.07-.154-.6,4.979-.07Z" transform="translate(-3474.352 -172.121)" fill="gray"/>
              <path id="Trazado_125017" data-name="Trazado 125017" d="M3493.321,174.354l-4.979.07-.154-.6,4.979-.07Z" transform="translate(-3482.05 -172.013)" fill="gray"/>
              <path id="Trazado_125018" data-name="Trazado 125018" d="M3505.577,174.217l-3.086.043-.154-.6,3.086-.043Z" transform="translate(-3490.167 -171.935)" fill="gray"/>
              <path id="Trazado_125019" data-name="Trazado 125019" d="M3497.473,170.467l-4.272.06-.154-.6,4.271-.06Z" transform="translate(-3484.838 -169.783)" fill="gray"/>
              <path id="Trazado_125020" data-name="Trazado 125020" d="M3511.164,170.274l-4.272.06-.154-.6,4.272-.06Z" transform="translate(-3492.692 -169.673)" fill="gray"/>
            </g>
          </g>
          <g id="Grupo_56059" data-name="Grupo 56059" transform="translate(27.327 2.513)">
            <path id="Trazado_125021" data-name="Trazado 125021" d="M3517.017,61.065l-6.925.1-.154-.6,6.925-.1Z" transform="translate(-3509.938 -60.303)" fill="gray"/>
            <path id="Trazado_125022" data-name="Trazado 125022" d="M3516.051,64.957l-4.979.07-.154-.6,4.978-.07Z" transform="translate(-3510.5 -62.536)" fill="gray"/>
            <path id="Trazado_125023" data-name="Trazado 125023" d="M3529.469,64.768l-4.979.07-.154-.6,4.979-.07Z" transform="translate(-3518.198 -62.428)" fill="gray"/>
            <path id="Trazado_125024" data-name="Trazado 125024" d="M3541.725,64.631l-3.085.043-.154-.6,3.086-.044Z" transform="translate(-3526.316 -62.349)" fill="gray"/>
            <path id="Trazado_125025" data-name="Trazado 125025" d="M3533.622,60.882l-4.272.06-.154-.6,4.272-.06Z" transform="translate(-3520.986 -60.198)" fill="gray"/>
            <path id="Trazado_125026" data-name="Trazado 125026" d="M3547.312,60.689l-4.272.06-.154-.6,4.272-.06Z" transform="translate(-3528.841 -60.087)" fill="gray"/>
          </g>
          <g id="Grupo_56062" data-name="Grupo 56062" transform="translate(28.686 7.839)">
            <g id="Grupo_56060" data-name="Grupo 56060">
              <path id="Trazado_125027" data-name="Trazado 125027" d="M3519.128,73.539l-5.849.082-.154-.6,5.849-.082Z" transform="translate(-3513.125 -72.785)" fill="gray"/>
              <path id="Trazado_125028" data-name="Trazado 125028" d="M3532.759,73.4l-3.267.046-.155-.6,3.268-.046Z" transform="translate(-3522.426 -72.703)" fill="gray"/>
              <path id="Trazado_125029" data-name="Trazado 125029" d="M3545.642,73.182l-5.01.071-.154-.6,5.009-.07Z" transform="translate(-3528.818 -72.58)" fill="gray"/>
            </g>
            <g id="Grupo_56061" data-name="Grupo 56061" transform="translate(0.405 1.559)">
              <path id="Trazado_125030" data-name="Trazado 125030" d="M3521.154,77.216l-6.925.1-.154-.6,6.925-.1Z" transform="translate(-3514.075 -76.454)" fill="gray"/>
              <path id="Trazado_125031" data-name="Trazado 125031" d="M3520.189,81.108l-4.979.07-.154-.6,4.979-.07Z" transform="translate(-3514.638 -78.686)" fill="gray"/>
              <path id="Trazado_125032" data-name="Trazado 125032" d="M3533.607,80.919l-4.979.07-.154-.6,4.978-.07Z" transform="translate(-3522.336 -78.578)" fill="gray"/>
              <path id="Trazado_125033" data-name="Trazado 125033" d="M3545.863,80.782l-3.086.043-.154-.6,3.086-.044Z" transform="translate(-3530.454 -78.5)" fill="gray"/>
              <path id="Trazado_125034" data-name="Trazado 125034" d="M3537.76,77.032l-4.272.06-.154-.6,4.272-.06Z" transform="translate(-3525.124 -76.348)" fill="gray"/>
              <path id="Trazado_125035" data-name="Trazado 125035" d="M3551.45,76.84l-4.272.06-.155-.6,4.272-.06Z" transform="translate(-3532.979 -76.238)" fill="gray"/>
            </g>
          </g>
          <g id="Grupo_56065" data-name="Grupo 56065" transform="translate(30.617 15.375)">
            <g id="Grupo_56063" data-name="Grupo 56063">
              <path id="Trazado_125036" data-name="Trazado 125036" d="M3523.657,91.22l-5.85.082-.154-.6,5.849-.082Z" transform="translate(-3517.654 -90.466)" fill="gray"/>
              <path id="Trazado_125037" data-name="Trazado 125037" d="M3537.289,91.077l-3.267.046-.154-.6,3.267-.046Z" transform="translate(-3526.956 -90.384)" fill="gray"/>
              <path id="Trazado_125038" data-name="Trazado 125038" d="M3550.172,90.863l-5.009.07-.154-.6,5.009-.071Z" transform="translate(-3533.347 -90.261)" fill="gray"/>
            </g>
            <g id="Grupo_56064" data-name="Grupo 56064" transform="translate(0.405 1.559)">
              <path id="Trazado_125039" data-name="Trazado 125039" d="M3525.684,94.9l-6.925.1-.154-.6,6.925-.1Z" transform="translate(-3518.605 -94.134)" fill="gray"/>
              <path id="Trazado_125040" data-name="Trazado 125040" d="M3524.718,98.788l-4.979.07-.154-.6,4.979-.07Z" transform="translate(-3519.167 -96.367)" fill="gray"/>
              <path id="Trazado_125041" data-name="Trazado 125041" d="M3538.136,98.6l-4.979.07-.154-.6,4.979-.07Z" transform="translate(-3526.865 -96.259)" fill="gray"/>
              <path id="Trazado_125042" data-name="Trazado 125042" d="M3550.392,98.463l-3.086.044-.154-.6,3.086-.044Z" transform="translate(-3534.983 -96.18)" fill="gray"/>
              <path id="Trazado_125043" data-name="Trazado 125043" d="M3542.289,94.713l-4.272.06-.154-.6,4.272-.06Z" transform="translate(-3529.653 -94.029)" fill="gray"/>
              <path id="Trazado_125044" data-name="Trazado 125044" d="M3555.979,94.52l-4.272.06-.154-.6,4.272-.06Z" transform="translate(-3537.508 -93.918)" fill="gray"/>
            </g>
          </g>
          <g id="Grupo_56068" data-name="Grupo 56068" transform="translate(32.464 22.586)">
            <g id="Grupo_56066" data-name="Grupo 56066">
              <path id="Trazado_125045" data-name="Trazado 125045" d="M3527.99,108.134l-5.85.082-.154-.6,5.849-.082Z" transform="translate(-3521.987 -107.38)" fill="gray"/>
              <path id="Trazado_125046" data-name="Trazado 125046" d="M3541.622,107.991l-3.267.046-.154-.6,3.267-.046Z" transform="translate(-3531.289 -107.298)" fill="gray"/>
              <path id="Trazado_125047" data-name="Trazado 125047" d="M3554.505,107.777l-5.01.07-.154-.6,5.009-.071Z" transform="translate(-3537.681 -107.175)" fill="gray"/>
            </g>
            <g id="Grupo_56067" data-name="Grupo 56067" transform="translate(0.405 1.559)">
              <path id="Trazado_125048" data-name="Trazado 125048" d="M3530.017,111.811l-6.925.1-.154-.6,6.925-.1Z" transform="translate(-3522.938 -111.048)" fill="gray"/>
              <path id="Trazado_125049" data-name="Trazado 125049" d="M3529.051,115.7l-4.979.07-.155-.6,4.979-.07Z" transform="translate(-3523.5 -113.281)" fill="gray"/>
              <path id="Trazado_125050" data-name="Trazado 125050" d="M3542.469,115.513l-4.979.07-.154-.6,4.979-.07Z" transform="translate(-3531.198 -113.173)" fill="gray"/>
              <path id="Trazado_125051" data-name="Trazado 125051" d="M3554.725,115.377l-3.086.043-.154-.6,3.086-.043Z" transform="translate(-3539.316 -113.094)" fill="gray"/>
              <path id="Trazado_125052" data-name="Trazado 125052" d="M3546.622,111.627l-4.272.06-.154-.6,4.272-.06Z" transform="translate(-3533.986 -110.943)" fill="gray"/>
              <path id="Trazado_125053" data-name="Trazado 125053" d="M3560.313,111.434l-4.273.06-.154-.6,4.272-.06Z" transform="translate(-3541.841 -110.832)" fill="gray"/>
            </g>
          </g>
          <g id="Grupo_56071" data-name="Grupo 56071" transform="translate(34.361 29.99)">
            <g id="Grupo_56069" data-name="Grupo 56069">
              <path id="Trazado_125054" data-name="Trazado 125054" d="M3532.44,125.5l-5.849.082-.154-.6,5.849-.082Z" transform="translate(-3526.437 -124.75)" fill="gray"/>
              <path id="Trazado_125055" data-name="Trazado 125055" d="M3546.071,125.362l-3.267.046-.154-.6,3.267-.046Z" transform="translate(-3535.739 -124.668)" fill="gray"/>
              <path id="Trazado_125056" data-name="Trazado 125056" d="M3558.956,125.147l-5.01.071-.154-.6,5.009-.071Z" transform="translate(-3542.131 -124.545)" fill="gray"/>
            </g>
            <g id="Grupo_56070" data-name="Grupo 56070" transform="translate(0.405 1.559)">
              <path id="Trazado_125057" data-name="Trazado 125057" d="M3534.467,129.181l-6.925.1-.154-.6,6.925-.1Z" transform="translate(-3527.388 -128.419)" fill="gray"/>
              <path id="Trazado_125058" data-name="Trazado 125058" d="M3533.5,133.073l-4.979.07-.154-.6,4.978-.07Z" transform="translate(-3527.95 -130.652)" fill="gray"/>
              <path id="Trazado_125059" data-name="Trazado 125059" d="M3546.92,132.884l-4.979.07-.154-.6,4.979-.07Z" transform="translate(-3535.648 -130.543)" fill="gray"/>
              <path id="Trazado_125060" data-name="Trazado 125060" d="M3559.175,132.747l-3.085.043-.155-.6,3.085-.043Z" transform="translate(-3543.766 -130.465)" fill="gray"/>
              <path id="Trazado_125061" data-name="Trazado 125061" d="M3551.072,129l-4.272.06-.155-.6,4.273-.06Z" transform="translate(-3538.436 -128.314)" fill="gray"/>
              <path id="Trazado_125062" data-name="Trazado 125062" d="M3564.762,128.805l-4.272.06-.154-.6,4.271-.06Z" transform="translate(-3546.291 -128.203)" fill="gray"/>
            </g>
          </g>
          <g id="Grupo_56074" data-name="Grupo 56074" transform="translate(36.598 39.121)">
            <g id="Grupo_56072" data-name="Grupo 56072">
              <path id="Trazado_125063" data-name="Trazado 125063" d="M3537.69,146.924l-5.849.082-.154-.6,5.849-.082Z" transform="translate(-3531.686 -146.17)" fill="gray"/>
              <path id="Trazado_125064" data-name="Trazado 125064" d="M3551.321,146.782l-3.267.046-.154-.6,3.267-.046Z" transform="translate(-3540.989 -146.088)" fill="gray"/>
              <path id="Trazado_125065" data-name="Trazado 125065" d="M3564.2,146.567l-5.009.071-.155-.6,5.009-.071Z" transform="translate(-3547.38 -145.965)" fill="gray"/>
            </g>
            <g id="Grupo_56073" data-name="Grupo 56073" transform="translate(0.405 1.559)">
              <path id="Trazado_125066" data-name="Trazado 125066" d="M3539.716,150.6l-6.925.1-.154-.6,6.925-.1Z" transform="translate(-3532.637 -149.839)" fill="gray"/>
              <path id="Trazado_125067" data-name="Trazado 125067" d="M3538.751,154.493l-4.979.07-.154-.6,4.979-.07Z" transform="translate(-3533.2 -152.071)" fill="gray"/>
              <path id="Trazado_125068" data-name="Trazado 125068" d="M3552.169,154.3l-4.978.07-.154-.6,4.978-.07Z" transform="translate(-3540.898 -151.963)" fill="gray"/>
              <path id="Trazado_125069" data-name="Trazado 125069" d="M3564.425,154.167l-3.086.043-.154-.6,3.086-.043Z" transform="translate(-3549.016 -151.885)" fill="gray"/>
              <path id="Trazado_125070" data-name="Trazado 125070" d="M3556.322,150.417l-4.272.06-.154-.6,4.272-.06Z" transform="translate(-3543.686 -149.733)" fill="gray"/>
              <path id="Trazado_125071" data-name="Trazado 125071" d="M3570.012,150.225l-4.272.06-.154-.6,4.272-.06Z" transform="translate(-3551.54 -149.623)" fill="gray"/>
            </g>
          </g>
          <g id="Grupo_56077" data-name="Grupo 56077" transform="translate(38.84 47.668)">
            <g id="Grupo_56075" data-name="Grupo 56075">
              <path id="Trazado_125072" data-name="Trazado 125072" d="M3542.948,166.974l-5.85.082-.154-.6,5.849-.082Z" transform="translate(-3536.945 -166.22)" fill="gray"/>
              <path id="Trazado_125073" data-name="Trazado 125073" d="M3556.579,166.831l-3.267.046-.154-.6,3.267-.046Z" transform="translate(-3546.247 -166.138)" fill="gray"/>
              <path id="Trazado_125074" data-name="Trazado 125074" d="M3569.463,166.617l-5.01.07-.154-.6,5.009-.07Z" transform="translate(-3552.639 -166.016)" fill="gray"/>
            </g>
            <g id="Grupo_56076" data-name="Grupo 56076" transform="translate(0.405 1.559)">
              <path id="Trazado_125075" data-name="Trazado 125075" d="M3544.975,170.651l-6.925.1-.154-.6,6.925-.1Z" transform="translate(-3537.896 -169.889)" fill="gray"/>
              <path id="Trazado_125076" data-name="Trazado 125076" d="M3544.009,174.542l-4.979.07-.154-.6,4.979-.07Z" transform="translate(-3538.458 -172.121)" fill="gray"/>
              <path id="Trazado_125077" data-name="Trazado 125077" d="M3557.427,174.354l-4.979.07-.155-.6,4.979-.07Z" transform="translate(-3546.157 -172.013)" fill="gray"/>
              <path id="Trazado_125078" data-name="Trazado 125078" d="M3569.684,174.217l-3.086.043-.154-.6,3.086-.043Z" transform="translate(-3554.274 -171.935)" fill="gray"/>
              <path id="Trazado_125079" data-name="Trazado 125079" d="M3561.581,170.467l-4.272.06-.154-.6,4.272-.06Z" transform="translate(-3548.945 -169.783)" fill="gray"/>
              <path id="Trazado_125080" data-name="Trazado 125080" d="M3575.271,170.274l-4.272.06-.154-.6,4.272-.06Z" transform="translate(-3556.799 -169.673)" fill="gray"/>
            </g>
          </g>
        </g>
      </g>
      <g id="Grupo_56080" data-name="Grupo 56080" transform="translate(76.04)">
        <path id="Trazado_125081" data-name="Trazado 125081" d="M3670.591,607.825s-1,15.6-4.021,15.819c-.4.029-15.312,0-15.312,0l-19.033-.152s.135-4.585,5.7-5.543,14.886-4.847,18.273-12.193C3659.761,598.024,3670.591,607.825,3670.591,607.825Z" transform="translate(-3566.306 -345.109)" fill="#032c52"/>
        <path id="Trazado_125082" data-name="Trazado 125082" d="M3752.434,313.559c.727.612,20.112,21.616,18.528,37.748a9.3,9.3,0,0,1-9.307,8.3h-23.613s-24.094,4.305-24.668,9.512-5.5,33.274-15.275,73.158c0,0-7.2,2.48-11.567.709-5.775-2.341-6.614-4.825-6.614-4.825s5.824-89.312,10.421-95.6,51.964-24.971,67.3-26.832S3752.434,313.559,3752.434,313.559Z" transform="translate(-3593.667 -179.176)" fill="#0b3563"/>
        <path id="Trazado_125083" data-name="Trazado 125083" d="M3499.409,259.393s-13.7-3.186-17.205,0a17.274,17.274,0,0,0-4.62,7.806h21.825Z" transform="translate(-3477.584 -147.287)" fill="#ffae73"/>
        <path id="Trazado_125084" data-name="Trazado 125084" d="M3592.336,607.825s-1,15.6-4.021,15.819c-.4.029-15.311,0-15.311,0l-19.033-.152s.135-4.585,5.7-5.543,14.886-4.847,18.272-12.193C3581.506,598.024,3592.336,607.825,3592.336,607.825Z" transform="translate(-3521.409 -345.109)" fill="#0b3563"/>
        <path id="Trazado_125085" data-name="Trazado 125085" d="M3726.722,313.559c.551.463,4.746,11.753,7.548,24.573A17.69,17.69,0,0,1,3717,359.608h-54.932s-24.094,4.305-24.669,9.512-5.5,33.274-15.275,73.158c0,0-7.225,1.9-12.866-.514a15.937,15.937,0,0,1-5.367-4.357s5.876-88.557,10.474-94.842,51.964-24.971,67.3-26.832S3726.722,313.559,3726.722,313.559Z" transform="translate(-3550.047 -179.176)" fill="#25468f"/>
        <path id="Trazado_125086" data-name="Trazado 125086" d="M3789.7,97.659l-8.5,8.155-14.475,0c-.016-1.164.032-6.017.083-10.416,0-.259.01-.517.011-.772.01-.976.024-1.919.035-2.777.029-2.424.054-4.179.054-4.179l3.72-2.544,8.267-5.66,4.47-3.056c0,.075.37,4.074.426,4.655A33.9,33.9,0,0,0,3789.7,97.659Z" transform="translate(-3643.471 -43.121)" fill="#ffae73"/>
        <path id="Trazado_125087" data-name="Trazado 125087" d="M3763.587,113.954c.276-.116,15.937-7.141,17.769-6.537s4.115,6.2,4.115,6.2l-27.577,6.235S3760.065,115.437,3763.587,113.954Z" transform="translate(-3638.404 -60.887)" fill="#978bc1"/>
        <path id="Trazado_125088" data-name="Trazado 125088" d="M3699.879,169.277c-2.984-18.4-15.582-32.17-20.973-37.331-3.62-5.445-24.881-9.938-24.881-9.938l-27.576,6.235s-15.543,1.686-24.308,16.184c-5.421,8.965-20.945,29.471-31.141,30.109s-42.217,6.85-42.217,6.85v7.876l48.817,1.34a8.307,8.307,0,0,0,1.777-.141c4.2-.793,22.207-4.371,31.162-9.032,1.43,23.06,3.12,58.272,11.174,63.865,8.519,5.915,68.424,6.705,74.768-2.309,3.246-4.614-.734-31.93-5.708-58.271C3696.954,181.772,3701.129,176.991,3699.879,169.277Z" transform="translate(-3506.958 -69.278)" fill="#b1a8d1"/>
        <path id="Trazado_125089" data-name="Trazado 125089" d="M3781.232,94.891l-.738.458a59.24,59.24,0,0,1-13.458,7.105c.029-2.424.054-4.179.054-4.179l3.72-2.544Z" transform="translate(-3643.649 -53.721)" fill="#f59d64"/>
        <path id="Trazado_125090" data-name="Trazado 125090" d="M3748.321,53.321s22.271,2.635,23.7-11.259,5.263-22.912-8.9-25.181-17.47,2.748-19.074,7.269S3742.565,52.278,3748.321,53.321Z" transform="translate(-3629.953 -8.641)" fill="#ffae73"/>
        <path id="Trazado_125091" data-name="Trazado 125091" d="M3742.508,12.4s4.2,15.073,7.249,13.816,5.826-2.287,6.225,2.419-3,10.861,6.919,9.854S3782.156,9.67,3778.583,5.4C3768.271-6.911,3728.184-2.3,3742.508,12.4Z" transform="translate(-3627.822 1.688)" fill="#0b3563"/>
      </g>
      <g id="Grupo_56082" data-name="Grupo 56082" transform="translate(156.15 66.498)">
        <path id="Rectángulo_30257" data-name="Rectángulo 30257" d="M12.5,0H117.737a0,0,0,0,1,0,0V12.5a0,0,0,0,1,0,0H0a0,0,0,0,1,0,0v0A12.5,12.5,0,0,1,12.5,0Z" transform="translate(136.54 116.922) rotate(180)" fill="#6ca3ea"/>
        <rect id="Rectángulo_30258" data-name="Rectángulo 30258" width="94.545" height="12.502" rx="6.251" transform="translate(94.545 116.922) rotate(180)" fill="#51bbc5"/>
        <g id="Grupo_56081" data-name="Grupo 56081" transform="translate(39.448 116.922)">
          <path id="Trazado_125092" data-name="Trazado 125092" d="M3839.055,519.015h7.106l1.994-90.421H3837.3Z" transform="translate(-3803.518 -428.594)" fill="#13555c"/>
          <path id="Trazado_125093" data-name="Trazado 125093" d="M3768.974,628.035h69.107v-6.242l-35.223-3.177-33.885,3.177Z" transform="translate(-3764.318 -537.614)" fill="#13555c"/>
          <path id="Trazado_125094" data-name="Trazado 125094" d="M3931.538,630.761a5.685,5.685,0,1,0-5.685,5.685A5.684,5.684,0,0,0,3931.538,630.761Z" transform="translate(-3851.062 -541.32)" fill="#13555c"/>
          <path id="Trazado_125095" data-name="Trazado 125095" d="M3769.421,630.761a5.685,5.685,0,1,0-5.685,5.685A5.685,5.685,0,0,0,3769.421,630.761Z" transform="translate(-3758.052 -541.32)" fill="#13555c"/>
          <path id="Trazado_125096" data-name="Trazado 125096" d="M3766.8,434.526h64.153a5.932,5.932,0,0,0,5.932-5.932h-76.018A5.933,5.933,0,0,0,3766.8,434.526Z" transform="translate(-3759.667 -428.594)" fill="#13555c"/>
        </g>
        <path id="Trazado_125097" data-name="Trazado 125097" d="M3836.894,271.23a5.409,5.409,0,0,0,5.409-5.409V182.559c0-15.6-10.2-28.251-22.785-28.251h-51.523c-12.583,0-22.784,12.648-22.784,28.251V271.23Z" transform="translate(-3711.237 -154.308)" fill="#51bbc5"/>
        <path id="Trazado_125098" data-name="Trazado 125098" d="M3845.278,271.23a9.866,9.866,0,0,0,9.866-9.865V182.559c0-15.6-10.2-28.251-22.784-28.251h-51.524c-12.583,0-22.784,12.648-22.784,28.251V271.23Z" transform="translate(-3718.604 -154.308)" fill="#1c8089"/>
      </g>
      <g id="Grupo_56086" data-name="Grupo 56086" transform="translate(0 156.931)">
        <rect id="Rectángulo_30259" data-name="Rectángulo 30259" width="39.968" height="122.954" transform="translate(55.492)" fill="#625e95"/>
        <rect id="Rectángulo_30260" data-name="Rectángulo 30260" width="58.783" height="122.954" fill="#4c477a"/>
        <rect id="Rectángulo_30261" data-name="Rectángulo 30261" width="36.677" height="1.218" transform="translate(58.783 22.324)" fill="#4c477a"/>
        <rect id="Rectángulo_30262" data-name="Rectángulo 30262" width="36.677" height="1.218" transform="translate(58.783 48.612)" fill="#4c477a"/>
        <rect id="Rectángulo_30263" data-name="Rectángulo 30263" width="36.677" height="1.218" transform="translate(58.783 74.901)" fill="#4c477a"/>
        <rect id="Rectángulo_30264" data-name="Rectángulo 30264" width="36.677" height="1.218" transform="translate(58.783 101.189)" fill="#4c477a"/>
        <g id="Grupo_56083" data-name="Grupo 56083" transform="translate(61.24 2.391)">
          <path id="Trazado_125099" data-name="Trazado 125099" d="M3442.863,373.029a.969.969,0,1,1,.969.969A.969.969,0,0,1,3442.863,373.029Z" transform="translate(-3442.863 -372.06)" fill="#4c477a"/>
          <path id="Trazado_125100" data-name="Trazado 125100" d="M3455.268,373.029a.968.968,0,1,1,.969.969A.969.969,0,0,1,3455.268,373.029Z" transform="translate(-3449.98 -372.06)" fill="#5c5385"/>
          <path id="Trazado_125101" data-name="Trazado 125101" d="M3467.673,373.029a.968.968,0,1,1,.969.969A.969.969,0,0,1,3467.673,373.029Z" transform="translate(-3457.097 -372.06)" fill="#5c5385"/>
          <path id="Trazado_125102" data-name="Trazado 125102" d="M3480.077,373.029a.969.969,0,1,1,.969.969A.969.969,0,0,1,3480.077,373.029Z" transform="translate(-3464.214 -372.06)" fill="#5c5385"/>
        </g>
        <g id="Grupo_56084" data-name="Grupo 56084" transform="translate(61.24 53.683)">
          <path id="Trazado_125103" data-name="Trazado 125103" d="M3442.863,493.355a.969.969,0,1,1,.969.969A.968.968,0,0,1,3442.863,493.355Z" transform="translate(-3442.863 -492.387)" fill="#4c477a"/>
          <path id="Trazado_125104" data-name="Trazado 125104" d="M3455.268,493.355a.968.968,0,1,1,.969.969A.968.968,0,0,1,3455.268,493.355Z" transform="translate(-3449.98 -492.387)" fill="#5c5385"/>
          <path id="Trazado_125105" data-name="Trazado 125105" d="M3467.673,493.355a.968.968,0,1,1,.969.969A.968.968,0,0,1,3467.673,493.355Z" transform="translate(-3457.097 -492.387)" fill="#5c5385"/>
          <path id="Trazado_125106" data-name="Trazado 125106" d="M3480.077,493.355a.969.969,0,1,1,.969.969A.968.968,0,0,1,3480.077,493.355Z" transform="translate(-3464.214 -492.387)" fill="#5c5385"/>
        </g>
        <g id="Grupo_56085" data-name="Grupo 56085" transform="translate(61.24 83.259)">
          <path id="Trazado_125107" data-name="Trazado 125107" d="M3442.863,562.736a.969.969,0,1,1,.969.968A.969.969,0,0,1,3442.863,562.736Z" transform="translate(-3442.863 -561.767)" fill="#4c477a"/>
          <path id="Trazado_125108" data-name="Trazado 125108" d="M3455.268,562.736a.968.968,0,1,1,.969.968A.969.969,0,0,1,3455.268,562.736Z" transform="translate(-3449.98 -561.767)" fill="#5c5385"/>
          <path id="Trazado_125109" data-name="Trazado 125109" d="M3467.673,562.736a.968.968,0,1,1,.969.968A.968.968,0,0,1,3467.673,562.736Z" transform="translate(-3457.097 -561.767)" fill="#5c5385"/>
          <path id="Trazado_125110" data-name="Trazado 125110" d="M3480.077,562.736a.969.969,0,1,1,.969.968A.969.969,0,0,1,3480.077,562.736Z" transform="translate(-3464.214 -561.767)" fill="#5c5385"/>
        </g>
        <rect id="Rectángulo_30265" data-name="Rectángulo 30265" width="48.187" height="1.242" transform="translate(4.98 7.979)" fill="#5c5385"/>
        <rect id="Rectángulo_30266" data-name="Rectángulo 30266" width="48.187" height="1.242" transform="translate(4.98 11.705)" fill="#5c5385"/>
        <rect id="Rectángulo_30267" data-name="Rectángulo 30267" width="48.187" height="1.242" transform="translate(4.98 15.866)" fill="#5c5385"/>
      </g>
    </g>
    <g id="Grupo_56094" data-name="Grupo 56094" transform="translate(3629.634 132.102)">
      <g id="Grupo_56088" data-name="Grupo 56088" transform="translate(0.045)">
        <rect id="Rectángulo_30268" data-name="Rectángulo 30268" width="17.831" height="86.108" transform="translate(0 4.647) rotate(-12.136)" fill="#76a3f2"/>
        <path id="Trazado_125111" data-name="Trazado 125111" d="M4091.9,313.066c.243,1.128-3.463,2.882-8.277,3.917s-8.913.96-9.155-.168,3.463-2.882,8.276-3.917S4091.663,311.938,4091.9,313.066Z" transform="translate(-4074.461 -312.168)" fill="#a9c2ff"/>
      </g>
      <g id="Grupo_56089" data-name="Grupo 56089" transform="translate(27.77 0.711)">
        <rect id="Rectángulo_30269" data-name="Rectángulo 30269" width="17.831" height="86.108" transform="matrix(0.953, -0.303, 0.303, 0.953, 0.016, 6.257)" fill="#e6e6e6"/>
        <path id="Trazado_125112" data-name="Trazado 125112" d="M4156.523,314.7c.408,1.283-3.063,3.534-7.755,5.028s-8.826,1.665-9.234.382,3.063-3.534,7.755-5.028S4156.115,313.414,4156.523,314.7Z" transform="translate(-4139.501 -313.836)" fill="#e6e6e6"/>
      </g>
      <g id="Grupo_56090" data-name="Grupo 56090" transform="translate(94.519 32.2)">
        <rect id="Rectángulo_30270" data-name="Rectángulo 30270" width="86.108" height="11.659" transform="matrix(0.279, -0.96, 0.96, 0.279, 0, 83.884)" fill="#a9c2ff"/>
        <path id="Trazado_125113" data-name="Trazado 125113" d="M4363.66,392.186c-.377,1.292-3.188,1.612-6.279.712s-5.293-2.677-4.917-3.97,3.188-1.612,6.279-.712S4364.035,390.893,4363.66,392.186Z" transform="translate(-4328.407 -387.705)" fill="#c3d7ff"/>
      </g>
      <g id="Grupo_56091" data-name="Grupo 56091" transform="translate(27.77 16.385)">
        <rect id="Rectángulo_30271" data-name="Rectángulo 30271" width="89.563" height="11.769" transform="translate(0 91.46) rotate(-88.954)" fill="#ffb600"/>
        <path id="Trazado_125114" data-name="Trazado 125114" d="M4155.2,352.829c-.021,1.167-2.672,2.066-5.923,2.006s-5.866-1.054-5.844-2.221,2.673-2.065,5.922-2.006S4155.221,351.661,4155.2,352.829Z" transform="translate(-4141.756 -350.605)" fill="#f59a00"/>
      </g>
      <g id="Grupo_56092" data-name="Grupo 56092" transform="translate(88.499 44.687)">
        <rect id="Rectángulo_30272" data-name="Rectángulo 30272" width="71.307" height="11.315" transform="translate(0 71.96) rotate(-83.703)" fill="#ffb600"/>
        <path id="Trazado_125115" data-name="Trazado 125115" d="M4311.629,419.4c-.1.924-2.7,1.395-5.808,1.052s-5.541-1.37-5.439-2.294,2.7-1.395,5.808-1.052S4311.731,418.479,4311.629,419.4Z" transform="translate(-4292.53 -416.998)" fill="#f59a00"/>
      </g>
      <g id="Grupo_56093" data-name="Grupo 56093" transform="translate(0 71.319)">
        <rect id="Rectángulo_30273" data-name="Rectángulo 30273" width="89.094" height="73.464" transform="translate(44.549)" fill="#f5ca56"/>
        <rect id="Rectángulo_30274" data-name="Rectángulo 30274" width="89.094" height="73.464" transform="translate(0.002)" fill="#f7d578"/>
        <path id="Trazado_125116" data-name="Trazado 125116" d="M4368.745,598.938h-14.118l1.244-3.973-1.244-2.839h14.118Z" transform="translate(-4235.153 -544.105)" fill="#f7d578"/>
        <path id="Trazado_125117" data-name="Trazado 125117" d="M4264.365,523.639h-14.119l1.244-3.973-1.244-2.839h14.119Z" transform="translate(-4175.268 -500.905)" fill="#f5ca56"/>
        <path id="Trazado_125118" data-name="Trazado 125118" d="M4283.365,516.828h14.117l-1.243,3.973,1.243,2.839h-14.117Z" transform="translate(-4194.269 -500.905)" fill="#f7d578"/>
        <path id="Trazado_125119" data-name="Trazado 125119" d="M4074.356,609.955h14.118l-1.244,3.973,1.244,2.839h-14.118Z" transform="translate(-4074.356 -554.333)" fill="#f5ca56"/>
        <rect id="Rectángulo_30275" data-name="Rectángulo 30275" width="25.638" height="9.974" transform="translate(31.474 14.955) rotate(180)" fill="#fff"/>
      </g>
    </g>
    <g id="Grupo_56098" data-name="Grupo 56098" transform="translate(3613.792 4.786)">
      <g id="Grupo_56095" data-name="Grupo 56095" transform="translate(4.041)">
        <path id="Trazado_125120" data-name="Trazado 125120" d="M4082.255,13.5H4050.6a3.927,3.927,0,0,0-3.927,3.927V75.286a3.927,3.927,0,0,0,3.927,3.927h42.861a3.928,3.928,0,0,0,3.928-3.927V28.632Z" transform="translate(-4046.671 -13.5)" fill="#e0e8f3"/>
        <path id="Trazado_125121" data-name="Trazado 125121" d="M4130.147,25.5a3.131,3.131,0,0,0,3.131,3.131h12L4130.147,13.5Z" transform="translate(-4094.563 -13.5)" fill="#fff"/>
      </g>
      <g id="Grupo_56096" data-name="Grupo 56096" transform="translate(42.832 46.105)">
        <rect id="Rectángulo_30276" data-name="Rectángulo 30276" width="11.142" height="13.83" transform="translate(6.353)" fill="#c1507f"/>
        <path id="Trazado_125122" data-name="Trazado 125122" d="M4137.671,150.168l11.925,11.924,11.924-11.924Z" transform="translate(-4137.671 -138.014)" fill="#c1507f"/>
      </g>
      <rect id="Rectángulo_30277" data-name="Rectángulo 30277" width="29.399" height="13.171" transform="translate(0 15.132)" fill="#c1507f"/>
      <g id="Grupo_56097" data-name="Grupo 56097" transform="translate(9.227 19.728)">
        <path id="Trazado_125123" data-name="Trazado 125123" d="M4062.227,61.808a1.554,1.554,0,0,1-.593.482,1.937,1.937,0,0,1-.848.178h-.49l-.222,1.252h-1.235l.7-3.939h1.725a1.424,1.424,0,0,1,.957.284.976.976,0,0,1,.328.779,1.86,1.86,0,0,1-.028.289A1.6,1.6,0,0,1,4062.227,61.808Zm-.963-.676a.907.907,0,0,0,.011-.095q0-.267-.329-.267h-.35l-.128.723h.351A.4.4,0,0,0,4061.264,61.132Z" transform="translate(-4058.838 -59.78)" fill="#e0e8f3"/>
        <path id="Trazado_125124" data-name="Trazado 125124" d="M4070.58,59.977a1.406,1.406,0,0,1,.6.551,1.59,1.59,0,0,1,.206.815,2.522,2.522,0,0,1-.034.4,2.382,2.382,0,0,1-.431,1.012,2.328,2.328,0,0,1-.84.709,2.448,2.448,0,0,1-1.126.259h-1.642l.7-3.939h1.642A2.038,2.038,0,0,1,4070.58,59.977Zm-.842,2.412a1.014,1.014,0,0,0,.359-.651,1.524,1.524,0,0,0,.016-.206.619.619,0,0,0-.2-.5.842.842,0,0,0-.564-.173h-.295l-.312,1.758h.3A1.093,1.093,0,0,0,4069.738,62.389Z" transform="translate(-4063.698 -59.78)" fill="#e0e8f3"/>
        <path id="Trazado_125125" data-name="Trazado 125125" d="M4080.484,59.78l-.172.979h-1.546l-.1.545h1.113l-.167.929H4078.5l-.262,1.486h-1.235l.7-3.939Z" transform="translate(-4069.262 -59.78)" fill="#e0e8f3"/>
      </g>
    </g>
    <path id="Trazado_125126" data-name="Trazado 125126" d="M4397.2,120.72l11.083-24.8L4414.7,115.2Z" transform="translate(-629.942 -56)" fill="#ccc"/>
  </g>
</svg>
