<svg xmlns="http://www.w3.org/2000/svg" width="500" height="348" viewBox="0 0 500 348">
  <g id="Grupo_56408" data-name="Grupo 56408" transform="translate(-2759.931 -966)">
    <rect id="Rectángulo_30442" data-name="Rectángulo 30442" width="500" height="348" transform="translate(2759.931 966)" fill="#bababa"/>
    <rect id="Rectángulo_30443" data-name="Rectángulo 30443" width="485" height="329" transform="translate(2768.931 974)" fill="#7d6eb2"/>
    <rect id="Rectángulo_30444" data-name="Rectángulo 30444" width="461" height="307" transform="translate(2781.931 986)" fill="#fff"/>
    <line id="Línea_202" data-name="Línea 202" y2="301.25" transform="translate(2877.664 988.615)" fill="none" stroke="gray" stroke-miterlimit="10" stroke-width="5"/>
    <line id="Línea_203" data-name="Línea 203" x2="452.524" transform="translate(2786.049 1141.792)" fill="none" stroke="gray" stroke-miterlimit="10" stroke-width="5"/>
    <path id="Trazado_125414" data-name="Trazado 125414" d="M2809.84,1296.895v13.68l-6.84-6.84Z" transform="translate(-21.055 -161.942)" fill="gray"/>
    <path id="Trazado_125415" data-name="Trazado 125415" d="M2990.751,1011.84h-13.68l6.84-6.84Z" transform="translate(-106.247 -19.087)" fill="gray"/>
    <path id="Trazado_125416" data-name="Trazado 125416" d="M2977.071,1593.593h13.68l-6.84,6.84Z" transform="translate(-106.247 -307.148)" fill="gray"/>
    <path id="Trazado_125417" data-name="Trazado 125417" d="M3692.952,1310.575v-13.68l6.84,6.84Z" transform="translate(-456.604 -161.942)" fill="gray"/>
    <g id="Grupo_56406" data-name="Grupo 56406" transform="translate(2888.612 1057.489)">
      <path id="Trazado_125418" data-name="Trazado 125418" d="M3016.639,1157.774h-1.574v-10.432l-3.156,1.16v-1.422l4.484-1.683h.246Z" transform="translate(-3011.909 -1145.286)" fill="#666"/>
      <path id="Trazado_125419" data-name="Trazado 125419" d="M3037.828,1152.415a7.157,7.157,0,0,1-.94,4.086,3.9,3.9,0,0,1-5.854.03,6.791,6.791,0,0,1-.982-3.9v-2.09a6.993,6.993,0,0,1,.94-4.036,3.972,3.972,0,0,1,5.872-.046,6.761,6.761,0,0,1,.964,3.93Zm-1.565-2.141a5.734,5.734,0,0,0-.559-2.9,1.924,1.924,0,0,0-1.768-.909,1.9,1.9,0,0,0-1.751.906,5.607,5.607,0,0,0-.567,2.783v2.5a5.826,5.826,0,0,0,.58,2.949,1.918,1.918,0,0,0,1.756.952,1.892,1.892,0,0,0,1.722-.9,5.616,5.616,0,0,0,.588-2.826Z" transform="translate(-3020.789 -1145.181)" fill="#666"/>
      <path id="Trazado_125420" data-name="Trazado 125420" d="M3052.806,1159.593a2.253,2.253,0,0,0,1.464-.508,1.784,1.784,0,0,0,.693-1.269h1.481a2.843,2.843,0,0,1-.542,1.5,3.568,3.568,0,0,1-1.333,1.134,3.853,3.853,0,0,1-1.764.423,3.773,3.773,0,0,1-2.974-1.248,4.971,4.971,0,0,1-1.1-3.414v-.262a5.51,5.51,0,0,1,.491-2.377,3.742,3.742,0,0,1,1.408-1.616,4,4,0,0,1,2.17-.575,3.669,3.669,0,0,1,2.559.923,3.3,3.3,0,0,1,1.088,2.394h-1.481a2.154,2.154,0,0,0-.672-1.459,2.093,2.093,0,0,0-1.493-.572,2.193,2.193,0,0,0-1.849.859,4.034,4.034,0,0,0-.656,2.483v.3a3.95,3.95,0,0,0,.652,2.437A2.2,2.2,0,0,0,3052.806,1159.593Z" transform="translate(-3029.928 -1148.214)" fill="#666"/>
      <path id="Trazado_125421" data-name="Trazado 125421" d="M3068.751,1151.547l.042,1.015a3.38,3.38,0,0,1,2.716-1.185,2.617,2.617,0,0,1,2.614,1.472,3.45,3.45,0,0,1,1.189-1.066,3.507,3.507,0,0,1,1.729-.406q3.012,0,3.063,3.19v6.134h-1.565v-6.041a2.1,2.1,0,0,0-.448-1.468,1.977,1.977,0,0,0-1.506-.487,2.073,2.073,0,0,0-1.446.521,2.107,2.107,0,0,0-.669,1.4v6.075H3072.9v-6a1.746,1.746,0,0,0-1.954-2,2.094,2.094,0,0,0-2.106,1.312v6.684h-1.565v-9.154Z" transform="translate(-3039.003 -1148.214)" fill="#666"/>
    </g>
    <g id="Grupo_56407" data-name="Grupo 56407" transform="translate(3120.074 1116.848)">
      <path id="Trazado_125422" data-name="Trazado 125422" d="M3469.958,1273.814h-1.573v-10.432l-3.156,1.16v-1.422l4.485-1.683h.245Z" transform="translate(-3465.229 -1261.436)" fill="#666"/>
      <path id="Trazado_125423" data-name="Trazado 125423" d="M3484.459,1267.694l.626-6.142h6.312V1263h-4.983l-.373,3.359a3.984,3.984,0,0,1,2.056-.533,3.4,3.4,0,0,1,2.674,1.113,4.362,4.362,0,0,1,.99,3.007,4.2,4.2,0,0,1-1.029,3,3.746,3.746,0,0,1-2.872,1.1,3.893,3.893,0,0,1-2.665-.905,3.613,3.613,0,0,1-1.176-2.5h1.48a2.485,2.485,0,0,0,.753,1.595,2.342,2.342,0,0,0,1.608.537,2.112,2.112,0,0,0,1.713-.745,3.113,3.113,0,0,0,.622-2.056,2.855,2.855,0,0,0-.672-1.984,2.288,2.288,0,0,0-1.79-.749,2.58,2.58,0,0,0-1.607.448l-.415.339Z" transform="translate(-3474.426 -1261.493)" fill="#666"/>
      <path id="Trazado_125424" data-name="Trazado 125424" d="M3506.126,1275.632a2.252,2.252,0,0,0,1.463-.508,1.785,1.785,0,0,0,.694-1.27h1.481a2.849,2.849,0,0,1-.541,1.5,3.577,3.577,0,0,1-1.333,1.134,3.853,3.853,0,0,1-1.764.423,3.774,3.774,0,0,1-2.975-1.248,4.974,4.974,0,0,1-1.1-3.414v-.262a5.51,5.51,0,0,1,.491-2.377,3.736,3.736,0,0,1,1.409-1.616,4,4,0,0,1,2.17-.575,3.67,3.67,0,0,1,2.559.923,3.3,3.3,0,0,1,1.088,2.394h-1.481a2.155,2.155,0,0,0-.673-1.459,2.09,2.09,0,0,0-1.493-.572,2.193,2.193,0,0,0-1.849.859,4.031,4.031,0,0,0-.656,2.483v.3a3.946,3.946,0,0,0,.652,2.436A2.2,2.2,0,0,0,3506.126,1275.632Z" transform="translate(-3483.248 -1264.363)" fill="#666"/>
      <path id="Trazado_125425" data-name="Trazado 125425" d="M3522.071,1267.586l.042,1.015a3.381,3.381,0,0,1,2.717-1.185,2.618,2.618,0,0,1,2.614,1.473,3.448,3.448,0,0,1,1.188-1.066,3.511,3.511,0,0,1,1.73-.406q3.013,0,3.063,3.19v6.134h-1.565V1270.7a2.1,2.1,0,0,0-.448-1.468,1.977,1.977,0,0,0-1.507-.487,2.074,2.074,0,0,0-1.446.52,2.113,2.113,0,0,0-.669,1.4v6.075h-1.573v-6a1.746,1.746,0,0,0-1.954-2,2.093,2.093,0,0,0-2.106,1.311v6.684h-1.565v-9.154Z" transform="translate(-3492.323 -1264.363)" fill="#666"/>
    </g>
  </g>
</svg>
