<svg xmlns="http://www.w3.org/2000/svg" xmlns:xlink="http://www.w3.org/1999/xlink" width="852.5" height="352.5" viewBox="0 0 852.5 352.5">
  <defs>
    <clipPath id="clip-path">
      <path id="Trazado_126148" data-name="Trazado 126148" d="M2412.418,893.065l79.635,57.115,92.965-63.8-76.941-57.621Z" transform="translate(-2412.418 -828.761)" fill="none" stroke="#0e1c2f" stroke-miterlimit="10" stroke-width="1"/>
    </clipPath>
    <clipPath id="clip-path-2">
      <path id="Trazado_126152" data-name="Trazado 126152" d="M2646.894,893.065l79.635,57.115,92.965-63.8-76.941-57.621Z" transform="translate(-2646.894 -828.761)" fill="none" stroke="#0e1c2f" stroke-miterlimit="10" stroke-width="1"/>
    </clipPath>
    <clipPath id="clip-path-3">
      <path id="Trazado_126156" data-name="Trazado 126156" d="M2412.418,838.522l79.635,57.116,92.965-63.8-76.941-57.621Z" transform="translate(-2412.418 -774.218)" fill="#fff" stroke="#0e1c2f" stroke-miterlimit="10" stroke-width="1"/>
    </clipPath>
    <clipPath id="clip-path-4">
      <path id="Trazado_126160" data-name="Trazado 126160" d="M2649.056,838.522l79.635,57.116,92.965-63.8-76.941-57.621Z" transform="translate(-2649.056 -774.218)" fill="#fff" stroke="#0e1c2f" stroke-miterlimit="10" stroke-width="1"/>
    </clipPath>
  </defs>
  <g id="Componente_3_1" data-name="Componente 3 – 1" transform="translate(0 0.5)">
    <text id="Figura_6_-_Reserva_y_sobreimpresión_en_impresos_" data-name="Figura 6 - Reserva y sobreimpresión en impresos
" transform="translate(20 330)" fill="#12263f" font-size="13" font-family="Roboto-Regular, Roboto"><tspan x="0" y="0">Figura 6 - Reserva y sobreimpresión en impresos</tspan><tspan x="0" y="18"></tspan></text>
    <text id="Figura_6_-_Reserva_y_sobreimpresión_en_impresos_2" data-name="Figura 6 - Reserva y sobreimpresión en impresos
" transform="translate(20 330)" fill="#12263f" font-size="13" font-family="Roboto-Regular, Roboto"><tspan x="0" y="0">Figura 6 - Reserva y sobreimpresión en impresos</tspan><tspan x="0" y="18"></tspan></text>
    <g id="Grupo_56829" data-name="Grupo 56829" transform="translate(-2941.578 -112.776)">
      <path id="Trazado_126141" data-name="Trazado 126141" d="M3139.931,216.118c-3.587-18.235-21.076-12.692-21.3-6.12s6.037,13.6,1.133,20.4c-5.879,8.155-20.921-10.78-30.223-19.341l-.2,27.073a86.911,86.911,0,0,1,8.441,7.905c7.252,7.932,12.01-6.119,23.634-5.829C3132.57,240.482,3142.65,229.942,3139.931,216.118Z" transform="translate(-4.046 -2.491)" fill="#7dccd4"/>
      <path id="Trazado_126142" data-name="Trazado 126142" d="M3076.178,140.42c-.226-17.677-12.917-19.944-17.223-18.584s-13.825,7.026-9.745,16.544,11.557,22.436-7.593,41.473c-.814.809-1.612,1.6-2.4,2.379h14.607C3064.518,169.222,3076.331,152.348,3076.178,140.42Z" transform="translate(-2.673 -0.239)" fill="#7dccd4"/>
      <rect id="Rectángulo_30539" data-name="Rectángulo 30539" width="142.677" height="132.994" transform="translate(2942.955 183.278)" fill="#a8dde2"/>
      <path id="Trazado_126143" data-name="Trazado 126143" d="M3029.813,318.385a14.477,14.477,0,0,0,3.323-1.019c10.877-5.44,50.763-44.419,43.965-85.893,0,0,3.815,2.618,8.33,6.373l.2-27.073a21.8,21.8,0,0,0-4.677-3.549c-8.216-3.909-22.154-6.629-36.941,4.359,0,0-27.2,14.9-24.7,33.941s16.431,15.115,19.83,11.558c7.365-7.705-3.059-12.692-2.152-23.116.377-4.343,4.532-17,16.317-15.411s17.677,5.213,14.278,18.131-17.224,69.122-66.856,74.108S2947,272.04,2947,272.04s81.379-62.419,91.125-73.136c3.17-3.486,8.067-8.864,13.223-15.136h-14.606c-17.8,17.58-29.439,27.815-29.439,27.815s-10.878-23.4-37.393-6.625-28.329,23.343-28.329,23.343v90.085Zm-53.335-106.176c12.464-4.306,9.065,14.958,8.839,15.638s-38.3,30.821-38.3,30.821C2946.337,234.419,2964.013,216.516,2976.479,212.209Z" transform="translate(0 -1.944)" fill="#f5ca56" opacity="0.52"/>
      <path id="Trazado_126144" data-name="Trazado 126144" d="M3374.407,216.118c-3.588-18.235-21.077-12.692-21.3-6.12s6.037,13.6,1.133,20.4c-5.878,8.155-20.92-10.78-30.223-19.341l-.2,27.073a86.933,86.933,0,0,1,8.44,7.905c7.252,7.932,12.012-6.119,23.636-5.829C3367.045,240.482,3377.126,229.942,3374.407,216.118Z" transform="translate(-10.466 -2.491)" fill="#c1507f"/>
      <path id="Trazado_126145" data-name="Trazado 126145" d="M3310.653,140.42c-.226-17.677-12.917-19.944-17.223-18.584s-13.824,7.026-9.745,16.544,11.558,22.436-7.593,41.473c-.814.809-1.612,1.6-2.4,2.379H3288.3C3298.993,169.222,3310.807,152.348,3310.653,140.42Z" transform="translate(-9.094 -0.239)" fill="#c1507f"/>
      <rect id="Rectángulo_30540" data-name="Rectángulo 30540" width="142.677" height="132.994" transform="translate(3171.01 183.278)" fill="#f5ca56"/>
      <path id="Trazado_126146" data-name="Trazado 126146" d="M3264.288,318.385a14.469,14.469,0,0,0,3.323-1.019c10.879-5.44,50.764-44.419,43.966-85.893,0,0,3.814,2.618,8.331,6.373l.2-27.073a21.83,21.83,0,0,0-4.677-3.549c-8.216-3.909-22.153-6.629-36.94,4.359,0,0-27.2,14.9-24.7,33.941s16.43,15.115,19.83,11.558c7.366-7.705-3.059-12.692-2.152-23.116.378-4.343,4.532-17,16.317-15.411s17.677,5.213,14.278,18.131-17.224,69.122-66.855,74.108-53.73-38.753-53.73-38.753,81.379-62.419,91.124-73.136c3.17-3.486,8.067-8.864,13.224-15.136h-14.607c-17.8,17.58-29.438,27.815-29.438,27.815s-10.879-23.4-37.394-6.625-28.329,23.343-28.329,23.343v90.085Zm-53.334-106.176c12.465-4.306,9.065,14.958,8.839,15.638s-38.3,30.821-38.3,30.821C3180.812,234.419,3198.489,216.516,3210.954,212.209Z" transform="translate(-6.42 -1.944)" fill="#c1507f" opacity="0.52"/>
      <rect id="Rectángulo_30541" data-name="Rectángulo 30541" width="201.498" height="204.419" transform="translate(2942.955 112.776)" fill="none" stroke="#0e1c2f" stroke-miterlimit="10" stroke-width="1"/>
      <rect id="Rectángulo_30542" data-name="Rectángulo 30542" width="201.498" height="204.419" transform="translate(3169.633 112.776)" fill="none" stroke="#0e1c2f" stroke-miterlimit="10" stroke-width="1"/>
    </g>
    <g id="Grupo_56830" data-name="Grupo 56830" transform="translate(-1944.923 -584.198)">
      <g id="Grupo_56804" data-name="Grupo 56804" transform="translate(2412.418 796.778)">
        <g id="Grupo_56803" data-name="Grupo 56803" clip-path="url(#clip-path)">
          <path id="Trazado_126147" data-name="Trazado 126147" d="M2438.332,837.555c2.324,0,132.527,103.7,132.527,103.7L2446.7,1009.143s-112.067-121.832-112.067-120.438S2438.332,837.555,2438.332,837.555Z" transform="translate(-2402.246 -829.911)" fill="#5ac7f2"/>
          <ellipse id="Elipse_4270" data-name="Elipse 4270" cx="109.902" cy="74.534" rx="109.902" ry="74.534" transform="translate(66.065 -6.786)" fill="none" stroke="#0e1c2f" stroke-miterlimit="10" stroke-width="1" stroke-dasharray="3"/>
        </g>
        <path id="Trazado_126149" data-name="Trazado 126149" d="M2412.418,893.065l79.635,57.115,92.965-63.8-76.941-57.621Z" transform="translate(-2412.418 -828.761)" fill="none" stroke="#0e1c2f" stroke-miterlimit="10" stroke-width="1"/>
      </g>
      <g id="Grupo_56806" data-name="Grupo 56806" transform="translate(2616.23 796.778)">
        <g id="Grupo_56805" data-name="Grupo 56805" clip-path="url(#clip-path-2)">
          <path id="Trazado_126150" data-name="Trazado 126150" d="M2672.806,837.555c2.325,0,132.527,103.7,132.527,103.7l-124.157,67.891S2569.11,887.311,2569.11,888.705,2672.806,837.555,2672.806,837.555Z" transform="translate(-2636.721 -829.911)" fill="#5ac7f2"/>
          <ellipse id="Elipse_4271" data-name="Elipse 4271" cx="109.902" cy="74.534" rx="109.902" ry="74.534" transform="translate(66.065 -6.786)" fill="#abe3f4"/>
          <path id="Trazado_126151" data-name="Trazado 126151" d="M2694.972,834.663l104.81,81.132,59.521-46.036s-87.422-84.166-89.282-84.631S2694.972,834.663,2694.972,834.663Z" transform="translate(-2653.181 -823.054)" fill="#fff"/>
        </g>
        <path id="Trazado_126153" data-name="Trazado 126153" d="M2646.894,893.065l79.635,57.115,92.965-63.8-76.941-57.621Z" transform="translate(-2646.894 -828.761)" fill="none" stroke="#0e1c2f" stroke-miterlimit="10" stroke-width="1"/>
      </g>
      <g id="Grupo_56807" data-name="Grupo 56807" transform="translate(2528.915 620.249)">
        <path id="Trazado_126154" data-name="Trazado 126154" d="M2604.49,625.673a142.287,142.287,0,0,0-58.049,12.279V762.779h.125v8.151h64.687v-145.1Q2607.891,625.678,2604.49,625.673Z" transform="translate(-2546.442 -625.673)" fill="#f35396"/>
      </g>
      <g id="Grupo_56809" data-name="Grupo 56809" transform="translate(2412.418 749.367)">
        <path id="Trazado_126155" data-name="Trazado 126155" d="M2412.418,838.522l79.635,57.116,92.965-63.8-76.941-57.621Z" transform="translate(-2412.418 -774.218)" fill="#fff"/>
        <g id="Grupo_56808" data-name="Grupo 56808" clip-path="url(#clip-path-3)">
          <ellipse id="Elipse_4272" data-name="Elipse 4272" cx="109.902" cy="74.534" rx="109.902" ry="74.534" transform="translate(66.065 -6.786)" fill="#f35396"/>
        </g>
        <path id="Trazado_126157" data-name="Trazado 126157" d="M2412.418,838.522l79.635,57.116,92.965-63.8-76.941-57.621Z" transform="translate(-2412.418 -774.218)" fill="none" stroke="#0e1c2f" stroke-miterlimit="10" stroke-width="1"/>
      </g>
      <rect id="Rectángulo_30543" data-name="Rectángulo 30543" width="116.496" height="181.308" transform="translate(2412.418 584.198)" fill="#5ac7f2"/>
      <path id="Trazado_126158" data-name="Trazado 126158" d="M2534.009,640.921c-48.736,21.717-82.635,69.933-82.635,125.93,0,2.036.055,4.058.143,6.072h82.493Z" transform="translate(-5.094 -7.418)" fill="#8a4791"/>
      <rect id="Rectángulo_30544" data-name="Rectángulo 30544" width="181.308" height="181.308" transform="translate(2412.418 584.198)" fill="none" stroke="#0e1c2f" stroke-miterlimit="10" stroke-width="1"/>
      <g id="Grupo_56811" data-name="Grupo 56811" transform="translate(2618.109 749.367)">
        <path id="Trazado_126159" data-name="Trazado 126159" d="M2649.056,838.522l79.635,57.116,92.965-63.8-76.941-57.621Z" transform="translate(-2649.056 -774.218)" fill="#fff"/>
        <g id="Grupo_56810" data-name="Grupo 56810" transform="translate(0)" clip-path="url(#clip-path-4)">
          <ellipse id="Elipse_4273" data-name="Elipse 4273" cx="109.902" cy="74.534" rx="109.902" ry="74.534" transform="translate(66.065 -6.786)" fill="#f35396"/>
        </g>
        <path id="Trazado_126161" data-name="Trazado 126161" d="M2649.056,838.522l79.635,57.116,92.965-63.8-76.941-57.621Z" transform="translate(-2649.056 -774.218)" fill="none" stroke="#0e1c2f" stroke-miterlimit="10" stroke-width="1"/>
      </g>
      <rect id="Rectángulo_30545" data-name="Rectángulo 30545" width="116.496" height="181.308" transform="translate(2615.615 584.198)" fill="#5ac7f2"/>
      <path id="Trazado_126162" data-name="Trazado 126162" d="M2767.777,640.921c-48.736,21.717-82.635,69.933-82.635,125.93,0,2.036.054,4.058.142,6.072h82.492Z" transform="translate(-35.666 -7.418)" fill="#f35396"/>
      <g id="Grupo_56812" data-name="Grupo 56812" transform="translate(2732.111 620.249)">
        <path id="Trazado_126163" data-name="Trazado 126163" d="M2838.259,625.673a142.286,142.286,0,0,0-58.05,12.279V762.779h.125v8.151h64.687v-145.1Q2841.66,625.678,2838.259,625.673Z" transform="translate(-2780.209 -625.673)" fill="#f35396"/>
      </g>
      <rect id="Rectángulo_30546" data-name="Rectángulo 30546" width="181.308" height="181.308" transform="translate(2615.615 584.198)" fill="none" stroke="#0e1c2f" stroke-miterlimit="10" stroke-width="1"/>
      <g id="Grupo_56813" data-name="Grupo 56813" transform="translate(2432.067 611.818)">
        <path id="Trazado_126164" data-name="Trazado 126164" d="M2435.763,621.7l.566-5.547h5.7v1.306h-4.5l-.336,3.033a3.591,3.591,0,0,1,1.857-.482,3.069,3.069,0,0,1,2.414,1,3.94,3.94,0,0,1,.894,2.716,3.8,3.8,0,0,1-.927,2.708,3.382,3.382,0,0,1-2.595.989,3.516,3.516,0,0,1-2.406-.817,3.265,3.265,0,0,1-1.062-2.262h1.337a2.247,2.247,0,0,0,.681,1.441,2.11,2.11,0,0,0,1.451.484,1.905,1.905,0,0,0,1.547-.672,2.811,2.811,0,0,0,.562-1.857,2.571,2.571,0,0,0-.607-1.791,2.061,2.061,0,0,0-1.615-.677,2.334,2.334,0,0,0-1.452.405l-.375.306Z" transform="translate(-2435.068 -615.996)" fill="#0e1c2f"/>
        <path id="Trazado_126165" data-name="Trazado 126165" d="M2452.152,622.505a6.462,6.462,0,0,1-.848,3.69,3.525,3.525,0,0,1-5.287.027,6.137,6.137,0,0,1-.885-3.526v-1.886a6.325,6.325,0,0,1,.847-3.645,3.588,3.588,0,0,1,5.3-.043,6.113,6.113,0,0,1,.871,3.549Zm-1.413-1.933a5.172,5.172,0,0,0-.5-2.616,1.736,1.736,0,0,0-1.6-.821,1.712,1.712,0,0,0-1.581.817,5.058,5.058,0,0,0-.512,2.514v2.262a5.261,5.261,0,0,0,.522,2.662,1.732,1.732,0,0,0,1.586.86,1.71,1.71,0,0,0,1.555-.809,5.094,5.094,0,0,0,.531-2.552Z" transform="translate(-2436.345 -615.973)" fill="#0e1c2f"/>
        <path id="Trazado_126166" data-name="Trazado 126166" d="M2468.294,623.72a4.089,4.089,0,0,1-1.3,2.723,4.269,4.269,0,0,1-2.915.959,3.921,3.921,0,0,1-3.159-1.413,5.685,5.685,0,0,1-1.187-3.781v-1.07a6.319,6.319,0,0,1,.554-2.727,4.135,4.135,0,0,1,1.57-1.807,4.375,4.375,0,0,1,2.353-.63,4.018,4.018,0,0,1,2.842.99,4.137,4.137,0,0,1,1.246,2.738h-1.474a3.205,3.205,0,0,0-.829-1.931,2.509,2.509,0,0,0-1.784-.6,2.623,2.623,0,0,0-2.2,1.04,4.772,4.772,0,0,0-.8,2.96v1.078a4.91,4.91,0,0,0,.756,2.882,2.444,2.444,0,0,0,2.116,1.071,2.821,2.821,0,0,0,1.876-.555,3.074,3.074,0,0,0,.867-1.929Z" transform="translate(-2438.254 -615.973)" fill="#0e1c2f"/>
        <path id="Trazado_126167" data-name="Trazado 126167" d="M2442.044,644.1a6.464,6.464,0,0,1-.848,3.69,3.524,3.524,0,0,1-5.287.028,6.147,6.147,0,0,1-.887-3.526v-1.887a6.317,6.317,0,0,1,.849-3.644,3.038,3.038,0,0,1,2.659-1.192,3.07,3.07,0,0,1,2.644,1.149,6.109,6.109,0,0,1,.871,3.549Zm-1.413-1.932a5.185,5.185,0,0,0-.5-2.616,1.736,1.736,0,0,0-1.6-.821,1.713,1.713,0,0,0-1.582.817,5.054,5.054,0,0,0-.512,2.514v2.261a5.27,5.27,0,0,0,.523,2.662,1.731,1.731,0,0,0,1.585.86,1.71,1.71,0,0,0,1.555-.81,5.081,5.081,0,0,0,.531-2.551Z" transform="translate(-2435.023 -618.798)" fill="#0e1c2f"/>
        <path id="Trazado_126168" data-name="Trazado 126168" d="M2451.956,637.748l3.637,9.076,3.636-9.076h1.9v11.123h-1.467V644.54l.138-4.676-3.653,9.007h-1.123l-3.643-8.984.145,4.653v4.331h-1.467V637.748Z" transform="translate(-2436.99 -618.821)" fill="#0e1c2f"/>
      </g>
      <g id="Grupo_56814" data-name="Grupo 56814" transform="translate(2477.16 707.213)">
        <path id="Trazado_126169" data-name="Trazado 126169" d="M2487.492,731.443l.565-5.547h5.7V727.2h-4.5l-.336,3.033a3.592,3.592,0,0,1,1.856-.482,3.068,3.068,0,0,1,2.414,1,3.935,3.935,0,0,1,.895,2.716,3.8,3.8,0,0,1-.928,2.708,3.382,3.382,0,0,1-2.594.99,3.516,3.516,0,0,1-2.407-.818,3.264,3.264,0,0,1-1.062-2.261h1.337a2.242,2.242,0,0,0,.68,1.44,2.114,2.114,0,0,0,1.452.484,1.9,1.9,0,0,0,1.546-.672,2.806,2.806,0,0,0,.562-1.857,2.575,2.575,0,0,0-.607-1.791,2.061,2.061,0,0,0-1.616-.677,2.334,2.334,0,0,0-1.452.405l-.374.306Z" transform="translate(-2486.926 -725.744)" fill="#0e1c2f"/>
        <path id="Trazado_126170" data-name="Trazado 126170" d="M2503.88,732.253a6.468,6.468,0,0,1-.848,3.69,3.524,3.524,0,0,1-5.287.027,6.146,6.146,0,0,1-.887-3.526v-1.886a6.324,6.324,0,0,1,.849-3.645,3.588,3.588,0,0,1,5.3-.043,6.11,6.11,0,0,1,.871,3.549Zm-1.413-1.933a5.176,5.176,0,0,0-.505-2.616,1.735,1.735,0,0,0-1.6-.821,1.713,1.713,0,0,0-1.582.817,5.058,5.058,0,0,0-.512,2.514v2.262a5.263,5.263,0,0,0,.523,2.661,1.732,1.732,0,0,0,1.586.86,1.709,1.709,0,0,0,1.555-.809,5.085,5.085,0,0,0,.531-2.552Z" transform="translate(-2488.203 -725.721)" fill="#0e1c2f"/>
        <path id="Trazado_126171" data-name="Trazado 126171" d="M2520.022,733.467a4.1,4.1,0,0,1-1.3,2.723,4.27,4.27,0,0,1-2.915.96,3.921,3.921,0,0,1-3.16-1.413,5.689,5.689,0,0,1-1.187-3.782v-1.07a6.326,6.326,0,0,1,.554-2.727,4.135,4.135,0,0,1,1.569-1.807,4.378,4.378,0,0,1,2.353-.63,4.019,4.019,0,0,1,2.843.99,4.14,4.14,0,0,1,1.245,2.738h-1.475a3.2,3.2,0,0,0-.829-1.931,2.509,2.509,0,0,0-1.784-.6,2.624,2.624,0,0,0-2.2,1.039,4.777,4.777,0,0,0-.8,2.96V732a4.91,4.91,0,0,0,.756,2.882,2.446,2.446,0,0,0,2.117,1.071,2.82,2.82,0,0,0,1.876-.555,3.072,3.072,0,0,0,.866-1.929Z" transform="translate(-2490.112 -725.721)" fill="#0e1c2f"/>
        <path id="Trazado_126172" data-name="Trazado 126172" d="M2492.364,747.488v1.2h-.26a3.718,3.718,0,0,0-2.628.978,4.065,4.065,0,0,0-1.13,2.666,3.016,3.016,0,0,1,2.4-1.008,2.88,2.88,0,0,1,2.318,1.024,4.486,4.486,0,0,1-.068,5.394,3.225,3.225,0,0,1-2.51,1.031,3.179,3.179,0,0,1-2.59-1.226,4.862,4.862,0,0,1-.993-3.16v-.542a7.32,7.32,0,0,1,1.311-4.695,4.813,4.813,0,0,1,3.9-1.661Zm-1.857,5.011a2.376,2.376,0,0,0-2.185,1.528v.52a3.648,3.648,0,0,0,.619,2.216,1.854,1.854,0,0,0,1.543.84,1.8,1.8,0,0,0,1.5-.7,3.376,3.376,0,0,0-.009-3.693A1.776,1.776,0,0,0,2490.507,752.5Z" transform="translate(-2486.901 -728.568)" fill="#0e1c2f"/>
        <path id="Trazado_126173" data-name="Trazado 126173" d="M2503.88,753.852a6.464,6.464,0,0,1-.848,3.69,3.524,3.524,0,0,1-5.287.028,6.148,6.148,0,0,1-.887-3.526v-1.887a6.321,6.321,0,0,1,.849-3.644,3.588,3.588,0,0,1,5.3-.043,6.108,6.108,0,0,1,.871,3.549Zm-1.413-1.932a5.176,5.176,0,0,0-.505-2.616,1.735,1.735,0,0,0-1.6-.821,1.714,1.714,0,0,0-1.582.817,5.059,5.059,0,0,0-.512,2.514v2.261a5.265,5.265,0,0,0,.523,2.662,1.732,1.732,0,0,0,1.586.86,1.71,1.71,0,0,0,1.555-.81,5.081,5.081,0,0,0,.531-2.551Z" transform="translate(-2488.203 -728.546)" fill="#0e1c2f"/>
        <path id="Trazado_126174" data-name="Trazado 126174" d="M2513.792,747.5l3.637,9.076,3.636-9.076h1.9v11.123H2521.5v-4.331l.138-4.675-3.652,9.007h-1.123l-3.644-8.984.146,4.653v4.331H2511.9V747.5Z" transform="translate(-2490.17 -728.569)" fill="#0e1c2f"/>
      </g>
      <g id="Grupo_56815" data-name="Grupo 56815" transform="translate(2545.691 707.213)">
        <path id="Trazado_126175" data-name="Trazado 126175" d="M2572.763,732.253a6.468,6.468,0,0,1-.848,3.69,3.523,3.523,0,0,1-5.287.027,6.137,6.137,0,0,1-.886-3.526v-1.886a6.315,6.315,0,0,1,.848-3.645,3.587,3.587,0,0,1,5.3-.043,6.1,6.1,0,0,1,.871,3.549Zm-1.413-1.933a5.178,5.178,0,0,0-.5-2.616,1.735,1.735,0,0,0-1.6-.821,1.712,1.712,0,0,0-1.581.817,5.055,5.055,0,0,0-.512,2.514v2.262a5.255,5.255,0,0,0,.523,2.661,1.732,1.732,0,0,0,1.585.86,1.71,1.71,0,0,0,1.555-.809,5.075,5.075,0,0,0,.53-2.552Z" transform="translate(-2565.742 -725.721)" fill="#0e1c2f"/>
        <path id="Trazado_126176" data-name="Trazado 126176" d="M2588.9,733.467a4.091,4.091,0,0,1-1.3,2.723,4.267,4.267,0,0,1-2.915.96,3.92,3.92,0,0,1-3.159-1.413,5.686,5.686,0,0,1-1.187-3.782v-1.07a6.319,6.319,0,0,1,.555-2.727,4.125,4.125,0,0,1,1.569-1.807,4.377,4.377,0,0,1,2.353-.63,4.021,4.021,0,0,1,2.842.99,4.138,4.138,0,0,1,1.245,2.738h-1.474a3.2,3.2,0,0,0-.83-1.931,2.507,2.507,0,0,0-1.783-.6,2.623,2.623,0,0,0-2.2,1.039,4.778,4.778,0,0,0-.8,2.96V732a4.908,4.908,0,0,0,.756,2.882,2.445,2.445,0,0,0,2.117,1.071,2.819,2.819,0,0,0,1.876-.555,3.076,3.076,0,0,0,.867-1.929Z" transform="translate(-2567.651 -725.721)" fill="#0e1c2f"/>
        <path id="Trazado_126177" data-name="Trazado 126177" d="M2571.354,747.488v1.2h-.26a3.716,3.716,0,0,0-2.628.978,4.068,4.068,0,0,0-1.131,2.666,3.018,3.018,0,0,1,2.4-1.008,2.884,2.884,0,0,1,2.318,1.024,4.486,4.486,0,0,1-.069,5.394,3.222,3.222,0,0,1-2.51,1.031,3.18,3.18,0,0,1-2.591-1.226,4.861,4.861,0,0,1-.992-3.16v-.542a7.325,7.325,0,0,1,1.31-4.695,4.812,4.812,0,0,1,3.9-1.661ZM2569.5,752.5a2.376,2.376,0,0,0-2.185,1.528v.52a3.655,3.655,0,0,0,.619,2.216,1.856,1.856,0,0,0,1.544.84,1.8,1.8,0,0,0,1.5-.7,3.374,3.374,0,0,0-.009-3.693A1.774,1.774,0,0,0,2569.5,752.5Z" transform="translate(-2565.762 -728.568)" fill="#0e1c2f"/>
        <path id="Trazado_126178" data-name="Trazado 126178" d="M2582.87,753.852a6.454,6.454,0,0,1-.848,3.69,3.524,3.524,0,0,1-5.287.028,6.141,6.141,0,0,1-.886-3.526v-1.887a6.324,6.324,0,0,1,.847-3.644,3.588,3.588,0,0,1,5.3-.043,6.106,6.106,0,0,1,.871,3.549Zm-1.413-1.932a5.183,5.183,0,0,0-.5-2.616,1.736,1.736,0,0,0-1.6-.821,1.713,1.713,0,0,0-1.582.817,5.065,5.065,0,0,0-.511,2.514v2.261a5.266,5.266,0,0,0,.522,2.662,1.733,1.733,0,0,0,1.586.86,1.709,1.709,0,0,0,1.555-.81,5.078,5.078,0,0,0,.531-2.551Z" transform="translate(-2567.064 -728.546)" fill="#0e1c2f"/>
        <path id="Trazado_126179" data-name="Trazado 126179" d="M2592.782,747.5l3.637,9.076,3.637-9.076h1.9v11.123h-1.467v-4.331l.137-4.675-3.651,9.007h-1.123l-3.645-8.984.145,4.653v4.331h-1.467V747.5Z" transform="translate(-2569.03 -728.569)" fill="#0e1c2f"/>
      </g>
      <g id="Grupo_56816" data-name="Grupo 56816" transform="translate(2516.048 801.393)">
        <path id="Trazado_126180" data-name="Trazado 126180" d="M2537.1,834.237v1.2h-.26a3.716,3.716,0,0,0-2.627.978,4.069,4.069,0,0,0-1.131,2.666,3.019,3.019,0,0,1,2.4-1.008,2.883,2.883,0,0,1,2.318,1.024,4.486,4.486,0,0,1-.069,5.394,3.222,3.222,0,0,1-2.51,1.031,3.18,3.18,0,0,1-2.591-1.226,4.867,4.867,0,0,1-.992-3.16v-.542a7.325,7.325,0,0,1,1.31-4.695,4.812,4.812,0,0,1,3.9-1.661Zm-1.857,5.011a2.377,2.377,0,0,0-2.185,1.528v.52a3.655,3.655,0,0,0,.619,2.216,1.856,1.856,0,0,0,1.544.84,1.8,1.8,0,0,0,1.5-.7,3.377,3.377,0,0,0-.008-3.693A1.777,1.777,0,0,0,2535.245,839.248Z" transform="translate(-2531.64 -834.092)" fill="#0e1c2f"/>
        <path id="Trazado_126181" data-name="Trazado 126181" d="M2548.618,840.6a6.454,6.454,0,0,1-.848,3.69,3.524,3.524,0,0,1-5.286.028,6.143,6.143,0,0,1-.886-3.526v-1.887a6.324,6.324,0,0,1,.848-3.644,3.588,3.588,0,0,1,5.3-.043,6.105,6.105,0,0,1,.871,3.549Zm-1.413-1.932a5.182,5.182,0,0,0-.5-2.616,1.736,1.736,0,0,0-1.6-.822,1.711,1.711,0,0,0-1.581.817,5.047,5.047,0,0,0-.512,2.514v2.261a5.265,5.265,0,0,0,.522,2.662,1.733,1.733,0,0,0,1.586.86,1.71,1.71,0,0,0,1.555-.81,5.081,5.081,0,0,0,.531-2.551Z" transform="translate(-2532.942 -834.07)" fill="#0e1c2f"/>
        <path id="Trazado_126182" data-name="Trazado 126182" d="M2558.53,834.245l3.637,9.076,3.637-9.076h1.9v11.123h-1.467v-4.331l.137-4.676-3.651,9.007H2561.6l-3.645-8.984.145,4.653v4.331h-1.467V834.245Z" transform="translate(-2534.908 -834.093)" fill="#0e1c2f"/>
      </g>
      <g id="Grupo_56817" data-name="Grupo 56817" transform="translate(2432.366 857.081)">
        <path id="Trazado_126183" data-name="Trazado 126183" d="M2435.764,903.859l.566-5.547h5.7v1.306h-4.5l-.336,3.033a3.592,3.592,0,0,1,1.856-.482,3.07,3.07,0,0,1,2.414,1,3.94,3.94,0,0,1,.894,2.716,3.8,3.8,0,0,1-.927,2.708,3.383,3.383,0,0,1-2.595.99,3.516,3.516,0,0,1-2.406-.818,3.263,3.263,0,0,1-1.062-2.261h1.337a2.247,2.247,0,0,0,.681,1.44,2.11,2.11,0,0,0,1.451.484,1.9,1.9,0,0,0,1.547-.672,2.809,2.809,0,0,0,.562-1.857,2.572,2.572,0,0,0-.607-1.791,2.061,2.061,0,0,0-1.615-.677,2.333,2.333,0,0,0-1.452.405l-.375.306Z" transform="translate(-2435.367 -898.16)" fill="#0e1c2f"/>
        <path id="Trazado_126184" data-name="Trazado 126184" d="M2452.153,904.669a6.46,6.46,0,0,1-.849,3.69,3.523,3.523,0,0,1-5.287.027,6.14,6.14,0,0,1-.885-3.526v-1.886a6.325,6.325,0,0,1,.847-3.645,3.589,3.589,0,0,1,5.3-.043,6.115,6.115,0,0,1,.871,3.549Zm-1.414-1.933a5.175,5.175,0,0,0-.5-2.616,1.736,1.736,0,0,0-1.6-.821,1.713,1.713,0,0,0-1.581.817,5.055,5.055,0,0,0-.512,2.514v2.262a5.264,5.264,0,0,0,.522,2.661,1.733,1.733,0,0,0,1.586.86,1.71,1.71,0,0,0,1.555-.809,5.091,5.091,0,0,0,.53-2.552Z" transform="translate(-2436.644 -898.137)" fill="#0e1c2f"/>
        <path id="Trazado_126185" data-name="Trazado 126185" d="M2468.294,905.884a4.088,4.088,0,0,1-1.3,2.723,4.269,4.269,0,0,1-2.916.96,3.92,3.92,0,0,1-3.158-1.413,5.687,5.687,0,0,1-1.188-3.782V903.3a6.32,6.32,0,0,1,.554-2.728,4.135,4.135,0,0,1,1.57-1.807,4.373,4.373,0,0,1,2.353-.63,4.017,4.017,0,0,1,2.842.99,4.137,4.137,0,0,1,1.245,2.738h-1.474a3.2,3.2,0,0,0-.829-1.932,2.511,2.511,0,0,0-1.784-.6,2.623,2.623,0,0,0-2.2,1.04,4.772,4.772,0,0,0-.8,2.96v1.078a4.909,4.909,0,0,0,.756,2.882,2.442,2.442,0,0,0,2.115,1.071,2.821,2.821,0,0,0,1.877-.555,3.075,3.075,0,0,0,.867-1.929Z" transform="translate(-2438.553 -898.137)" fill="#0e1c2f"/>
      </g>
      <g id="Grupo_56818" data-name="Grupo 56818" transform="translate(2721.879 801.393)">
        <path id="Trazado_126186" data-name="Trazado 126186" d="M2773.9,834.237v1.2h-.26a3.719,3.719,0,0,0-2.629.978,4.065,4.065,0,0,0-1.13,2.666,3.015,3.015,0,0,1,2.4-1.008,2.881,2.881,0,0,1,2.318,1.024,4.486,4.486,0,0,1-.068,5.394,3.222,3.222,0,0,1-2.51,1.031,3.178,3.178,0,0,1-2.59-1.226,4.859,4.859,0,0,1-.993-3.16v-.542a7.319,7.319,0,0,1,1.31-4.695,4.812,4.812,0,0,1,3.9-1.661Zm-1.857,5.011a2.376,2.376,0,0,0-2.185,1.528v.52a3.656,3.656,0,0,0,.619,2.216,1.856,1.856,0,0,0,1.544.84,1.8,1.8,0,0,0,1.5-.7,3.374,3.374,0,0,0-.009-3.693A1.774,1.774,0,0,0,2772.043,839.248Z" transform="translate(-2768.438 -834.092)" fill="#0e1c2f"/>
        <path id="Trazado_126187" data-name="Trazado 126187" d="M2785.417,840.6a6.464,6.464,0,0,1-.848,3.69,3.524,3.524,0,0,1-5.287.028,6.139,6.139,0,0,1-.886-3.526v-1.887a6.322,6.322,0,0,1,.848-3.644,3.588,3.588,0,0,1,5.3-.043,6.105,6.105,0,0,1,.871,3.549ZM2784,838.669a5.185,5.185,0,0,0-.5-2.616,1.737,1.737,0,0,0-1.6-.822,1.712,1.712,0,0,0-1.582.817,5.063,5.063,0,0,0-.512,2.514v2.261a5.256,5.256,0,0,0,.523,2.662,1.731,1.731,0,0,0,1.585.86,1.709,1.709,0,0,0,1.555-.81,5.076,5.076,0,0,0,.531-2.551Z" transform="translate(-2769.74 -834.07)" fill="#0e1c2f"/>
        <path id="Trazado_126188" data-name="Trazado 126188" d="M2795.328,834.245l3.637,9.076,3.636-9.076h1.9v11.123h-1.467v-4.331l.138-4.676-3.652,9.007H2798.4l-3.644-8.984.145,4.653v4.331h-1.467V834.245Z" transform="translate(-2771.707 -834.093)" fill="#0e1c2f"/>
      </g>
      <g id="Grupo_56819" data-name="Grupo 56819" transform="translate(2638.196 857.081)">
        <path id="Trazado_126189" data-name="Trazado 126189" d="M2672.562,903.859l.565-5.547h5.7v1.306h-4.5l-.335,3.033a3.589,3.589,0,0,1,1.855-.482,3.073,3.073,0,0,1,2.415,1,3.94,3.94,0,0,1,.894,2.716,3.8,3.8,0,0,1-.927,2.708,3.382,3.382,0,0,1-2.594.99,3.514,3.514,0,0,1-2.406-.818,3.263,3.263,0,0,1-1.062-2.261h1.337a2.246,2.246,0,0,0,.68,1.44,2.115,2.115,0,0,0,1.452.484,1.906,1.906,0,0,0,1.547-.672,2.812,2.812,0,0,0,.561-1.857,2.57,2.57,0,0,0-.608-1.791,2.06,2.06,0,0,0-1.616-.677,2.33,2.33,0,0,0-1.451.405l-.374.306Z" transform="translate(-2672.165 -898.16)" fill="#0e1c2f"/>
        <path id="Trazado_126190" data-name="Trazado 126190" d="M2688.951,904.669a6.46,6.46,0,0,1-.849,3.69,3.523,3.523,0,0,1-5.287.027,6.141,6.141,0,0,1-.886-3.526v-1.886a6.325,6.325,0,0,1,.848-3.645,3.588,3.588,0,0,1,5.3-.043,6.113,6.113,0,0,1,.871,3.549Zm-1.414-1.933a5.178,5.178,0,0,0-.5-2.616,1.736,1.736,0,0,0-1.6-.821,1.713,1.713,0,0,0-1.581.817,5.05,5.05,0,0,0-.512,2.514v2.262a5.264,5.264,0,0,0,.522,2.661,1.732,1.732,0,0,0,1.585.86,1.711,1.711,0,0,0,1.556-.809,5.094,5.094,0,0,0,.53-2.552Z" transform="translate(-2673.442 -898.137)" fill="#0e1c2f"/>
        <path id="Trazado_126191" data-name="Trazado 126191" d="M2705.093,905.884a4.091,4.091,0,0,1-1.3,2.723,4.27,4.27,0,0,1-2.916.96,3.92,3.92,0,0,1-3.159-1.413,5.683,5.683,0,0,1-1.188-3.782V903.3a6.32,6.32,0,0,1,.555-2.728,4.13,4.13,0,0,1,1.57-1.807,4.373,4.373,0,0,1,2.353-.63,4.018,4.018,0,0,1,2.842.99,4.138,4.138,0,0,1,1.246,2.738h-1.474a3.2,3.2,0,0,0-.83-1.932,2.506,2.506,0,0,0-1.783-.6,2.623,2.623,0,0,0-2.2,1.04,4.773,4.773,0,0,0-.8,2.96v1.078a4.909,4.909,0,0,0,.756,2.882,2.443,2.443,0,0,0,2.116,1.071,2.821,2.821,0,0,0,1.877-.555,3.076,3.076,0,0,0,.867-1.929Z" transform="translate(-2675.351 -898.137)" fill="#0e1c2f"/>
      </g>
      <g id="Grupo_56820" data-name="Grupo 56820" transform="translate(2703.239 874.702)">
        <path id="Trazado_126192" data-name="Trazado 126192" d="M2754.5,929.685h-7.289v-1.015l3.851-4.278a9.166,9.166,0,0,0,1.18-1.578,2.638,2.638,0,0,0,.324-1.256,2,2,0,0,0-.527-1.428,1.841,1.841,0,0,0-1.406-.558,2.187,2.187,0,0,0-1.639.6,2.3,2.3,0,0,0-.584,1.671h-1.414a3.284,3.284,0,0,1,.99-2.484,3.67,3.67,0,0,1,2.647-.947,3.529,3.529,0,0,1,2.452.813,2.779,2.779,0,0,1,.9,2.166q0,1.643-2.093,3.912l-2.98,3.233h5.585Z" transform="translate(-2746.994 -918.409)" fill="#0e1c2f"/>
        <path id="Trazado_126193" data-name="Trazado 126193" d="M2764.316,924.941a6.455,6.455,0,0,1-.848,3.689,3.524,3.524,0,0,1-5.287.028,6.141,6.141,0,0,1-.886-3.526v-1.886a6.316,6.316,0,0,1,.848-3.645,3.587,3.587,0,0,1,5.3-.043,6.1,6.1,0,0,1,.871,3.55Zm-1.414-1.933a5.18,5.18,0,0,0-.5-2.616,1.737,1.737,0,0,0-1.6-.821,1.713,1.713,0,0,0-1.582.818,5.06,5.06,0,0,0-.512,2.513v2.261a5.265,5.265,0,0,0,.523,2.662,1.733,1.733,0,0,0,1.586.861,1.711,1.711,0,0,0,1.555-.81,5.082,5.082,0,0,0,.53-2.551Z" transform="translate(-2748.341 -918.409)" fill="#0e1c2f"/>
        <path id="Trazado_126194" data-name="Trazado 126194" d="M2780.458,926.156a4.1,4.1,0,0,1-1.3,2.723,4.27,4.27,0,0,1-2.915.959,3.92,3.92,0,0,1-3.16-1.413,5.689,5.689,0,0,1-1.187-3.783v-1.069a6.322,6.322,0,0,1,.554-2.727,4.147,4.147,0,0,1,1.57-1.808,4.38,4.38,0,0,1,2.353-.629,4.021,4.021,0,0,1,2.842.989,4.142,4.142,0,0,1,1.246,2.739h-1.475a3.2,3.2,0,0,0-.829-1.931,2.507,2.507,0,0,0-1.784-.6,2.625,2.625,0,0,0-2.2,1.039,4.779,4.779,0,0,0-.8,2.959v1.078a4.9,4.9,0,0,0,.756,2.883,2.442,2.442,0,0,0,2.116,1.071,2.82,2.82,0,0,0,1.876-.555,3.07,3.07,0,0,0,.866-1.928Z" transform="translate(-2750.25 -918.409)" fill="#0e1c2f"/>
      </g>
      <g id="Grupo_56821" data-name="Grupo 56821" transform="translate(2634.86 611.818)">
        <path id="Trazado_126195" data-name="Trazado 126195" d="M2669.067,621.7l.565-5.547h5.7v1.306h-4.5l-.335,3.033a3.587,3.587,0,0,1,1.856-.482,3.072,3.072,0,0,1,2.415,1,3.939,3.939,0,0,1,.894,2.716,3.8,3.8,0,0,1-.927,2.708,3.383,3.383,0,0,1-2.595.989,3.514,3.514,0,0,1-2.406-.817,3.265,3.265,0,0,1-1.062-2.262h1.337a2.248,2.248,0,0,0,.68,1.441,2.116,2.116,0,0,0,1.452.484,1.9,1.9,0,0,0,1.546-.672,2.806,2.806,0,0,0,.562-1.857,2.57,2.57,0,0,0-.607-1.791,2.06,2.06,0,0,0-1.616-.677,2.335,2.335,0,0,0-1.452.405l-.374.306Z" transform="translate(-2668.372 -615.996)" fill="#0e1c2f"/>
        <path id="Trazado_126196" data-name="Trazado 126196" d="M2685.455,622.505a6.458,6.458,0,0,1-.848,3.69,3.525,3.525,0,0,1-5.287.027,6.141,6.141,0,0,1-.886-3.526v-1.886a6.327,6.327,0,0,1,.847-3.645,3.588,3.588,0,0,1,5.3-.043,6.107,6.107,0,0,1,.871,3.549Zm-1.413-1.933a5.183,5.183,0,0,0-.5-2.616,1.736,1.736,0,0,0-1.6-.821,1.713,1.713,0,0,0-1.582.817,5.065,5.065,0,0,0-.511,2.514v2.262a5.258,5.258,0,0,0,.523,2.662,1.731,1.731,0,0,0,1.585.86,1.709,1.709,0,0,0,1.555-.809,5.079,5.079,0,0,0,.531-2.552Z" transform="translate(-2669.649 -615.973)" fill="#0e1c2f"/>
        <path id="Trazado_126197" data-name="Trazado 126197" d="M2701.6,623.72a4.09,4.09,0,0,1-1.3,2.723,4.269,4.269,0,0,1-2.915.959,3.922,3.922,0,0,1-3.159-1.413,5.683,5.683,0,0,1-1.187-3.781v-1.07a6.319,6.319,0,0,1,.555-2.727,4.13,4.13,0,0,1,1.57-1.807,4.373,4.373,0,0,1,2.353-.63,4.018,4.018,0,0,1,2.841.99,4.14,4.14,0,0,1,1.246,2.738h-1.475a3.2,3.2,0,0,0-.829-1.931,2.506,2.506,0,0,0-1.783-.6,2.625,2.625,0,0,0-2.205,1.04,4.778,4.778,0,0,0-.8,2.96v1.078a4.908,4.908,0,0,0,.756,2.882,2.443,2.443,0,0,0,2.115,1.071,2.819,2.819,0,0,0,1.876-.555,3.075,3.075,0,0,0,.867-1.929Z" transform="translate(-2671.558 -615.973)" fill="#0e1c2f"/>
        <path id="Trazado_126198" data-name="Trazado 126198" d="M2675.348,644.1a6.464,6.464,0,0,1-.847,3.69,3.524,3.524,0,0,1-5.287.028,6.139,6.139,0,0,1-.886-3.526v-1.887a6.314,6.314,0,0,1,.848-3.644,3.587,3.587,0,0,1,5.3-.043,6.1,6.1,0,0,1,.871,3.549Zm-1.413-1.932a5.178,5.178,0,0,0-.5-2.616,1.735,1.735,0,0,0-1.6-.821,1.712,1.712,0,0,0-1.581.817,5.059,5.059,0,0,0-.512,2.514v2.261a5.259,5.259,0,0,0,.523,2.662,1.731,1.731,0,0,0,1.585.86,1.711,1.711,0,0,0,1.555-.81,5.074,5.074,0,0,0,.53-2.551Z" transform="translate(-2668.327 -618.798)" fill="#0e1c2f"/>
        <path id="Trazado_126199" data-name="Trazado 126199" d="M2685.26,637.748l3.637,9.076,3.636-9.076h1.9v11.123h-1.467V644.54l.137-4.676-3.652,9.007h-1.123l-3.644-8.984.145,4.653v4.331h-1.467V637.748Z" transform="translate(-2670.293 -618.821)" fill="#0e1c2f"/>
      </g>
      <g id="Grupo_56822" data-name="Grupo 56822" transform="translate(2679.656 707.213)">
        <path id="Trazado_126200" data-name="Trazado 126200" d="M2727.364,737h-7.289v-1.016l3.851-4.278a9.166,9.166,0,0,0,1.18-1.579,2.625,2.625,0,0,0,.325-1.256,2,2,0,0,0-.528-1.428,1.842,1.842,0,0,0-1.406-.558,2.188,2.188,0,0,0-1.639.6,2.3,2.3,0,0,0-.584,1.67h-1.413a3.28,3.28,0,0,1,.989-2.483,3.667,3.667,0,0,1,2.647-.947,3.528,3.528,0,0,1,2.452.814,2.775,2.775,0,0,1,.9,2.166q0,1.643-2.093,3.912l-2.98,3.232h5.585Z" transform="translate(-2719.862 -725.721)" fill="#0e1c2f"/>
        <path id="Trazado_126201" data-name="Trazado 126201" d="M2737.184,732.253a6.466,6.466,0,0,1-.847,3.69,3.523,3.523,0,0,1-5.287.027,6.133,6.133,0,0,1-.886-3.526v-1.886a6.321,6.321,0,0,1,.848-3.645,3.587,3.587,0,0,1,5.3-.043,6.1,6.1,0,0,1,.871,3.549Zm-1.413-1.933a5.178,5.178,0,0,0-.5-2.616,1.735,1.735,0,0,0-1.6-.821,1.712,1.712,0,0,0-1.581.817,5.063,5.063,0,0,0-.512,2.514v2.262a5.252,5.252,0,0,0,.523,2.661,1.731,1.731,0,0,0,1.586.86,1.709,1.709,0,0,0,1.555-.809,5.073,5.073,0,0,0,.53-2.552Z" transform="translate(-2721.209 -725.721)" fill="#0e1c2f"/>
        <path id="Trazado_126202" data-name="Trazado 126202" d="M2753.326,733.467a4.088,4.088,0,0,1-1.3,2.723,4.269,4.269,0,0,1-2.915.96,3.92,3.92,0,0,1-3.159-1.413,5.688,5.688,0,0,1-1.187-3.782v-1.07a6.337,6.337,0,0,1,.553-2.727,4.138,4.138,0,0,1,1.57-1.807,4.374,4.374,0,0,1,2.353-.63,4.021,4.021,0,0,1,2.842.99,4.139,4.139,0,0,1,1.245,2.738h-1.474a3.2,3.2,0,0,0-.829-1.931,2.508,2.508,0,0,0-1.784-.6,2.624,2.624,0,0,0-2.2,1.039,4.778,4.778,0,0,0-.8,2.96V732a4.91,4.91,0,0,0,.756,2.882,2.445,2.445,0,0,0,2.117,1.071,2.819,2.819,0,0,0,1.876-.555,3.076,3.076,0,0,0,.867-1.929Z" transform="translate(-2723.118 -725.721)" fill="#0e1c2f"/>
        <path id="Trazado_126203" data-name="Trazado 126203" d="M2725.667,747.488v1.2h-.26a3.717,3.717,0,0,0-2.627.978,4.069,4.069,0,0,0-1.131,2.666,3.02,3.02,0,0,1,2.4-1.008,2.882,2.882,0,0,1,2.318,1.024,4.488,4.488,0,0,1-.068,5.394,3.226,3.226,0,0,1-2.51,1.031,3.177,3.177,0,0,1-2.589-1.226,4.859,4.859,0,0,1-.994-3.16v-.542a7.319,7.319,0,0,1,1.311-4.695,4.813,4.813,0,0,1,3.9-1.661Zm-1.856,5.011a2.374,2.374,0,0,0-2.186,1.528v.52a3.648,3.648,0,0,0,.619,2.216,1.853,1.853,0,0,0,1.543.84,1.8,1.8,0,0,0,1.5-.7,3.374,3.374,0,0,0-.009-3.693A1.775,1.775,0,0,0,2723.812,752.5Z" transform="translate(-2719.907 -728.568)" fill="#0e1c2f"/>
        <path id="Trazado_126204" data-name="Trazado 126204" d="M2737.184,753.852a6.462,6.462,0,0,1-.847,3.69,3.524,3.524,0,0,1-5.287.028,6.135,6.135,0,0,1-.886-3.526v-1.887a6.318,6.318,0,0,1,.848-3.644,3.587,3.587,0,0,1,5.3-.043,6.1,6.1,0,0,1,.871,3.549Zm-1.413-1.932a5.177,5.177,0,0,0-.5-2.616,1.735,1.735,0,0,0-1.6-.821,1.712,1.712,0,0,0-1.581.817,5.065,5.065,0,0,0-.512,2.514v2.261a5.254,5.254,0,0,0,.523,2.662,1.731,1.731,0,0,0,1.586.86,1.71,1.71,0,0,0,1.555-.81,5.069,5.069,0,0,0,.53-2.551Z" transform="translate(-2721.209 -728.546)" fill="#0e1c2f"/>
        <path id="Trazado_126205" data-name="Trazado 126205" d="M2747.1,747.5l3.636,9.076,3.637-9.076h1.9v11.123H2754.8v-4.331l.137-4.675-3.652,9.007h-1.123l-3.644-8.984.145,4.653v4.331H2745.2V747.5Z" transform="translate(-2723.176 -728.569)" fill="#0e1c2f"/>
      </g>
      <g id="Grupo_56823" data-name="Grupo 56823" transform="translate(2748.316 707.213)">
        <path id="Trazado_126206" data-name="Trazado 126206" d="M2806.354,737h-7.287v-1.016l3.85-4.278a9.126,9.126,0,0,0,1.181-1.579,2.633,2.633,0,0,0,.324-1.256,1.991,1.991,0,0,0-.528-1.428,1.842,1.842,0,0,0-1.406-.558,2.19,2.19,0,0,0-1.639.6,2.3,2.3,0,0,0-.583,1.67h-1.414a3.278,3.278,0,0,1,.989-2.483,3.667,3.667,0,0,1,2.647-.947,3.526,3.526,0,0,1,2.452.814,2.776,2.776,0,0,1,.9,2.166q0,1.643-2.094,3.912l-2.979,3.232h5.583Z" transform="translate(-2798.853 -725.721)" fill="#0e1c2f"/>
        <path id="Trazado_126207" data-name="Trazado 126207" d="M2816.174,732.253a6.468,6.468,0,0,1-.848,3.69,3.523,3.523,0,0,1-5.286.027,6.144,6.144,0,0,1-.887-3.526v-1.886a6.325,6.325,0,0,1,.848-3.645,3.588,3.588,0,0,1,5.3-.043,6.1,6.1,0,0,1,.87,3.549Zm-1.413-1.933a5.174,5.174,0,0,0-.505-2.616,1.734,1.734,0,0,0-1.6-.821,1.713,1.713,0,0,0-1.582.817,5.061,5.061,0,0,0-.512,2.514v2.262a5.263,5.263,0,0,0,.523,2.661,1.731,1.731,0,0,0,1.585.86,1.709,1.709,0,0,0,1.555-.809,5.082,5.082,0,0,0,.531-2.552Z" transform="translate(-2800.2 -725.721)" fill="#0e1c2f"/>
        <path id="Trazado_126208" data-name="Trazado 126208" d="M2832.317,733.467a4.094,4.094,0,0,1-1.3,2.723,4.267,4.267,0,0,1-2.915.96,3.921,3.921,0,0,1-3.16-1.413,5.689,5.689,0,0,1-1.187-3.782v-1.07a6.319,6.319,0,0,1,.555-2.727,4.126,4.126,0,0,1,1.569-1.807,4.377,4.377,0,0,1,2.353-.63,4.019,4.019,0,0,1,2.842.99,4.144,4.144,0,0,1,1.246,2.738h-1.475a3.2,3.2,0,0,0-.829-1.931,2.508,2.508,0,0,0-1.783-.6,2.625,2.625,0,0,0-2.2,1.039,4.778,4.778,0,0,0-.8,2.96V732a4.908,4.908,0,0,0,.757,2.882,2.444,2.444,0,0,0,2.116,1.071,2.819,2.819,0,0,0,1.876-.555,3.076,3.076,0,0,0,.867-1.929Z" transform="translate(-2802.109 -725.721)" fill="#0e1c2f"/>
        <path id="Trazado_126209" data-name="Trazado 126209" d="M2804.658,747.488v1.2h-.26a3.718,3.718,0,0,0-2.628.978,4.073,4.073,0,0,0-1.131,2.666,3.018,3.018,0,0,1,2.4-1.008,2.881,2.881,0,0,1,2.318,1.024,4.487,4.487,0,0,1-.068,5.394,3.225,3.225,0,0,1-2.51,1.031,3.178,3.178,0,0,1-2.589-1.226,4.859,4.859,0,0,1-.994-3.16v-.542a7.32,7.32,0,0,1,1.311-4.695,4.812,4.812,0,0,1,3.9-1.661ZM2802.8,752.5a2.376,2.376,0,0,0-2.185,1.528v.52a3.648,3.648,0,0,0,.619,2.216,1.855,1.855,0,0,0,1.543.84,1.8,1.8,0,0,0,1.5-.7,3.373,3.373,0,0,0-.009-3.693A1.774,1.774,0,0,0,2802.8,752.5Z" transform="translate(-2798.897 -728.568)" fill="#0e1c2f"/>
        <path id="Trazado_126210" data-name="Trazado 126210" d="M2816.174,753.852a6.464,6.464,0,0,1-.848,3.69,3.524,3.524,0,0,1-5.286.028,6.147,6.147,0,0,1-.887-3.526v-1.887a6.321,6.321,0,0,1,.848-3.644,3.588,3.588,0,0,1,5.3-.043,6.1,6.1,0,0,1,.87,3.549Zm-1.413-1.932a5.173,5.173,0,0,0-.505-2.616,1.734,1.734,0,0,0-1.6-.821,1.713,1.713,0,0,0-1.582.817,5.062,5.062,0,0,0-.512,2.514v2.261a5.264,5.264,0,0,0,.523,2.662,1.732,1.732,0,0,0,1.585.86,1.71,1.71,0,0,0,1.555-.81,5.079,5.079,0,0,0,.531-2.551Z" transform="translate(-2800.2 -728.546)" fill="#0e1c2f"/>
        <path id="Trazado_126211" data-name="Trazado 126211" d="M2826.086,747.5l3.637,9.076,3.636-9.076h1.9v11.123h-1.467v-4.331l.137-4.675-3.652,9.007h-1.123l-3.644-8.984.145,4.653v4.331h-1.467V747.5Z" transform="translate(-2802.167 -728.569)" fill="#0e1c2f"/>
      </g>
    </g>
  </g>
</svg>
