<svg xmlns="http://www.w3.org/2000/svg" width="608.001" height="192.531" viewBox="0 0 608.001 192.531">
  <g id="Grupo_56405" data-name="Grupo 56405" transform="translate(-3096.312 1886.1)">
    <g id="Grupo_56332" data-name="Grupo 56332" transform="translate(3116.012 -1841.974)">
      <path id="Trazado_125299" data-name="Trazado 125299" d="M4373.2-1667.976l20.516,1.418,1.709,17.739-3.619,7.4-73.575-.871-4.035-6.529v-27.248Z" transform="translate(-3807.128 1722.787)" fill="#333359"/>
      <path id="Trazado_125300" data-name="Trazado 125300" d="M3141.857-1682.67c22.605-20.727,45.674-37.727,64.54-88.585l14.778-3.1,415.29-2.691,12.466,26.088-419.813,44.836c-24.946,45.051-53.088,66.636-87.26,43.966Z" transform="translate(-3141.857 1780.09)" fill="#333359"/>
      <path id="Trazado_125301" data-name="Trazado 125301" d="M3292.5-1739.721l2.849-41.318,9.952-3.043-1.42,30.821C3302.523-1743.537,3299.676-1740.15,3292.5-1739.721Z" transform="translate(-3227.344 1784.082)" fill="#5d5d87" opacity="0.73"/>
    </g>
    <g id="Grupo_56333" data-name="Grupo 56333" transform="translate(3311.241 -1886.1)">
      <path id="Trazado_125302" data-name="Trazado 125302" d="M3611.319-1885.306c-9.657,5.307-15.573,13.972-18.1,25.683v12.025h39.181v-12.025C3629.81-1871,3623.378-1880.263,3611.319-1885.306Z" transform="translate(-3593.224 1885.649)" fill="#5d5d87"/>
      <path id="Trazado_125303" data-name="Trazado 125303" d="M3753.619-1886.1c-9.657,5.307-16.992,13.772-19.515,25.482v12.226h41.4V-1860.4C3772.914-1871.778,3765.677-1881.057,3753.619-1886.1Z" transform="translate(-3673.169 1886.1)" fill="#5d5d87"/>
      <path id="Trazado_125304" data-name="Trazado 125304" d="M3894.932-1884.174c-9.657,5.307-16.991,13.772-19.514,25.482v12.226h41.4v-12.008C3914.228-1869.851,3906.99-1879.131,3894.932-1884.174Z" transform="translate(-3753.361 1885.007)" fill="#5d5d87"/>
      <path id="Trazado_125305" data-name="Trazado 125305" d="M4041.359-1884.174c-9.657,5.307-16.992,13.772-19.515,25.482v12.226h41.4v-12.008C4060.654-1869.851,4053.417-1879.131,4041.359-1884.174Z" transform="translate(-3836.453 1885.007)" fill="#5d5d87"/>
    </g>
    <g id="Grupo_56336" data-name="Grupo 56336" transform="translate(3303.774 -1863.338)">
      <g id="Grupo_56334" data-name="Grupo 56334" transform="translate(5.988 0)">
        <path id="Trazado_125306" data-name="Trazado 125306" d="M3589.8-1825.927v29.316" transform="translate(-3589.804 1829.192)" fill="none" stroke="#8686b2" stroke-linecap="round" stroke-miterlimit="10" stroke-width="14"/>
        <line id="Línea_154" data-name="Línea 154" y1="31.663" transform="translate(40.66 1.562)" fill="none" stroke="#8686b2" stroke-linecap="round" stroke-miterlimit="10" stroke-width="12"/>
        <line id="Línea_155" data-name="Línea 155" y1="34.912" transform="translate(61.655)" fill="none" stroke="#8686b2" stroke-linecap="round" stroke-miterlimit="10" stroke-width="9"/>
        <line id="Línea_156" data-name="Línea 156" x1="0.087" y2="34.507" transform="translate(104.436 0.862)" fill="none" stroke="#8686b2" stroke-linecap="round" stroke-miterlimit="10" stroke-width="9"/>
        <line id="Línea_157" data-name="Línea 157" y1="34.659" transform="translate(122.413 1.124)" fill="none" stroke="#8686b2" stroke-linecap="round" stroke-miterlimit="10" stroke-width="8"/>
        <line id="Línea_158" data-name="Línea 158" y1="36.569" transform="translate(165.123 1.124)" fill="none" stroke="#8686b2" stroke-linecap="round" stroke-miterlimit="10" stroke-width="10"/>
        <line id="Línea_159" data-name="Línea 159" y1="35.982" transform="translate(187.573 0.862)" fill="none" stroke="#8686b2" stroke-linecap="round" stroke-miterlimit="10" stroke-width="12"/>
        <line id="Línea_160" data-name="Línea 160" y1="35.734" transform="translate(228.526 0.862)" fill="none" stroke="#8686b2" stroke-linecap="round" stroke-miterlimit="10" stroke-width="12"/>
      </g>
      <g id="Grupo_56335" data-name="Grupo 56335" transform="translate(0 26.098)">
        <ellipse id="Elipse_4235" data-name="Elipse 4235" cx="5.988" cy="6.482" rx="5.988" ry="6.482" fill="#afaff2"/>
        <ellipse id="Elipse_4236" data-name="Elipse 4236" cx="5.111" cy="5.533" rx="5.111" ry="5.533" transform="translate(41.537 1.593)" fill="#afaff2"/>
        <ellipse id="Elipse_4237" data-name="Elipse 4237" cx="3.861" cy="4.18" rx="3.861" ry="4.18" transform="translate(63.782 4.634)" fill="#afaff2"/>
        <ellipse id="Elipse_4238" data-name="Elipse 4238" cx="3.861" cy="4.18" rx="3.861" ry="4.18" transform="translate(106.562 5.09)" fill="#afaff2"/>
        <path id="Trazado_125307" data-name="Trazado 125307" d="M3871.71-1755.794a3.712,3.712,0,0,1-3.556,3.849,3.712,3.712,0,0,1-3.556-3.849,3.711,3.711,0,0,1,3.556-3.849A3.711,3.711,0,0,1,3871.71-1755.794Z" transform="translate(-3739.754 1765.479)" fill="#afaff2"/>
        <path id="Trazado_125308" data-name="Trazado 125308" d="M3970.243-1752.351a4.426,4.426,0,0,1-4.241,4.591,4.426,4.426,0,0,1-4.241-4.591,4.426,4.426,0,0,1,4.241-4.591A4.426,4.426,0,0,1,3970.243-1752.351Z" transform="translate(-3794.89 1763.946)" fill="#afaff2"/>
        <path id="Trazado_125309" data-name="Trazado 125309" d="M4022.016-1754.906a4.859,4.859,0,0,1-4.655,5.04,4.859,4.859,0,0,1-4.656-5.04,4.859,4.859,0,0,1,4.656-5.04A4.859,4.859,0,0,1,4022.016-1754.906Z" transform="translate(-3823.8 1765.651)" fill="#afaff2"/>
        <path id="Trazado_125310" data-name="Trazado 125310" d="M4116.7-1755.479a4.859,4.859,0,0,1-4.656,5.04,4.859,4.859,0,0,1-4.655-5.04,4.859,4.859,0,0,1,4.655-5.04A4.859,4.859,0,0,1,4116.7-1755.479Z" transform="translate(-3877.53 1765.976)" fill="#afaff2"/>
      </g>
    </g>
    <g id="Grupo_56338" data-name="Grupo 56338" transform="translate(3164.752 -1863.672)">
      <path id="Trazado_125311" data-name="Trazado 125311" d="M3709.547-1813.692c-6.707-.3-13.436.13-20.147.153-8.356.029-15.685-1.41-23.651-3.656-7.152-2.017-13.3-6.395-20.218-8.987-4.085-1.53-8.187-3.282-12.506-3.509a96.236,96.236,0,0,0-14.613.669c-4.347.436-8.773.9-13.043-.084-6.508-1.5-12.431-2.572-19.076-.84-3.964,1.033-7.928,2.865-11.963,2.232a46.661,46.661,0,0,1-4.915-1.4c-2.567-.7-5.056-.467-7.639-.588-2.657-.125-5.322-.3-7.995-.317-11.581-.084-23.408-.613-34.9,1.118a24.009,24.009,0,0,1-5.2.446,34.408,34.408,0,0,1-4.324-.785,47.74,47.74,0,0,0-12.8-.407,85.5,85.5,0,0,1-11.7-.228c-7.658-.487-15.378-.651-22.987.587-3.118.507-6.415,1.589-9.541,1.188-3.164-.406-6.359-.726-9.546-1.037q-9.324-.917-18.637-1.964-4.657-.523-9.31-1.079c-2.925-.349-6.313-.276-9.14-1.159-4.908-1.532-9.154-1.054-14.038.854-5.034,1.967-9.678,4.9-14.622,7.093-11.989,5.325-25.173,6.366-38.1,7.345a337.905,337.905,0,0,1-35.8,1.271c-10.685-.33-22.2-.578-31.822,5.272-8.163,4.962-9.521,14.6-10.626,23.884-1.252,10.528-2.217,21.093-3.1,31.664-.842,10.047-1.336,20.255-3.042,30.181a191.837,191.837,0,0,0,4.05-23.556c.943-7.434,1.895-14.121,4.218-21.157a38.02,38.02,0,0,1,5.708-10.673c4.084-5.816,10.392-10.078,17.137-9.811,15.152.6,30.3,1.561,45.466,1.129,15.075-.43,30.86-2.279,45.122-7.918q.884-.35,1.762-.718c4.711-1.98,9.124-5.045,13.808-6.792,5.318-1.983,11.028-2.409,16.615-2.293,6.862.143,13.708,1.082,20.57.87,4.879-.15,9.838-.875,14.59.332,2.351.6,4.6,1.658,7,1.981,3.277.441,6.561-.528,9.741-1.487,3.855-1.163,7.069-2.272,11.02-2.032,3.31.2,6.666.072,9.98.108,7.712.084,15.138.132,22.766,1.318a51.742,51.742,0,0,0,9.519.884c5.359-.166,10.746-3.433,15.933-2.795,4.083.5,8.227.546,12.34.728,8.163.363,16.83-.141,24.832,1.862,2.981.746,5.921,1.9,8.981,1.923a24.667,24.667,0,0,0,4.218-.457c3.765-.628,7.736-2.134,11.564-2.032s7.725-.25,11.6-.415c8.4-.357,16.751-.066,25.15.174,7.5.215,14.679,3.981,21.5,7.122a118.747,118.747,0,0,0,67.714,9.551c.492-.077.271-18.765.022-20.722a3.439,3.439,0,0,0-.618-1.829,3,3,0,0,0-2.044-.805C3713.055-1813.483,3711.3-1813.613,3709.547-1813.692Z" transform="translate(-3254.545 1834.246)" fill="#fff"/>
      <path id="Trazado_125312" data-name="Trazado 125312" d="M3705.669-1794.437a11.449,11.449,0,0,0,7.047-3.253,23.132,23.132,0,0,0,4.563-6.427c.135,1.457,1.251,15.785.166,15.954a118.743,118.743,0,0,1-67.714-9.551c-6.821-3.14-14-6.907-21.5-7.122-8.4-.24-16.747-.531-25.15-.174-3.876.165-7.759.517-11.6.415s-7.8,1.4-11.564,2.032a24.667,24.667,0,0,1-4.218.457c-3.06-.022-6-1.177-8.981-1.923-8-2-16.669-1.5-24.832-1.862-4.113-.183-8.256-.226-12.34-.728-5.187-.638-10.573,2.629-15.933,2.795a51.753,51.753,0,0,1-9.519-.884c-7.628-1.186-15.054-1.234-22.766-1.318-3.314-.036-6.67.092-9.98-.108-3.951-.239-7.164.869-11.02,2.032-3.18.96-6.463,1.929-9.741,1.487-2.4-.323-4.648-1.384-7-1.981-4.752-1.207-9.711-.482-14.59-.332-6.861.212-13.708-.728-20.57-.87-5.587-.116-11.3.31-16.615,2.293-4.685,1.746-9.1,4.811-13.808,6.791q-.877.369-1.762.719c-14.261,5.639-30.047,7.487-45.122,7.917-15.168.433-30.313-.529-45.466-1.128-6.745-.267-13.052,3.994-17.137,9.811a38.02,38.02,0,0,0-5.708,10.673c-2.323,7.036-3.275,13.723-4.218,21.157a191.843,191.843,0,0,1-4.05,23.556c1.706-9.926,2.2-20.134,3.042-30.181.887-10.571,1.852-21.135,3.1-31.664.931-7.827,2.445-21.34,11.5-24.27.083,2.687-1.6,5.928-2.119,8.692a47.561,47.561,0,0,0-.775,10.494c27.346-5.241,55.808,2.717,83.315-1.6a94.436,94.436,0,0,0,24.7-7.449c6.917-3.174,13.754-7.5,17.333-14.219,2.7-5.07,3.266-10.969,3.78-16.691l2.667-.244c-.567,4.087,1.744,8.218,5.109,10.606s7.613,3.243,11.739,3.274a13.792,13.792,0,0,0,6.859-1.386c3.515-1.959,2.593-7.96,5.056-9.252a1.961,1.961,0,0,1,1.568.064c6.123,2.27,6.656,10.7,10.634,15.878a2.758,2.758,0,0,0,1.442,1.129c3.583.841,2.473-14.1,2.77-16.293a64.063,64.063,0,0,0,10.4.868,65.7,65.7,0,0,0-.05,14.74c.224,1.77.863,3.875,2.6,4.29a3.1,3.1,0,0,0,3.005-1.231,7.757,7.757,0,0,0,1.31-3.136c1.228-5.222,1.2-10.647,1.169-16.012,6.744-.029,13.41-.509,20.159-.509,3.529,0,7.083.424,10.606.549.751,5.247,1.887,11.131,6.311,14.049a16.356,16.356,0,0,0,5.381,2.038,61.675,61.675,0,0,0,34.454-1.98c6.723-2.4,13.61-6.718,15.375-13.635,1.3-1.435,3.879-.087,4.424,1.769s-.111,3.82-.321,5.742a12.5,12.5,0,0,0,1.59,7.554,32.144,32.144,0,0,0,2.463-15.231l4.146-.336a69.7,69.7,0,0,0,2.417,17.47,48.154,48.154,0,0,0-.056-16.178,12.541,12.541,0,0,0,10.474-.436q.951,7.539,1.9,15.078l5.764.052a60.079,60.079,0,0,1-.488-17.473,64.958,64.958,0,0,1,16.068,1.734c4.27.985,8.7.519,13.043.084,1.364-.137,2.73-.27,4.1-.385a25.559,25.559,0,0,1,2.752.054q.516,6.725,1.032,13.45a1.552,1.552,0,0,0,.33,1.017c.375.372.991.266,1.512.172,6.115-1.093,11.644,3.329,16.886,6.661,13.289,8.443,29.437,10.889,45.107,12.417C3696.537-1793.247,3699.24-1794.1,3705.669-1794.437Z" transform="translate(-3254.545 1832.483)" fill="#d7ebff" opacity="0.65"/>
      <g id="Grupo_56337" data-name="Grupo 56337" transform="translate(175.329 5.036)">
        <path id="Trazado_125313" data-name="Trazado 125313" d="M4117.4-1814.368a2.336,2.336,0,0,1,.062,1.213,121.317,121.317,0,0,0-.459,17.768,57.454,57.454,0,0,0-14.914-5c-1.306-.264-16.089-1.844-16.036-1.17q-.573-7.305-1.146-14.61a2.193,2.193,0,0,1,.1-1.082,1.846,1.846,0,0,1,1.136-.838c5.89-2.2,12.277-2.337,18.479-1.707,4.069.413,9.059,2.032,12.284,4.825a1.847,1.847,0,0,1,.477.55C4117.384-1814.4,4117.392-1814.383,4117.4-1814.368Z" transform="translate(-3901.066 1821.192)" fill="#08aaf3"/>
        <path id="Trazado_125314" data-name="Trazado 125314" d="M4137.946-1813.917a2.336,2.336,0,0,1,.061,1.213c-.263,2.119-.092,7.759-4,6.333a3.836,3.836,0,0,1-2.169-2.587,15.259,15.259,0,0,1-.416-3.469,1.946,1.946,0,0,0-.234-.952,1.753,1.753,0,0,0-1.029-.628,9.946,9.946,0,0,0-5.855.4,3.664,3.664,0,0,1-1.678.308c-1.392-.211-1.9-2.145-1.24-3.386,3.015-5.627,12.7-.746,16.067,2.172a1.856,1.856,0,0,1,.477.55Z" transform="translate(-3921.615 1820.713)" fill="#f20090"/>
        <path id="Trazado_125315" data-name="Trazado 125315" d="M4114.514-1784.742a3.98,3.98,0,0,1,.858,1.209,19.489,19.489,0,0,1,.947,1.876c-1.853.182-4.53-1.268-6.4-1.646a60.905,60.905,0,0,0-11.155-1.074,6.4,6.4,0,0,1,1.114-4.72,1.841,1.841,0,0,1,1.2-.867c.748-.075,1.351.66,1.523,1.392s.07,1.5.212,2.243.664,1.51,1.415,1.53c.721.02,1.251-.629,1.765-1.136a6.116,6.116,0,0,1,3.1-1.64l-.191,2.569a.471.471,0,0,0,.059.336.458.458,0,0,0,.434.094c.878-.128,1.712-.473,2.586-.634A3.063,3.063,0,0,1,4114.514-1784.742Z" transform="translate(-3908.897 1804.085)" fill="#fff102"/>
        <path id="Trazado_125316" data-name="Trazado 125316" d="M4108.239-1810a2.228,2.228,0,0,1-.171,1.546,13.264,13.264,0,0,1-1.507,2.786c1.24-.651,2.826-1.283,3.94-.436a3.357,3.357,0,0,1,1.047,2.066,5.718,5.718,0,0,0,.74,2.229,1.591,1.591,0,0,0,2.058.574c.523-.357.792-1.166,1.425-1.173.523-.006.853.579.915,1.1a3.3,3.3,0,0,1-3.417,3.4,4.315,4.315,0,0,1-3.767-3.442c-.181-.834-.2-1.811-.859-2.35-.858-.7-2.135-.163-3.069.432-.694.441-2.327,1.746-2.956.548a2.086,2.086,0,0,1,.182-1.859,6.479,6.479,0,0,0,.791-1.765.645.645,0,0,0-.02-.364c-.142-.322-.611-.29-.938-.16-1.568.624-2.56,2.137-3.748,3.334a1.682,1.682,0,0,1-1.439.663,1.4,1.4,0,0,1-.746-.536c-1.2-1.508-.757-3.674-.873-5.6a1.9,1.9,0,0,0-.591-1.47c-.788-.577-1.865.153-2.49.9a14.451,14.451,0,0,0-3.168,7.024c-.186,1.213-.528,1.292-1.64,1.3-.14,0-1.9-.08-1.886.143q-.573-7.305-1.146-14.61a2.193,2.193,0,0,1,.1-1.082,1.846,1.846,0,0,1,1.136-.838c3.124-1.165,8.373-3.246,10.712.224a11.572,11.572,0,0,1,1.471,4.351,11.824,11.824,0,0,0,1.454,4.358,1.322,1.322,0,0,0,.674.6c.528.153,1.02-.294,1.427-.663a8.07,8.07,0,0,1,4.333-2.007,1.913,1.913,0,0,1,1.945.6A1.14,1.14,0,0,1,4108.239-1810Z" transform="translate(-3901.066 1820.742)" fill="#222020" opacity="0.44" style="mix-blend-mode: multiply;isolation: isolate"/>
        <path id="Trazado_125317" data-name="Trazado 125317" d="M4165.063-1785.923l-.032.426c7.134,3.324,14.874,6.959,22.59,8.272,1.675.285,3.438.123,5.018.791-.352-.149.769-8.1.819-8.791.047-.633,1.19-9.84,1.267-9.819a198.729,198.729,0,0,1-28.775-10.18C4165.261-1798.783,4165.55-1792.378,4165.063-1785.923Z" transform="translate(-3946.548 1812.742)" fill="#f20090"/>
        <path id="Trazado_125318" data-name="Trazado 125318" d="M4177.392-1758.355a10.07,10.07,0,0,1,2.921,1.184c1.182.5,2.371.987,3.57,1.445,1.4.535,2.812,1.035,4.242,1.484.958.3,2.47,1.1,3.475,1a1.277,1.277,0,0,1-.845-1.023c-.1-.47-.047-.959-.125-1.432a2.722,2.722,0,0,0-1.423-1.948,2.718,2.718,0,0,0-2.413-.008c-.662.332-1.448.938-2.024.475a1.31,1.31,0,0,1-.362-1.019,12.136,12.136,0,0,0-.065-2.146,1.862,1.862,0,0,0-1.322-1.535,2.149,2.149,0,0,0-1.993,1.189,7.451,7.451,0,0,1-1.406,2.006A2.311,2.311,0,0,1,4177.392-1758.355Z" transform="translate(-3953.563 1788.156)" fill="#08aaf3"/>
        <path id="Trazado_125319" data-name="Trazado 125319" d="M4182.889-1791.641a3.429,3.429,0,0,0,.75-2.374c-.023-.341-.047-.765.25-.936a.767.767,0,0,1,.535-.031,4.793,4.793,0,0,1,1.674.564c.635.43.991,1.209,1.612,1.663a5.174,5.174,0,0,0,2.662.833,3.94,3.94,0,0,0,2.006-.24,1.7,1.7,0,0,0,1.044-1.608,2.307,2.307,0,0,0-1.416-1.605,32.449,32.449,0,0,0-5.77-2.391c-.91-.268-1.81-.408-2.716-.733a18.874,18.874,0,0,1-2.3-.841,17.666,17.666,0,0,1-2.532-1.019,6.587,6.587,0,0,1,2.239,5.884c-.145.99-.519,1.94-.6,2.937a.813.813,0,0,0,.255.787.743.743,0,0,0,.424.077A2.558,2.558,0,0,0,4182.889-1791.641Z" transform="translate(-3954.3 1809.98)" fill="#fff102"/>
        <path id="Trazado_125320" data-name="Trazado 125320" d="M4181.74-1786.464c-.843-1.776.284-3.775-.583-5.523a3.413,3.413,0,0,0-2.65-1.738c-2.262-.284-3.846,1.052-5.16,2.728a3.613,3.613,0,0,1-.851.893,1.02,1.02,0,0,1-1.16.016,1.306,1.306,0,0,1-.345-1.063,24.793,24.793,0,0,1,.682-3.636,14.956,14.956,0,0,0,.159-3.243,8.745,8.745,0,0,0-1.063-3.933c-1.039-1.792-2.809-2.465-4.608-3.261.158.07-.327,4.16-.349,4.592-.077,1.528-.122,3.057-.159,4.586-.038,1.571-.066,3.141-.113,4.711-.022.745-.056,1.491-.057,2.234a13.852,13.852,0,0,0-.058,1.733,2.483,2.483,0,0,0,.377,1.005,5.461,5.461,0,0,0,2.908,2.07,4.053,4.053,0,0,0,3.379-.461c1.4-.957,2.032-2.886,3.607-3.515a1.589,1.589,0,0,1,1.209-.047,1.669,1.669,0,0,1,.859,1.305c.089.536.034,1.086.089,1.627a5.6,5.6,0,0,0,3.567,4.257,8.74,8.74,0,0,0,8.567-1.043,4.86,4.86,0,0,0,2.08-3.272,1.425,1.425,0,0,0-.735-1.538c-.56-.187-1.127.215-1.6.572a8.258,8.258,0,0,1-4.132,1.871A3.88,3.88,0,0,1,4181.74-1786.464Z" transform="translate(-3946.759 1812.742)" fill="#222020" opacity="0.44" style="mix-blend-mode: multiply;isolation: isolate"/>
        <path id="Trazado_125321" data-name="Trazado 125321" d="M4004.129-1801.3c.059-1.961-23.85,2.1-25.832,2.352-4.295.552-7.964-.887-12.137-1.663q-4.171-.775-8.365-1.387a151.583,151.583,0,0,0-.16-19.05c-.055-.774,10.986,1.64,11.9,1.909,3.668,1.081,7.135.469,10.685-.853a35.459,35.459,0,0,1,21.482-.772,2.066,2.066,0,0,1,1.04.5,2.476,2.476,0,0,1,.487,1.392A108.393,108.393,0,0,1,4004.129-1801.3Z" transform="translate(-3828.857 1822.295)" fill="#fff102"/>
        <path id="Trazado_125322" data-name="Trazado 125322" d="M4030.57-1811.03q-.311.169-.644.32a7.269,7.269,0,0,1-4.7.689,3.8,3.8,0,0,1-2.981-3.368c0-.353.024-.777-.265-.981a.871.871,0,0,0-.723-.041c-2.148.575-4.056,2.725-6.173,2.047a3.29,3.29,0,0,1-1.977-3.558,6.5,6.5,0,0,1,2.181-3.74c4.635-4.394,12.21-2.953,17.876-1.489a2.067,2.067,0,0,1,1.04.5,2.478,2.478,0,0,1,.487,1.392A7.688,7.688,0,0,1,4030.57-1811.03Z" transform="translate(-3860.322 1822.604)" fill="#f20090"/>
        <path id="Trazado_125323" data-name="Trazado 125323" d="M3987.563-1806.338a3.718,3.718,0,0,1-.721,2.046,13.682,13.682,0,0,1-3.618,4.072c-2.478,1.728-6.773,1.927-8-1.551a11.566,11.566,0,0,1-.283-2.677,2.366,2.366,0,0,0-1.377-2.141,2.081,2.081,0,0,0-2.091.83,11.2,11.2,0,0,0-1.14,2.089,6.468,6.468,0,0,1-3.276,3.165,4.191,4.191,0,0,1-4.351-.721c-.651-.629-1.216-1.589-2.12-1.544-.923.045-2.552,1.506-3.046,2.2a120.3,120.3,0,0,0,.044-19.557c-.055-.775,3.31.521,3.644.723,2.592,1.566,4.876,4.748,4.417,7.889-.133.913-1.652,5.341.406,5.049a2.753,2.753,0,0,0,1.5-1.029c2.569-2.783,5.387-5.561,8.984-6.744a3.63,3.63,0,0,1,2.731-.051c1.346.678,1.566,2.552,1.153,4s-1.268,2.776-1.442,4.273c-.126,1.08.247,2.942,1.708,2.76a2.743,2.743,0,0,0,1.867-1.507,14.427,14.427,0,0,1,1.228-2.159,2.675,2.675,0,0,1,1.9-1.012,1.844,1.844,0,0,1,1.775,1.086A1.636,1.636,0,0,1,3987.563-1806.338Z" transform="translate(-3828.801 1821.335)" fill="#222020" opacity="0.44" style="mix-blend-mode: multiply;isolation: isolate"/>
        <path id="Trazado_125324" data-name="Trazado 125324" d="M3863.493-1819.691q-.392.05-.783.1c.086,3.623.142,7.248.14,10.873,0,.952.531,8.53-.4,8.849a44.21,44.21,0,0,1,16.4-2.4,1.348,1.348,0,0,1,1.229.535q-.251-9.48-.5-18.96C3874.179-1821.293,3868.84-1820.377,3863.493-1819.691Z" transform="translate(-3774.845 1821.63)" fill="#f20090"/>
        <path id="Trazado_125325" data-name="Trazado 125325" d="M3863.526-1818c-1.054.263-.792.979-.766,2.26q.086,4.3.09,8.6c0,.952.53,8.53-.4,8.849,2.093-.725,3.816-.661,5.249-2.706a27.366,27.366,0,0,0,2.242-4.786,7.529,7.529,0,0,1,3.324-3.977,1.165,1.165,0,0,1,1.028-.094,1.069,1.069,0,0,1,.456.892,12.317,12.317,0,0,1-.284,2.237,2.034,2.034,0,0,0,.729,2.009,1.863,1.863,0,0,0,1.195.184c1.45-.186,3.433-1.832,3.456-3.33a26.6,26.6,0,0,0-.424-5.94c-.367-1.726-.98-2.634-2.98-2.445a5.957,5.957,0,0,0-2.7,1.051c-2.409,1.6-3.938,4.2-5.393,6.7a2.839,2.839,0,0,1-.754.95.971.971,0,0,1-1.138.041,1.243,1.243,0,0,1-.362-.8c-.411-2.673,2.917-6.753.908-8.98a3.433,3.433,0,0,0-3-.8A3.561,3.561,0,0,0,3863.526-1818Z" transform="translate(-3774.845 1820.059)" fill="#222020" opacity="0.44" style="mix-blend-mode: multiply;isolation: isolate"/>
        <path id="Trazado_125326" data-name="Trazado 125326" d="M3823.657-1820.231c.019,6.833.183,13.657.042,20.492a71.189,71.189,0,0,0-13.568-1.572.647.647,0,0,1-.518-.168.775.775,0,0,1-.118-.464q-.28-7.054-.352-14.114c-.013-1.25.118-3.106-.461-4.23a56.452,56.452,0,0,1,14.973-.272C3823.657-1820.45,3823.657-1820.341,3823.657-1820.231Z" transform="translate(-3744.332 1821.655)" fill="#f20090"/>
        <path id="Trazado_125327" data-name="Trazado 125327" d="M3822.4-1813.635a.416.416,0,0,1,.158.056.641.641,0,0,1,.243.378c.46,1.485-.591,3.01-1.752,4.045a6.088,6.088,0,0,1-3.55,1.748,2.922,2.922,0,0,1-3.073-2.056,6.3,6.3,0,0,1,.029-1.7,2.416,2.416,0,0,0-.338-1.637,1.049,1.049,0,0,0-1.489-.245,1.563,1.563,0,0,0-.3.478c-.348.752-1.6,4.789-2.855,3.439-.5-.537-.268-2.125-.28-2.767q-.033-1.871-.053-3.743c-.013-1.25.118-3.106-.461-4.23,1.992-.3,4.92-.865,6.4.952a5.424,5.424,0,0,1,1.018,3.395,11.115,11.115,0,0,0,.1,2.187,2.234,2.234,0,0,0,1.261,1.682,2.691,2.691,0,0,0,2.407-.6,7.137,7.137,0,0,1,2.188-1.346A.886.886,0,0,1,3822.4-1813.635Z" transform="translate(-3744.332 1821.238)" fill="#222020" opacity="0.44" style="mix-blend-mode: multiply;isolation: isolate"/>
        <path id="Trazado_125328" data-name="Trazado 125328" d="M3689.5-1813.1a11.157,11.157,0,0,1-5.355,10.247,9.63,9.63,0,0,1-9.787.37c-3.048-1.832-2.7-5.036-2.4-8.213a2.735,2.735,0,0,0-.323-1.984,1.717,1.717,0,0,0-1.9-.434,3.23,3.23,0,0,0-1.533,1.347,5.939,5.939,0,0,0,.054,6.353c2.632,4.888-4.932,3.668-7.693,4.188-.308-3.52-.563-7.059-.647-10.592-.069-2.915.411-5.857.455-8.814,0-.247.057-.561.3-.617a.533.533,0,0,1,.425.154c1.4,1.106,1.911,5.045,3.555,5.539.98.294,1.773-1.461,2.619-2.152a6.831,6.831,0,0,1,3.568-1.585c2.4-.253,5.023,1.385,5.308,3.777a14.781,14.781,0,0,1-.49,3.735,8.142,8.142,0,0,0,.529,4.186c1.16,2.83,5.8,1.747,7.1-.509a9.513,9.513,0,0,0,.885-3.641,6.045,6.045,0,0,1,1.286-3.48,2.37,2.37,0,0,1,3.344-.249,3.013,3.013,0,0,1,.61,1.576C3689.446-1813.629,3689.476-1813.363,3689.5-1813.1Z" transform="translate(-3659.903 1821.838)" fill="#222020"/>
        <path id="Trazado_125329" data-name="Trazado 125329" d="M3734.27-1800.972c4.4-.738,11.948-2.268,12.013-1.381q-.481-9.473-.961-18.947c0,.078-5.569.287-6.021.29a24.606,24.606,0,0,0-6.931,1.037.962.962,0,0,0-.573.339.984.984,0,0,0-.1.512q-.152,9.5-.3,18.994C3732.141-1800.828,3733.311-1800.812,3734.27-1800.972Z" transform="translate(-3700.47 1821.864)" fill="#222020"/>
      </g>
    </g>
    <g id="Grupo_56351" data-name="Grupo 56351" transform="translate(3315.663 -1877.389)">
      <g id="Grupo_56341" data-name="Grupo 56341" transform="translate(0 0.062)">
        <ellipse id="Elipse_4239" data-name="Elipse 4239" cx="14.06" cy="15.221" rx="14.06" ry="15.221" transform="translate(0.266)" fill="#afaff2"/>
        <g id="Grupo_56339" data-name="Grupo 56339" transform="translate(0 3.687)">
          <path id="Trazado_125330" data-name="Trazado 125330" d="M3603.45-1841.719v14.291c0,20.486,28.651,20,28.651,0l-.108-14.355c-.08-10.574-9.777-18.244-18.939-14.58a16.475,16.475,0,0,0-3.473,1.916A15.605,15.605,0,0,0,3603.45-1841.719Z" transform="translate(-3603.449 1857.291)" fill="#3e3e4f"/>
          <path id="Trazado_125331" data-name="Trazado 125331" d="M3603.45-1841.682v14.291c0,5.158,2.057,10.049,6.182,12.809a14.205,14.205,0,0,0,6.065,2.247c.756.1,2.312.476,2.946-.026.932-.738.638-3.151.538-4.178-.775-7.943-2.2-15.829-2.333-23.815-.053-3.285.143-6.7,1.561-9.6,1.3-2.656,4.372-5.289,7.324-4.634-.692-.154-1.69-1.273-2.455-1.586a14.152,14.152,0,0,0-3.394-.908,13.446,13.446,0,0,0-6.831.759,16.469,16.469,0,0,0-3.473,1.916A15.605,15.605,0,0,0,3603.45-1841.682Z" transform="translate(-3603.449 1857.254)" fill="#222020" opacity="0.4" style="mix-blend-mode: multiply;isolation: isolate"/>
          <path id="Trazado_125332" data-name="Trazado 125332" d="M3607.946-1811.711c-4.8,3.925-5.8,10.344-2.8,15.905a14.317,14.317,0,0,0,12.541,7.55,14.314,14.314,0,0,0,12.869-8.144c2.08-4.347,1.937-10.012-1.223-13.725a13.3,13.3,0,0,0-5-3.54c-5.229-2.215-11.737-1.783-16.293,1.877Z" transform="translate(-3603.448 1833.301)" fill="#222020"/>
        </g>
        <g id="Grupo_56340" data-name="Grupo 56340" transform="translate(0.266 24.046)">
          <ellipse id="Elipse_4240" data-name="Elipse 4240" cx="14.06" cy="14.283" rx="14.06" ry="14.283" fill="#afaff2"/>
          <ellipse id="Elipse_4241" data-name="Elipse 4241" cx="12.228" cy="12.422" rx="12.228" ry="12.422" transform="translate(1.832 3.722)" fill="#cbcbf7"/>
        </g>
      </g>
      <g id="Grupo_56344" data-name="Grupo 56344" transform="translate(62.473 0.129)">
        <ellipse id="Elipse_4242" data-name="Elipse 4242" cx="14.06" cy="15.221" rx="14.06" ry="15.221" transform="translate(0.266)" fill="#afaff2"/>
        <g id="Grupo_56342" data-name="Grupo 56342" transform="translate(0 3.687)">
          <path id="Trazado_125333" data-name="Trazado 125333" d="M3747.887-1841.566v14.291c0,20.486,28.651,20,28.651,0l-.108-14.356c-.08-10.573-9.777-18.243-18.939-14.58a16.476,16.476,0,0,0-3.473,1.916A15.6,15.6,0,0,0,3747.887-1841.566Z" transform="translate(-3747.886 1857.138)" fill="#ed62c2"/>
          <path id="Trazado_125334" data-name="Trazado 125334" d="M3747.887-1841.529v14.291c0,5.158,2.057,10.049,6.181,12.809a14.208,14.208,0,0,0,6.065,2.247c.755.1,2.312.476,2.947-.026.931-.738.638-3.151.538-4.178-.775-7.942-2.2-15.829-2.333-23.814-.054-3.285.143-6.7,1.561-9.6,1.3-2.656,4.372-5.289,7.324-4.634-.691-.154-1.69-1.273-2.455-1.586a14.13,14.13,0,0,0-3.394-.908,13.447,13.447,0,0,0-6.83.759,16.5,16.5,0,0,0-3.473,1.916A15.6,15.6,0,0,0,3747.887-1841.529Z" transform="translate(-3747.886 1857.101)" fill="#f20090" opacity="0.32"/>
          <path id="Trazado_125335" data-name="Trazado 125335" d="M3752.383-1811.558c-4.8,3.925-5.8,10.344-2.8,15.905a14.316,14.316,0,0,0,12.54,7.55,14.314,14.314,0,0,0,12.869-8.144c2.081-4.347,1.937-10.012-1.222-13.725a13.306,13.306,0,0,0-5-3.54c-5.229-2.215-11.737-1.783-16.294,1.877Z" transform="translate(-3747.885 1833.148)" fill="#f20090"/>
        </g>
        <g id="Grupo_56343" data-name="Grupo 56343" transform="translate(0.266 24.046)">
          <ellipse id="Elipse_4243" data-name="Elipse 4243" cx="14.06" cy="14.283" rx="14.06" ry="14.283" fill="#afaff2"/>
          <ellipse id="Elipse_4244" data-name="Elipse 4244" cx="12.228" cy="12.422" rx="12.228" ry="12.422" transform="translate(1.832 3.722)" fill="#cbcbf7"/>
        </g>
      </g>
      <g id="Grupo_56347" data-name="Grupo 56347" transform="translate(123.974 0)">
        <ellipse id="Elipse_4245" data-name="Elipse 4245" cx="14.06" cy="15.221" rx="14.06" ry="15.221" transform="translate(0.266)" fill="#afaff2"/>
        <g id="Grupo_56345" data-name="Grupo 56345" transform="translate(0 3.687)">
          <path id="Trazado_125336" data-name="Trazado 125336" d="M3890.076-1841.863v14.291c0,20.486,28.651,20,28.651,0l-.109-14.355c-.079-10.574-9.777-18.244-18.939-14.58a16.481,16.481,0,0,0-3.472,1.916A15.6,15.6,0,0,0,3890.076-1841.863Z" transform="translate(-3890.075 1857.435)" fill="#fff46c"/>
          <path id="Trazado_125337" data-name="Trazado 125337" d="M3890.076-1841.826v14.291c0,5.158,2.057,10.049,6.181,12.809a14.208,14.208,0,0,0,6.065,2.247c.756.1,2.312.476,2.947-.026.931-.737.638-3.15.538-4.178-.775-7.943-2.2-15.829-2.333-23.815-.053-3.286.144-6.7,1.562-9.6,1.3-2.656,4.372-5.289,7.323-4.634-.692-.154-1.69-1.274-2.455-1.586a14.13,14.13,0,0,0-3.395-.909,13.444,13.444,0,0,0-6.831.759,16.468,16.468,0,0,0-3.472,1.916A15.6,15.6,0,0,0,3890.076-1841.826Z" transform="translate(-3890.075 1857.398)" fill="#fff102" style="mix-blend-mode: multiply;isolation: isolate"/>
          <path id="Trazado_125338" data-name="Trazado 125338" d="M3894.572-1811.855c-4.8,3.925-5.8,10.344-2.8,15.905a14.315,14.315,0,0,0,12.541,7.55,14.313,14.313,0,0,0,12.869-8.144c2.081-4.347,1.937-10.012-1.222-13.725a13.306,13.306,0,0,0-5-3.54c-5.229-2.215-11.737-1.783-16.293,1.877Z" transform="translate(-3890.073 1833.445)" fill="#222020" opacity="0.13" style="mix-blend-mode: multiply;isolation: isolate"/>
        </g>
        <g id="Grupo_56346" data-name="Grupo 56346" transform="translate(0.266 24.046)">
          <ellipse id="Elipse_4246" data-name="Elipse 4246" cx="14.06" cy="14.283" rx="14.06" ry="14.283" fill="#afaff2"/>
          <ellipse id="Elipse_4247" data-name="Elipse 4247" cx="12.228" cy="12.422" rx="12.228" ry="12.422" transform="translate(1.832 3.722)" fill="#cbcbf7"/>
        </g>
      </g>
      <g id="Grupo_56350" data-name="Grupo 56350" transform="translate(186.327 0.392)">
        <ellipse id="Elipse_4248" data-name="Elipse 4248" cx="14.06" cy="15.221" rx="14.06" ry="15.221" transform="translate(0.266)" fill="#afaff2"/>
        <g id="Grupo_56348" data-name="Grupo 56348" transform="translate(0 3.687)">
          <path id="Trazado_125339" data-name="Trazado 125339" d="M4034.235-1840.958v14.291c0,20.487,28.651,20,28.651,0l-.108-14.355c-.08-10.574-9.777-18.244-18.94-14.58a16.475,16.475,0,0,0-3.473,1.916A15.6,15.6,0,0,0,4034.235-1840.958Z" transform="translate(-4034.234 1856.53)" fill="#57d4ff"/>
          <path id="Trazado_125340" data-name="Trazado 125340" d="M4034.235-1840.921v14.291c0,5.158,2.057,10.049,6.182,12.809a14.2,14.2,0,0,0,6.065,2.246c.755.1,2.312.476,2.946-.026.932-.737.638-3.15.538-4.178-.774-7.943-2.2-15.829-2.332-23.815-.054-3.285.143-6.7,1.562-9.6,1.3-2.656,4.371-5.289,7.323-4.634-.691-.154-1.69-1.273-2.455-1.586a14.146,14.146,0,0,0-3.394-.909,13.438,13.438,0,0,0-6.831.759,16.47,16.47,0,0,0-3.473,1.916A15.6,15.6,0,0,0,4034.235-1840.921Z" transform="translate(-4034.234 1856.493)" fill="#08aaf3" opacity="0.4" style="mix-blend-mode: multiply;isolation: isolate"/>
          <path id="Trazado_125341" data-name="Trazado 125341" d="M4038.731-1810.95c-4.8,3.925-5.8,10.344-2.8,15.905a14.314,14.314,0,0,0,12.54,7.55,14.312,14.312,0,0,0,12.869-8.144c2.081-4.347,1.936-10.012-1.222-13.725a13.3,13.3,0,0,0-5-3.539c-5.229-2.216-11.737-1.783-16.293,1.876Z" transform="translate(-4034.233 1832.539)" fill="#08aaf3"/>
        </g>
        <g id="Grupo_56349" data-name="Grupo 56349" transform="translate(0.266 24.046)">
          <ellipse id="Elipse_4249" data-name="Elipse 4249" cx="14.06" cy="14.283" rx="14.06" ry="14.283" fill="#afaff2"/>
          <ellipse id="Elipse_4250" data-name="Elipse 4250" cx="12.228" cy="12.422" rx="12.228" ry="12.422" transform="translate(1.832 3.722)" fill="#cbcbf7"/>
        </g>
      </g>
    </g>
    <g id="Grupo_56358" data-name="Grupo 56358" transform="translate(3309.043 -1865.95)">
      <g id="Grupo_56352" data-name="Grupo 56352" transform="translate(2.198 0)">
        <line id="Línea_161" data-name="Línea 161" y2="31.342" fill="none" stroke="#afccef" stroke-linecap="round" stroke-miterlimit="10" stroke-width="4"/>
        <line id="Línea_162" data-name="Línea 162" y2="31.342" transform="translate(63.133 3.473)" fill="none" stroke="#afccef" stroke-linecap="round" stroke-miterlimit="10" stroke-width="4"/>
        <line id="Línea_163" data-name="Línea 163" y2="31.342" transform="translate(105.154 3.736)" fill="none" stroke="#afccef" stroke-linecap="round" stroke-miterlimit="10" stroke-width="4"/>
        <line id="Línea_164" data-name="Línea 164" y2="31.342" transform="translate(124.657 3.535)" fill="none" stroke="#afccef" stroke-linecap="round" stroke-miterlimit="10" stroke-width="4"/>
        <line id="Línea_165" data-name="Línea 165" y2="31.342" transform="translate(166.679 4.732)" fill="none" stroke="#afccef" stroke-linecap="round" stroke-miterlimit="10" stroke-width="4"/>
      </g>
      <g id="Grupo_56356" data-name="Grupo 56356" transform="translate(48.309 4.216)">
        <g id="Grupo_56353" data-name="Grupo 56353">
          <line id="Línea_166" data-name="Línea 166" y2="34.526" transform="translate(3.952)" fill="none" stroke="#afccef" stroke-linecap="round" stroke-miterlimit="10" stroke-width="8"/>
          <ellipse id="Elipse_4251" data-name="Elipse 4251" cx="3.952" cy="4.279" rx="3.952" ry="4.279" transform="translate(0 29.959)" fill="#d7ebff"/>
        </g>
        <g id="Grupo_56354" data-name="Grupo 56354" transform="translate(62.349 0.137)">
          <line id="Línea_167" data-name="Línea 167" y2="35.552" transform="translate(3.932)" fill="none" stroke="#afccef" stroke-linecap="round" stroke-miterlimit="10" stroke-width="8"/>
          <ellipse id="Elipse_4252" data-name="Elipse 4252" cx="3.952" cy="4.279" rx="3.952" ry="4.279" transform="translate(0 30.576)" fill="#d7ebff"/>
        </g>
        <g id="Grupo_56355" data-name="Grupo 56355" transform="translate(124.715 4.347)">
          <line id="Línea_168" data-name="Línea 168" y2="33.003" transform="translate(3.894)" fill="none" stroke="#afccef" stroke-linecap="round" stroke-miterlimit="10" stroke-width="8"/>
          <ellipse id="Elipse_4253" data-name="Elipse 4253" cx="3.952" cy="4.279" rx="3.952" ry="4.279" transform="translate(0 28.206)" fill="#d7ebff"/>
        </g>
      </g>
      <g id="Grupo_56357" data-name="Grupo 56357" transform="translate(0 28.963)">
        <path id="Trazado_125342" data-name="Trazado 125342" d="M3738.5-1762.143a2.294,2.294,0,0,1-2.2,2.379,2.294,2.294,0,0,1-2.2-2.379,2.294,2.294,0,0,1,2.2-2.379A2.294,2.294,0,0,1,3738.5-1762.143Z" transform="translate(-3670.971 1767.996)" fill="#d7ebff"/>
        <path id="Trazado_125343" data-name="Trazado 125343" d="M3592.538-1770.173a2.294,2.294,0,0,1-2.2,2.379,2.294,2.294,0,0,1-2.2-2.379,2.294,2.294,0,0,1,2.2-2.379A2.294,2.294,0,0,1,3592.538-1770.173Z" transform="translate(-3588.142 1772.553)" fill="#d7ebff"/>
        <path id="Trazado_125344" data-name="Trazado 125344" d="M3835.653-1761.536a2.294,2.294,0,0,1-2.2,2.379,2.294,2.294,0,0,1-2.2-2.379,2.294,2.294,0,0,1,2.2-2.379A2.294,2.294,0,0,1,3835.653-1761.536Z" transform="translate(-3726.103 1767.651)" fill="#d7ebff"/>
        <path id="Trazado_125345" data-name="Trazado 125345" d="M3880.743-1762a2.294,2.294,0,0,1-2.2,2.379,2.294,2.294,0,0,1-2.2-2.379,2.294,2.294,0,0,1,2.2-2.379A2.294,2.294,0,0,1,3880.743-1762Z" transform="translate(-3751.69 1767.914)" fill="#d7ebff"/>
        <path id="Trazado_125346" data-name="Trazado 125346" d="M3977.9-1759.233a2.294,2.294,0,0,1-2.2,2.379,2.294,2.294,0,0,1-2.2-2.379,2.294,2.294,0,0,1,2.2-2.379A2.294,2.294,0,0,1,3977.9-1759.233Z" transform="translate(-3806.822 1766.344)" fill="#d7ebff"/>
      </g>
    </g>
    <g id="Grupo_56359" data-name="Grupo 56359" transform="translate(3109.176 -1812.843)">
      <path id="Trazado_125347" data-name="Trazado 125347" d="M3126.052-1602.9l6.836-25.03c30.36,6.748,63.057-9.456,64.889-70.038.2-10.665,5.583-18.764,13.826-18.764h428.359v44.836h81.228v7.4h-37.4v61.6Z" transform="translate(-3126.052 1716.731)" fill="#4f4f8e"/>
      <path id="Trazado_125348" data-name="Trazado 125348" d="M3126.052-1513.305l1.709-20.133,5.127-25.411v20.514Z" transform="translate(-3126.052 1627.138)" fill="#7a7add"/>
    </g>
    <g id="Grupo_56380" data-name="Grupo 56380" transform="translate(3304.204 -1848.048)">
      <g id="Grupo_56364" data-name="Grupo 56364" transform="translate(0 0.49)">
        <path id="Trazado_125349" data-name="Trazado 125349" d="M3576.954-1650.839h50.265v-113.615c-9.048-5.876-8.243-32.539-25.133-32.539-16.286,0-16.688,27.1-25.132,32.539Z" transform="translate(-3576.954 1796.993)" fill="#7a7add"/>
        <g id="Grupo_56360" data-name="Grupo 56360" transform="translate(12.591 1.333)">
          <ellipse id="Elipse_4254" data-name="Elipse 4254" cx="12.541" cy="13.576" rx="12.541" ry="13.576" fill="#afaff2"/>
          <ellipse id="Elipse_4255" data-name="Elipse 4255" cx="10.279" cy="11.127" rx="10.279" ry="11.127" transform="translate(2.262 2.449)" fill="#7a7add"/>
          <path id="Trazado_125350" data-name="Trazado 125350" d="M3634.025-1767.235a3.463,3.463,0,0,1-3.317,3.591,3.463,3.463,0,0,1-3.318-3.591,3.463,3.463,0,0,1,3.318-3.591A3.463,3.463,0,0,1,3634.025-1767.235Z" transform="translate(-3618.166 1780.811)" fill="#afaff2"/>
        </g>
        <g id="Grupo_56362" data-name="Grupo 56362" transform="translate(12.667 63.634)">
          <path id="Trazado_125351" data-name="Trazado 125351" d="M3606.239-1567.353v-75.2l12.969-7.321,12.968,6.668v75.852Z" transform="translate(-3606.239 1649.873)" fill="#4f4f8e" opacity="0.32"/>
          <g id="Grupo_56361" data-name="Grupo 56361" transform="translate(6.484 32.678)">
            <line id="Línea_169" data-name="Línea 169" x2="12.818" fill="none" stroke="#afaff2" stroke-linecap="round" stroke-miterlimit="10" stroke-width="3"/>
            <line id="Línea_170" data-name="Línea 170" x2="12.818" transform="translate(0.201 7.183)" fill="none" stroke="#afaff2" stroke-linecap="round" stroke-miterlimit="10" stroke-width="3"/>
            <line id="Línea_171" data-name="Línea 171" x2="12.818" transform="translate(0.302 14.637)" fill="none" stroke="#afaff2" stroke-linecap="round" stroke-miterlimit="10" stroke-width="3"/>
          </g>
          <path id="Trazado_125352" data-name="Trazado 125352" d="M3606.239-1567.353v-75.2l12.969-7.321,12.968,6.668v3.7l-12.968-5.55-5.542,3.318.414,74.384Z" transform="translate(-3606.239 1649.873)" fill="#3e3e4f" opacity="0.19" style="mix-blend-mode: multiply;isolation: isolate"/>
          <path id="Trazado_125353" data-name="Trazado 125353" d="M3619.208-1649.873v82.52h-12.969v-75.2Z" transform="translate(-3606.239 1649.873)" fill="#3e3e4f" opacity="0.32" style="mix-blend-mode: multiply;isolation: isolate"/>
        </g>
        <g id="Grupo_56363" data-name="Grupo 56363" transform="translate(2.815 27.779)">
          <line id="Línea_172" data-name="Línea 172" y2="112.744" transform="translate(0 5.631)" fill="none" stroke="#afaff2" stroke-linecap="round" stroke-miterlimit="10" stroke-width="1"/>
          <line id="Línea_173" data-name="Línea 173" y2="112.744" transform="translate(44.434 5.413)" fill="none" stroke="#afaff2" stroke-linecap="round" stroke-miterlimit="10" stroke-width="1"/>
          <path id="Trazado_125354" data-name="Trazado 125354" d="M3596.013-1614.393v-107.52l5.96-9.108a3.378,3.378,0,0,1,4.773-.975,12.465,12.465,0,0,0,13.02-.214,3.242,3.242,0,0,1,4.559.965l6.069,9.114v107.738" transform="translate(-3590.584 1732.768)" fill="none" stroke="#afaff2" stroke-linecap="round" stroke-miterlimit="10" stroke-width="1"/>
        </g>
      </g>
      <g id="Grupo_56369" data-name="Grupo 56369" transform="translate(62.831 0.218)">
        <path id="Trazado_125355" data-name="Trazado 125355" d="M3722.219-1651.468h50.265v-113.615c-9.048-5.877-8.244-32.539-25.133-32.539-16.286,0-16.688,27.1-25.133,32.539Z" transform="translate(-3722.219 1797.622)" fill="#7a7add"/>
        <g id="Grupo_56365" data-name="Grupo 56365" transform="translate(12.591 1.333)">
          <ellipse id="Elipse_4256" data-name="Elipse 4256" cx="12.541" cy="13.576" rx="12.541" ry="13.576" fill="#afaff2"/>
          <ellipse id="Elipse_4257" data-name="Elipse 4257" cx="10.279" cy="11.127" rx="10.279" ry="11.127" transform="translate(2.262 2.449)" fill="#7a7add"/>
          <path id="Trazado_125356" data-name="Trazado 125356" d="M3779.29-1767.864a3.463,3.463,0,0,1-3.318,3.591,3.463,3.463,0,0,1-3.317-3.591,3.463,3.463,0,0,1,3.317-3.591A3.463,3.463,0,0,1,3779.29-1767.864Z" transform="translate(-3763.431 1781.44)" fill="#afaff2"/>
        </g>
        <g id="Grupo_56367" data-name="Grupo 56367" transform="translate(12.667 63.634)">
          <path id="Trazado_125357" data-name="Trazado 125357" d="M3751.5-1567.982v-75.2l12.969-7.321,12.968,6.668v75.852Z" transform="translate(-3751.504 1650.502)" fill="#4f4f8e" opacity="0.32"/>
          <g id="Grupo_56366" data-name="Grupo 56366" transform="translate(6.484 32.678)">
            <line id="Línea_174" data-name="Línea 174" x2="12.818" fill="none" stroke="#afaff2" stroke-linecap="round" stroke-miterlimit="10" stroke-width="3"/>
            <line id="Línea_175" data-name="Línea 175" x2="12.818" transform="translate(0.201 7.182)" fill="none" stroke="#afaff2" stroke-linecap="round" stroke-miterlimit="10" stroke-width="3"/>
            <line id="Línea_176" data-name="Línea 176" x2="12.818" transform="translate(0.301 14.637)" fill="none" stroke="#afaff2" stroke-linecap="round" stroke-miterlimit="10" stroke-width="3"/>
          </g>
          <path id="Trazado_125358" data-name="Trazado 125358" d="M3751.5-1567.982v-75.2l12.969-7.321,12.968,6.668v3.7l-12.968-5.55-5.542,3.318.415,74.384Z" transform="translate(-3751.504 1650.502)" fill="#3e3e4f" opacity="0.19" style="mix-blend-mode: multiply;isolation: isolate"/>
          <path id="Trazado_125359" data-name="Trazado 125359" d="M3764.472-1650.5v82.52H3751.5v-75.2Z" transform="translate(-3751.504 1650.502)" fill="#3e3e4f" opacity="0.32" style="mix-blend-mode: multiply;isolation: isolate"/>
        </g>
        <g id="Grupo_56368" data-name="Grupo 56368" transform="translate(2.815 27.779)">
          <line id="Línea_177" data-name="Línea 177" y2="112.744" transform="translate(0 5.631)" fill="none" stroke="#afaff2" stroke-linecap="round" stroke-miterlimit="10" stroke-width="1"/>
          <line id="Línea_178" data-name="Línea 178" y2="112.744" transform="translate(44.434 5.413)" fill="none" stroke="#afaff2" stroke-linecap="round" stroke-miterlimit="10" stroke-width="1"/>
          <path id="Trazado_125360" data-name="Trazado 125360" d="M3741.278-1615.022v-107.52l5.96-9.108a3.378,3.378,0,0,1,4.773-.975,12.463,12.463,0,0,0,13.02-.214,3.242,3.242,0,0,1,4.559.966l6.069,9.114v107.738" transform="translate(-3735.849 1733.397)" fill="none" stroke="#afaff2" stroke-linecap="round" stroke-miterlimit="10" stroke-width="1"/>
        </g>
      </g>
      <g id="Grupo_56374" data-name="Grupo 56374" transform="translate(124.657 0)">
        <path id="Trazado_125361" data-name="Trazado 125361" d="M3865.159-1651.971h50.265v-113.614c-9.048-5.877-8.244-32.539-25.133-32.539-16.286,0-16.688,27.1-25.133,32.539Z" transform="translate(-3865.159 1798.125)" fill="#7a7add"/>
        <g id="Grupo_56370" data-name="Grupo 56370" transform="translate(12.591 1.333)">
          <ellipse id="Elipse_4258" data-name="Elipse 4258" cx="12.541" cy="13.576" rx="12.541" ry="13.576" fill="#afaff2"/>
          <ellipse id="Elipse_4259" data-name="Elipse 4259" cx="10.279" cy="11.127" rx="10.279" ry="11.127" transform="translate(2.262 2.449)" fill="#7a7add"/>
          <path id="Trazado_125362" data-name="Trazado 125362" d="M3922.23-1768.367a3.463,3.463,0,0,1-3.317,3.591,3.463,3.463,0,0,1-3.318-3.591,3.463,3.463,0,0,1,3.318-3.591A3.463,3.463,0,0,1,3922.23-1768.367Z" transform="translate(-3906.371 1781.943)" fill="#afaff2"/>
        </g>
        <g id="Grupo_56372" data-name="Grupo 56372" transform="translate(12.667 63.633)">
          <path id="Trazado_125363" data-name="Trazado 125363" d="M3894.445-1568.485v-75.2l12.968-7.321,12.968,6.668v75.852Z" transform="translate(-3894.445 1651.005)" fill="#4f4f8e" opacity="0.32"/>
          <g id="Grupo_56371" data-name="Grupo 56371" transform="translate(6.484 32.678)">
            <line id="Línea_179" data-name="Línea 179" x2="12.818" fill="none" stroke="#afaff2" stroke-linecap="round" stroke-miterlimit="10" stroke-width="3"/>
            <line id="Línea_180" data-name="Línea 180" x2="12.818" transform="translate(0.201 7.183)" fill="none" stroke="#afaff2" stroke-linecap="round" stroke-miterlimit="10" stroke-width="3"/>
            <line id="Línea_181" data-name="Línea 181" x2="12.818" transform="translate(0.301 14.637)" fill="none" stroke="#afaff2" stroke-linecap="round" stroke-miterlimit="10" stroke-width="3"/>
          </g>
          <path id="Trazado_125364" data-name="Trazado 125364" d="M3894.445-1568.485v-75.2l12.968-7.321,12.968,6.668v3.7l-12.968-5.55-5.542,3.318.415,74.384Z" transform="translate(-3894.445 1651.005)" fill="#3e3e4f" opacity="0.19" style="mix-blend-mode: multiply;isolation: isolate"/>
          <path id="Trazado_125365" data-name="Trazado 125365" d="M3907.413-1651.005v82.52h-12.968v-75.2Z" transform="translate(-3894.445 1651.005)" fill="#3e3e4f" opacity="0.32" style="mix-blend-mode: multiply;isolation: isolate"/>
        </g>
        <g id="Grupo_56373" data-name="Grupo 56373" transform="translate(2.815 27.779)">
          <line id="Línea_182" data-name="Línea 182" y2="112.744" transform="translate(0 5.631)" fill="none" stroke="#afaff2" stroke-linecap="round" stroke-miterlimit="10" stroke-width="1"/>
          <line id="Línea_183" data-name="Línea 183" y2="112.744" transform="translate(44.434 5.413)" fill="none" stroke="#afaff2" stroke-linecap="round" stroke-miterlimit="10" stroke-width="1"/>
          <path id="Trazado_125366" data-name="Trazado 125366" d="M3884.218-1615.525v-107.52l5.96-9.108a3.378,3.378,0,0,1,4.773-.975,12.465,12.465,0,0,0,13.02-.214,3.242,3.242,0,0,1,4.559.966l6.069,9.114v107.738" transform="translate(-3878.789 1733.9)" fill="none" stroke="#afaff2" stroke-linecap="round" stroke-miterlimit="10" stroke-width="1"/>
        </g>
      </g>
      <g id="Grupo_56379" data-name="Grupo 56379" transform="translate(186.835 0.436)">
        <path id="Trazado_125367" data-name="Trazado 125367" d="M4008.913-1650.965h50.265v-113.615c-9.048-5.876-8.244-32.539-25.133-32.539-16.286,0-16.688,27.1-25.132,32.539Z" transform="translate(-4008.913 1797.118)" fill="#7a7add"/>
        <g id="Grupo_56375" data-name="Grupo 56375" transform="translate(12.591 1.333)">
          <ellipse id="Elipse_4260" data-name="Elipse 4260" cx="12.541" cy="13.576" rx="12.541" ry="13.576" fill="#afaff2"/>
          <ellipse id="Elipse_4261" data-name="Elipse 4261" cx="10.279" cy="11.127" rx="10.279" ry="11.127" transform="translate(2.262 2.449)" fill="#7a7add"/>
          <path id="Trazado_125368" data-name="Trazado 125368" d="M4065.984-1767.361a3.463,3.463,0,0,1-3.317,3.591,3.463,3.463,0,0,1-3.317-3.591,3.463,3.463,0,0,1,3.317-3.591A3.463,3.463,0,0,1,4065.984-1767.361Z" transform="translate(-4050.125 1780.937)" fill="#afaff2"/>
        </g>
        <g id="Grupo_56377" data-name="Grupo 56377" transform="translate(12.667 63.633)">
          <path id="Trazado_125369" data-name="Trazado 125369" d="M4038.2-1567.479v-75.2l12.968-7.321,12.969,6.668v75.852Z" transform="translate(-4038.199 1649.999)" fill="#4f4f8e" opacity="0.32"/>
          <g id="Grupo_56376" data-name="Grupo 56376" transform="translate(6.484 32.678)">
            <line id="Línea_184" data-name="Línea 184" x2="12.818" fill="none" stroke="#afaff2" stroke-linecap="round" stroke-miterlimit="10" stroke-width="3"/>
            <line id="Línea_185" data-name="Línea 185" x2="12.818" transform="translate(0.201 7.183)" fill="none" stroke="#afaff2" stroke-linecap="round" stroke-miterlimit="10" stroke-width="3"/>
            <line id="Línea_186" data-name="Línea 186" x2="12.818" transform="translate(0.302 14.637)" fill="none" stroke="#afaff2" stroke-linecap="round" stroke-miterlimit="10" stroke-width="3"/>
          </g>
          <path id="Trazado_125370" data-name="Trazado 125370" d="M4038.2-1567.479v-75.2l12.968-7.321,12.969,6.668v3.7l-12.969-5.55-5.542,3.318.415,74.384Z" transform="translate(-4038.199 1649.999)" fill="#3e3e4f" opacity="0.19" style="mix-blend-mode: multiply;isolation: isolate"/>
          <path id="Trazado_125371" data-name="Trazado 125371" d="M4051.167-1650v82.52H4038.2v-75.2Z" transform="translate(-4038.199 1649.999)" fill="#3e3e4f" opacity="0.32" style="mix-blend-mode: multiply;isolation: isolate"/>
        </g>
        <g id="Grupo_56378" data-name="Grupo 56378" transform="translate(2.815 27.779)">
          <line id="Línea_187" data-name="Línea 187" y2="112.744" transform="translate(0 5.63)" fill="none" stroke="#afaff2" stroke-linecap="round" stroke-miterlimit="10" stroke-width="1"/>
          <line id="Línea_188" data-name="Línea 188" y2="112.744" transform="translate(44.434 5.413)" fill="none" stroke="#afaff2" stroke-linecap="round" stroke-miterlimit="10" stroke-width="1"/>
          <path id="Trazado_125372" data-name="Trazado 125372" d="M4027.972-1614.519v-107.52l5.961-9.108a3.377,3.377,0,0,1,4.772-.975,12.465,12.465,0,0,0,13.02-.214,3.242,3.242,0,0,1,4.559.966l6.069,9.114v107.738" transform="translate(-4022.543 1732.893)" fill="none" stroke="#afaff2" stroke-linecap="round" stroke-miterlimit="10" stroke-width="1"/>
        </g>
      </g>
    </g>
    <g id="Grupo_56397" data-name="Grupo 56397" transform="translate(3570.206 -1882.939)">
      <g id="Grupo_56387" data-name="Grupo 56387" transform="translate(53.359 48.639)">
        <path id="Trazado_125373" data-name="Trazado 125373" d="M4378.652-1746.482c1.794.1,3.865.166,4.645,1.866,1.04,2.269,1.335,5.641,1.964,8.123a10.149,10.149,0,0,1,.4,2.392,4.807,4.807,0,0,1-3.2,4.578c1.234-.366,1.883,3.24,1.775,3.97a7.278,7.278,0,0,1-2.338,4.055,4.274,4.274,0,0,1,2.792,3.916,4.32,4.32,0,0,1-2.592,4.074c1.479-.813,3.414.543,3.734,2.3a5.129,5.129,0,0,1-1.943,4.659,3.4,3.4,0,0,1,2.92,3.545c-.193,3.522-3.861,3.164-6.145,3.121l-35.118-.656L4328-1700.86c-2.741-.051-5.833.328-8.533-.159-1.11-.2-1.879.137-2.055-1.415-.027-.236.506-2.25.871-1.923a4.937,4.937,0,0,1-1.763-3.257,2.744,2.744,0,0,1,1.864-2.914c-2.118-1.266-2.083-5.2.058-6.425a5.433,5.433,0,0,1-.3-7.733,3.762,3.762,0,0,1-.365-5.729,6.159,6.159,0,0,1-.675-7.194,7.818,7.818,0,0,0,.8-1.322,4.963,4.963,0,0,0,.206-1.854c-.059-3.654.077-7.308.107-10.962.03-3.548-.288-6.958-.5-10.481,3.372,5.666,8.371,11.988,14.493,13.989,3.443,1.125,7.093,1.2,10.688,1.258l30.938.535C4375.36-1746.418,4377.052-1746.571,4378.652-1746.482Z" transform="translate(-4315.84 1764.005)" fill="#d7ebff"/>
        <g id="Grupo_56381" data-name="Grupo 56381" transform="translate(0.339)">
          <path id="Trazado_125374" data-name="Trazado 125374" d="M4378.568-1748.815c1.794.1,3.866.166,4.646,1.866,1.234,2.692,1.564,6.083,2.012,9.025a1.964,1.964,0,0,1-1.816,2.467c-4.427.833-8.653.361-13.089.315-4.764-.05-9.526-.141-14.289-.232l-37.629-.718c-.568-.011-1.5.224-1.98-.207-.691-.617-.13-2.019.253-2.689a13.44,13.44,0,0,0,.988-1.74,7.39,7.39,0,0,0,.347-2.585c.014-.934.017-1.865.008-2.8-.023-2.669.085-5.312.107-7.968.034-4.105-.577-8.176-.541-12.259,3.289,4.6,6.7,9.319,11.463,12.364,6.091,3.889,13.205,4.269,20.189,4.705,8.125.508,16.36.351,24.51.491C4375.276-1748.752,4376.968-1748.9,4378.568-1748.815Z" transform="translate(-4316.095 1766.339)" fill="#fff"/>
        </g>
        <g id="Grupo_56382" data-name="Grupo 56382" transform="translate(2.133 32.65)">
          <path id="Trazado_125375" data-name="Trazado 125375" d="M4324.425-1684.457c9.691.225,19.388.217,29.079.053,11.271-.19,22.523-.178,33.8-.269a1.579,1.579,0,0,0,.983-.228" transform="translate(-4322.616 1687.475)" fill="none" stroke="#8fa8cc" stroke-linecap="round" stroke-miterlimit="10" stroke-width="2"/>
          <path id="Trazado_125376" data-name="Trazado 125376" d="M4320.624-1676.8c21.116,1.122,42.448.158,63.585-1.045" transform="translate(-4320.459 1683.474)" fill="none" stroke="#8fa8cc" stroke-linecap="round" stroke-miterlimit="10" stroke-width="2"/>
          <path id="Trazado_125377" data-name="Trazado 125377" d="M4325.358-1668.982c20.613.014,41.472,1.819,62.144.277" transform="translate(-4323.146 1678.442)" fill="none" stroke="#8fa8cc" stroke-linecap="round" stroke-miterlimit="10" stroke-width="2"/>
          <path id="Trazado_125378" data-name="Trazado 125378" d="M4320.249-1658.3l56.387-.079a24,24,0,0,0,7.373-.778" transform="translate(-4320.247 1672.868)" fill="none" stroke="#8fa8cc" stroke-linecap="round" stroke-miterlimit="10" stroke-width="2"/>
          <path id="Trazado_125379" data-name="Trazado 125379" d="M4386.9-1649.471q-32.15,1.382-64.337.549" transform="translate(-4321.562 1667.37)" fill="none" stroke="#8fa8cc" stroke-linecap="round" stroke-miterlimit="10" stroke-width="2"/>
          <path id="Trazado_125380" data-name="Trazado 125380" d="M4321.639-1643q31.881.008,63.74-1.535" transform="translate(-4321.035 1664.569)" fill="none" stroke="#8fa8cc" stroke-linecap="round" stroke-miterlimit="10" stroke-width="2"/>
          <path id="Trazado_125381" data-name="Trazado 125381" d="M4387.738-1633.28q-32.55,1.567-65.141-.084" transform="translate(-4321.579 1658.23)" fill="none" stroke="#8fa8cc" stroke-linecap="round" stroke-miterlimit="10" stroke-width="2"/>
          <path id="Trazado_125382" data-name="Trazado 125382" d="M4320.243-1627.44q31.969.285,63.94.008" transform="translate(-4320.243 1654.868)" fill="none" stroke="#8fa8cc" stroke-linecap="round" stroke-miterlimit="10" stroke-width="2"/>
          <path id="Trazado_125383" data-name="Trazado 125383" d="M4320.709-1690.317l35.759-.244c5.05-.035,10.124.417,15.167.3,4.92-.11,10.267.507,15.1-.6" transform="translate(-4320.508 1690.853)" fill="none" stroke="#8fa8cc" stroke-linecap="round" stroke-miterlimit="10" stroke-width="2"/>
        </g>
        <path id="Trazado_125384" data-name="Trazado 125384" d="M4344.424-1707.1c5.172,0,10.374.742,15.564.775a153.424,153.424,0,0,0,24.667-1.762,1.863,1.863,0,0,1-1.032,1.786,4.639,4.639,0,0,1-2.035.389c-7.341.273-14.578.087-21.876.019q-21.4-.192-42.791-.83c-.557-.016-1.211-.093-1.491-.614-.421-.785.375-1.639.928-2.321a5.35,5.35,0,0,0,.82-4.887C4324.467-1708.4,4335.625-1707.922,4344.424-1707.1Z" transform="translate(-4315.312 1736.948)" fill="#8fa8cc"/>
        <g id="Grupo_56386" data-name="Grupo 56386" transform="translate(3.554 5.038)">
          <g id="Grupo_56383" data-name="Grupo 56383" transform="translate(27.741 13.611)">
            <path id="Trazado_125385" data-name="Trazado 125385" d="M4387.673-1714.123l-.007.337c0,.027,5.187.224,5.533.246a167.5,167.5,0,0,0,20.049-.027l-.992-9.1c-4.51,0-8.83-.032-13.339-.03-.719,0-11.21-.595-11.208-.515C4387.789-1720.181,4387.735-1717.156,4387.673-1714.123Z" transform="translate(-4387.666 1723.222)" fill="#f20090"/>
            <path id="Trazado_125386" data-name="Trazado 125386" d="M4389.629-1712.867a3.228,3.228,0,0,0,.374-1,2.863,2.863,0,0,0,2.544,1.561,2.863,2.863,0,0,0,2.5-1.624c.147-.319.323-.731.674-.724.428.009.525.594.774.942a1.252,1.252,0,0,0,1.672.145,3.714,3.714,0,0,0,1.093-1.477,3.505,3.505,0,0,1,1.113-1.459.566.566,0,0,1,.4-.111c.326.064.363.522.268.841-.252.84-.874,1.676-.587,2.505.3.861,1.374,1.121,2.282,1.187a20.29,20.29,0,0,0,6.968-.709c1.6-.453,2.863-2.067,1.844-3.712a2.631,2.631,0,0,0-2.547-1.16,4.341,4.341,0,0,0-2.536,1.419,7.759,7.759,0,0,1-1.248,1.231,1.367,1.367,0,0,1-1.593.056,1.921,1.921,0,0,1-.456-1.742,7.776,7.776,0,0,0,.219-1.879,2.646,2.646,0,0,0-1.755-2.089,5.709,5.709,0,0,0-2.725-.142c-.577.076-1.3.345-1.312.975-.007.441.363.764.57,1.144a1.678,1.678,0,0,1-.389,2.021.492.492,0,0,1-.321.13c-.314-.022-.394-.471-.565-.757a.986.986,0,0,0-1.082-.4,2.215,2.215,0,0,0-1.022.683,6.3,6.3,0,0,0-1.374,2.262,1.183,1.183,0,0,1-.268.509.651.651,0,0,1-.911-.182,2.537,2.537,0,0,1-.377-1.024,3.522,3.522,0,0,0-.571-1.405,1.238,1.238,0,0,0-1.269-.514,1.7,1.7,0,0,0-.854.773c-.35.543-1.845,5.26.083,4.1A1.189,1.189,0,0,0,4389.629-1712.867Z" transform="translate(-4388.017 1721.908)" fill="#222020" opacity="0.44" style="mix-blend-mode: multiply;isolation: isolate"/>
            <path id="Trazado_125387" data-name="Trazado 125387" d="M4396.511-1718.639a1.439,1.439,0,0,0,1.185.445,2.4,2.4,0,0,0,1.1-.223,1.41,1.41,0,0,0,.733-.872,1.466,1.466,0,0,0-1.033-1.679C4397.259-1721.3,4395.332-1720.169,4396.511-1718.639Z" transform="translate(-4392.476 1721.976)" fill="#08aaf3"/>
            <path id="Trazado_125388" data-name="Trazado 125388" d="M4430.938-1715.48a2.079,2.079,0,0,0,.69,1.166,1.333,1.333,0,0,0,1.134.16,2.377,2.377,0,0,0,1.523-2.184,3.9,3.9,0,0,0-.972-2.648,1.974,1.974,0,0,0-1.047-.734C4430.358-1720.109,4430.635-1716.555,4430.938-1715.48Z" transform="translate(-4412.099 1721.251)" fill="#fff102"/>
          </g>
          <g id="Grupo_56384" data-name="Grupo 56384" transform="translate(53.853 13.684)">
            <path id="Trazado_125389" data-name="Trazado 125389" d="M4459.789-1714.048a1.986,1.986,0,0,0,.127.651,10.323,10.323,0,0,0-4.9-.5c-.612.028-6.112.239-6.112.2a69.993,69.993,0,0,1-.871-8.941,30.245,30.245,0,0,1,5.561-.4,9.193,9.193,0,0,1,2.863.419c2.579.925,2.681,3.586,3.1,6.112C4459.583-1716.352,4459.685-1714.913,4459.789-1714.048Z" transform="translate(-4448.037 1723.055)" fill="#fff102"/>
            <path id="Trazado_125390" data-name="Trazado 125390" d="M4452.1-1719.188c-.021.7-.351,1.358-.376,2.058a1.972,1.972,0,0,0,.6,1.536,1.261,1.261,0,0,0,1.493.157c.625-.4.774-1.327,1.3-1.874a1.53,1.53,0,0,1,2.318.215c.083.122.17.27.31.28s.227-.1.333-.173c.44-.3,1.051.066,1.271.575a4.2,4.2,0,0,1,.179,1.662,2.211,2.211,0,0,0,.455,1.563c-.94.042-3.847.46-3.458-1.342a3.31,3.31,0,0,0,.117-.479.373.373,0,0,0-.227-.4.464.464,0,0,0-.249.024,3.184,3.184,0,0,0-1.483.957,6.255,6.255,0,0,1-1.083,1.243,2.007,2.007,0,0,1-2.4-.334,3.824,3.824,0,0,1-1.04-2.338q-.209,1.3-.417,2.608a.448.448,0,0,1-.162.335c-.23.138-.455-.192-.517-.454-.295-1.243-.409-2.54-.652-3.791a7.468,7.468,0,0,1-.109-3.169C4449.037-1722.452,4452.171-1721.323,4452.1-1719.188Z" transform="translate(-4448.115 1722.151)" fill="#222020" opacity="0.44" style="mix-blend-mode: multiply;isolation: isolate"/>
            <path id="Trazado_125391" data-name="Trazado 125391" d="M4459.628-1719.891a1.282,1.282,0,0,0-.555,1.678,1.308,1.308,0,0,0,1.036.681,1.929,1.929,0,0,0,1.2-.334,1.069,1.069,0,0,0,.586-1,.979.979,0,0,0-.322-.526,1.906,1.906,0,0,0-2.068-.349" transform="translate(-4454.23 1721.266)" fill="#08aaf3"/>
          </g>
          <g id="Grupo_56385" data-name="Grupo 56385">
            <path id="Trazado_125392" data-name="Trazado 125392" d="M4323.673-1738.06c.849.822,5.166,2.757,5.746,3.036a25.374,25.374,0,0,0,6.455,2.215,77.492,77.492,0,0,0,13.567,1.184c-.1,0-.133-8.71-.107-9.6a38.648,38.648,0,0,1-14.154-3.415,25.947,25.947,0,0,1-11.389-10.052c.094,2.654-.024,5.278-.042,7.933-.02,2.823-.078,5.646-.219,8.466C4323.527-1738.231,4323.578-1738.153,4323.673-1738.06Z" transform="translate(-4323.529 1754.691)" fill="#08aaf3"/>
            <path id="Trazado_125393" data-name="Trazado 125393" d="M4325.916-1729.693a1.869,1.869,0,0,1,.326.221c1.1.913.462,3.176,1.611,4.023a4.045,4.045,0,0,1,2.378-2.423,1.576,1.576,0,0,1,1.238-.013c.654.334.818,1.234,1.005,1.99a3.865,3.865,0,0,0,.938,1.874,1.6,1.6,0,0,0,1.847.369c1.089-.605.963-2.467,1.919-3.295a1.948,1.948,0,0,1,1.815-.309,3.4,3.4,0,0,1,2.271,3.414c-.053.909-.444,1.867-.082,2.689a2.086,2.086,0,0,0,1.127,1.016,3.556,3.556,0,0,0,2.773.014c1-.42,1.986-1.316,3.007-.96a1.579,1.579,0,0,1,.992,1.263,1.786,1.786,0,0,1-.893,1.9,3.7,3.7,0,0,1-1.557.252c-1.807.019-4.446.035-6.121-.656a2.6,2.6,0,0,1-1.731-2.641c.09-.509.372-1.086.053-1.493-.39-.5-1.189-.153-1.659.268a9.382,9.382,0,0,1-2.475,2,3.158,3.158,0,0,1-4.11-2.249,3.1,3.1,0,0,0-.194-.843.638.638,0,0,0-.7-.385.8.8,0,0,0-.435.483,3.615,3.615,0,0,0-.293,1.8,7.423,7.423,0,0,1-4.1-2.019c-.885-1.072-.79-2.78-.784-4.115C4324.086-1728.577,4324.732-1730.312,4325.916-1729.693Z" transform="translate(-4323.839 1740.579)" fill="#222020" opacity="0.44" style="mix-blend-mode: multiply;isolation: isolate"/>
            <path id="Trazado_125394" data-name="Trazado 125394" d="M4332.9-1732.765a.726.726,0,0,0,.339-.044c.355-.162.357-.712.228-1.1-.317-.964-2.655-3.31-3.467-1.681C4329.294-1734.188,4331.98-1732.81,4332.9-1732.765Z" transform="translate(-4327.133 1744.172)" fill="#fff102"/>
            <path id="Trazado_125395" data-name="Trazado 125395" d="M4370.98-1713.76a1.464,1.464,0,0,0,1.347.768,1.523,1.523,0,0,0,1.1-.9,4.113,4.113,0,0,0,.33-1.5c.1-1.322.232-2.993-.964-3.76a1.071,1.071,0,0,0-1.721.337A5.951,5.951,0,0,0,4370.98-1713.76Z" transform="translate(-4350.16 1734.688)" fill="#f20090"/>
          </g>
        </g>
      </g>
      <g id="Grupo_56396" data-name="Grupo 56396" transform="translate(0 0)">
        <g id="Grupo_56388" data-name="Grupo 56388" transform="translate(47.661 17.506)">
          <path id="Trazado_125396" data-name="Trazado 125396" d="M4306.392-1838.318l19.11,1.006,6.187,23.531-1.512,4.172-17.958-.083-10.08-15.213Z" transform="translate(-4302.139 1838.318)" fill="#6969a3"/>
          <path id="Trazado_125397" data-name="Trazado 125397" d="M4341.36-1781.588h-22.179l2.709,4.089,17.958.083Z" transform="translate(-4311.81 1806.125)" fill="#4f4f8e"/>
        </g>
        <g id="Grupo_56393" data-name="Grupo 56393" transform="translate(0 31.82)">
          <path id="Trazado_125398" data-name="Trazado 125398" d="M4203.1-1714.493v104.736h52.088V-1724.5Z" transform="translate(-4198.278 1759.417)" fill="#7a7add"/>
          <rect id="Rectángulo_30412" data-name="Rectángulo 30412" width="47.508" height="40.229" transform="translate(6.937 47.998)" fill="#afaff2" opacity="0.62"/>
          <rect id="Rectángulo_30413" data-name="Rectángulo 30413" width="42.373" height="8.9" transform="translate(8.897 77.042)" fill="#7a7add"/>
          <rect id="Rectángulo_30414" data-name="Rectángulo 30414" width="57.704" height="46.982" transform="translate(1.005)" fill="#4f4f8e"/>
          <rect id="Rectángulo_30415" data-name="Rectángulo 30415" width="60.282" height="12.744" transform="translate(0 34.238)" fill="#7a7add"/>
          <rect id="Rectángulo_30416" data-name="Rectángulo 30416" width="60.282" height="2.457" transform="translate(0 44.526)" fill="#7a7add" opacity="0.57" style="mix-blend-mode: multiply;isolation: isolate"/>
          <g id="Grupo_56391" data-name="Grupo 56391" transform="translate(3.205 1.89)">
            <g id="Grupo_56389" data-name="Grupo 56389">
              <rect id="Rectángulo_30417" data-name="Rectángulo 30417" width="53.306" height="30.102" fill="#cbcbf7"/>
              <rect id="Rectángulo_30418" data-name="Rectángulo 30418" width="47.817" height="13.434" transform="translate(2.676 1.616)" fill="#7a7add"/>
              <rect id="Rectángulo_30419" data-name="Rectángulo 30419" width="10.18" height="11.021" transform="translate(2.676 17.447)" fill="#08aaf3" stroke="#fff" stroke-miterlimit="10" stroke-width="1"/>
              <rect id="Rectángulo_30420" data-name="Rectángulo 30420" width="10.18" height="11.021" transform="translate(15.567 17.447)" fill="#f20090" stroke="#fff" stroke-miterlimit="10" stroke-width="1"/>
              <rect id="Rectángulo_30421" data-name="Rectángulo 30421" width="10.18" height="11.021" transform="translate(28.193 17.447)" fill="#fff102" stroke="#fff" stroke-miterlimit="10" stroke-width="1"/>
              <rect id="Rectángulo_30422" data-name="Rectángulo 30422" width="9.804" height="11.021" transform="translate(40.752 17.447)" fill="#222020" stroke="#fff" stroke-miterlimit="10" stroke-width="1"/>
            </g>
            <g id="Grupo_56390" data-name="Grupo 56390" transform="translate(4.686 3.689)">
              <rect id="Rectángulo_30423" data-name="Rectángulo 30423" width="3.599" height="3.896" fill="#7a7add" opacity="0.57" style="mix-blend-mode: multiply;isolation: isolate"/>
              <rect id="Rectángulo_30424" data-name="Rectángulo 30424" width="3.599" height="3.896" transform="translate(5.278)" fill="#7a7add" opacity="0.57" style="mix-blend-mode: multiply;isolation: isolate"/>
              <rect id="Rectángulo_30425" data-name="Rectángulo 30425" width="3.599" height="3.896" transform="translate(10.556)" fill="#7a7add" opacity="0.57" style="mix-blend-mode: multiply;isolation: isolate"/>
              <rect id="Rectángulo_30426" data-name="Rectángulo 30426" width="3.599" height="3.896" transform="translate(15.972)" fill="#7a7add" opacity="0.57" style="mix-blend-mode: multiply;isolation: isolate"/>
              <rect id="Rectángulo_30427" data-name="Rectángulo 30427" width="3.599" height="3.896" transform="translate(21.179)" fill="#7a7add" opacity="0.57" style="mix-blend-mode: multiply;isolation: isolate"/>
              <rect id="Rectángulo_30428" data-name="Rectángulo 30428" width="3.599" height="3.896" transform="translate(26.797)" fill="#7a7add" opacity="0.57" style="mix-blend-mode: multiply;isolation: isolate"/>
              <rect id="Rectángulo_30429" data-name="Rectángulo 30429" width="3.599" height="3.896" transform="translate(32.467)" fill="#7a7add" opacity="0.57" style="mix-blend-mode: multiply;isolation: isolate"/>
              <rect id="Rectángulo_30430" data-name="Rectángulo 30430" width="3.599" height="3.896" transform="translate(37.971)" fill="#7a7add" opacity="0.57" style="mix-blend-mode: multiply;isolation: isolate"/>
              <rect id="Rectángulo_30431" data-name="Rectángulo 30431" width="3.599" height="3.896" transform="translate(37.971 5.795)" fill="#7a7add" opacity="0.57" style="mix-blend-mode: multiply;isolation: isolate"/>
              <rect id="Rectángulo_30432" data-name="Rectángulo 30432" width="3.599" height="3.896" transform="translate(0 5.795)" fill="#7a7add" opacity="0.57" style="mix-blend-mode: multiply;isolation: isolate"/>
              <rect id="Rectángulo_30433" data-name="Rectángulo 30433" width="3.599" height="3.896" transform="translate(5.278 5.795)" fill="#7a7add" opacity="0.57" style="mix-blend-mode: multiply;isolation: isolate"/>
              <rect id="Rectángulo_30434" data-name="Rectángulo 30434" width="3.599" height="3.896" transform="translate(10.556 5.795)" fill="#7a7add" opacity="0.57" style="mix-blend-mode: multiply;isolation: isolate"/>
              <rect id="Rectángulo_30435" data-name="Rectángulo 30435" width="3.599" height="3.896" transform="translate(15.972 5.795)" fill="#7a7add" opacity="0.57" style="mix-blend-mode: multiply;isolation: isolate"/>
              <rect id="Rectángulo_30436" data-name="Rectángulo 30436" width="3.599" height="3.896" transform="translate(21.179 5.795)" fill="#7a7add" opacity="0.57" style="mix-blend-mode: multiply;isolation: isolate"/>
              <rect id="Rectángulo_30437" data-name="Rectángulo 30437" width="3.599" height="3.896" transform="translate(26.797 5.795)" fill="#7a7add" opacity="0.57" style="mix-blend-mode: multiply;isolation: isolate"/>
              <rect id="Rectángulo_30438" data-name="Rectángulo 30438" width="3.599" height="3.896" transform="translate(32.467 5.795)" fill="#7a7add" opacity="0.57" style="mix-blend-mode: multiply;isolation: isolate"/>
            </g>
          </g>
          <g id="Grupo_56392" data-name="Grupo 56392" transform="translate(4.826 36.327)">
            <ellipse id="Elipse_4262" data-name="Elipse 4262" cx="3.206" cy="3.47" rx="3.206" ry="3.47" transform="translate(33.546)" fill="#f20090" style="mix-blend-mode: multiply;isolation: isolate"/>
            <path id="Trazado_125399" data-name="Trazado 125399" d="M4234.746-1717.416c0,1.636-.684,2.963-1.528,2.963s-1.528-1.327-1.528-2.963.684-2.963,1.528-2.963S4234.746-1719.052,4234.746-1717.416Z" transform="translate(-4219.325 1720.75)" fill="#4f4f8e"/>
            <path id="Trazado_125400" data-name="Trazado 125400" d="M4250.8-1717.416c0,1.636-.684,2.963-1.527,2.963s-1.527-1.327-1.527-2.963.684-2.963,1.527-2.963S4250.8-1719.052,4250.8-1717.416Z" transform="translate(-4228.436 1720.75)" fill="#4f4f8e"/>
            <path id="Trazado_125401" data-name="Trazado 125401" d="M4267.259-1717.416c0,1.636-.684,2.963-1.528,2.963s-1.527-1.327-1.527-2.963.684-2.963,1.527-2.963S4267.259-1719.052,4267.259-1717.416Z" transform="translate(-4237.776 1720.75)" fill="#4f4f8e"/>
            <path id="Trazado_125402" data-name="Trazado 125402" d="M4307.963-1717.416c0,1.636-.684,2.963-1.528,2.963s-1.527-1.327-1.527-2.963.684-2.963,1.527-2.963S4307.963-1719.052,4307.963-1717.416Z" transform="translate(-4260.875 1720.75)" fill="#4f4f8e"/>
            <rect id="Rectángulo_30439" data-name="Rectángulo 30439" width="8.343" height="5.414" transform="translate(0 0.776)" fill="#7a7add" opacity="0.57" style="mix-blend-mode: multiply;isolation: isolate"/>
          </g>
        </g>
        <g id="Grupo_56395" data-name="Grupo 56395" transform="translate(6.434)">
          <rect id="Rectángulo_30440" data-name="Rectángulo 30440" width="43.731" height="7.54" transform="translate(2.111 24.28)" fill="#7a7add"/>
          <path id="Trazado_125403" data-name="Trazado 125403" d="M4211.193-1874.386l-4.372,14.862c16.838-2.041,33.008-2.295,48.255,0l-3.98-15.343a3.806,3.806,0,0,0-3.089-2.876,108.047,108.047,0,0,0-33.9.631A3.774,3.774,0,0,0,4211.193-1874.386Z" transform="translate(-4206.821 1878.791)" fill="#afaff2"/>
          <path id="Trazado_125404" data-name="Trazado 125404" d="M4206.821-1836.556l.4,6.645c15.508-.731,31.482-.692,47.853,0v-6.645A166.262,166.262,0,0,0,4206.821-1836.556Z" transform="translate(-4206.821 1855.823)" fill="#7a7add"/>
          <path id="Trazado_125405" data-name="Trazado 125405" d="M4207.326-1827.437a248.776,248.776,0,0,1,48.036,0v3.041c-17.3-.692-33.33-.731-47.852,0Z" transform="translate(-4207.108 1850.308)" fill="#4f4f8e"/>
          <g id="Grupo_56394" data-name="Grupo 56394" transform="translate(11.617 2.678)">
            <line id="Línea_189" data-name="Línea 189" x1="3.994" y2="12.406" fill="none" stroke="#cbcbf7" stroke-linecap="round" stroke-miterlimit="10" stroke-width="1"/>
            <line id="Línea_190" data-name="Línea 190" x2="4.841" y2="11.508" transform="translate(20.236)" fill="none" stroke="#cbcbf7" stroke-linecap="round" stroke-miterlimit="10" stroke-width="1"/>
          </g>
        </g>
      </g>
      <path id="Trazado_125406" data-name="Trazado 125406" d="M4400.723-1613.07v7.4l-77.193-.87v-6.53Z" transform="translate(-4266.616 1728.002)" fill="#7a7add" opacity="0.62"/>
    </g>
    <g id="Grupo_56401" data-name="Grupo 56401" transform="translate(3116.012 -1802.294)">
      <line id="Línea_191" data-name="Línea 191" x2="22.619" transform="translate(431.575 3.218)" fill="none" stroke="#7a7add" stroke-linecap="round" stroke-miterlimit="10" stroke-width="3"/>
      <line id="Línea_192" data-name="Línea 192" x2="22.619" transform="translate(431.575 11.003)" fill="none" stroke="#7a7add" stroke-linecap="round" stroke-miterlimit="10" stroke-width="3"/>
      <line id="Línea_193" data-name="Línea 193" x2="22.619" transform="translate(429.615 82.824)" fill="none" stroke="#7a7add" stroke-linecap="round" stroke-miterlimit="10" stroke-width="3"/>
      <line id="Línea_194" data-name="Línea 194" x2="22.619" transform="translate(429.433 75.315)" fill="none" stroke="#7a7add" stroke-linecap="round" stroke-miterlimit="10" stroke-width="3"/>
      <line id="Línea_195" data-name="Línea 195" x2="24.58" transform="translate(429.615 91.639)" fill="none" stroke="#7a7add" stroke-linecap="round" stroke-miterlimit="10" stroke-width="3"/>
      <g id="Grupo_56398" data-name="Grupo 56398" transform="translate(76.353 59.139)">
        <line id="Línea_196" data-name="Línea 196" x2="36.643" transform="translate(1.608)" fill="none" stroke="#7a7add" stroke-linecap="round" stroke-miterlimit="10" stroke-width="4"/>
        <line id="Línea_197" data-name="Línea 197" x2="36.643" transform="translate(0.804 11.279)" fill="none" stroke="#7a7add" stroke-linecap="round" stroke-miterlimit="10" stroke-width="4"/>
        <line id="Línea_198" data-name="Línea 198" x2="36.643" transform="translate(0 23.685)" fill="none" stroke="#7a7add" stroke-linecap="round" stroke-miterlimit="10" stroke-width="4"/>
      </g>
      <g id="Grupo_56399" data-name="Grupo 56399" transform="translate(126.618 59.139)">
        <line id="Línea_199" data-name="Línea 199" x2="36.643" transform="translate(1.608)" fill="none" stroke="#7a7add" stroke-linecap="round" stroke-miterlimit="10" stroke-width="4"/>
        <line id="Línea_200" data-name="Línea 200" x2="36.643" transform="translate(0.804 11.279)" fill="none" stroke="#7a7add" stroke-linecap="round" stroke-miterlimit="10" stroke-width="4"/>
        <line id="Línea_201" data-name="Línea 201" x2="36.643" transform="translate(0 23.685)" fill="none" stroke="#7a7add" stroke-linecap="round" stroke-miterlimit="10" stroke-width="4"/>
      </g>
      <g id="Grupo_56400" data-name="Grupo 56400">
        <path id="Trazado_125407" data-name="Trazado 125407" d="M3141.857-1517.063l4.222-15.616c.072-.268,4.946,1.531,5.592,1.727,2.975.9,6.716.463,9.764.227a51.084,51.084,0,0,0,19.2-5.3c9.9-5.03,18.617-14.106,24.024-24.364" transform="translate(-3141.857 1617.463)" fill="none" stroke="#7a7add" stroke-linecap="round" stroke-miterlimit="10" stroke-width="3"/>
        <path id="Trazado_125408" data-name="Trazado 125408" d="M3298.545-1644.995c2.476-7.769,3.521-15.943,4.534-24.054.5-4.013.991-8.03,1.646-12.019.571-3.472.656-7.281,3.539-9.465,2.386-1.807,5.511-1.838,8.423-1.8l92.177,1.145" transform="translate(-3230.772 1692.341)" fill="none" stroke="#7a7add" stroke-linecap="round" stroke-miterlimit="10" stroke-width="3"/>
        <path id="Trazado_125409" data-name="Trazado 125409" d="M4334.113-1543.681h30.249l.2-48.177" transform="translate(-3818.427 1635.32)" fill="none" stroke="#7a7add" stroke-linecap="round" stroke-miterlimit="10" stroke-width="3"/>
      </g>
    </g>
    <g id="Grupo_56404" data-name="Grupo 56404" transform="translate(3096.312 -1832.654)">
      <g id="Grupo_56402" data-name="Grupo 56402">
        <path id="Trazado_125410" data-name="Trazado 125410" d="M3167.8-1685.806l-67.14-21.012,11.9-35.214a28.393,28.393,0,0,1,9.2-13.328,33.076,33.076,0,0,1,20.491-7.173c13.281,0,24.832,8.01,30.758,19.811C3175.708-1737.354,3167.8-1685.806,3167.8-1685.806Z" transform="translate(-3098.777 1762.533)" fill="#fff"/>
        <path id="Trazado_125411" data-name="Trazado 125411" d="M3166.281-1655.206c-1.5,20.862-15.663,37.872-34.984,37.872s-34.985-16.956-34.985-37.872,15.721-39.371,34.985-37.871C3152.187-1691.451,3167.68-1674.672,3166.281-1655.206Z" transform="translate(-3096.312 1723.167)" fill="#8fa8cc"/>
      </g>
      <g id="Grupo_56403" data-name="Grupo 56403" transform="translate(27.239 55.715)">
        <path id="Rectángulo_30441" data-name="Rectángulo 30441" d="M7.593,0H10.2a7.593,7.593,0,0,1,7.593,7.593V75.044a0,0,0,0,1,0,0H0a0,0,0,0,1,0,0V7.593A7.593,7.593,0,0,1,7.593,0Z" transform="translate(0 0)" fill="#3e3e4f"/>
        <path id="Trazado_125412" data-name="Trazado 125412" d="M3168.185-1558.677h-8.9V-1626.7a6.772,6.772,0,0,1,6.488-7.023h2.408Z" transform="translate(-3159.289 1633.721)" fill="#e8d8c8" style="mix-blend-mode: multiply;isolation: isolate"/>
      </g>
      <path id="Trazado_125413" data-name="Trazado 125413" d="M3110.248-1455.25l2.815-10.883h566.989l2.815,10.883Z" transform="translate(-3104.22 1594.334)" fill="#3e3e4f"/>
    </g>
  </g>
</svg>
