<svg xmlns="http://www.w3.org/2000/svg" width="521.386" height="215.046" viewBox="0 0 521.386 215.046">
  <g id="Grupo_56123" data-name="Grupo 56123" transform="translate(-4331.906 -960.233)">
    <g id="Grupo_56103" data-name="Grupo 56103" transform="translate(4675.548 965.49)">
      <path id="Trazado_125127" data-name="Trazado 125127" d="M5120.374,1030.712H5094.9l-14.75,53.614h25.471Z" transform="translate(-5074.958 -1003.112)" fill="#7489a9"/>
      <g id="Grupo_56102" data-name="Grupo 56102" transform="translate(0)">
        <path id="Rectángulo_30278" data-name="Rectángulo 30278" d="M8.144,0H72.384a8.145,8.145,0,0,1,8.145,8.145V49.079a8.144,8.144,0,0,1-8.144,8.144H8.145A8.145,8.145,0,0,1,0,49.079V8.144A8.144,8.144,0,0,1,8.144,0Z" fill="#7489a9"/>
        <path id="Rectángulo_30279" data-name="Rectángulo 30279" d="M8.144,0H72.384a8.145,8.145,0,0,1,8.145,8.145V49.079a8.144,8.144,0,0,1-8.144,8.144H8.145A8.145,8.145,0,0,1,0,49.079V8.144A8.144,8.144,0,0,1,8.144,0Z" transform="translate(3.089)" fill="#c9dbe7"/>
        <rect id="Rectángulo_30280" data-name="Rectángulo 30280" width="74.176" height="45.545" transform="translate(6.935 2.92)" fill="#483781"/>
        <rect id="Rectángulo_30281" data-name="Rectángulo 30281" width="66.193" height="35.922" transform="translate(10.772 9.299)" fill="#fefefe"/>
        <g id="Grupo_56101" data-name="Grupo 56101" transform="translate(15.315 7.774)">
          <circle id="Elipse_4225" data-name="Elipse 4225" cx="13.437" cy="13.437" r="13.437" transform="translate(0 19.105) rotate(-45)" fill="#f7c344"/>
          <circle id="Elipse_4226" data-name="Elipse 4226" cx="13.437" cy="13.437" r="13.437" transform="translate(18.747 23.347) rotate(-60.317)" fill="#ea755d"/>
          <path id="Trazado_125128" data-name="Trazado 125128" d="M5157.389,1026.893a13.429,13.429,0,1,0-4.829-10.318A13.391,13.391,0,0,0,5157.389,1026.893Z" transform="translate(-5128.922 -998.252)" fill="#c2c1df"/>
        </g>
        <rect id="Rectángulo_30282" data-name="Rectángulo 30282" width="66.193" height="3.057" transform="translate(10.772 6.242)" fill="#f7c344"/>
        <path id="Trazado_125129" data-name="Trazado 125129" d="M5161.081,977.773l-24.135,45.545h49.438V977.773Z" transform="translate(-5105.272 -974.853)" fill="#fefefe" opacity="0.32"/>
      </g>
      <rect id="Rectángulo_30283" data-name="Rectángulo 30283" width="45.162" height="3.893" transform="translate(5.196 81.215)" fill="#c9dbe7"/>
      <path id="Trazado_125130" data-name="Trazado 125130" d="M5092.825,1094.253h25.47l-1.3,4.719h-25.471Z" transform="translate(-5081.028 -1037.029)" fill="#7489a9" style="mix-blend-mode: multiply;isolation: isolate"/>
    </g>
    <g id="Grupo_56106" data-name="Grupo 56106" transform="translate(4800.741 978.933)">
      <path id="Trazado_125131" data-name="Trazado 125131" d="M5374.3,1082.12s-5.1-6.285-1.711-16.119,18.9-18.032,18.9-18.032S5392.35,1078.978,5374.3,1082.12Z" transform="translate(-5355.629 -1025.766)" fill="#49597a"/>
      <g id="Grupo_56104" data-name="Grupo 56104" transform="translate(5.202 0)">
        <path id="Trazado_125132" data-name="Trazado 125132" d="M5360.648,1054.12s-10.258-4.947-11.831-19.5,13.26-34.277,13.26-34.277S5381.749,1039.308,5360.648,1054.12Z" transform="translate(-5348.701 -1000.344)" fill="#4f538f"/>
        <line id="Línea_137" data-name="Línea 137" y1="40.138" x2="0.546" transform="translate(11.354 11.873)" fill="none" stroke="#c2c1df" stroke-miterlimit="10" stroke-width="0.691"/>
        <line id="Línea_138" data-name="Línea 138" y1="6.777" x2="9.055" transform="translate(11.574 32.449)" fill="none" stroke="#c2c1df" stroke-miterlimit="10" stroke-width="0.691"/>
        <line id="Línea_139" data-name="Línea 139" x1="5.589" y1="6.633" transform="translate(6.126 18.828)" fill="none" stroke="#c2c1df" stroke-miterlimit="10" stroke-width="0.691"/>
      </g>
      <path id="Trazado_125133" data-name="Trazado 125133" d="M5353.985,1081.774s-7.519.3-12.952-7.7-2.9-24.109-2.9-24.109S5361.7,1066.587,5353.985,1081.774Z" transform="translate(-5337.542 -1026.831)" fill="#49597a"/>
      <g id="Grupo_56105" data-name="Grupo 56105" transform="translate(6.102 51.988)">
        <path id="Trazado_125134" data-name="Trazado 125134" d="M5362.75,1111.856h-12.116c-.178,13.063,5.548,21.035,5.548,21.035h13.135s5.727-7.972,5.548-21.035Z" transform="translate(-5350.63 -1111.856)" fill="#f7c344"/>
        <path id="Trazado_125135" data-name="Trazado 125135" d="M5350.634,1111.856c-.178,13.063,5.548,21.035,5.548,21.035h7.586s-5.727-7.972-5.548-21.035Z" transform="translate(-5350.63 -1111.856)" fill="#535694" opacity="0.31" style="mix-blend-mode: multiply;isolation: isolate"/>
        <path id="Trazado_125136" data-name="Trazado 125136" d="M5350.634,1111.856a42.939,42.939,0,0,0,.228,5.028h23.775a42.837,42.837,0,0,0,.228-5.028h-24.231Z" transform="translate(-5350.63 -1111.856)" fill="#fefefe" opacity="0.32"/>
      </g>
      <line id="Línea_140" data-name="Línea 140" x1="7.59" y1="14.623" transform="translate(6.102 37.365)" fill="none" stroke="#c2c1df" stroke-miterlimit="10" stroke-width="0.691"/>
      <line id="Línea_141" data-name="Línea 141" x2="23.776" transform="translate(6.333 57.015)" fill="none" stroke="#f5ce6e" stroke-miterlimit="10" stroke-width="0.691"/>
    </g>
    <ellipse id="Elipse_4227" data-name="Elipse 4227" cx="105.797" cy="13.83" rx="105.797" ry="13.83" transform="translate(4641.698 1126.923)" fill="#f2f2f2" opacity="0.4" style="mix-blend-mode: multiply;isolation: isolate"/>
    <g id="Grupo_56110" data-name="Grupo 56110" transform="translate(4641.698 1050.598)">
      <g id="Grupo_56107" data-name="Grupo 56107" transform="translate(140.024 13.398)">
        <rect id="Rectángulo_30284" data-name="Rectángulo 30284" width="5.458" height="78.673" transform="translate(4.905)" fill="#c9dbe7"/>
        <rect id="Rectángulo_30285" data-name="Rectángulo 30285" width="4.905" height="78.673" fill="#49597a"/>
        <rect id="Rectángulo_30286" data-name="Rectángulo 30286" width="10.363" height="7.967" fill="#7489a9" style="mix-blend-mode: multiply;isolation: isolate"/>
      </g>
      <rect id="Rectángulo_30287" data-name="Rectángulo 30287" width="175.555" height="7.468" transform="translate(9.109 5.93)" fill="#c9dbe7"/>
      <rect id="Rectángulo_30288" data-name="Rectángulo 30288" width="191.769" height="5.93" transform="translate(0 0)" fill="#fefefe"/>
      <line id="Línea_142" data-name="Línea 142" x2="175.555" transform="translate(9.109 5.93)" fill="none" stroke="#49597a" stroke-miterlimit="10" stroke-width="1.17"/>
      <rect id="Rectángulo_30289" data-name="Rectángulo 30289" width="5.458" height="78.673" transform="translate(171.529 13.398)" fill="#fefefe"/>
      <rect id="Rectángulo_30290" data-name="Rectángulo 30290" width="4.905" height="78.673" transform="translate(166.624 13.398)" fill="#c9dbe7"/>
      <g id="Grupo_56108" data-name="Grupo 56108" transform="translate(33.865 13.398)">
        <rect id="Rectángulo_30291" data-name="Rectángulo 30291" width="5.458" height="78.673" transform="translate(4.905)" fill="#fefefe"/>
        <rect id="Rectángulo_30292" data-name="Rectángulo 30292" width="4.905" height="78.673" fill="#c9dbe7"/>
        <rect id="Rectángulo_30293" data-name="Rectángulo 30293" width="10.363" height="7.967" fill="#7489a9" style="mix-blend-mode: multiply;isolation: isolate"/>
      </g>
      <g id="Grupo_56109" data-name="Grupo 56109" transform="translate(16.33 13.398)">
        <rect id="Rectángulo_30294" data-name="Rectángulo 30294" width="5.458" height="78.673" transform="translate(4.905)" fill="#c9dbe7"/>
        <rect id="Rectángulo_30295" data-name="Rectángulo 30295" width="4.905" height="78.673" fill="#49597a"/>
        <rect id="Rectángulo_30296" data-name="Rectángulo 30296" width="10.363" height="7.967" fill="#7489a9" style="mix-blend-mode: multiply;isolation: isolate"/>
      </g>
      <rect id="Rectángulo_30297" data-name="Rectángulo 30297" width="10.363" height="7.967" transform="translate(166.624 13.398)" fill="#7489a9" style="mix-blend-mode: multiply;isolation: isolate"/>
    </g>
    <g id="Grupo_56113" data-name="Grupo 56113" transform="translate(4687.822 960.233)">
      <g id="Grupo_56111" data-name="Grupo 56111" transform="translate(43.281 118.243)">
        <path id="Trazado_125137" data-name="Trazado 125137" d="M5221.924,1333.582v8.378h-33.733s-.823-6.532,7.9-8.378Z" transform="translate(-5188.17 -1277.767)" fill="#251d44"/>
        <path id="Trazado_125138" data-name="Trazado 125138" d="M5201.53,1213.86a18.467,18.467,0,0,0-1.225,7.516l2.249,48.3h25.837V1226.6h4.768Z" transform="translate(-5194.637 -1213.86)" fill="#251d44"/>
      </g>
      <path id="Trazado_125139" data-name="Trazado 125139" d="M5152.749,1184.6l-27.948,1.794a18.539,18.539,0,0,0-17.332,19.364l2.249,48.3h25.837v-43.08h37.817a20.392,20.392,0,0,0,20.361-19.253l.4-7.125Z" transform="translate(-5101.8 -1079.998)" fill="#483781"/>
      <path id="Trazado_125140" data-name="Trazado 125140" d="M5219.521,995.351a30.044,30.044,0,0,0-1.032,4.484c1.458.461,1.538.277,1.538.277Z" transform="translate(-5161.073 -978.979)" fill="#e2e4e6"/>
      <path id="Trazado_125141" data-name="Trazado 125141" d="M5235.128,1006.46l.64,7.359-10.431,1.408,1.106-6.207-5.436-.453,8.681-6.906,3.647-3.328Z" transform="translate(-5162.417 -980.57)" fill="#f0d2a8"/>
      <path id="Trazado_125142" data-name="Trazado 125142" d="M5230.67,1009.132c-1.841.506-3.463.977-4.9,1.408l-4.766,3.792,5.436.453S5230.279,1011.912,5230.67,1009.132Z" transform="translate(-5162.417 -986.335)" fill="#374071"/>
      <path id="Trazado_125143" data-name="Trazado 125143" d="M5188.9,1210.977a20.393,20.393,0,0,0,20.361-19.253l.4-7.125h-30.716c-1.167,4.2-5.327,12.825-19.871,13.642-19.289,1.082-23.561,2.784-22.344,18.122s14.355,23.835,14.355,23.835v-29.221Z" transform="translate(-5117.326 -1079.998)" fill="#251d44"/>
      <path id="Trazado_125144" data-name="Trazado 125144" d="M5221.429,978.753s-2.265,11.474-.971,19.362c5.984-1.435,7.279-2.331,9.706-5.2a35.135,35.135,0,0,0,0-11.653Z" transform="translate(-5161.911 -970.119)" fill="#f0d2a8"/>
      <path id="Trazado_125145" data-name="Trazado 125145" d="M5221.4,979.005c-.248,1.311-2.156,11.84-.944,19.226,1.264-.3,2.309-.582,3.209-.861.151-1.692.65-5.508,2.2-7.9a15.214,15.214,0,0,0,2.018-7.307l-1.6-1.9-4.5-1.292Z" transform="translate(-5161.911 -970.234)" fill="#fff" opacity="0.42" style="mix-blend-mode: overlay;isolation: isolate"/>
      <path id="Trazado_125146" data-name="Trazado 125146" d="M5220.346,970.25s-1.857-3.517-1.857-5.949,1.472-5.7,4.32-3.136a26.892,26.892,0,0,0,10.334,5.184c3.008.768,6.847,7.295,6.144,11.646s-4.352,7.167-5.5,8.127a34.242,34.242,0,0,0-2.5-5.9l-1.984-7.414Z" transform="translate(-5161.073 -960.233)" fill="#483781"/>
      <path id="Trazado_125147" data-name="Trazado 125147" d="M5222.47,989.832a4.062,4.062,0,0,1,4.095.832" transform="translate(-5163.198 -975.909)" fill="none" stroke="#483781" stroke-linecap="round" stroke-miterlimit="10" stroke-width="1.246"/>
      <path id="Trazado_125148" data-name="Trazado 125148" d="M5224.561,1031.473l3.205-4.165a38.079,38.079,0,0,1,14.846,0l2.115,3.421S5229.95,1030.481,5224.561,1031.473Z" transform="translate(-5164.313 -995.638)" fill="#f7c344"/>
      <path id="Trazado_125149" data-name="Trazado 125149" d="M5226.34,1034.485s19.353,3.97,19.849,8.932-5.8,62.964-5.8,62.964-25.819,2.328-43.512-2.386c-4.527-49.909-6.759-63.059-6.759-63.059s9.6-5.652,18.731-6.885A59.671,59.671,0,0,1,5226.34,1034.485Z" transform="translate(-5145.928 -999.394)" fill="#f7c344"/>
      <g id="Grupo_56112" data-name="Grupo 56112" transform="translate(7.954 41.542)">
        <path id="Trazado_125150" data-name="Trazado 125150" d="M5125.554,1122.024s-9.18-1.158-11.413,2.15c-1.22,1.807-1.626,5.069-1.742,7.658a5.07,5.07,0,0,0,3.437,5.012l6,2.052Z" transform="translate(-5112.394 -1088.033)" fill="#f0d2a8"/>
        <path id="Trazado_125151" data-name="Trazado 125151" d="M5157.218,1049.339s-5.955,4.962-10.917,18.36-6.2,15.631-6.2,15.631h-5.954s-9.677,7.2-3.722,16.872c4.368,1.285,10.267,2.57,14.94,3.51a9.365,9.365,0,0,0,10.526-5.663l7.922-19.515S5169.375,1052.812,5157.218,1049.339Z" transform="translate(-5120.984 -1049.339)" fill="#f7c344"/>
        <path id="Trazado_125152" data-name="Trazado 125152" d="M5163.841,1141.762a8.808,8.808,0,0,0-8.709,10.37c1.518.328,3,.637,4.38.914a9.366,9.366,0,0,0,10.526-5.663l.854-2.1A8.826,8.826,0,0,0,5163.841,1141.762Z" transform="translate(-5135.133 -1098.674)" fill="#f7c344" style="mix-blend-mode: multiply;isolation: isolate"/>
      </g>
      <path id="Trazado_125153" data-name="Trazado 125153" d="M5259.683,1048.814c-.19-1.9-3.161-3.662-6.747-5.105h-30.412a7.129,7.129,0,0,0-7.129,7.129v54.572a7.111,7.111,0,0,0,2.662,5.551c16.631,2.545,35.824.819,35.824.819S5260.179,1053.777,5259.683,1048.814Z" transform="translate(-5159.421 -1004.792)" fill="#f7c344" style="mix-blend-mode: multiply;isolation: isolate"/>
      <path id="Trazado_125154" data-name="Trazado 125154" d="M5244.864,999.661a3.018,3.018,0,1,1-3.018-3.019A3.018,3.018,0,0,1,5244.864,999.661Z" transform="translate(-5171.93 -979.668)" fill="#f0d2a8"/>
      <path id="Trazado_125155" data-name="Trazado 125155" d="M5239.027,983.089s-1.011,5.563-1.011,6.522,2.123.768,2.123.768l1.274-2.581.069-2.859-1.343-4.863Z" transform="translate(-5171.496 -970.825)" fill="#483781"/>
      <path id="Trazado_125156" data-name="Trazado 125156" d="M5237,966.65a26.893,26.893,0,0,1-10.334-5.184,4.459,4.459,0,0,0-.951-.669c.007.034,1.456,6.976,7.972,8.371,6.533,1.4,5.921,9.544,7.3,13.928h0a10.839,10.839,0,0,0,2.157-4.8C5243.846,973.945,5240.006,967.418,5237,966.65Z" transform="translate(-5164.929 -960.534)" fill="#fff" opacity="0.42" style="mix-blend-mode: overlay;isolation: isolate"/>
      <path id="Trazado_125157" data-name="Trazado 125157" d="M5221.788,995.869a4.472,4.472,0,0,1,2.741.313" transform="translate(-5162.834 -979.207)" fill="none" stroke="#483781" stroke-linecap="round" stroke-miterlimit="10" stroke-width="0.623"/>
      <path id="Trazado_125158" data-name="Trazado 125158" d="M5220.1,1009.715a8.818,8.818,0,0,0,3.508-2.244l-3.547.363C5220.06,1008.464,5220.073,1009.093,5220.1,1009.715Z" transform="translate(-5161.911 -985.448)" fill="#fefefe"/>
      <path id="Trazado_125159" data-name="Trazado 125159" d="M5129.088,1333.582v8.378h-33.734s-.822-6.532,7.9-8.378Z" transform="translate(-5095.333 -1159.524)" fill="#251d44"/>
      <path id="Trazado_125160" data-name="Trazado 125160" d="M5225.933,1034.568s13.055-1.522,19.526.088" transform="translate(-5165.046 -999.565)" fill="none" stroke="#ea755d" stroke-miterlimit="10" stroke-width="1.17"/>
      <line id="Línea_143" data-name="Línea 143" x2="4.527" transform="translate(27.069 75.533)" fill="none" stroke="#ea755d" stroke-miterlimit="10" stroke-width="1.17"/>
    </g>
    <g id="Grupo_56115" data-name="Grupo 56115" transform="translate(4716.217 1003.134)">
      <rect id="Rectángulo_30298" data-name="Rectángulo 30298" width="48.134" height="68.829" rx="15.291" transform="translate(22.553)" fill="#9393cd"/>
      <rect id="Rectángulo_30299" data-name="Rectángulo 30299" width="48.134" height="68.829" rx="15.291" transform="translate(29.119)" fill="#4f538f"/>
      <rect id="Rectángulo_30300" data-name="Rectángulo 30300" width="71.894" height="12.542" rx="6.271" transform="translate(0 82.437)" fill="#4f538f"/>
      <rect id="Rectángulo_30301" data-name="Rectángulo 30301" width="6.203" height="13.608" transform="translate(48.544 68.829)" fill="#fff"/>
      <rect id="Rectángulo_30302" data-name="Rectángulo 30302" width="6.203" height="3.737" transform="translate(48.544 68.829)" fill="#9393cd"/>
      <g id="Grupo_56114" data-name="Grupo 56114" transform="translate(18.413 134.48)">
        <ellipse id="Elipse_4228" data-name="Elipse 4228" cx="18.167" cy="3.524" rx="18.167" ry="3.524" transform="translate(0 6.309)" fill="#fff"/>
        <path id="Trazado_125161" data-name="Trazado 125161" d="M5195.736,1350.542a22.347,22.347,0,0,1,18.347-9.833,21.358,21.358,0,0,1,17.986,9.833Z" transform="translate(-5195.736 -1340.709)" fill="#fff"/>
      </g>
      <rect id="Rectángulo_30303" data-name="Rectángulo 30303" width="6.194" height="49.589" transform="translate(33.664 94.979)" fill="#fff"/>
      <rect id="Rectángulo_30304" data-name="Rectángulo 30304" width="6.194" height="8.271" transform="translate(33.664 94.979)" fill="#9393cd"/>
      <path id="Trazado_125162" data-name="Trazado 125162" d="M5249.554,1129.245h26.62a7.129,7.129,0,0,0,7.129-7.129v-54.571S5251.255,1095.669,5249.554,1129.245Z" transform="translate(-5206.05 -1060.416)" fill="#251d44" opacity="0.5"/>
    </g>
    <path id="Trazado_125163" data-name="Trazado 125163" d="M4406.457,1298.268s35.694,13.607,4.669,14.382-39.171,4.267-34.128,8.534,1.126,11.24-24.847,9.693-24.7-13.492-8.882-16.636,12.828-10.96,22.891-15.974S4406.457,1298.268,4406.457,1298.268Z" transform="translate(0 -179.251)" fill="#f2f2f2" opacity="0.4" style="mix-blend-mode: multiply;isolation: isolate"/>
    <g id="Grupo_56116" data-name="Grupo 56116" transform="translate(4365.344 999.553)">
      <path id="Trazado_125164" data-name="Trazado 125164" d="M4430.733,1114.056c0,1.141-6.068,2.066-13.553,2.066s-13.552-.925-13.552-2.066,6.067-2.066,13.552-2.066S4430.733,1112.915,4430.733,1114.056Z" transform="translate(-4403.629 -1080.56)" fill="#483781"/>
      <path id="Trazado_125165" data-name="Trazado 125165" d="M4422,1049.051c-5.158,0-9.339-.637-9.339-1.424v61.437h18.678v-61.437C4431.343,1048.413,4427.162,1049.051,4422,1049.051Z" transform="translate(-4408.452 -1046.203)" fill="#fefefe"/>
      <path id="Trazado_125166" data-name="Trazado 125166" d="M4412.665,1108.176a48.271,48.271,0,0,0,18.678,0v7.677h-18.678Z" transform="translate(-4408.452 -1078.524)" fill="#94aec2" opacity="0.48"/>
      <ellipse id="Elipse_4229" data-name="Elipse 4229" cx="9.339" cy="1.424" rx="9.339" ry="1.424" transform="translate(4.213 0)" fill="#94aec2"/>
      <path id="Trazado_125167" data-name="Trazado 125167" d="M4432.02,1046.692c0,.2-2.09.356-4.669.356s-4.669-.159-4.669-.356,2.09-.356,4.669-.356S4432.02,1046.495,4432.02,1046.692Z" transform="translate(-4413.799 -1045.514)" fill="#483781"/>
      <path id="Trazado_125168" data-name="Trazado 125168" d="M4417.181,1118.487c-7.484,0-13.552-.925-13.552-2.066v89.149c0,1.141,6.067,2.066,13.552,2.066s13.553-.925,13.553-2.066v-89.149C4430.733,1117.562,4424.665,1118.487,4417.181,1118.487Z" transform="translate(-4403.629 -1082.925)" fill="#ea755d"/>
      <path id="Trazado_125169" data-name="Trazado 125169" d="M4437.564,1118.456v89.149c6.4-.165,11.284-1.012,11.284-2.035v-89.149C4448.848,1117.444,4443.966,1118.291,4437.564,1118.456Z" transform="translate(-4421.744 -1082.925)" fill="#535694" opacity="0.31" style="mix-blend-mode: multiply;isolation: isolate"/>
    </g>
    <g id="Grupo_56117" data-name="Grupo 56117" transform="translate(4343.269 1021.628)">
      <path id="Trazado_125170" data-name="Trazado 125170" d="M4383.382,1161.406c0,1.141-6.067,2.066-13.551,2.066s-13.552-.925-13.552-2.066,6.067-2.066,13.552-2.066S4383.382,1160.265,4383.382,1161.406Z" transform="translate(-4356.279 -1127.91)" fill="#483781"/>
      <path id="Trazado_125171" data-name="Trazado 125171" d="M4374.654,1096.4c-5.158,0-9.339-.638-9.339-1.424v61.436h18.678v-61.436C4383.993,1095.764,4379.811,1096.4,4374.654,1096.4Z" transform="translate(-4361.102 -1093.554)" fill="#fefefe"/>
      <path id="Trazado_125172" data-name="Trazado 125172" d="M4365.315,1155.527a48.263,48.263,0,0,0,18.678,0v7.677h-18.678Z" transform="translate(-4361.102 -1125.874)" fill="#94aec2" opacity="0.48"/>
      <ellipse id="Elipse_4230" data-name="Elipse 4230" cx="9.339" cy="1.424" rx="9.339" ry="1.424" transform="translate(4.213)" fill="#94aec2"/>
      <path id="Trazado_125173" data-name="Trazado 125173" d="M4384.67,1094.042c0,.2-2.091.356-4.669.356s-4.669-.159-4.669-.356,2.09-.356,4.669-.356S4384.67,1093.845,4384.67,1094.042Z" transform="translate(-4366.449 -1092.864)" fill="#483781"/>
      <path id="Trazado_125174" data-name="Trazado 125174" d="M4369.831,1165.838c-7.485,0-13.552-.925-13.552-2.066v89.149c0,1.141,6.067,2.066,13.552,2.066s13.551-.925,13.551-2.066v-89.149C4383.382,1164.913,4377.315,1165.838,4369.831,1165.838Z" transform="translate(-4356.279 -1130.276)" fill="#c2c1df"/>
      <path id="Trazado_125175" data-name="Trazado 125175" d="M4390.214,1165.807v89.149c6.4-.165,11.283-1.012,11.283-2.035v-89.149C4401.5,1164.795,4396.616,1165.642,4390.214,1165.807Z" transform="translate(-4374.394 -1130.276)" fill="#535694" opacity="0.31" style="mix-blend-mode: multiply;isolation: isolate"/>
    </g>
    <g id="Grupo_56118" data-name="Grupo 56118" transform="translate(4388.235 1004.08)">
      <path id="Trazado_125176" data-name="Trazado 125176" d="M4479.833,1123.766c0,1.141-6.068,2.066-13.552,2.066s-13.551-.925-13.551-2.066,6.066-2.066,13.551-2.066S4479.833,1122.625,4479.833,1123.766Z" transform="translate(-4452.73 -1090.27)" fill="#483781"/>
      <path id="Trazado_125177" data-name="Trazado 125177" d="M4471.1,1058.761c-5.158,0-9.339-.637-9.339-1.424v61.436h18.678v-61.436C4480.444,1058.124,4476.263,1058.761,4471.1,1058.761Z" transform="translate(-4457.553 -1055.913)" fill="#fefefe"/>
      <path id="Trazado_125178" data-name="Trazado 125178" d="M4461.766,1117.887a48.276,48.276,0,0,0,18.678,0v7.677h-18.678Z" transform="translate(-4457.553 -1088.234)" fill="#94aec2" opacity="0.48"/>
      <ellipse id="Elipse_4231" data-name="Elipse 4231" cx="9.339" cy="1.424" rx="9.339" ry="1.424" transform="translate(4.213 0)" fill="#94aec2"/>
      <path id="Trazado_125179" data-name="Trazado 125179" d="M4481.121,1056.4c0,.2-2.09.356-4.669.356s-4.669-.159-4.669-.356,2.09-.356,4.669-.356S4481.121,1056.206,4481.121,1056.4Z" transform="translate(-4462.899 -1055.224)" fill="#483781"/>
      <path id="Trazado_125180" data-name="Trazado 125180" d="M4466.281,1128.2c-7.485,0-13.551-.925-13.551-2.066v89.149c0,1.141,6.066,2.066,13.551,2.066s13.552-.925,13.552-2.066v-89.149C4479.833,1127.273,4473.766,1128.2,4466.281,1128.2Z" transform="translate(-4452.73 -1092.635)" fill="#f7c344"/>
      <path id="Trazado_125181" data-name="Trazado 125181" d="M4486.665,1128.166v89.149c6.4-.165,11.283-1.012,11.283-2.035v-89.149C4497.948,1127.155,4493.067,1128,4486.665,1128.166Z" transform="translate(-4470.845 -1092.635)" fill="#535694" opacity="0.31" style="mix-blend-mode: multiply;isolation: isolate"/>
    </g>
    <line id="Línea_144" data-name="Línea 144" y2="89.149" transform="translate(4343.269 1055.124)" fill="none" stroke="#fefefe" stroke-miterlimit="10" stroke-width="1.17"/>
    <line id="Línea_145" data-name="Línea 145" y2="89.149" transform="translate(4388.235 1037.576)" fill="none" stroke="#fefefe" stroke-miterlimit="10" stroke-width="1.17"/>
    <path id="Trazado_125182" data-name="Trazado 125182" d="M4567.18,1340.4s-42.078-.266-60.089,15.12c-13.033,11.132,30.433,19.546,116.143,22.03s199.989-4.814,182.6-4.814-95.084-16.951-131.375-22.249S4617.334,1338.743,4567.18,1340.4Z" transform="translate(-92.297 -202.791)" fill="#f2f2f2" opacity="0.4" style="mix-blend-mode: multiply;isolation: isolate"/>
    <g id="Grupo_56119" data-name="Grupo 56119" transform="translate(4558.763 1083.774)">
      <rect id="Rectángulo_30305" data-name="Rectángulo 30305" width="7.398" height="58.895" transform="translate(20.56)" fill="#c9dbe7"/>
      <rect id="Rectángulo_30306" data-name="Rectángulo 30306" width="10.494" height="58.895" transform="translate(10.066)" fill="#94aec2"/>
      <rect id="Rectángulo_30307" data-name="Rectángulo 30307" width="31.684" height="10.064" transform="translate(0 58.895)" fill="#94aec2"/>
      <rect id="Rectángulo_30308" data-name="Rectángulo 30308" width="7.455" height="10.064" transform="translate(31.684 58.895)" fill="#c9dbe7"/>
      <rect id="Rectángulo_30309" data-name="Rectángulo 30309" width="17.892" height="10.59" transform="translate(10.066)" fill="#94aec2" style="mix-blend-mode: multiply;isolation: isolate"/>
    </g>
    <path id="Trazado_125183" data-name="Trazado 125183" d="M4733.067,1050.373l19.564,27.017v39.543h-198.97v-66.56Z" transform="translate(-118.371 -48.116)" fill="#c9dbe7"/>
    <path id="Trazado_125184" data-name="Trazado 125184" d="M4752.631,1077.39h-198.97v-27.017h179.406Z" transform="translate(-118.371 -48.116)" fill="#fefefe"/>
    <path id="Trazado_125185" data-name="Trazado 125185" d="M4579.89,1050.373l19.564,27.017v39.543h-45.793v-66.56Z" transform="translate(-118.371 -48.116)" fill="#408b94" opacity="0.38"/>
    <rect id="Rectángulo_30310" data-name="Rectángulo 30310" width="166.296" height="14.957" transform="translate(4445.072 1068.817)" fill="#483781"/>
    <path id="Trazado_125186" data-name="Trazado 125186" d="M4573.691,1050.373l19.564,27.017v39.543h-39.594v-66.56Z" transform="translate(-118.371 -48.116)" fill="#7489a9"/>
    <g id="Grupo_56120" data-name="Grupo 56120" transform="translate(4608.224 1002.257)" opacity="0.38">
      <path id="Trazado_125187" data-name="Trazado 125187" d="M4931.07,1050.373H4924.6l19.564,27.017v39.543h6.472V1077.39Z" transform="translate(-4924.599 -1050.373)" fill="#408b94"/>
    </g>
    <path id="Trazado_125188" data-name="Trazado 125188" d="M4696.494,1028.4h61.866a7.424,7.424,0,0,1,7.105,5.274l5.643,18.65a3.222,3.222,0,0,1-3.084,4.155h-61.866a7.423,7.423,0,0,1-7.105-5.274l-5.643-18.65A3.223,3.223,0,0,1,4696.494,1028.4Z" transform="translate(-192.894 -36.385)" fill="#c9dbe7"/>
    <path id="Trazado_125189" data-name="Trazado 125189" d="M4770.708,1052.744h-61.866a7.424,7.424,0,0,1-7.106-5.274l-5.643-18.649c-.03-.1-.033-.2-.054-.307a3.208,3.208,0,0,0-2.628,4.1l5.642,18.65a7.424,7.424,0,0,0,7.106,5.274h61.866a3.209,3.209,0,0,0,3.139-3.849A3.113,3.113,0,0,1,4770.708,1052.744Z" transform="translate(-192.894 -36.448)" fill="#94aec2"/>
    <path id="Trazado_125190" data-name="Trazado 125190" d="M4717.5,1037.469l3.605,12.419a2.3,2.3,0,0,0,2.213,1.661h20.293a2,2,0,0,0,1.916-2.552l-3.605-12.419a2.3,2.3,0,0,0-2.213-1.662h-20.293A2,2,0,0,0,4717.5,1037.469Z" transform="translate(-205.783 -39.866)" fill="#ea755d"/>
    <path id="Trazado_125191" data-name="Trazado 125191" d="M4745.538,1049l-3.605-12.419a2.305,2.305,0,0,0-2.213-1.662h-20.293a1.991,1.991,0,0,0-1.987,1.967,1.965,1.965,0,0,1,.6-.1h20.293a2.3,2.3,0,0,1,2.213,1.662l3.606,12.419a2.018,2.018,0,0,1,.07.585A1.99,1.99,0,0,0,4745.538,1049Z" transform="translate(-205.794 -39.866)" fill="#94aec2"/>
    <path id="Trazado_125192" data-name="Trazado 125192" d="M4785,1049.954l-4.009-12.428a2,2,0,0,1,1.9-2.607h21.855a2.3,2.3,0,0,1,2.2,1.618l3.875,12.425a2,2,0,0,1-1.906,2.589h-21.721A2.3,2.3,0,0,1,4785,1049.954Z" transform="translate(-239.666 -39.866)" fill="#f7c344"/>
    <path id="Trazado_125193" data-name="Trazado 125193" d="M4810.844,1048.961l-3.875-12.425a2.3,2.3,0,0,0-2.2-1.618h-21.854a1.988,1.988,0,0,0-1.975,1.782,1.991,1.991,0,0,1,.571-.091h21.854a2.306,2.306,0,0,1,2.2,1.618l3.875,12.425a1.968,1.968,0,0,1,.069.808A1.991,1.991,0,0,0,4810.844,1048.961Z" transform="translate(-239.691 -39.866)" fill="#94aec2"/>
    <rect id="Rectángulo_30311" data-name="Rectángulo 30311" width="120.801" height="4.969" transform="translate(4493.983 1032.845)" fill="#483781"/>
    <path id="Trazado_125194" data-name="Trazado 125194" d="M4679.555,1126.642l6.394,13.043H4808.43l-8.074-13.043Z" transform="translate(-185.572 -88.828)" fill="#94aec2"/>
    <path id="Trazado_125195" data-name="Trazado 125195" d="M4590.6,1133.479a2.174,2.174,0,0,1-2.174,2.174h-23.6a2.174,2.174,0,0,1-2.174-2.174h0a2.174,2.174,0,0,1,2.174-2.173h23.6a2.174,2.174,0,0,1,2.174,2.173Z" transform="translate(-123.171 -91.317)" fill="#483781"/>
    <path id="Trazado_125196" data-name="Trazado 125196" d="M4590.6,1152.129a2.174,2.174,0,0,1-2.174,2.174h-23.6a2.174,2.174,0,0,1-2.174-2.174h0a2.174,2.174,0,0,1,2.174-2.173h23.6a2.174,2.174,0,0,1,2.174,2.173Z" transform="translate(-123.171 -101.273)" fill="#483781"/>
    <path id="Trazado_125197" data-name="Trazado 125197" d="M4590.6,1170.78a2.174,2.174,0,0,1-2.174,2.174h-23.6a2.174,2.174,0,0,1-2.174-2.174h0a2.174,2.174,0,0,1,2.174-2.174h23.6a2.174,2.174,0,0,1,2.174,2.174Z" transform="translate(-123.171 -111.228)" fill="#483781"/>
    <path id="Trazado_125198" data-name="Trazado 125198" d="M4789.331,1126.642h-95.855a435.4,435.4,0,0,0,1.034,45.96h96.229C4789.854,1159.726,4789.331,1144.557,4789.331,1126.642Z" transform="translate(-192.895 -88.828)" fill="#94aec2" style="mix-blend-mode: multiply;isolation: isolate"/>
    <path id="Trazado_125199" data-name="Trazado 125199" d="M4713.293,1126.642s-5.59,132.136,41.923,132.136c23.292,0,19.972-16.3,40.031-14.44s13.072,14.44,38.226,14.44h81.518s-3.946-6.288-23.656-11.522c-7.493-1.989-58.2-3.063-58.2-3.063s-23.982,4.182-23.982-117.551Z" transform="translate(-203.473 -88.828)" fill="#9393cd"/>
    <path id="Trazado_125200" data-name="Trazado 125200" d="M4845.46,1358.46s-7.229,1.258-13.749-17.751h-95.522c6.246,18.606,16.042,32.336,31.357,32.336,23.291,0,19.971-16.3,40.031-14.44s13.071,14.44,38.225,14.44h28.029v-13.719C4859.458,1358.756,4845.46,1358.46,4845.46,1358.46Z" transform="translate(-215.803 -203.095)" fill="#9393cd" opacity="0.46" style="mix-blend-mode: multiply;isolation: isolate"/>
    <path id="Trazado_125201" data-name="Trazado 125201" d="M4922.979,1378.784h-40.407l.005.005c.983,0,2.019.036,3.138.14,20.059,1.863,13.072,14.44,38.226,14.44h81.518s-3.947-6.288-23.656-11.522c-7.493-1.989-58.2-3.063-58.2-3.063A2.663,2.663,0,0,1,4922.979,1378.784Z" transform="translate(-293.941 -223.42)" fill="#9393cd"/>
    <path id="Trazado_125202" data-name="Trazado 125202" d="M4713.293,1126.642s-5.59,132.136,41.923,132.136c11.014,0,16.077-3.646,20.476-7.293h0s-13.806,2.542-19.768,1c-35.583-8.528-32.967-109.39-32.3-125.848Z" transform="translate(-203.473 -88.828)" fill="#fff"/>
    <path id="Trazado_125203" data-name="Trazado 125203" d="M4899.358,1126.642c.464,16.863,4.113,114.558,26.4,117.551,2.073.04,3.957.008,5.684-.077-4.721-.968-22.867-11.576-22.867-117.474Z" transform="translate(-302.901 -88.828)" fill="#fff"/>
    <path id="Trazado_125204" data-name="Trazado 125204" d="M4981.8,1381.847c-2.881-.765-12.157-1.394-22.481-1.88l.042,0c11.3.468,27.9,6.107,27.9,6.107h-75.011c-2.787-3.3-7.642-5.687-12.01-7.292h-17.674l.005.005c.983,0,2.019.036,3.138.14,20.059,1.863,13.072,14.44,38.226,14.44h81.518S5001.512,1387.081,4981.8,1381.847Z" transform="translate(-293.941 -223.42)" fill="#fff"/>
    <g id="Grupo_56121" data-name="Grupo 56121" transform="translate(4536.799 1054.911)">
      <circle id="Elipse_4232" data-name="Elipse 4232" cx="19.517" cy="19.517" r="19.517" transform="matrix(0.882, -0.472, 0.472, 0.882, 0, 18.406)" fill="#f7c344"/>
      <circle id="Elipse_4233" data-name="Elipse 4233" cx="19.517" cy="19.517" r="19.517" transform="translate(1.998 52.494) rotate(-45)" fill="#ea755d"/>
      <path id="Trazado_125205" data-name="Trazado 125205" d="M4800.747,1242.274a19.506,19.506,0,0,0,28.645-3.5,19.506,19.506,0,0,0-28.645,3.5Z" transform="translate(-4787.062 -1201.07)" fill="#c2c1df"/>
    </g>
    <g id="Grupo_56122" data-name="Grupo 56122" transform="translate(4453.241 1083.774)">
      <rect id="Rectángulo_30312" data-name="Rectángulo 30312" width="7.398" height="58.895" transform="translate(20.56)" fill="#c9dbe7"/>
      <rect id="Rectángulo_30313" data-name="Rectángulo 30313" width="10.494" height="58.895" transform="translate(10.066)" fill="#94aec2"/>
      <rect id="Rectángulo_30314" data-name="Rectángulo 30314" width="31.684" height="10.064" transform="translate(0 58.895)" fill="#94aec2"/>
      <rect id="Rectángulo_30315" data-name="Rectángulo 30315" width="7.455" height="10.064" transform="translate(31.684 58.895)" fill="#c9dbe7"/>
      <rect id="Rectángulo_30316" data-name="Rectángulo 30316" width="17.892" height="10.59" transform="translate(10.066)" fill="#94aec2" style="mix-blend-mode: multiply;isolation: isolate"/>
    </g>
    <path id="Trazado_125206" data-name="Trazado 125206" d="M4609.921,1050.373l19.565,27.017V1116.1" transform="translate(-148.402 -48.116)" fill="none" stroke="#49597a" stroke-miterlimit="10" stroke-width="1.17"/>
    <path id="Trazado_125207" data-name="Trazado 125207" d="M4924.6,1050.373l19.564,27.017V1116.1" transform="translate(-316.375 -48.116)" fill="none" stroke="#49597a" stroke-miterlimit="10" stroke-width="1.17"/>
    <rect id="Rectángulo_30317" data-name="Rectángulo 30317" width="95.871" height="5.219" transform="translate(4509.82 1037.814)" fill="#9393cd" style="mix-blend-mode: multiply;isolation: isolate"/>
  </g>
</svg>
