<svg xmlns="http://www.w3.org/2000/svg" width="520" height="375.378" viewBox="0 0 520 375.378">
  <g id="Grupo_56418" data-name="Grupo 56418" transform="translate(-1694.293 -1063.492)">
    <path id="Trazado_125500" data-name="Trazado 125500" d="M1906.609,1183.971l10.551,3.517,1.29,29.955-.1,1.7h16.394s-4.25-43.161-4.689-44.546c0,0-24.4-5.609-24.823-6.056-.035.041-8.341-3.508-9.213-2.356-1.36,1.8-12.666,33.818-18.21,52.958h15.906Z" transform="translate(-44.429 -24.805)" fill="#373c7a"/>
    <g id="Grupo_56418-2" data-name="Grupo 56418" transform="translate(1695.701 1377.419)" opacity="0.1">
      <ellipse id="Elipse_4263" data-name="Elipse 4263" cx="259.296" cy="17.283" rx="259.296" ry="17.283"/>
    </g>
    <g id="Grupo_56454" data-name="Grupo 56454" transform="translate(1708.565 1184.555)">
      <g id="Grupo_56424" data-name="Grupo 56424">
        <g id="Grupo_56422" data-name="Grupo 56422">
          <g id="Grupo_56421" data-name="Grupo 56421">
            <g id="Grupo_56420" data-name="Grupo 56420">
              <g id="Grupo_56419" data-name="Grupo 56419">
                <path id="Trazado_125501" data-name="Trazado 125501" d="M1773.137,1437.1h282.209L2017.9,1223.227H1713.124l33.557,191.643A26.858,26.858,0,0,0,1773.137,1437.1Z" transform="translate(-1713.124 -1223.227)" fill="#d5d1de"/>
              </g>
            </g>
          </g>
        </g>
        <g id="Grupo_56423" data-name="Grupo 56423" transform="translate(0 0)">
          <path id="Trazado_125502" data-name="Trazado 125502" d="M1713.125,1223.227l34.466,196.794h7.3l-34.466-196.794Z" transform="translate(-1713.125 -1223.227)" fill="#8a91e6"/>
        </g>
      </g>
      <g id="Grupo_56425" data-name="Grupo 56425" transform="translate(32.429 185.203)">
        <path id="Trazado_125503" data-name="Trazado 125503" d="M2187.018,1496.257h-405.91a24.016,24.016,0,0,1-23.657-19.874l-1.539-8.792h444.625v15.148A13.518,13.518,0,0,1,2187.018,1496.257Z" transform="translate(-1755.912 -1467.591)" fill="#d5d1de"/>
      </g>
      <g id="Grupo_56426" data-name="Grupo 56426" transform="translate(32.429 185.203)">
        <path id="Trazado_125504" data-name="Trazado 125504" d="M1913.641,1482.739v-15.148H1755.912l2.675,15.282a16.175,16.175,0,0,0,15.933,13.384h152.64A13.518,13.518,0,0,1,1913.641,1482.739Z" transform="translate(-1755.912 -1467.591)" fill="#8a91e6"/>
      </g>
      <g id="Grupo_56427" data-name="Grupo 56427" transform="translate(32.429 185.203)">
        <path id="Trazado_125505" data-name="Trazado 125505" d="M1756.693,1472.054h443.843v-4.463H1755.912Z" transform="translate(-1755.912 -1467.591)" fill="#8a91e6"/>
      </g>
      <g id="Grupo_56428" data-name="Grupo 56428" transform="translate(20.429 10.041)">
        <path id="Trazado_125506" data-name="Trazado 125506" d="M2045.144,1401.492l-28.895-165.017H1740.079l28.894,165.017Z" transform="translate(-1740.079 -1236.475)" fill="#7b8dff"/>
      </g>
      <g id="Grupo_56429" data-name="Grupo 56429" transform="translate(155.934 3.208)">
        <path id="Trazado_125507" data-name="Trazado 125507" d="M1926.371,1229.987l-.211-1.2a1.6,1.6,0,0,0-1.573-1.322h-4.121a1.6,1.6,0,0,0-1.573,1.873l.211,1.205a1.6,1.6,0,0,0,1.573,1.322h4.121A1.6,1.6,0,0,0,1926.371,1229.987Z" transform="translate(-1918.869 -1227.46)" fill="#7e72ac"/>
      </g>
      <g id="Grupo_56430" data-name="Grupo 56430" transform="translate(62.693 196.794)">
        <path id="Trazado_125508" data-name="Trazado 125508" d="M1814.636,1482.884h-18.793l.961,5.485H1815.6Z" transform="translate(-1795.843 -1482.884)" fill="#7e72ac"/>
      </g>
      <g id="Grupo_56431" data-name="Grupo 56431" transform="translate(88.715 196.794)">
        <path id="Trazado_125509" data-name="Trazado 125509" d="M1848.971,1482.884h-18.793l.961,5.485h18.793Z" transform="translate(-1830.177 -1482.884)" fill="#7e72ac"/>
      </g>
      <g id="Grupo_56453" data-name="Grupo 56453" transform="translate(20.227 10.041)">
        <g id="Grupo_56432" data-name="Grupo 56432" transform="translate(12.399 13.08)">
          <path id="Trazado_125510" data-name="Trazado 125510" d="M2049.211,1400.992H1781.656l-25.484-147.257h267.555Z" transform="translate(-1756.172 -1253.734)" fill="#310047"/>
        </g>
        <g id="Grupo_56433" data-name="Grupo 56433">
          <path id="Trazado_125511" data-name="Trazado 125511" d="M2020.932,1256.165H1743.284l-3.472-19.689H2017.46Z" transform="translate(-1739.813 -1236.475)" fill="#2a2e5e"/>
        </g>
        <g id="Grupo_56434" data-name="Grupo 56434" transform="translate(238.891 32.584)">
          <path id="Trazado_125512" data-name="Trazado 125512" d="M2114.02,1376.58h-41.882l-17.123-97.111H2096.9Z" transform="translate(-2055.014 -1279.468)" fill="#39accc"/>
        </g>
        <g id="Grupo_56437" data-name="Grupo 56437" transform="translate(266.638 7.015)">
          <g id="Grupo_56435" data-name="Grupo 56435" transform="translate(0 0.001)">
            <path id="Trazado_125513" data-name="Trazado 125513" d="M2098.606,1252.363a.606.606,0,0,1-.393-.144l-6.376-5.42a.606.606,0,0,1,.785-.923L2099,1251.3a.605.605,0,0,1-.393,1.066Z" transform="translate(-2091.624 -1245.733)" fill="#8a91e6"/>
          </g>
          <g id="Grupo_56436" data-name="Grupo 56436" transform="translate(0.956)">
            <path id="Trazado_125514" data-name="Trazado 125514" d="M2093.491,1252.363a.6.6,0,0,1-.384-.138.6.6,0,0,1-.083-.853l4.464-5.42a.605.605,0,0,1,.935.77l-4.465,5.421A.6.6,0,0,1,2093.491,1252.363Z" transform="translate(-2092.885 -1245.732)" fill="#8a91e6"/>
          </g>
        </g>
        <g id="Grupo_56444" data-name="Grupo 56444" transform="translate(37.394 32.261)">
          <g id="Grupo_56440" data-name="Grupo 56440">
            <g id="Grupo_56438" data-name="Grupo 56438">
              <path id="Trazado_125515" data-name="Trazado 125515" d="M1823.589,1283.505h-33.65l-.787-4.464h33.65Z" transform="translate(-1789.152 -1279.041)" fill="#2a2e5e"/>
            </g>
            <g id="Grupo_56439" data-name="Grupo 56439" transform="translate(0.588 3.336)">
              <path id="Trazado_125516" data-name="Trazado 125516" d="M1826.726,1301.3h-33.65l-3.148-17.855h33.65Z" transform="translate(-1789.928 -1283.443)" fill="#ffa800"/>
            </g>
          </g>
          <g id="Grupo_56443" data-name="Grupo 56443" transform="translate(3.737 21.191)">
            <g id="Grupo_56441" data-name="Grupo 56441">
              <path id="Trazado_125517" data-name="Trazado 125517" d="M1828.519,1311.465h-33.65l-.787-4.464h33.65Z" transform="translate(-1794.082 -1307.001)" fill="#2a2e5e"/>
            </g>
            <g id="Grupo_56442" data-name="Grupo 56442" transform="translate(0.588 3.336)">
              <path id="Trazado_125518" data-name="Trazado 125518" d="M1831.656,1329.258h-33.65l-3.148-17.855h33.65Z" transform="translate(-1794.858 -1311.403)" fill="#ffa800"/>
            </g>
          </g>
        </g>
        <g id="Grupo_56445" data-name="Grupo 56445" transform="translate(255.137 6.976)">
          <path id="Trazado_125519" data-name="Trazado 125519" d="M2083.524,1252.39h-5.5a.607.607,0,0,1-.6-.5l-.969-5.5a.605.605,0,0,1,.6-.711h5.5a.606.606,0,0,1,.6.5l.969,5.5a.607.607,0,0,1-.6.711Zm-4.991-1.211h4.271l-.757-4.288h-4.27Z" transform="translate(-2076.45 -1245.68)" fill="#8a91e6"/>
        </g>
        <g id="Grupo_56446" data-name="Grupo 56446" transform="translate(26.965 155.659)">
          <path id="Trazado_125520" data-name="Trazado 125520" d="M2054.689,1451.215H1777.042l-1.65-9.359h277.647Z" transform="translate(-1775.392 -1441.857)" fill="#2a2e5e"/>
        </g>
        <g id="Grupo_56447" data-name="Grupo 56447" transform="translate(3.472 19.689)">
          <path id="Trazado_125521" data-name="Trazado 125521" d="M1781,1398.424h-13.111l-23.494-135.969H1757.5Z" transform="translate(-1744.393 -1262.454)" fill="#2a2e5e"/>
        </g>
        <g id="Grupo_56448" data-name="Grupo 56448" transform="translate(241.737 48.723)">
          <path id="Trazado_125522" data-name="Trazado 125522" d="M2101.3,1304.418h-41.883l-.645-3.656h41.883Z" transform="translate(-2058.769 -1300.762)" fill="#2a2e5e"/>
        </g>
        <g id="Grupo_56449" data-name="Grupo 56449" transform="translate(245.227 68.518)">
          <path id="Trazado_125523" data-name="Trazado 125523" d="M2105.9,1330.536h-41.883l-.645-3.656h41.882Z" transform="translate(-2063.375 -1326.88)" fill="#2a2e5e"/>
        </g>
        <g id="Grupo_56450" data-name="Grupo 56450" transform="translate(248.718 88.312)">
          <path id="Trazado_125524" data-name="Trazado 125524" d="M2110.507,1356.654h-41.883l-.645-3.656h41.882Z" transform="translate(-2067.98 -1352.998)" fill="#2a2e5e"/>
        </g>
        <g id="Grupo_56451" data-name="Grupo 56451" transform="translate(252.208 108.107)">
          <path id="Trazado_125525" data-name="Trazado 125525" d="M2115.112,1382.772h-41.883l-.645-3.656h41.883Z" transform="translate(-2072.585 -1379.116)" fill="#2a2e5e"/>
        </g>
        <g id="Grupo_56452" data-name="Grupo 56452" transform="translate(75.077 32.258)">
          <path id="Trazado_125526" data-name="Trazado 125526" d="M2015.664,1381.662h-158.7l-18.1-102.625h158.7Z" transform="translate(-1838.872 -1279.037)" fill="#fff"/>
        </g>
      </g>
    </g>
    <g id="Grupo_56508" data-name="Grupo 56508" transform="translate(1694.293 1234.733)">
      <g id="Grupo_56465" data-name="Grupo 56465" transform="translate(85.56 113.257)">
        <g id="Grupo_56464" data-name="Grupo 56464">
          <g id="Grupo_56456" data-name="Grupo 56456" transform="translate(1.09)">
            <g id="Grupo_56455" data-name="Grupo 56455">
              <path id="Trazado_125527" data-name="Trazado 125527" d="M1814.222,1453.289l-5.6-1.1,6.218-13.316,4.781,2.7Z" transform="translate(-1808.622 -1438.869)" fill="#d5d1de"/>
            </g>
          </g>
          <g id="Grupo_56463" data-name="Grupo 56463" transform="translate(0 9.43)">
            <g id="Grupo_56458" data-name="Grupo 56458">
              <g id="Grupo_56457" data-name="Grupo 56457">
                <path id="Trazado_125528" data-name="Trazado 125528" d="M1829.38,1463.321c-.046-1.667-.681-6.511-4.192-6.511l-5.832-.083-1.232-4.165c-.418-1.378-1.819-1.514-2.108-.91-1,2.077-1.275,3.032-2.477,3.094l-4.461-.059c-1.948,0-1.835,1.138-1.852,2.574,0,0-.051,4.888-.042,6.059Z" transform="translate(-1807.184 -1451.312)" fill="#2a2e5e"/>
              </g>
            </g>
            <g id="Grupo_56460" data-name="Grupo 56460" transform="translate(16.124 5.472)">
              <g id="Grupo_56459" data-name="Grupo 56459">
                <path id="Trazado_125529" data-name="Trazado 125529" d="M1828.458,1465.069h6.073c-.046-1.667-.681-6.511-4.192-6.511l-1.881-.027Z" transform="translate(-1828.458 -1458.531)" fill="#373c7a"/>
              </g>
            </g>
            <g id="Grupo_56462" data-name="Grupo 56462" transform="translate(0 11.917)">
              <g id="Grupo_56461" data-name="Grupo 56461">
                <path id="Trazado_125530" data-name="Trazado 125530" d="M1829.5,1468.629h-22.209l-.108-1.594h22.209Z" transform="translate(-1807.184 -1467.035)" fill="#373c7a"/>
              </g>
            </g>
          </g>
        </g>
      </g>
      <g id="Grupo_56467" data-name="Grupo 56467" transform="translate(53.369 77.458)">
        <g id="Grupo_56466" data-name="Grupo 56466">
          <path id="Trazado_125531" data-name="Trazado 125531" d="M1798.7,1432.1l10.285,2.539c31.286-59.293-13.6-47.588-44.28-22.4q4.62,4.176,9.24,8.352c11.589-10.577,29.316-20.351,34.346-16.738C1811.314,1406.025,1806.992,1416.126,1798.7,1432.1Z" transform="translate(-1764.71 -1391.634)" fill="#2a2e5e"/>
        </g>
      </g>
      <g id="Grupo_56468" data-name="Grupo 56468" transform="translate(61.434 50.13)">
        <path id="Trazado_125532" data-name="Trazado 125532" d="M1791.353,1389.969a13.38,13.38,0,0,1-5.173-1c-7.827-3.247-11.441-13.58-10.744-30.71a2.792,2.792,0,1,1,5.579.227c-.576,14.139,2.018,23.133,7.3,25.326,5.088,2.108,13.541-1.922,21.036-10.038a2.792,2.792,0,0,1,4.1,3.79C1807.49,1384.02,1799.085,1389.969,1791.353,1389.969Z" transform="translate(-1775.351 -1355.577)" fill="#fe9b88"/>
      </g>
      <g id="Grupo_56484" data-name="Grupo 56484" transform="translate(0 50.066)">
        <g id="Grupo_56483" data-name="Grupo 56483">
          <g id="Grupo_56469" data-name="Grupo 56469" transform="translate(36.711 0.046)">
            <path id="Trazado_125533" data-name="Trazado 125533" d="M1742.908,1384.292l-.177-28.739,90.109.063.177,28.739Z" transform="translate(-1742.731 -1355.553)" fill="#d5d1de"/>
          </g>
          <g id="Grupo_56470" data-name="Grupo 56470" transform="translate(4.301)">
            <rect id="Rectángulo_30453" data-name="Rectángulo 30453" width="28.739" height="39.836" transform="translate(39.835 0) rotate(89.646)" fill="#d5d1de"/>
          </g>
          <g id="Grupo_56471" data-name="Grupo 56471" transform="translate(126.82 0.109)">
            <path id="Trazado_125534" data-name="Trazado 125534" d="M1889.162,1368.649l-27.538-13.013.177,28.739,27.361-11.808Z" transform="translate(-1861.624 -1355.636)" fill="#8a91e6"/>
          </g>
          <g id="Grupo_56472" data-name="Grupo 56472" transform="translate(121.706 0.217)">
            <path id="Trazado_125535" data-name="Trazado 125535" d="M1859.178,1355.779h0c5.852-.036,6.028,28.455.176,28.49h0C1853.5,1384.306,1853.326,1355.815,1859.178,1355.779Z" transform="translate(-1854.876 -1355.779)" fill="#d5d1de"/>
          </g>
          <g id="Grupo_56473" data-name="Grupo 56473" transform="translate(150.098 11.108)">
            <path id="Trazado_125536" data-name="Trazado 125536" d="M1892.338,1370.149a30.973,30.973,0,0,1,.077,7.737l5.429-1.975a2.031,2.031,0,0,0,.068-3.518Z" transform="translate(-1892.338 -1370.149)" fill="#7e72ac"/>
          </g>
          <g id="Grupo_56474" data-name="Grupo 56474" transform="translate(0 0.246)">
            <path id="Trazado_125537" data-name="Trazado 125537" d="M1698.594,1355.817h0c5.852-.036,6.029,28.7.177,28.739h0C1692.92,1384.592,1692.742,1355.853,1698.594,1355.817Z" transform="translate(-1694.293 -1355.817)" fill="#8a91e6"/>
          </g>
          <g id="Grupo_56477" data-name="Grupo 56477" transform="translate(77.605 4.102)">
            <g id="Grupo_56475" data-name="Grupo 56475">
              <path id="Trazado_125538" data-name="Trazado 125538" d="M1811.981,1360.905h-13.2a2.1,2.1,0,1,0,0,4.191h13.2Z" transform="translate(-1796.687 -1360.905)" fill="#7e72ac"/>
            </g>
            <g id="Grupo_56476" data-name="Grupo 56476" transform="translate(18.047)">
              <path id="Trazado_125539" data-name="Trazado 125539" d="M1833.74,1360.905H1820.5v4.191h13.24a2.1,2.1,0,0,0,0-4.191Z" transform="translate(-1820.499 -1360.905)" fill="#7e72ac"/>
            </g>
          </g>
          <g id="Grupo_56480" data-name="Grupo 56480" transform="translate(77.605 2.661)">
            <g id="Grupo_56478" data-name="Grupo 56478">
              <path id="Trazado_125540" data-name="Trazado 125540" d="M1811.981,1359h-13.2a2.1,2.1,0,0,0,0,4.191h13.2Z" transform="translate(-1796.687 -1359.003)" fill="#8a91e6"/>
            </g>
            <g id="Grupo_56479" data-name="Grupo 56479" transform="translate(18.047)">
              <path id="Trazado_125541" data-name="Trazado 125541" d="M1833.74,1359H1820.5v4.191h13.24a2.1,2.1,0,0,0,0-4.191Z" transform="translate(-1820.499 -1359.003)" fill="#8a91e6"/>
            </g>
          </g>
          <g id="Grupo_56481" data-name="Grupo 56481" transform="translate(2.78 9.347)">
            <path id="Trazado_125542" data-name="Trazado 125542" d="M1699.538,1367.825h0c2.146-.014,2.211,10.524.065,10.538h0C1697.458,1378.376,1697.393,1367.838,1699.538,1367.825Z" transform="translate(-1697.961 -1367.825)" fill="#7e72ac"/>
          </g>
          <g id="Grupo_56482" data-name="Grupo 56482" transform="translate(0.001 0)" opacity="0.05">
            <path id="Trazado_125543" data-name="Trazado 125543" d="M1850.877,1371.119a2.023,2.023,0,0,0-.911-2.275l-5.574-2.243-23.279-11v0l-82.684-.057v-.051l-7.424.046h0l-32.41.2c-3.06.019-4.47,7.884-4.284,15.381Z" transform="translate(-1694.294 -1355.493)"/>
          </g>
        </g>
      </g>
      <g id="Grupo_56485" data-name="Grupo 56485" transform="translate(3.286 192.054)" opacity="0.1">
        <path id="Trazado_125544" data-name="Trazado 125544" d="M1698.628,1548.879c0,3.336,21.911,6.041,48.941,6.041s48.941-2.7,48.941-6.041-21.912-6.042-48.941-6.042S1698.628,1545.542,1698.628,1548.879Z" transform="translate(-1698.628 -1542.837)"/>
      </g>
      <g id="Grupo_56496" data-name="Grupo 56496" transform="translate(33.703 174.875)">
        <g id="Grupo_56488" data-name="Grupo 56488" transform="translate(2.61 8.393)">
          <g id="Grupo_56487" data-name="Grupo 56487">
            <g id="Grupo_56486" data-name="Grupo 56486">
              <path id="Trazado_125545" data-name="Trazado 125545" d="M1749.326,1537.812h-7.12v-5.391a1.175,1.175,0,0,1,1.175-1.176h4.77a1.175,1.175,0,0,1,1.175,1.176Z" transform="translate(-1742.206 -1531.245)" fill="#363a68"/>
            </g>
          </g>
        </g>
        <g id="Grupo_56491" data-name="Grupo 56491" transform="translate(1.553)">
          <g id="Grupo_56490" data-name="Grupo 56490">
            <g id="Grupo_56489" data-name="Grupo 56489">
              <rect id="Rectángulo_30454" data-name="Rectángulo 30454" width="6.092" height="13.084" fill="#d5d1de"/>
            </g>
          </g>
        </g>
        <g id="Grupo_56493" data-name="Grupo 56493" transform="translate(0 13.084)">
          <g id="Grupo_56492" data-name="Grupo 56492">
            <path id="Rectángulo_30455" data-name="Rectángulo 30455" d="M1.447,0h6.9A3.023,3.023,0,0,1,11.37,3.023V6.972a0,0,0,0,1,0,0H0a0,0,0,0,1,0,0V1.447A1.447,1.447,0,0,1,1.447,0Z" fill="#2a2e5e"/>
          </g>
        </g>
        <g id="Grupo_56495" data-name="Grupo 56495" transform="translate(0 20.056)">
          <g id="Grupo_56494" data-name="Grupo 56494">
            <path id="Trazado_125546" data-name="Trazado 125546" d="M1738.762,1546.634h11.37l.108,2.015h-11.37Z" transform="translate(-1738.762 -1546.634)" fill="#373c7a"/>
          </g>
        </g>
      </g>
      <g id="Grupo_56498" data-name="Grupo 56498" transform="translate(32.411 97.299)">
        <g id="Grupo_56497" data-name="Grupo 56497">
          <path id="Trazado_125547" data-name="Trazado 125547" d="M1747.045,1501.933c-3.382,0-5.236,0-8.618,0l-1.37-84.117c3.382,0,8.426,0,11.808,0Z" transform="translate(-1737.057 -1417.814)" fill="#2a2e5e"/>
        </g>
      </g>
      <g id="Grupo_56499" data-name="Grupo 56499" transform="translate(30.425 88.886)">
        <path id="Trazado_125548" data-name="Trazado 125548" d="M1737.371,1424.444c7.583,2.558,31.733.146,31.824.116l.977-14.731s-27.776-6.541-34.467-.668C1733.428,1411.158,1734.356,1423.426,1737.371,1424.444Z" transform="translate(-1734.436 -1406.713)" fill="#2a2e5e"/>
      </g>
      <g id="Grupo_56500" data-name="Grupo 56500" transform="translate(30.344 34.871)">
        <path id="Trazado_125549" data-name="Trazado 125549" d="M1770.146,1392.574l-34.467-.668-1.349-43.13a13.333,13.333,0,0,1,13.332-13.332H1759.6c7.364,0,12.247,4.883,12.247,12.246Z" transform="translate(-1734.33 -1335.444)" fill="#8a91e6"/>
      </g>
      <g id="Grupo_56501" data-name="Grupo 56501" transform="translate(61.435 50.13)">
        <path id="Trazado_125550" data-name="Trazado 125550" d="M1789.843,1389.864a2.8,2.8,0,0,1-.362-.024,12.687,12.687,0,0,1-5.536-2.079,15.218,15.218,0,0,1-4.668-5.251c-2.988-5.313-4.28-13.475-3.84-24.253a2.792,2.792,0,1,1,5.579.227c-.4,9.729.656,16.894,3.129,21.292a9.728,9.728,0,0,0,2.933,3.364,7.052,7.052,0,0,0,3.122,1.165,2.792,2.792,0,0,1-.355,5.561Z" transform="translate(-1775.353 -1355.577)" fill="#fe9b88"/>
      </g>
      <g id="Grupo_56502" data-name="Grupo 56502" transform="translate(55.676 38.404)">
        <path id="Trazado_125551" data-name="Trazado 125551" d="M1780.378,1362.3s-7.564.321-11.516-.042a20.635,20.635,0,0,1-.415-12.013,20.1,20.1,0,0,1,6.189-10.119C1775.51,1339.364,1781.93,1355.967,1780.378,1362.3Z" transform="translate(-1767.754 -1340.105)" fill="#8a91e6"/>
      </g>
      <g id="Grupo_56507" data-name="Grupo 56507" transform="translate(32.841)">
        <g id="Grupo_56503" data-name="Grupo 56503" transform="translate(25.669 16.355)">
          <path id="Trazado_125552" data-name="Trazado 125552" d="M1772.825,1317.164h-1.332v-6.151h1.754l1.3,3.583a1.9,1.9,0,0,1-1.547,2.56C1772.943,1317.161,1772.885,1317.164,1772.825,1317.164Z" transform="translate(-1771.493 -1311.013)" fill="#fe8d77"/>
        </g>
        <g id="Grupo_56504" data-name="Grupo 56504" transform="translate(15.445 10.234)">
          <path id="Trazado_125553" data-name="Trazado 125553" d="M1764.584,1325.723H1758v-22.786h11.976c.2,0,.305,15.66.305,15.66C1770.285,1323.847,1767.942,1325.723,1764.584,1325.723Z" transform="translate(-1758.003 -1302.937)" fill="#fe9b88"/>
        </g>
        <g id="Grupo_56505" data-name="Grupo 56505" transform="translate(26.763 14.278)">
          <path id="Trazado_125554" data-name="Trazado 125554" d="M1773.856,1309h-.554a.365.365,0,0,1-.365-.365h0a.365.365,0,0,1,.365-.365h.554a.366.366,0,0,1,.365.365h0A.366.366,0,0,1,1773.856,1309Z" transform="translate(-1772.937 -1308.273)" fill="#310047"/>
        </g>
        <g id="Grupo_56506" data-name="Grupo 56506">
          <path id="Trazado_125555" data-name="Trazado 125555" d="M1762.506,1289.434h-11.4a6.145,6.145,0,0,0-.723.047c-.309-.024-.618-.047-.934-.047h0a11.819,11.819,0,0,0-11.819,11.819v28.15a11.819,11.819,0,0,0,11.819,11.819h0a11.819,11.819,0,0,0,11.819-11.819v-26.136a1.437,1.437,0,0,1,1.437-1.436h0a6.2,6.2,0,0,0,6.131-7.117A6.323,6.323,0,0,0,1762.506,1289.434Z" transform="translate(-1737.625 -1289.434)" fill="#373c7a"/>
        </g>
      </g>
    </g>
    <g id="Grupo_56565" data-name="Grupo 56565" transform="translate(2012.286 1229.777)">
      <g id="Grupo_56516" data-name="Grupo 56516" transform="translate(29.045 120.629)">
        <g id="Grupo_56515" data-name="Grupo 56515">
          <g id="Grupo_56510" data-name="Grupo 56510" transform="translate(9.426 14.818)">
            <g id="Grupo_56509" data-name="Grupo 56509" transform="translate(0 0)">
              <rect id="Rectángulo_30456" data-name="Rectángulo 30456" width="6.299" height="13.528" transform="translate(0 6.298) rotate(-89.32)" fill="#d5d1de"/>
            </g>
          </g>
          <g id="Grupo_56514" data-name="Grupo 56514">
            <g id="Grupo_56512" data-name="Grupo 56512" transform="translate(1.524 4.641)">
              <g id="Grupo_56511" data-name="Grupo 56511">
                <path id="Trazado_125556" data-name="Trazado 125556" d="M2154.2,1449.39c.452.061,7.139-3.09,7.1.54l.009,4.085,4.29,1.325a1.77,1.77,0,0,1,1.426,1.528l.012.974c0,.24-.141.324-.41.337-2.258.127-3.34.321-3.338,1.526l0,4.963c-.023,2.014-1.2,1.883-2.684,1.882,0,0-5.053-.007-6.264-.031Z" transform="translate(-2154.198 -1448.179)" fill="#373c7a"/>
              </g>
            </g>
            <g id="Grupo_56513" data-name="Grupo 56513">
              <path id="Trazado_125557" data-name="Trazado 125557" d="M2153.947,1465.037l.2-16.669,6.664.08,0-1.946c.042-3.569-4.786-4.318-6.585-4.407v-.017l-1.759-.021-.273,22.96Z" transform="translate(-2152.187 -1442.056)" fill="#2a2e5e"/>
            </g>
          </g>
        </g>
      </g>
      <g id="Grupo_56524" data-name="Grupo 56524" transform="translate(32.474 143.045)">
        <g id="Grupo_56523" data-name="Grupo 56523">
          <g id="Grupo_56518" data-name="Grupo 56518" transform="translate(16.45 0.577)">
            <g id="Grupo_56517" data-name="Grupo 56517" transform="translate(0 0)">
              <rect id="Rectángulo_30457" data-name="Rectángulo 30457" width="6.299" height="13.528" transform="translate(3.866 13.275) rotate(-127.858)" fill="#d5d1de"/>
            </g>
          </g>
          <g id="Grupo_56522" data-name="Grupo 56522">
            <g id="Grupo_56520" data-name="Grupo 56520" transform="translate(4.625 2.119)">
              <g id="Grupo_56519" data-name="Grupo 56519">
                <path id="Trazado_125558" data-name="Trazado 125558" d="M2162.813,1479.145c.392-.233,3.659-6.865,5.888-4l2.552,3.19,4.18-1.637a1.773,1.773,0,0,1,2.068.307l.615.754c.15.188.093.341-.111.518-1.686,1.507-2.413,2.332-1.66,3.273l3.094,3.88c1.236,1.59.235,2.22-.926,3.144,0,0-3.958,3.143-4.92,3.879Z" transform="translate(-2162.813 -1474.428)" fill="#373c7a"/>
              </g>
            </g>
            <g id="Grupo_56521" data-name="Grupo 56521">
              <path id="Trazado_125559" data-name="Trazado 125559" d="M2172.192,1491.72l-10.23-13.162,5.261-4.09-1.216-1.519c-2.191-2.819-6.435-.4-7.9.655l-.011-.014-1.389,1.08L2170.8,1492.8Z" transform="translate(-2156.711 -1471.633)" fill="#2a2e5e"/>
            </g>
          </g>
        </g>
      </g>
      <g id="Grupo_56525" data-name="Grupo 56525" transform="translate(133.465 120.274)">
        <path id="Trazado_125560" data-name="Trazado 125560" d="M2289.963,1458.485H2323.2l1.157-16.9-34,5.164Z" transform="translate(-2289.963 -1441.588)" fill="#373c7a"/>
      </g>
      <g id="Grupo_56526" data-name="Grupo 56526" transform="translate(62.661 108.478)">
        <path id="Trazado_125561" data-name="Trazado 125561" d="M2276.313,1461.3c.527.16-.47-9.176,6.422-12.278-43.372-31.434-38.861-31.833-86.194,6.184l8.069,9.7C2247.363,1431.031,2234.328,1434.483,2276.313,1461.3Z" transform="translate(-2196.541 -1426.023)" fill="#373c7a"/>
      </g>
      <g id="Grupo_56527" data-name="Grupo 56527" transform="translate(79.608 73.904)">
        <path id="Trazado_125562" data-name="Trazado 125562" d="M2223.16,1388.575a2.886,2.886,0,0,1-2.508-1.455l-1.369-2.393a2.886,2.886,0,1,1,5.009-2.869l1.371,2.4a2.887,2.887,0,0,1-2.5,4.319Z" transform="translate(-2218.901 -1380.405)" fill="#fe9b88"/>
      </g>
      <path id="Trazado_125563" data-name="Trazado 125563" d="M2287.919,1468.284H2178.752v-11.723l120.743-2.344v2.344A11.7,11.7,0,0,1,2287.919,1468.284Z" transform="translate(-2129.573 -1324.371)" fill="#2a2e5e"/>
      <path id="Trazado_125564" data-name="Trazado 125564" d="M2245.755,1426.97c-13.005-3.837-29.817,10.6-58.8,33.883l8.07,9.7c25.3-20.05,38.332-32.591,47.524-29.385Z" transform="translate(-2131.559 -1317.626)" fill="#373c7a"/>
      <path id="Trazado_125565" data-name="Trazado 125565" d="M2326.831,1453.989l-35.168,2.344V1438.75h35.168Z" transform="translate(-2156.909 -1320.627)" fill="#2a2e5e"/>
      <g id="Grupo_56528" data-name="Grupo 56528" transform="translate(136.272 27.826)">
        <path id="Trazado_125566" data-name="Trazado 125566" d="M2311.319,1378.9h0a17.293,17.293,0,0,1-17.441-17.144l-.211-24.7a17.293,17.293,0,0,1,17.145-17.44h0a17.293,17.293,0,0,1,17.441,17.144l.211,24.7A17.293,17.293,0,0,1,2311.319,1378.9Z" transform="translate(-2293.666 -1319.609)" fill="#0e3266"/>
      </g>
      <g id="Grupo_56529" data-name="Grupo 56529" transform="translate(100.519 67.242)">
        <path id="Trazado_125567" data-name="Trazado 125567" d="M2270.228,1396.556a15.242,15.242,0,0,1-1.9-.12c-10.931-1.368-20.114-13.469-21.833-23.914l5.509-.907c1.361,8.267,8.928,18.27,17.018,19.282,7.241.915,11.938-6.125,14.586-12.184l5.115,2.237C2282.994,1394.05,2275.282,1396.556,2270.228,1396.556Z" transform="translate(-2246.492 -1371.615)" fill="#fe8d77"/>
      </g>
      <g id="Grupo_56530" data-name="Grupo 56530" transform="translate(130.841 72.6)">
        <path id="Trazado_125568" data-name="Trazado 125568" d="M2303.324,1385.51c-1.6,5.377-3.8,7.807-8.019,11.51-6.043-1.9-7.86-4-8.8-8.113a65.555,65.555,0,0,0,4.689-10.221C2296.2,1380.1,2299.018,1382.589,2303.324,1385.51Z" transform="translate(-2286.5 -1378.685)" fill="#2a95ad"/>
      </g>
      <g id="Grupo_56531" data-name="Grupo 56531" transform="translate(134.389 63.857)">
        <path id="Trazado_125569" data-name="Trazado 125569" d="M2330.231,1428.449a68.134,68.134,0,0,1-38.685-3.517l-.365-44.241a13.784,13.784,0,0,1,14.024-13.54l12.341.216a13.783,13.783,0,0,1,13.54,14.023Z" transform="translate(-2291.182 -1367.149)" fill="#39accc"/>
      </g>
      <g id="Grupo_56556" data-name="Grupo 56556" transform="translate(137.65 32.106)">
        <g id="Grupo_56532" data-name="Grupo 56532" transform="translate(11.34 19.737)">
          <path id="Trazado_125570" data-name="Trazado 125570" d="M2315.971,1351.3l4.69.083-.252,14.4a4.981,4.981,0,0,1-5.067,4.893h0a4.982,4.982,0,0,1-4.893-5.068l.124-7.029Z" transform="translate(-2310.447 -1351.298)" fill="#fe8d77"/>
        </g>
        <g id="Grupo_56555" data-name="Grupo 56555">
          <g id="Grupo_56533" data-name="Grupo 56533" transform="translate(0 12.208)">
            <path id="Trazado_125571" data-name="Trazado 125571" d="M2297.925,1341.363l.151,6.781a3.279,3.279,0,0,1-2.591-2.8l.02-1.333A2.921,2.921,0,0,1,2297.925,1341.363Z" transform="translate(-2295.485 -1341.363)" fill="#fe8d77"/>
          </g>
          <g id="Grupo_56534" data-name="Grupo 56534" transform="translate(2.246 3.914)">
            <path id="Trazado_125572" data-name="Trazado 125572" d="M2298.6,1348.259l-.152-10.054c.1-5,1.479-7.948,5.827-7.778l13.9.209-.029,16.443C2317.921,1359.66,2298.848,1359.814,2298.6,1348.259Z" transform="translate(-2298.448 -1330.42)" fill="#fe9b88"/>
          </g>
          <g id="Grupo_56547" data-name="Grupo 56547" transform="translate(4.643 14.715)">
            <g id="Grupo_56546" data-name="Grupo 56546">
              <g id="Grupo_56540" data-name="Grupo 56540">
                <g id="Grupo_56539" data-name="Grupo 56539">
                  <g id="Grupo_56538" data-name="Grupo 56538">
                    <g id="Grupo_56537" data-name="Grupo 56537">
                      <g id="Grupo_56536" data-name="Grupo 56536">
                        <g id="Grupo_56535" data-name="Grupo 56535">
                          <path id="Trazado_125573" data-name="Trazado 125573" d="M2303.587,1345.675a.988.988,0,1,1-.973-1A.988.988,0,0,1,2303.587,1345.675Z" transform="translate(-2301.611 -1344.672)" fill="#082951"/>
                        </g>
                      </g>
                    </g>
                  </g>
                </g>
              </g>
              <g id="Grupo_56545" data-name="Grupo 56545" transform="translate(7.79 0.117)">
                <g id="Grupo_56544" data-name="Grupo 56544">
                  <g id="Grupo_56543" data-name="Grupo 56543">
                    <g id="Grupo_56542" data-name="Grupo 56542">
                      <g id="Grupo_56541" data-name="Grupo 56541">
                        <path id="Trazado_125574" data-name="Trazado 125574" d="M2313.866,1345.83a.988.988,0,1,1-.974-1A.988.988,0,0,1,2313.866,1345.83Z" transform="translate(-2311.89 -1344.827)" fill="#082951"/>
                      </g>
                    </g>
                  </g>
                </g>
              </g>
            </g>
          </g>
          <g id="Grupo_56548" data-name="Grupo 56548" transform="translate(4.228 19.2)">
            <path id="Trazado_125575" data-name="Trazado 125575" d="M2311.9,1350.753a6.106,6.106,0,0,1-5.9,4.829c-2.692-.04-4.489-2.185-4.931-4.992Z" transform="translate(-2301.064 -1350.589)" fill="#eff4df"/>
          </g>
          <g id="Grupo_56549" data-name="Grupo 56549" transform="translate(7.566 14.471)">
            <path id="Trazado_125576" data-name="Trazado 125576" d="M2307.16,1348.81h-.005a1.822,1.822,0,0,1-1.533-.54c-.366-.561-.033-1.356.518-2.672.132-.314.275-.657.425-1.034a.343.343,0,0,1,.637.255c-.152.38-.3.727-.43,1.044-.4.953-.745,1.776-.577,2.033.052.08.249.218.971.23a.343.343,0,0,1-.006.685Z" transform="translate(-2305.468 -1344.35)" fill="#fe8d77"/>
          </g>
          <g id="Grupo_56550" data-name="Grupo 56550" transform="translate(21.74 12.389)">
            <path id="Trazado_125577" data-name="Trazado 125577" d="M2325.332,1341.619l-1.059-.016-.1,6.915,1.059.016a2.791,2.791,0,0,0,2.833-2.749l.021-1.333A2.792,2.792,0,0,0,2325.332,1341.619Z" transform="translate(-2324.169 -1341.603)" fill="#fe9b88"/>
          </g>
          <g id="Grupo_56551" data-name="Grupo 56551" transform="translate(8.206)">
            <path id="Trazado_125578" data-name="Trazado 125578" d="M2319.4,1335.3l-9.814-.515a3.481,3.481,0,0,1-3.272-3.678h0c.112-1.919.079-5.956,2-5.844l7.483,2.91a3.481,3.481,0,0,1,3.272,3.678h0C2318.96,1333.766,2321.324,1335.408,2319.4,1335.3Z" transform="translate(-2306.312 -1325.256)" fill="#0e3266"/>
          </g>
          <g id="Grupo_56552" data-name="Grupo 56552" transform="translate(12.236 12.309)">
            <path id="Trazado_125579" data-name="Trazado 125579" d="M2313.808,1342.285h-.019l-1.836-.1a.344.344,0,0,1-.323-.362.331.331,0,0,1,.362-.322l1.836.1a.342.342,0,0,1-.02.684Z" transform="translate(-2311.629 -1341.497)" fill="#0e3266"/>
          </g>
          <g id="Grupo_56553" data-name="Grupo 56553" transform="translate(4.185 12.032)">
            <path id="Trazado_125580" data-name="Trazado 125580" d="M2303.185,1341.918h-.02l-1.835-.1a.343.343,0,1,1,.039-.684l1.836.1a.342.342,0,0,1-.02.684Z" transform="translate(-2301.006 -1341.131)" fill="#0e3266"/>
          </g>
          <g id="Grupo_56554" data-name="Grupo 56554" transform="translate(19.291 3.276)">
            <path id="Trazado_125581" data-name="Trazado 125581" d="M2321.1,1329.579l-.158,10.415a3.85,3.85,0,0,0,3.791,3.907h0c2.108.032,4.3.531,4.33-1.578l-.355-8.779a3.851,3.851,0,0,0-3.791-3.908Z" transform="translate(-2320.938 -1329.579)" fill="#0e3266"/>
          </g>
        </g>
      </g>
      <g id="Grupo_56557" data-name="Grupo 56557" transform="translate(141.991 63.857)">
        <path id="Trazado_125582" data-name="Trazado 125582" d="M2312.6,1378.676h0a11.716,11.716,0,0,0,11.852-10.469,13.746,13.746,0,0,0-4.472-.84l-12.342-.216a13.713,13.713,0,0,0-6.422,1.467A11.712,11.712,0,0,0,2312.6,1378.676Z" transform="translate(-2301.212 -1367.149)" fill="#fe8d77"/>
      </g>
      <g id="Grupo_56562" data-name="Grupo 56562" transform="translate(0 0)">
        <g id="Grupo_56558" data-name="Grupo 56558">
          <rect id="Rectángulo_30458" data-name="Rectángulo 30458" width="117.098" height="94.405" transform="matrix(0.963, 0.27, -0.27, 0.963, 25.462, 0)" fill="#8a91e6"/>
        </g>
        <g id="Grupo_56561" data-name="Grupo 56561" transform="translate(8.646 9.265)">
          <g id="Grupo_56559" data-name="Grupo 56559" transform="translate(0 0)">
            <rect id="Rectángulo_30459" data-name="Rectángulo 30459" width="103.46" height="78.981" transform="translate(21.302 0) rotate(15.647)" fill="#fff"/>
          </g>
          <g id="Grupo_56560" data-name="Grupo 56560" transform="translate(0 31.033)">
            <path id="Trazado_125583" data-name="Trazado 125583" d="M2231.974,1383.728l-13.99-47.662-42.509,38.745-11.29-38.464-35.424,32.287-3.488,12.453,99.626,27.9Z" transform="translate(-2125.272 -1336.065)" fill="#ffa800"/>
          </g>
        </g>
      </g>
      <g id="Grupo_56563" data-name="Grupo 56563" transform="translate(106.344 73.785)">
        <path id="Trazado_125584" data-name="Trazado 125584" d="M2277.986,1420.209a76.866,76.866,0,0,1-21.745-3.545,2.886,2.886,0,0,1,1.646-5.532c16.66,4.958,29.746,4.339,38.9-1.836,11.051-7.458,13.445-20.969,13.96-26.432a2.886,2.886,0,0,1,5.747.543c-.593,6.281-3.387,21.839-16.478,30.674C2293.962,1418.164,2286.594,1420.209,2277.986,1420.209Z" transform="translate(-2254.178 -1380.248)" fill="#fe9b88"/>
      </g>
      <g id="Grupo_56564" data-name="Grupo 56564" transform="translate(156.905 67.299)">
        <path id="Trazado_125585" data-name="Trazado 125585" d="M2330.2,1371.691c-.186.157-9.308,20.9-9.309,20.894,1.267,3.722,6.164,5.837,9.9,5.353,3.792-.492,5.478-18.753,5.9-20.283Z" transform="translate(-2320.89 -1371.691)" fill="#39accc"/>
      </g>
    </g>
    <g id="Grupo_56614" data-name="Grupo 56614" transform="translate(1851.073 1063.492)">
      <g id="Grupo_56566" data-name="Grupo 56566" transform="translate(48.743 49.902)">
        <path id="Trazado_125586" data-name="Trazado 125586" d="M1991.48,1169.634c-5.269,0-21.5-3.071-26.013-39.615l5.54-.685c3.187,25.81,12.684,34.83,20.61,34.716,8.029-.143,15.086-9.052,16.068-20.282l5.562.485c-1.246,14.271-10.5,25.183-21.529,25.379C1991.64,1169.634,1991.561,1169.634,1991.48,1169.634Z" transform="translate(-1965.467 -1129.334)" fill="#fe8d77"/>
      </g>
      <g id="Grupo_56567" data-name="Grupo 56567" transform="translate(42.641 49.758)">
        <path id="Trazado_125587" data-name="Trazado 125587" d="M1957.828,1129.411c-1.248,5.469.572,10.742,2.423,16.037,3.652,1.092,9.873-1.341,11.306-3.145-1.262-3.1-.424-7.9.252-12.12A39.7,39.7,0,0,0,1957.828,1129.411Z" transform="translate(-1957.416 -1129.144)" fill="#cf8800"/>
      </g>
      <g id="Grupo_56568" data-name="Grupo 56568" transform="translate(0 28.558)">
        <path id="Trazado_125588" data-name="Trazado 125588" d="M1901.154,1150.5s20.316,13.933,34.523,11.613l21.087-34.712a13.784,13.784,0,0,0-5.558-18.684l-10.855-5.877a13.784,13.784,0,0,0-18.684,5.558Z" transform="translate(-1901.154 -1101.172)" fill="#ffa800"/>
      </g>
      <g id="Grupo_56593" data-name="Grupo 56593" transform="translate(38.792 2.108)">
        <g id="Grupo_56569" data-name="Grupo 56569" transform="translate(0 16.888)">
          <path id="Trazado_125589" data-name="Trazado 125589" d="M1964.854,1090.97l-4.457-2.413-7.41,13.685a5.382,5.382,0,0,0,2.171,7.3h0a5.383,5.383,0,0,0,7.3-2.171l3.617-6.68Z" transform="translate(-1952.337 -1088.557)" fill="#fe8d77"/>
        </g>
        <g id="Grupo_56592" data-name="Grupo 56592" transform="translate(2.212)">
          <g id="Grupo_56570" data-name="Grupo 56570" transform="translate(22.161 23.208)">
            <path id="Trazado_125590" data-name="Trazado 125590" d="M1988.168,1096.9l-3.672,6.18c1.385.376,3.2-.03,3.853-1.238l.676-1.241A3.1,3.1,0,0,0,1988.168,1096.9Z" transform="translate(-1984.496 -1096.895)" fill="#fe8d77"/>
          </g>
          <g id="Grupo_56571" data-name="Grupo 56571" transform="translate(2.111 5.578)">
            <path id="Trazado_125591" data-name="Trazado 125591" d="M1976.83,1100.1l5.377-9.2c2.509-4.666,2.775-8.107-1.327-10.216l-12.937-7.045-8.538,15.194C1953.056,1100.556,1970.581,1110.634,1976.83,1100.1Z" transform="translate(-1958.041 -1073.634)" fill="#fe9b88"/>
          </g>
          <g id="Grupo_56584" data-name="Grupo 56584" transform="translate(12.766 19.775)">
            <g id="Grupo_56583" data-name="Grupo 56583">
              <g id="Grupo_56577" data-name="Grupo 56577" transform="translate(7.253 3.95)">
                <g id="Grupo_56576" data-name="Grupo 56576">
                  <g id="Grupo_56575" data-name="Grupo 56575">
                    <g id="Grupo_56574" data-name="Grupo 56574">
                      <g id="Grupo_56573" data-name="Grupo 56573">
                        <g id="Grupo_56572" data-name="Grupo 56572">
                          <path id="Trazado_125592" data-name="Trazado 125592" d="M1981.8,1098.124a1.048,1.048,0,1,0,1.421-.418A1.048,1.048,0,0,0,1981.8,1098.124Z" transform="translate(-1981.67 -1097.577)" fill="#082951"/>
                        </g>
                      </g>
                    </g>
                  </g>
                </g>
              </g>
              <g id="Grupo_56582" data-name="Grupo 56582">
                <g id="Grupo_56581" data-name="Grupo 56581">
                  <g id="Grupo_56580" data-name="Grupo 56580">
                    <g id="Grupo_56579" data-name="Grupo 56579">
                      <g id="Grupo_56578" data-name="Grupo 56578">
                        <path id="Trazado_125593" data-name="Trazado 125593" d="M1972.227,1092.912a1.048,1.048,0,1,0,1.421-.419A1.047,1.047,0,0,0,1972.227,1092.912Z" transform="translate(-1972.099 -1092.365)" fill="#082951"/>
                      </g>
                    </g>
                  </g>
                </g>
              </g>
            </g>
          </g>
          <g id="Grupo_56585" data-name="Grupo 56585" transform="translate(10.144 23.238)">
            <path id="Trazado_125594" data-name="Trazado 125594" d="M1968.95,1096.935a6.474,6.474,0,0,0,2.933,7.533c2.506,1.365,5.283.321,7.152-2.04Z" transform="translate(-1968.641 -1096.935)" fill="#eff4df"/>
          </g>
          <g id="Grupo_56586" data-name="Grupo 56586" transform="translate(16.177 21.841)">
            <path id="Trazado_125595" data-name="Trazado 125595" d="M1977.855,1099a2.137,2.137,0,0,1-1.083-.386.363.363,0,0,1,.382-.618c.384.237.674.329.815.253.375-.194.453-1.529.53-2.819a.363.363,0,0,1,.725.043c-.108,1.829-.18,3.036-.92,3.42A.962.962,0,0,1,1977.855,1099Z" transform="translate(-1976.6 -1095.091)" fill="#fe8d77"/>
          </g>
          <g id="Grupo_56587" data-name="Grupo 56587" transform="translate(14.131 17.113)">
            <path id="Trazado_125596" data-name="Trazado 125596" d="M1976.012,1090.439a.361.361,0,0,1-.16-.037l-1.749-.861a.363.363,0,0,1,.321-.652l1.749.861a.363.363,0,0,1-.161.689Z" transform="translate(-1973.901 -1088.853)" fill="#0e3266"/>
          </g>
          <g id="Grupo_56588" data-name="Grupo 56588" transform="translate(21.707 21.05)">
            <path id="Trazado_125597" data-name="Trazado 125597" d="M1986.009,1095.635a.362.362,0,0,1-.16-.037l-1.748-.861a.363.363,0,1,1,.32-.652l1.749.861a.363.363,0,0,1-.161.689Z" transform="translate(-1983.898 -1094.048)" fill="#0e3266"/>
          </g>
          <g id="Grupo_56589" data-name="Grupo 56589" transform="translate(0 2.769)">
            <path id="Trazado_125598" data-name="Trazado 125598" d="M1970.884,1073.3l-4.472,8.539c-1.088,1.986-4.83,4.524-7.374,3.147-1.3-.7-5.477-2.129-3.025-7.28.916-1.922,1.824-3.449,3.113-5.693,1.434-2.5,4.661-2.558,7.191-1.187Z" transform="translate(-1955.256 -1069.927)" fill="#0e3266"/>
          </g>
          <g id="Grupo_56590" data-name="Grupo 56590" transform="translate(1.841 12.5)">
            <path id="Trazado_125599" data-name="Trazado 125599" d="M1963.175,1083.264l1.172.638-3.506,6.438-1.172-.638a3.275,3.275,0,0,1-1.674-4.281l.676-1.241A3.275,3.275,0,0,1,1963.175,1083.264Z" transform="translate(-1957.686 -1082.767)" fill="#fe9b88"/>
          </g>
          <g id="Grupo_56591" data-name="Grupo 56591" transform="translate(5.582)">
            <path id="Trazado_125600" data-name="Trazado 125600" d="M1988.286,1074.223l-12.752-7.126a6.247,6.247,0,0,0-8.178,1.743,6.1,6.1,0,0,0-.182,6.694c-.014.021-.032.038-.045.06l-4.309,7.313a1.724,1.724,0,0,0,.763,2.316h0a1.748,1.748,0,0,0,2.406-.472l2.974-5.047a2.037,2.037,0,0,1,2.75-.744l10.428,5.827a6.249,6.249,0,0,0,8.286-1.9A6.11,6.11,0,0,0,1988.286,1074.223Z" transform="translate(-1962.621 -1066.274)" fill="#0e3266"/>
          </g>
        </g>
      </g>
      <g id="Grupo_56594" data-name="Grupo 56594" transform="translate(91.282 58.355)">
        <path id="Trazado_125601" data-name="Trazado 125601" d="M2024.482,1148.166a2.887,2.887,0,0,1-1.991-4.976l2-1.9a2.886,2.886,0,0,1,3.986,4.176l-2,1.906A2.876,2.876,0,0,1,2024.482,1148.166Z" transform="translate(-2021.595 -1140.488)" fill="#fe9b88"/>
      </g>
      <g id="Grupo_56611" data-name="Grupo 56611" transform="translate(48.628 0)">
        <g id="Grupo_56595" data-name="Grupo 56595" transform="translate(0 3.356)">
          <path id="Trazado_125602" data-name="Trazado 125602" d="M1965.385,1169.347l32.011,25.936,82.177-101.427-.069-3.356-31.942-22.58-82.247,98.071Z" transform="translate(-1965.316 -1067.92)" fill="#d5d1de"/>
        </g>
        <g id="Grupo_56596" data-name="Grupo 56596" transform="translate(0)">
          <rect id="Rectángulo_30460" data-name="Rectángulo 30460" width="41.199" height="130.539" transform="matrix(-0.777, -0.63, 0.63, -0.777, 32.011, 127.363)" fill="#fff"/>
        </g>
        <g id="Grupo_56597" data-name="Grupo 56597" transform="translate(97.258 22.626)">
          <path id="Trazado_125603" data-name="Trazado 125603" d="M2094.781,1095.239a5.109,5.109,0,1,0,7.186-.753A5.109,5.109,0,0,0,2094.781,1095.239Z" transform="translate(-2093.641 -1093.346)" fill="#0e3266"/>
        </g>
        <g id="Grupo_56598" data-name="Grupo 56598" transform="translate(95.924 21.295)">
          <path id="Trazado_125604" data-name="Trazado 125604" d="M2098.313,1104.473a6.443,6.443,0,0,1-4.993-10.5h0a6.441,6.441,0,1,1,4.993,10.5Zm-2.922-8.82a3.777,3.777,0,1,0,5.311-.557,3.754,3.754,0,0,0-5.311.557Z" transform="translate(-2091.882 -1091.59)" fill="#373c7a"/>
        </g>
        <g id="Grupo_56601" data-name="Grupo 56601" transform="translate(57.141 19.091)">
          <g id="Grupo_56599" data-name="Grupo 56599" transform="translate(0 0)">
            <rect id="Rectángulo_30461" data-name="Rectángulo 30461" width="35.581" height="20.943" transform="translate(27.646 38.672) rotate(-140.985)" fill="#ffa800"/>
          </g>
          <g id="Grupo_56600" data-name="Grupo 56600" transform="translate(7.827 25.76)">
            <path id="Trazado_125605" data-name="Trazado 125605" d="M2068.421,1137.573a.685.685,0,0,1-.433-.153l-16.7-13.529a.687.687,0,0,1,.865-1.068l16.7,13.53a.687.687,0,0,1-.433,1.221Z" transform="translate(-2051.036 -1122.67)" fill="#a3cfd1"/>
          </g>
        </g>
        <g id="Grupo_56604" data-name="Grupo 56604" transform="translate(40.232 39.961)">
          <g id="Grupo_56602" data-name="Grupo 56602" transform="translate(0 0)">
            <rect id="Rectángulo_30462" data-name="Rectángulo 30462" width="35.581" height="20.943" transform="translate(27.646 38.672) rotate(-140.985)" fill="#8a91e6"/>
          </g>
          <g id="Grupo_56603" data-name="Grupo 56603" transform="translate(7.826 25.76)">
            <path id="Trazado_125606" data-name="Trazado 125606" d="M2046.111,1165.109a.685.685,0,0,1-.433-.153l-16.7-13.528a.688.688,0,0,1,.865-1.069l16.7,13.529a.687.687,0,0,1-.433,1.221Z" transform="translate(-2028.725 -1150.206)" fill="#a3cfd1"/>
          </g>
        </g>
        <g id="Grupo_56607" data-name="Grupo 56607" transform="translate(23.323 60.831)">
          <g id="Grupo_56605" data-name="Grupo 56605" transform="translate(0 0)">
            <rect id="Rectángulo_30463" data-name="Rectángulo 30463" width="35.581" height="20.943" transform="matrix(-0.777, -0.63, 0.63, -0.777, 27.646, 38.672)" fill="#373c7a"/>
          </g>
          <g id="Grupo_56606" data-name="Grupo 56606" transform="translate(7.827 25.76)">
            <path id="Trazado_125607" data-name="Trazado 125607" d="M2023.8,1192.646a.688.688,0,0,1-.433-.153l-16.7-13.529a.687.687,0,0,1,.865-1.069l16.7,13.53a.687.687,0,0,1-.433,1.221Z" transform="translate(-2006.415 -1177.743)" fill="#a3cfd1"/>
          </g>
        </g>
        <g id="Grupo_56610" data-name="Grupo 56610" transform="translate(6.414 81.7)">
          <g id="Grupo_56608" data-name="Grupo 56608" transform="translate(0 0)">
            <rect id="Rectángulo_30464" data-name="Rectángulo 30464" width="35.581" height="20.943" transform="translate(27.646 38.672) rotate(-140.985)" fill="#39accc"/>
          </g>
          <g id="Grupo_56609" data-name="Grupo 56609" transform="translate(7.827 25.76)">
            <path id="Trazado_125608" data-name="Trazado 125608" d="M2001.49,1220.182a.684.684,0,0,1-.432-.153l-16.7-13.529a.687.687,0,0,1,.866-1.068l16.7,13.529a.687.687,0,0,1-.434,1.221Z" transform="translate(-1984.104 -1205.28)" fill="#a3cfd1"/>
          </g>
        </g>
      </g>
      <g id="Grupo_56612" data-name="Grupo 56612" transform="translate(21.715 35.835)">
        <path id="Trazado_125609" data-name="Trazado 125609" d="M1970.853,1171.132a2.9,2.9,0,0,1-.646-.073c-18.709-4.273-31.107-12.268-36.851-23.763-7.06-14.128-1.846-29.051.724-34.811a2.886,2.886,0,0,1,5.272,2.351c-2.235,5.011-6.791,17.955-.832,29.88,4.934,9.876,16.028,16.846,32.972,20.715a2.887,2.887,0,0,1-.64,5.7Z" transform="translate(-1929.806 -1110.774)" fill="#fe9b88"/>
      </g>
      <g id="Grupo_56613" data-name="Grupo 56613" transform="translate(17.898 30.348)">
        <path id="Trazado_125610" data-name="Trazado 125610" d="M1939.729,1103.534c.085.228-.121,24.36-.117,24.356-2.933,2.619-11.158,3.364-14.171,1.107-3.061-2.292,5.322-21.918,5.707-23.458Z" transform="translate(-1924.77 -1103.534)" fill="#ffa800"/>
      </g>
    </g>
    <g id="Grupo_56634" data-name="Grupo 56634" transform="translate(1844.496 1235.624)">
      <g id="Grupo_56615" data-name="Grupo 56615" transform="translate(0 0)">
        <ellipse id="Elipse_4264" data-name="Elipse 4264" cx="22.657" cy="27.02" rx="22.657" ry="27.02" transform="translate(0 33.419) rotate(-47.519)" fill="#4929cf"/>
      </g>
      <g id="Grupo_56616" data-name="Grupo 56616" transform="translate(33.808 10.593)">
        <path id="Trazado_125611" data-name="Trazado 125611" d="M2004.641,1372.142l-45.69-67.556-21.866,67.556Z" transform="translate(-1937.084 -1304.586)" fill="#ffa800"/>
      </g>
      <g id="Grupo_56617" data-name="Grupo 56617" transform="translate(39.782 20.265)">
        <path id="Trazado_125612" data-name="Trazado 125612" d="M1965.155,1332.04a29.535,29.535,0,0,0-7.427-14.692l-12.762,39.429C1958.523,1356.674,1967.553,1345.64,1965.155,1332.04Z" transform="translate(-1944.966 -1317.348)" fill="#8a91e6"/>
      </g>
      <g id="Grupo_56618" data-name="Grupo 56618" transform="translate(2.738 4.812)">
        <path id="Trazado_125613" data-name="Trazado 125613" d="M1901.81,1299.818l-2.356,2.86-3.365-2.86,2.356-2.86Z" transform="translate(-1896.089 -1296.958)" fill="#401671"/>
      </g>
      <g id="Grupo_56619" data-name="Grupo 56619" transform="translate(7.529 31.982)">
        <path id="Trazado_125614" data-name="Trazado 125614" d="M1908.131,1335.668l-2.356,2.861-3.365-2.861,2.356-2.86Z" transform="translate(-1902.41 -1332.808)" fill="#401671"/>
      </g>
      <g id="Grupo_56620" data-name="Grupo 56620" transform="translate(12.319 59.152)">
        <path id="Trazado_125615" data-name="Trazado 125615" d="M1914.452,1371.518l-2.356,2.86-3.365-2.86,2.356-2.86Z" transform="translate(-1908.731 -1368.657)" fill="#401671"/>
      </g>
      <g id="Grupo_56621" data-name="Grupo 56621" transform="translate(5.192 8.646)">
        <path id="Trazado_125616" data-name="Trazado 125616" d="M1909.119,1354.637a.8.8,0,0,1-.781-.656l-9-51.031a.795.795,0,0,1,1.565-.276l9,51.029a.8.8,0,0,1-.645.922A.779.779,0,0,1,1909.119,1354.637Z" transform="translate(-1899.328 -1302.018)" fill="#401671"/>
      </g>
      <g id="Grupo_56632" data-name="Grupo 56632" transform="translate(86.044 7.641)">
        <g id="Grupo_56631" data-name="Grupo 56631">
          <g id="Grupo_56624" data-name="Grupo 56624">
            <g id="Grupo_56622" data-name="Grupo 56622">
              <path id="Trazado_125617" data-name="Trazado 125617" d="M2018.749,1311.524h-10.832l-1.91-10.832h10.832Z" transform="translate(-2006.007 -1300.692)" fill="#4929cf"/>
            </g>
            <g id="Grupo_56623" data-name="Grupo 56623" transform="translate(12.83)">
              <path id="Trazado_125618" data-name="Trazado 125618" d="M2035.677,1311.524h-10.832l-1.91-10.832h10.832Z" transform="translate(-2022.935 -1300.692)" fill="#ffa800"/>
            </g>
          </g>
          <g id="Grupo_56627" data-name="Grupo 56627" transform="translate(2.329 13.207)">
            <g id="Grupo_56625" data-name="Grupo 56625">
              <path id="Trazado_125619" data-name="Trazado 125619" d="M2021.822,1328.95H2010.99l-1.91-10.832h10.832Z" transform="translate(-2009.079 -1318.118)" fill="#ffa800"/>
            </g>
            <g id="Grupo_56626" data-name="Grupo 56626" transform="translate(12.83)">
              <path id="Trazado_125620" data-name="Trazado 125620" d="M2038.75,1328.95h-10.832l-1.91-10.832h10.832Z" transform="translate(-2026.008 -1318.118)" fill="#4929cf"/>
            </g>
          </g>
          <g id="Grupo_56630" data-name="Grupo 56630" transform="translate(4.657 26.414)">
            <g id="Grupo_56628" data-name="Grupo 56628">
              <path id="Trazado_125621" data-name="Trazado 125621" d="M2024.894,1346.376h-10.832l-1.91-10.832h10.832Z" transform="translate(-2012.152 -1335.544)" fill="#4929cf"/>
            </g>
            <g id="Grupo_56629" data-name="Grupo 56629" transform="translate(12.83)">
              <path id="Trazado_125622" data-name="Trazado 125622" d="M2041.823,1346.376H2030.99l-1.91-10.832h10.832Z" transform="translate(-2029.08 -1335.544)" fill="#ffa800"/>
            </g>
          </g>
        </g>
      </g>
      <g id="Grupo_56633" data-name="Grupo 56633" transform="translate(90.369 47.34)">
        <path id="Trazado_125623" data-name="Trazado 125623" d="M2040.792,1356.931h-28.4l-.681-3.859h28.4Z" transform="translate(-2011.713 -1353.072)" fill="#24004d"/>
      </g>
    </g>
  </g>
</svg>
